<?xml version="1.0" standalone="no"?>
<!DOCTYPE svg PUBLIC "-//W3C//DTD SVG 1.1//EN" "http://www.w3.org/Graphics/SVG/1.1/DTD/svg11.dtd">
<svg version="1.1" xmlns="http://www.w3.org/2000/svg" viewBox="0 0 263.79417786675276 69.95756529107655" width="263.79417786675276" height="69.95756529107655"><!-- svg-source:excalidraw --><metadata></metadata><defs><style class="style-fonts">
      </style></defs><g stroke-linecap="round"><g transform="translate(12.399572016298862 39.82662399136364) rotate(0 119.49751691707752 -4.847841345825358)"><path d="M-2.4 0.66 C16.99 -3.86, 79.03 -32.82, 118.67 -29.57 C158.31 -26.33, 215.73 11.97, 235.46 20.13 M1.49 -1.45 C20.4 -5.26, 77.05 -28.88, 117.03 -25.97 C157.01 -23.07, 221.3 9.25, 241.39 15.97" stroke="#f36d6b" stroke-width="2" fill="none"></path></g><g transform="translate(12.399572016298862 39.82662399136364) rotate(0 119.49751691707752 -4.847841345825358)"><path d="M216.88 15.82 C225.94 14.42, 237.35 15.91, 242.67 15.44 M216.32 14.16 C222.23 15.12, 225.88 14.65, 240.93 16.93" stroke="#f36d6b" stroke-width="2" fill="none"></path></g><g transform="translate(12.399572016298862 39.82662399136364) rotate(0 119.49751691707752 -4.847841345825358)"><path d="M223.33 -0.02 C229.78 4.59, 238.72 12.16, 242.67 15.44 M222.77 -1.67 C227.21 2.48, 229.55 5.25, 240.93 16.93" stroke="#f36d6b" stroke-width="2" fill="none"></path></g></g><mask></mask></svg>