<?xml version="1.0" standalone="no"?>
<!DOCTYPE svg PUBLIC "-//W3C//DTD SVG 1.1//EN" "http://www.w3.org/Graphics/SVG/1.1/DTD/svg11.dtd">
<svg version="1.1" xmlns="http://www.w3.org/2000/svg" viewBox="0 0 263.77228414349975 28.441704793404426" width="263.77228414349975" height="28.441704793404426"><!-- svg-source:excalidraw --><metadata></metadata><defs><style class="style-fonts">
      </style></defs><g stroke-linecap="round"><g transform="translate(11.94701330170028 15.778318494688364) rotate(0 119.93912877004959 -1.5574660979861505)"><path d="M0.97 2.66 C40.87 1.83, 201.94 -4.22, 241.83 -5.78 M-1.95 1.64 C37.31 1.21, 198.01 -1.94, 239.33 -3.05" stroke="#f36d6b" stroke-width="2" fill="none"></path></g><g transform="translate(11.94701330170028 15.778318494688364) rotate(0 119.93912877004959 -1.5574660979861505)"><path d="M217.94 5.69 C223.89 0.97, 232.25 -2.16, 237.64 -1.2 M215.66 5.75 C221.45 3.13, 225.4 2.55, 239.75 -2.97" stroke="#f36d6b" stroke-width="2" fill="none"></path></g><g transform="translate(11.94701330170028 15.778318494688364) rotate(0 119.93912877004959 -1.5574660979861505)"><path d="M217.55 -11.41 C223.61 -9.51, 232.11 -6.02, 237.64 -1.2 M215.27 -11.34 C221.29 -10.23, 225.32 -7.06, 239.75 -2.97" stroke="#f36d6b" stroke-width="2" fill="none"></path></g></g><mask></mask></svg>