<?xml version="1.0" standalone="no"?>
<!DOCTYPE svg PUBLIC "-//W3C//DTD SVG 1.1//EN" "http://www.w3.org/Graphics/SVG/1.1/DTD/svg11.dtd">
<svg version="1.1" xmlns="http://www.w3.org/2000/svg" viewBox="0 0 147.67497311989405 117.44247270017992" width="147.67497311989405" height="117.44247270017992"><!-- svg-source:excalidraw --><metadata></metadata><defs><style class="style-fonts">
      </style></defs><g transform="translate(11.910820119263235 46.12784149706633) rotate(0 -0.9554100596316175 10.328353897958351)" stroke="none"><path fill="#f36d6b" d="M 2.53,0.28 Q 2.53,0.28 2.38,1.62 2.24,2.97 2.04,4.52 1.85,6.08 1.61,8.53 1.37,10.98 1.21,12.94 1.04,14.90 1.00,16.38 0.96,17.86 0.94,19.28 0.91,20.70 0.83,21.15 0.75,21.60 0.53,22.00 0.31,22.40 -0.02,22.71 -0.36,23.02 -0.78,23.21 -1.20,23.39 -1.65,23.43 -2.11,23.47 -2.55,23.37 -3.00,23.26 -3.39,23.02 -3.77,22.78 -4.06,22.42 -4.35,22.07 -4.52,21.64 -4.68,21.21 -4.70,20.76 -4.71,20.30 -4.58,19.86 -4.45,19.42 -4.19,19.05 -3.93,18.67 -3.56,18.40 -3.19,18.13 -2.75,17.99 -2.32,17.85 -1.86,17.86 -1.40,17.87 -0.97,18.02 -0.54,18.18 -0.18,18.46 0.17,18.74 0.42,19.12 0.67,19.51 0.79,19.95 0.90,20.39 0.87,20.85 0.84,21.31 0.66,21.73 0.48,22.15 0.18,22.50 -0.11,22.84 -0.51,23.07 -0.90,23.30 -1.35,23.39 -1.80,23.48 -2.26,23.42 -2.71,23.36 -3.12,23.17 -3.53,22.97 -3.86,22.65 -4.19,22.32 -4.39,21.92 -4.60,21.51 -4.67,21.06 -4.73,20.60 -4.73,20.60 -4.73,20.60 -4.66,19.01 -4.58,17.42 -4.40,15.93 -4.21,14.45 -3.92,12.43 -3.62,10.41 -3.36,7.99 -3.10,5.56 -2.97,3.98 -2.84,2.40 -2.68,1.06 -2.53,-0.28 -2.46,-0.58 -2.39,-0.88 -2.25,-1.15 -2.11,-1.42 -1.91,-1.65 -1.70,-1.89 -1.45,-2.06 -1.20,-2.24 -0.92,-2.35 -0.63,-2.46 -0.32,-2.50 -0.02,-2.54 0.28,-2.51 0.58,-2.48 0.87,-2.37 1.16,-2.26 1.41,-2.09 1.67,-1.92 1.87,-1.69 2.08,-1.46 2.22,-1.19 2.37,-0.92 2.45,-0.62 2.52,-0.33 2.53,-0.02 2.53,0.28 2.53,0.28 L 2.53,0.28 Z"></path></g><g transform="translate(15.052549318328829 45.43164901220403) rotate(0 28.31152510505933 -17.715824506102017)" stroke="none"><path fill="#f36d6b" d="M -1.15,-1.35 Q -1.15,-1.35 0.18,-2.51 1.51,-3.67 4.40,-5.70 7.29,-7.72 8.60,-8.59 9.90,-9.45 12.81,-10.86 15.71,-12.27 17.41,-13.13 19.10,-13.99 22.15,-15.46 25.20,-16.92 26.96,-17.88 28.72,-18.84 31.17,-20.27 33.63,-21.69 36.17,-23.24 38.72,-24.78 40.89,-26.18 43.07,-27.57 44.02,-28.36 44.96,-29.15 45.81,-29.91 46.66,-30.67 47.56,-31.52 48.46,-32.37 49.23,-33.12 50.01,-33.86 51.09,-34.70 52.16,-35.54 53.57,-36.58 54.98,-37.63 55.37,-37.83 55.77,-38.03 56.20,-38.10 56.64,-38.17 57.08,-38.09 57.52,-38.02 57.91,-37.81 58.30,-37.60 58.60,-37.27 58.90,-36.95 59.09,-36.54 59.27,-36.14 59.31,-35.70 59.36,-35.25 59.26,-34.82 59.16,-34.39 58.93,-34.01 58.69,-33.63 58.35,-33.35 58.01,-33.06 57.60,-32.90 57.18,-32.74 56.74,-32.72 56.30,-32.70 55.87,-32.82 55.44,-32.95 55.08,-33.20 54.71,-33.45 54.45,-33.81 54.18,-34.16 54.04,-34.59 53.91,-35.01 53.91,-35.45 53.91,-35.89 54.06,-36.31 54.21,-36.73 54.48,-37.08 54.75,-37.44 55.12,-37.68 55.49,-37.93 55.92,-38.04 56.35,-38.16 56.79,-38.13 57.23,-38.10 57.64,-37.93 58.05,-37.76 58.39,-37.47 58.73,-37.18 58.95,-36.80 59.18,-36.42 59.27,-35.98 59.36,-35.55 59.31,-35.11 59.25,-34.67 59.06,-34.27 58.87,-33.87 58.57,-33.55 58.26,-33.23 58.26,-33.23 58.26,-33.23 56.93,-32.35 55.61,-31.47 54.37,-30.80 53.13,-30.14 52.12,-29.55 51.11,-28.97 49.99,-28.33 48.87,-27.70 47.85,-27.06 46.83,-26.43 45.72,-25.81 44.62,-25.19 42.43,-23.75 40.25,-22.31 37.72,-20.70 35.18,-19.10 32.72,-17.59 30.26,-16.07 28.46,-15.04 26.66,-14.01 23.67,-12.45 20.69,-10.88 19.00,-10.02 17.32,-9.15 14.61,-7.67 11.91,-6.20 10.59,-5.44 9.27,-4.68 6.57,-2.80 3.86,-0.91 2.51,0.22 1.15,1.35 0.97,1.47 0.79,1.59 0.59,1.66 0.39,1.73 0.17,1.75 -0.03,1.77 -0.24,1.74 -0.45,1.71 -0.65,1.63 -0.85,1.55 -1.03,1.43 -1.20,1.30 -1.34,1.14 -1.48,0.98 -1.57,0.78 -1.67,0.59 -1.72,0.38 -1.76,0.18 -1.76,-0.03 -1.76,-0.24 -1.70,-0.45 -1.65,-0.66 -1.54,-0.85 -1.44,-1.03 -1.29,-1.19 -1.15,-1.35 -1.15,-1.35 L -1.15,-1.35 Z"></path></g><g transform="translate(10.538752166876975 68.36423383709423) rotate(0 28.74649216901605 19.539119431542844)" stroke="none"><path fill="#f36d6b" d="M 1.02,-1.29 Q 1.02,-1.29 2.48,-0.15 3.94,0.97 4.92,1.64 5.90,2.30 7.79,3.74 9.69,5.18 12.75,7.43 15.81,9.67 19.66,12.54 23.50,15.41 27.81,18.48 32.12,21.55 34.40,23.16 36.68,24.77 39.38,26.61 42.08,28.44 45.05,30.20 48.01,31.97 50.47,33.37 52.94,34.78 54.27,35.37 55.61,35.97 57.04,36.83 58.47,37.69 58.66,37.88 58.86,38.08 58.98,38.32 59.11,38.57 59.14,38.84 59.18,39.11 59.13,39.38 59.08,39.65 58.95,39.89 58.81,40.13 58.61,40.31 58.41,40.50 58.16,40.61 57.91,40.72 57.63,40.74 57.36,40.76 57.09,40.70 56.83,40.63 56.60,40.49 56.36,40.34 56.19,40.13 56.02,39.92 55.92,39.66 55.83,39.40 55.82,39.13 55.81,38.85 55.89,38.59 55.97,38.33 56.12,38.11 56.28,37.88 56.50,37.72 56.73,37.56 56.99,37.48 57.25,37.40 57.52,37.40 57.80,37.41 58.06,37.50 58.31,37.59 58.53,37.76 58.74,37.93 58.89,38.16 59.04,38.40 59.11,38.66 59.18,38.93 59.16,39.20 59.13,39.47 59.03,39.73 58.92,39.98 58.74,40.18 58.56,40.39 58.32,40.52 58.08,40.66 57.81,40.71 57.54,40.77 57.27,40.73 57.00,40.70 56.75,40.58 56.51,40.45 56.51,40.46 56.51,40.46 55.32,39.59 54.13,38.73 52.86,37.94 51.60,37.14 49.11,35.74 46.62,34.33 43.57,32.55 40.53,30.76 37.78,28.94 35.04,27.12 32.74,25.54 30.43,23.96 26.06,20.92 21.69,17.89 17.82,15.09 13.94,12.30 10.82,10.15 7.69,8.00 5.62,6.61 3.54,5.23 2.69,4.42 1.84,3.61 0.41,2.45 -1.02,1.29 -1.16,1.15 -1.30,1.00 -1.40,0.83 -1.50,0.66 -1.56,0.47 -1.62,0.28 -1.63,0.08 -1.64,-0.10 -1.60,-0.30 -1.57,-0.49 -1.48,-0.68 -1.40,-0.86 -1.28,-1.01 -1.15,-1.17 -1.00,-1.29 -0.84,-1.41 -0.66,-1.49 -0.48,-1.57 -0.28,-1.61 -0.08,-1.64 0.10,-1.63 0.30,-1.62 0.49,-1.55 0.68,-1.49 0.85,-1.39 1.02,-1.29 1.02,-1.29 L 1.02,-1.29 Z"></path></g><g transform="translate(74.46312611473695 10.689416832472048) rotate(0 -0.8685690576030538 48.37380441978803)" stroke="none"><path fill="#f36d6b" d="M 2.09,-0.14 Q 2.09,-0.14 2.23,1.29 2.36,2.74 2.60,4.98 2.84,7.21 3.17,9.97 3.51,12.73 3.69,13.85 3.88,14.97 4.14,17.50 4.40,20.03 4.66,21.46 4.91,22.90 5.01,25.70 5.10,28.50 5.27,30.04 5.44,31.57 5.45,34.12 5.47,36.68 5.63,38.12 5.78,39.56 5.84,41.89 5.89,44.22 6.08,45.48 6.27,46.73 6.24,48.94 6.21,51.15 5.91,53.95 5.62,56.74 5.17,59.34 4.72,61.94 4.17,64.84 3.62,67.73 3.02,70.66 2.42,73.59 1.86,76.14 1.30,78.69 1.13,80.00 0.96,81.30 0.60,82.82 0.24,84.34 -0.12,85.62 -0.48,86.91 -0.85,88.15 -1.22,89.39 -1.74,90.69 -2.25,92.00 -2.65,93.23 -3.05,94.46 -3.43,95.75 -3.82,97.03 -3.92,97.41 -4.03,97.79 -4.26,98.12 -4.49,98.44 -4.80,98.68 -5.12,98.92 -5.50,99.04 -5.88,99.16 -6.27,99.16 -6.67,99.16 -7.04,99.03 -7.42,98.90 -7.73,98.65 -8.04,98.41 -8.26,98.08 -8.48,97.75 -8.58,97.37 -8.69,96.98 -8.66,96.59 -8.64,96.19 -8.49,95.83 -8.34,95.46 -8.08,95.16 -7.82,94.86 -7.48,94.66 -7.13,94.46 -6.75,94.38 -6.36,94.29 -5.96,94.34 -5.57,94.39 -5.21,94.56 -4.85,94.73 -4.57,95.00 -4.28,95.28 -4.10,95.63 -3.92,95.98 -3.86,96.37 -3.80,96.77 -3.87,97.16 -3.93,97.55 -4.12,97.90 -4.31,98.24 -4.60,98.51 -4.89,98.78 -5.25,98.95 -5.62,99.11 -6.01,99.15 -6.40,99.19 -6.79,99.10 -7.18,99.01 -7.52,98.80 -7.85,98.59 -8.11,98.29 -8.36,97.99 -8.50,97.62 -8.65,97.25 -8.66,96.85 -8.68,96.45 -8.68,96.45 -8.68,96.45 -8.13,94.65 -7.59,92.84 -6.91,91.54 -6.24,90.25 -5.68,89.13 -5.13,88.00 -4.64,86.81 -4.15,85.62 -3.66,84.48 -3.17,83.34 -2.69,81.97 -2.22,80.60 -1.83,79.35 -1.44,78.10 -0.91,75.57 -0.39,73.04 0.14,70.12 0.69,67.20 1.17,64.34 1.65,61.47 2.00,58.97 2.35,56.47 2.51,53.85 2.68,51.22 2.55,49.14 2.43,47.06 2.40,45.75 2.37,44.43 2.14,42.12 1.92,39.81 1.88,38.32 1.85,36.83 1.65,34.37 1.46,31.91 1.36,30.34 1.26,28.78 0.97,26.16 0.68,23.55 0.49,22.11 0.31,20.67 -0.29,17.03 -0.90,13.39 -1.35,10.49 -1.80,7.59 -1.88,5.31 -1.96,3.04 -2.03,1.59 -2.09,0.14 -2.08,-0.10 -2.07,-0.36 -1.99,-0.60 -1.92,-0.84 -1.79,-1.06 -1.66,-1.28 -1.48,-1.46 -1.31,-1.64 -1.09,-1.77 -0.87,-1.91 -0.63,-1.98 -0.39,-2.06 -0.14,-2.08 0.10,-2.10 0.35,-2.05 0.60,-2.01 0.84,-1.91 1.07,-1.80 1.27,-1.65 1.47,-1.49 1.63,-1.30 1.79,-1.10 1.89,-0.87 2.00,-0.64 2.05,-0.39 2.09,-0.14 2.09,-0.14 L 2.09,-0.14 Z"></path></g><g transform="translate(92.17354832195292 17.316230172999965) rotate(0 0.7816816696902151 40.5629151762481)" stroke="none"><path fill="#f36d6b" d="M 1.60,-0.19 Q 1.60,-0.19 1.86,2.30 2.11,4.81 2.56,7.69 3.00,10.57 3.38,12.07 3.76,13.56 4.29,16.31 4.83,19.06 5.30,22.38 5.77,25.69 6.16,29.20 6.55,32.72 6.81,36.17 7.07,39.63 7.18,42.87 7.28,46.10 7.12,49.12 6.96,52.15 6.48,54.88 6.00,57.62 5.29,60.40 4.58,63.17 3.77,65.76 2.96,68.35 2.06,70.68 1.15,73.01 0.67,74.40 0.18,75.79 -0.39,77.10 -0.98,78.41 -1.81,80.15 -2.65,81.89 -2.81,82.14 -2.98,82.39 -3.22,82.57 -3.46,82.76 -3.74,82.85 -4.02,82.95 -4.33,82.96 -4.63,82.96 -4.91,82.87 -5.20,82.77 -5.44,82.59 -5.68,82.41 -5.85,82.16 -6.02,81.92 -6.11,81.63 -6.19,81.34 -6.18,81.04 -6.16,80.74 -6.05,80.46 -5.94,80.18 -5.75,79.95 -5.56,79.71 -5.30,79.56 -5.05,79.40 -4.75,79.33 -4.46,79.26 -4.16,79.29 -3.86,79.32 -3.59,79.45 -3.31,79.57 -3.09,79.78 -2.87,79.98 -2.73,80.25 -2.58,80.51 -2.53,80.81 -2.48,81.10 -2.53,81.40 -2.57,81.70 -2.71,81.97 -2.85,82.23 -3.07,82.44 -3.28,82.65 -3.56,82.78 -3.83,82.91 -4.13,82.94 -4.43,82.98 -4.72,82.92 -5.02,82.85 -5.27,82.70 -5.53,82.55 -5.73,82.32 -5.93,82.09 -6.04,81.82 -6.15,81.54 -6.17,81.24 -6.19,80.94 -6.11,80.65 -6.04,80.35 -6.04,80.35 -6.04,80.36 -5.05,78.56 -4.05,76.77 -3.35,75.66 -2.65,74.55 -1.98,73.30 -1.31,72.05 -0.44,69.80 0.42,67.56 1.20,65.04 1.99,62.51 2.67,59.83 3.35,57.16 3.80,54.58 4.24,52.00 4.38,49.10 4.52,46.20 4.40,43.03 4.27,39.86 3.98,36.45 3.69,33.05 3.26,29.59 2.83,26.14 2.31,22.92 1.79,19.70 1.17,16.95 0.55,14.20 0.32,12.62 0.10,11.05 -0.41,8.11 -0.92,5.17 -1.26,2.68 -1.60,0.19 -1.60,-0.00 -1.60,-0.19 -1.55,-0.38 -1.50,-0.57 -1.41,-0.74 -1.32,-0.91 -1.19,-1.06 -1.06,-1.20 -0.90,-1.31 -0.74,-1.42 -0.56,-1.49 -0.38,-1.56 -0.19,-1.59 0.00,-1.61 0.19,-1.58 0.38,-1.56 0.57,-1.49 0.75,-1.42 0.91,-1.31 1.07,-1.20 1.20,-1.06 1.32,-0.91 1.41,-0.74 1.50,-0.56 1.55,-0.38 1.60,-0.19 1.60,-0.19 L 1.60,-0.19 Z"></path></g><g transform="translate(106.76116677091136 26.70341447781726) rotate(0 1.2159860781564475 37.08733682779684)" stroke="none"><path fill="#f36d6b" d="M 1.50,-0.66 Q 1.50,-0.66 2.29,1.13 3.08,2.93 4.07,6.11 5.05,9.29 5.54,12.88 6.02,16.47 6.40,21.15 6.79,25.84 6.90,31.15 7.00,36.47 6.68,41.32 6.37,46.16 5.82,50.00 5.28,53.83 4.53,56.95 3.79,60.07 2.85,62.68 1.92,65.30 1.12,67.30 0.32,69.30 -0.16,70.71 -0.66,72.11 -1.28,73.54 -1.91,74.97 -2.08,75.20 -2.25,75.43 -2.48,75.59 -2.72,75.75 -2.99,75.83 -3.26,75.91 -3.54,75.90 -3.83,75.89 -4.09,75.78 -4.36,75.68 -4.58,75.50 -4.79,75.32 -4.94,75.08 -5.09,74.84 -5.15,74.56 -5.22,74.28 -5.19,74.00 -5.16,73.72 -5.05,73.46 -4.93,73.20 -4.74,72.99 -4.54,72.79 -4.30,72.65 -4.05,72.51 -3.77,72.47 -3.49,72.42 -3.21,72.46 -2.93,72.50 -2.67,72.63 -2.42,72.76 -2.23,72.97 -2.03,73.17 -1.91,73.43 -1.78,73.68 -1.75,73.96 -1.72,74.25 -1.78,74.52 -1.83,74.80 -1.98,75.05 -2.12,75.29 -2.34,75.48 -2.55,75.66 -2.81,75.77 -3.07,75.88 -3.36,75.90 -3.64,75.91 -3.91,75.84 -4.19,75.77 -4.43,75.61 -4.66,75.46 -4.84,75.23 -5.01,75.01 -5.10,74.74 -5.20,74.47 -5.20,74.19 -5.20,73.90 -5.11,73.63 -5.03,73.36 -5.03,73.36 -5.03,73.37 -4.27,72.12 -3.52,70.87 -2.84,69.59 -2.17,68.31 -1.40,66.35 -0.63,64.39 0.24,61.91 1.12,59.44 1.82,56.44 2.52,53.45 3.02,49.72 3.53,45.99 3.80,41.27 4.08,36.54 3.92,31.33 3.77,26.11 3.32,21.52 2.86,16.93 2.31,13.51 1.75,10.09 0.93,7.17 0.10,4.25 -0.69,2.46 -1.50,0.66 -1.55,0.47 -1.61,0.28 -1.62,0.09 -1.63,-0.10 -1.60,-0.30 -1.56,-0.49 -1.48,-0.67 -1.40,-0.85 -1.27,-1.01 -1.15,-1.16 -0.99,-1.28 -0.84,-1.40 -0.66,-1.49 -0.48,-1.57 -0.28,-1.60 -0.09,-1.64 0.10,-1.62 0.30,-1.61 0.49,-1.55 0.68,-1.49 0.85,-1.39 1.01,-1.28 1.15,-1.14 1.29,-1.00 1.39,-0.83 1.50,-0.66 1.50,-0.66 L 1.50,-0.66 Z"></path></g><g transform="translate(123.61117058305695 46.68698357338576) rotate(0 -1.9976942540661184 17.45593599264855)" stroke="none"><path fill="#f36d6b" d="M 1.97,-0.38 Q 1.97,-0.38 2.30,1.15 2.62,2.70 2.92,5.03 3.22,7.36 3.32,9.64 3.43,11.92 3.14,14.30 2.85,16.69 2.48,19.39 2.10,22.10 1.55,24.42 1.00,26.74 0.57,28.45 0.14,30.16 -0.31,31.43 -0.77,32.70 -2.15,34.54 -3.53,36.37 -3.80,36.58 -4.08,36.78 -4.40,36.88 -4.72,36.98 -5.06,36.98 -5.40,36.97 -5.72,36.86 -6.04,36.75 -6.31,36.54 -6.58,36.33 -6.77,36.05 -6.95,35.76 -7.04,35.43 -7.12,35.10 -7.10,34.76 -7.08,34.43 -6.95,34.11 -6.82,33.80 -6.59,33.54 -6.37,33.29 -6.08,33.12 -5.78,32.94 -5.45,32.88 -5.12,32.81 -4.78,32.85 -4.44,32.89 -4.13,33.04 -3.83,33.19 -3.59,33.42 -3.34,33.66 -3.19,33.96 -3.03,34.27 -2.98,34.60 -2.93,34.94 -2.99,35.27 -3.05,35.61 -3.22,35.90 -3.38,36.20 -3.63,36.43 -3.88,36.66 -4.19,36.80 -4.50,36.94 -4.84,36.97 -5.18,37.00 -5.51,36.92 -5.84,36.85 -6.13,36.67 -6.42,36.49 -6.63,36.23 -6.85,35.96 -6.97,35.65 -7.09,35.33 -7.10,34.99 -7.12,34.65 -7.02,34.32 -6.93,34.00 -6.73,33.72 -6.54,33.44 -6.54,33.44 -6.54,33.44 -5.46,32.26 -4.38,31.08 -3.86,30.15 -3.34,29.21 -2.88,27.62 -2.41,26.04 -2.05,23.88 -1.68,21.73 -1.53,19.07 -1.37,16.42 -1.37,14.18 -1.37,11.95 -1.33,9.74 -1.30,7.53 -1.36,5.51 -1.42,3.48 -1.70,1.93 -1.97,0.38 -1.99,0.14 -2.01,-0.10 -1.97,-0.34 -1.92,-0.58 -1.83,-0.80 -1.73,-1.02 -1.58,-1.21 -1.43,-1.41 -1.24,-1.56 -1.05,-1.71 -0.83,-1.81 -0.61,-1.91 -0.38,-1.96 -0.14,-2.00 0.10,-1.99 0.34,-1.98 0.57,-1.91 0.80,-1.84 1.01,-1.72 1.22,-1.59 1.40,-1.42 1.57,-1.25 1.70,-1.05 1.82,-0.84 1.90,-0.61 1.97,-0.38 1.97,-0.38 L 1.97,-0.38 Z"></path></g><g transform="translate(137.33163805716208 60.235094354414755) rotate(0 -0.5252207417612453 6.075821926741497)" stroke="none"><path fill="#f36d6b" d="M 2.53,-0.08 Q 2.53,-0.08 2.56,1.41 2.60,2.91 2.47,4.83 2.35,6.75 1.87,9.68 1.38,12.61 1.24,13.04 1.09,13.47 0.81,13.84 0.54,14.20 0.16,14.46 -0.21,14.71 -0.65,14.83 -1.09,14.95 -1.55,14.93 -2.00,14.90 -2.43,14.73 -2.85,14.56 -3.20,14.26 -3.54,13.97 -3.78,13.58 -4.01,13.18 -4.11,12.74 -4.21,12.29 -4.16,11.84 -4.11,11.38 -3.91,10.97 -3.72,10.56 -3.41,10.23 -3.09,9.90 -2.69,9.68 -2.28,9.47 -1.83,9.40 -1.38,9.32 -0.93,9.40 -0.48,9.47 -0.08,9.69 0.31,9.90 0.63,10.24 0.94,10.57 1.13,10.98 1.32,11.40 1.37,11.85 1.42,12.31 1.32,12.75 1.22,13.20 0.98,13.59 0.75,13.98 0.40,14.27 0.05,14.57 -0.37,14.74 -0.79,14.90 -1.25,14.93 -1.70,14.95 -2.14,14.83 -2.58,14.70 -2.96,14.45 -3.34,14.19 -3.61,13.83 -3.89,13.46 -4.03,13.03 -4.17,12.60 -4.17,12.14 -4.17,11.68 -4.17,11.68 -4.17,11.68 -3.54,8.75 -2.92,5.81 -2.66,4.44 -2.40,3.07 -2.47,1.57 -2.53,0.08 -2.50,-0.22 -2.48,-0.52 -2.38,-0.81 -2.28,-1.10 -2.11,-1.36 -1.95,-1.61 -1.73,-1.83 -1.50,-2.04 -1.24,-2.19 -0.97,-2.34 -0.68,-2.42 -0.38,-2.50 -0.08,-2.51 0.22,-2.52 0.52,-2.46 0.82,-2.40 1.09,-2.26 1.37,-2.13 1.60,-1.93 1.84,-1.74 2.02,-1.49 2.20,-1.25 2.32,-0.96 2.44,-0.68 2.48,-0.38 2.53,-0.08 2.53,-0.08 L 2.53,-0.08 Z"></path></g></svg>