<?xml version="1.0" standalone="no"?>
<!DOCTYPE svg PUBLIC "-//W3C//DTD SVG 1.1//EN" "http://www.w3.org/Graphics/SVG/1.1/DTD/svg11.dtd">
<svg version="1.1" xmlns="http://www.w3.org/2000/svg" viewBox="0 0 200.31223007338258 184.83152431367262" width="200.31223007338258" height="184.83152431367262"><!-- svg-source:excalidraw --><metadata></metadata><defs><style class="style-fonts">
      </style></defs><g stroke-linecap="round" transform="translate(10 10) rotate(0 90.15611503669129 82.41576215683631)"><path d="M56.11 6.96 C66.56 1.84, 83.31 0.71, 95.36 0.87 C107.4 1.02, 117.56 3.24, 128.38 7.88 C139.2 12.53, 152.15 19.79, 160.26 28.71 C168.38 37.64, 174.12 50.4, 177.06 61.44 C180 72.47, 179.62 84.08, 177.92 94.92 C176.22 105.75, 173.16 117.01, 166.85 126.44 C160.54 135.88, 150.4 145, 140.06 151.52 C129.72 158.04, 116.51 163.92, 104.81 165.57 C93.12 167.22, 81.39 164.6, 69.88 161.41 C58.38 158.21, 45.95 153.43, 35.78 146.37 C25.61 139.32, 14.89 128.53, 8.86 119.07 C2.84 109.61, 0.23 100.18, -0.39 89.61 C-1.01 79.03, 1.05 66.22, 5.13 55.62 C9.22 45.01, 11.31 35.41, 24.11 25.98 C36.92 16.55, 67.84 3.1, 81.95 -0.98 C96.07 -5.06, 108.42 -0.08, 108.81 1.51 M38.51 13.92 C48.05 6.76, 66.28 0.23, 78.68 -1.71 C91.08 -3.66, 101.86 -1.38, 112.91 2.24 C123.96 5.86, 135.45 12.94, 144.99 19.98 C154.53 27.02, 164.77 34.68, 170.15 44.49 C175.53 54.31, 176.51 67.62, 177.24 78.87 C177.97 90.12, 178.22 101.41, 174.53 112.01 C170.85 122.6, 163.9 134.39, 155.13 142.43 C146.37 150.47, 133.11 156.51, 121.96 160.23 C110.81 163.95, 100.61 165.12, 88.22 164.76 C75.84 164.4, 58.61 163.54, 47.65 158.08 C36.69 152.62, 29.82 141.23, 22.46 132 C15.09 122.77, 7.49 113.54, 3.45 102.69 C-0.59 91.84, -3.51 78.02, -1.79 66.9 C-0.07 55.77, 6.87 44.5, 13.78 35.94 C20.69 27.37, 35.39 18.61, 39.66 15.52 C43.92 12.42, 38.84 16.9, 39.38 17.37" stroke="#f36d6b" stroke-width="1" fill="none"></path></g><g stroke-linecap="round" transform="translate(78.19594253545233 74.15308138798092) rotate(0 21.224040294098586 18.199647502733782)"><path d="M17.75 1.06 C22 0.35, 28.01 1.54, 31.86 3.45 C35.71 5.35, 39.48 8.77, 40.85 12.49 C42.23 16.21, 41.77 22.29, 40.13 25.78 C38.49 29.27, 34.86 31.67, 31.03 33.45 C27.19 35.24, 21.55 37.01, 17.14 36.5 C12.73 36, 7.56 33.64, 4.55 30.44 C1.54 27.25, -1.15 21.41, -0.93 17.33 C-0.7 13.25, 2.34 8.72, 5.92 5.94 C9.5 3.17, 17.94 1.51, 20.56 0.68 C23.18 -0.14, 21.8 0.85, 21.64 0.99 M17.94 -0.91 C22.09 -1.91, 28.73 -0.85, 32.74 1.67 C36.74 4.19, 40.52 10.3, 41.96 14.2 C43.41 18.1, 43.46 21.63, 41.4 25.07 C39.35 28.5, 33.83 33.1, 29.64 34.81 C25.45 36.52, 20.52 36.56, 16.26 35.34 C12 34.11, 6.72 30.73, 4.08 27.48 C1.45 24.22, 0.29 19.6, 0.44 15.81 C0.58 12.01, 1.67 7.46, 4.96 4.7 C8.25 1.94, 17.64 -0.08, 20.18 -0.75 C22.72 -1.43, 20.42 0.24, 20.19 0.65" stroke="#f36d6b" stroke-width="1" fill="none"></path></g><g transform="translate(150.3871307465622 47.89753918979771) rotate(0 7.2904429345875315 19.19168584460219)" stroke="none"><path fill="#f36d6b" d="M 1.96,-1.55 Q 1.96,-1.55 2.73,-0.62 3.50,0.30 4.33,1.36 5.15,2.42 6.59,4.25 8.03,6.08 9.55,8.07 11.07,10.05 12.37,11.82 13.67,13.59 14.48,15.12 15.29,16.65 15.79,18.09 16.29,19.53 16.62,21.05 16.96,22.56 17.21,24.07 17.47,25.58 17.52,26.77 17.56,27.96 17.61,29.51 17.67,31.06 17.67,32.83 17.68,34.60 17.39,36.68 17.10,38.76 16.96,39.27 16.81,39.77 16.51,40.20 16.21,40.63 15.79,40.94 15.37,41.26 14.88,41.42 14.38,41.58 13.85,41.57 13.33,41.57 12.83,41.40 12.34,41.22 11.93,40.90 11.51,40.58 11.22,40.14 10.93,39.71 10.80,39.20 10.66,38.69 10.70,38.17 10.73,37.65 10.93,37.16 11.13,36.68 11.47,36.28 11.82,35.89 12.27,35.62 12.72,35.36 13.23,35.25 13.75,35.14 14.27,35.20 14.79,35.27 15.26,35.49 15.73,35.72 16.11,36.08 16.49,36.45 16.73,36.91 16.97,37.38 17.05,37.89 17.12,38.41 17.03,38.93 16.94,39.45 16.69,39.91 16.44,40.37 16.06,40.72 15.68,41.08 15.20,41.29 14.72,41.51 14.20,41.56 13.68,41.61 13.17,41.49 12.66,41.37 12.21,41.10 11.76,40.82 11.43,40.42 11.09,40.02 10.90,39.53 10.72,39.04 10.69,38.52 10.67,37.99 10.67,37.99 10.67,37.99 11.05,35.05 11.44,32.10 11.45,30.70 11.47,29.31 11.43,27.77 11.40,26.23 11.23,24.86 11.06,23.49 10.83,22.16 10.60,20.84 10.35,19.79 10.10,18.75 9.61,17.56 9.13,16.36 8.10,14.78 7.08,13.20 5.52,11.21 3.97,9.21 2.53,7.39 1.10,5.57 0.29,4.52 -0.51,3.47 -1.24,2.51 -1.96,1.55 -2.12,1.29 -2.28,1.03 -2.37,0.74 -2.46,0.46 -2.48,0.15 -2.50,-0.14 -2.45,-0.43 -2.39,-0.73 -2.27,-1.01 -2.15,-1.29 -1.96,-1.52 -1.78,-1.76 -1.54,-1.95 -1.30,-2.14 -1.03,-2.26 -0.75,-2.39 -0.45,-2.44 -0.16,-2.50 0.14,-2.48 0.44,-2.46 0.73,-2.38 1.02,-2.29 1.28,-2.13 1.54,-1.98 1.75,-1.76 1.96,-1.55 1.96,-1.55 L 1.96,-1.55 Z"></path></g><g transform="translate(35.384927010980846 88.8865915455918) rotate(0 13.983747127031165 20.927448949665646)" stroke="none"><path fill="#f36d6b" d="M 2.16,-0.07 Q 2.16,-0.07 2.23,1.37 2.31,2.81 2.35,4.57 2.39,6.33 2.70,8.83 3.02,11.34 3.63,13.55 4.24,15.75 4.84,17.50 5.44,19.24 6.31,20.79 7.19,22.35 8.05,23.54 8.92,24.72 10.79,26.85 12.67,28.98 14.68,30.93 16.68,32.89 18.97,34.66 21.26,36.44 23.25,37.58 25.25,38.72 27.01,39.46 28.77,40.21 29.01,40.38 29.25,40.55 29.42,40.79 29.60,41.03 29.68,41.31 29.77,41.59 29.77,41.89 29.76,42.18 29.66,42.46 29.56,42.74 29.37,42.97 29.19,43.20 28.94,43.36 28.69,43.52 28.41,43.60 28.12,43.67 27.83,43.65 27.53,43.63 27.26,43.51 26.99,43.39 26.77,43.20 26.54,43.00 26.40,42.75 26.25,42.49 26.19,42.20 26.14,41.91 26.17,41.62 26.21,41.32 26.34,41.06 26.47,40.79 26.68,40.58 26.89,40.37 27.15,40.24 27.42,40.11 27.71,40.06 28.00,40.02 28.29,40.08 28.58,40.13 28.84,40.28 29.10,40.42 29.30,40.64 29.50,40.86 29.62,41.13 29.73,41.40 29.76,41.69 29.78,41.99 29.71,42.28 29.64,42.56 29.49,42.81 29.33,43.06 29.10,43.25 28.87,43.44 28.59,43.54 28.32,43.64 28.02,43.65 27.72,43.66 27.44,43.58 27.16,43.49 27.16,43.49 27.16,43.49 25.43,42.53 23.70,41.57 21.45,40.40 19.20,39.23 16.67,37.46 14.14,35.68 11.86,33.75 9.58,31.81 8.20,30.39 6.83,28.98 6.16,28.04 5.50,27.11 4.61,25.77 3.72,24.44 2.57,22.64 1.43,20.85 0.58,18.94 -0.26,17.03 -0.81,14.52 -1.36,12.00 -1.63,9.25 -1.91,6.50 -2.01,4.73 -2.11,2.96 -2.13,1.52 -2.16,0.07 -2.13,-0.18 -2.11,-0.44 -2.03,-0.69 -1.94,-0.93 -1.80,-1.15 -1.66,-1.37 -1.47,-1.55 -1.28,-1.73 -1.06,-1.86 -0.83,-1.99 -0.58,-2.06 -0.33,-2.13 -0.07,-2.14 0.18,-2.15 0.44,-2.10 0.69,-2.04 0.93,-1.93 1.16,-1.82 1.36,-1.65 1.56,-1.48 1.72,-1.27 1.87,-1.06 1.97,-0.82 2.07,-0.58 2.12,-0.33 2.16,-0.07 2.16,-0.07 L 2.16,-0.07 Z"></path></g></svg>