<?xml version="1.0" standalone="no"?>
<!DOCTYPE svg PUBLIC "-//W3C//DTD SVG 1.1//EN" "http://www.w3.org/Graphics/SVG/1.1/DTD/svg11.dtd">
<svg version="1.1" xmlns="http://www.w3.org/2000/svg" viewBox="0 0 185.88062723310486 176.66034596667657" width="185.88062723310486" height="176.66034596667657"><!-- svg-source:excalidraw --><metadata></metadata><defs><style class="style-fonts">
      </style></defs><g stroke-linecap="round" transform="translate(10 10) rotate(0 82.94031361655232 78.33017298333829)"><path d="M41.59 11.44 C49.85 5.68, 62.88 3.24, 74.11 1.78 C85.35 0.33, 98.25 -0.21, 109.03 2.73 C119.81 5.68, 130.22 12.3, 138.81 19.46 C147.39 26.62, 156.07 35.7, 160.53 45.7 C164.98 55.69, 166.16 68.55, 165.54 79.44 C164.93 90.33, 161.43 101.71, 156.83 111.02 C152.23 120.34, 145.82 128.5, 137.93 135.31 C130.04 142.12, 120.25 148.26, 109.51 151.89 C98.77 155.53, 84.93 157.79, 73.5 157.12 C62.07 156.44, 50.57 153.23, 40.94 147.84 C31.3 142.46, 22.14 133.52, 15.69 124.78 C9.24 116.05, 4.58 106.12, 2.25 95.44 C-0.08 84.77, -0.6 71.09, 1.69 60.73 C3.99 50.37, 6.25 42.72, 16.02 33.31 C25.79 23.89, 49.27 9.67, 60.32 4.23 C71.37 -1.22, 81.81 -0.1, 82.32 0.65 M133.17 15.43 C142.84 20.45, 152.22 33.51, 157.97 42.55 C163.73 51.58, 166.71 59.03, 167.71 69.65 C168.71 80.26, 167.66 96.19, 163.97 106.23 C160.28 116.26, 154.02 122.85, 145.6 129.87 C137.17 136.88, 124.26 143.39, 113.44 148.31 C102.63 153.24, 91.78 159.67, 80.7 159.44 C69.62 159.2, 57.07 151.9, 46.95 146.92 C36.83 141.94, 27.53 137.02, 19.99 129.56 C12.46 122.11, 5.37 112.75, 1.76 102.19 C-1.85 91.62, -3.43 77.25, -1.67 66.18 C0.09 55.11, 6.1 44.44, 12.32 35.76 C18.55 27.09, 26.59 20.15, 35.68 14.14 C44.78 8.14, 55.42 1.33, 66.9 -0.28 C78.37 -1.89, 93.17 2.32, 104.55 4.51 C115.94 6.7, 130.35 10.4, 135.19 12.87 C140.04 15.33, 135.31 18.23, 133.6 19.29" stroke="#f36d6b" stroke-width="1" fill="none"></path></g><g stroke-linecap="round" transform="translate(74.03507569823478 70.88378438044136) rotate(0 18.152804386111143 19.10959939571792)"><path d="M10.07 2.01 C13.63 0.09, 20.17 -0.34, 23.92 0.79 C27.66 1.93, 30.49 5.42, 32.57 8.82 C34.65 12.22, 36.73 17.25, 36.41 21.19 C36.1 25.12, 33.33 29.47, 30.67 32.41 C28.01 35.35, 24.24 38.43, 20.44 38.82 C16.64 39.21, 11.27 37.34, 7.89 34.78 C4.51 32.21, 1.29 27.3, 0.15 23.44 C-0.99 19.57, -0.7 15.39, 1.05 11.61 C2.79 7.83, 8.85 2.38, 10.61 0.75 C12.37 -0.87, 11.37 1.43, 11.62 1.84 M12.76 0.1 C16.21 -1.75, 20.5 -1.11, 24.26 0.35 C28.02 1.81, 33.34 5.08, 35.29 8.85 C37.25 12.62, 36.83 18.89, 36 22.94 C35.17 27, 33.34 30.55, 30.33 33.17 C27.32 35.78, 21.79 38.82, 17.91 38.64 C14.03 38.46, 10.1 34.8, 7.06 32.07 C4.01 29.33, 0.32 25.99, -0.36 22.23 C-1.04 18.47, 0.75 12.89, 2.98 9.5 C5.2 6.11, 11.18 3.32, 13 1.9 C14.81 0.47, 13.72 0.93, 13.87 0.93" stroke="#f36d6b" stroke-width="1" fill="none"></path></g></svg>