<?xml version="1.0" standalone="no"?>
<!DOCTYPE svg PUBLIC "-//W3C//DTD SVG 1.1//EN" "http://www.w3.org/Graphics/SVG/1.1/DTD/svg11.dtd">
<svg version="1.1" xmlns="http://www.w3.org/2000/svg" viewBox="0 0 466.7579530745138 417.6279895000333" width="466.7579530745138" height="417.6279895000333"><!-- svg-source:excalidraw --><metadata></metadata><defs><style class="style-fonts">
      </style></defs><g transform="translate(144.3097556653977 157.307010455788) rotate(0 -2.977874393258162 61.78275444271816)" stroke="none"><path fill="#f36d6b" d="M 4.64,0.48 Q 4.64,0.48 4.45,2.96 4.27,5.45 4.14,8.39 4.02,11.33 3.99,15.77 3.96,20.21 3.89,24.51 3.83,28.81 3.72,33.33 3.62,37.85 3.18,41.98 2.75,46.11 2.25,50.97 1.76,55.84 1.12,61.38 0.48,66.91 0.42,69.66 0.37,72.40 -0.05,77.05 -0.48,81.69 -0.51,84.17 -0.54,86.65 -0.95,90.80 -1.37,94.94 -1.69,99.43 -2.02,103.92 -2.11,107.39 -2.21,110.87 -2.10,113.17 -1.99,115.47 -1.76,119.54 -1.53,123.61 -1.65,124.31 -1.78,125.02 -2.12,125.65 -2.46,126.27 -2.99,126.76 -3.51,127.25 -4.16,127.54 -4.81,127.83 -5.53,127.90 -6.24,127.97 -6.93,127.81 -7.63,127.65 -8.24,127.27 -8.85,126.90 -9.31,126.35 -9.76,125.80 -10.02,125.13 -10.28,124.46 -10.31,123.75 -10.34,123.04 -10.14,122.35 -9.94,121.66 -9.53,121.07 -9.13,120.49 -8.55,120.06 -7.98,119.63 -7.30,119.41 -6.62,119.19 -5.90,119.20 -5.19,119.21 -4.51,119.44 -3.84,119.68 -3.27,120.12 -2.71,120.56 -2.31,121.15 -1.92,121.75 -1.74,122.44 -1.55,123.13 -1.60,123.84 -1.64,124.56 -1.92,125.22 -2.19,125.88 -2.66,126.42 -3.13,126.96 -3.74,127.32 -4.36,127.68 -5.06,127.83 -5.76,127.98 -6.47,127.89 -7.18,127.81 -7.83,127.50 -8.47,127.19 -8.99,126.69 -9.50,126.20 -9.83,125.56 -10.16,124.93 -10.26,124.22 -10.37,123.51 -10.37,123.51 -10.37,123.51 -10.04,119.37 -9.71,115.24 -9.45,112.88 -9.20,110.53 -8.96,107.08 -8.72,103.63 -8.66,99.07 -8.60,94.51 -8.50,90.27 -8.41,86.02 -8.06,83.66 -7.70,81.31 -7.63,76.59 -7.56,71.87 -7.24,69.09 -6.93,66.32 -6.69,60.89 -6.45,55.46 -6.49,50.64 -6.53,45.81 -6.71,41.64 -6.88,37.48 -6.69,32.95 -6.50,28.42 -6.26,24.13 -6.03,19.83 -5.76,15.41 -5.49,11.00 -5.39,7.73 -5.29,4.46 -4.97,1.98 -4.64,-0.48 -4.52,-1.03 -4.39,-1.57 -4.14,-2.08 -3.89,-2.58 -3.52,-3.01 -3.15,-3.44 -2.70,-3.76 -2.24,-4.09 -1.72,-4.30 -1.19,-4.51 -0.63,-4.59 -0.08,-4.67 0.47,-4.61 1.03,-4.55 1.56,-4.36 2.09,-4.17 2.56,-3.86 3.03,-3.55 3.41,-3.13 3.79,-2.72 4.06,-2.22 4.33,-1.73 4.48,-1.18 4.62,-0.64 4.63,-0.08 4.64,0.48 4.64,0.48 L 4.64,0.48 Z"></path></g><g transform="translate(134.17570867797122 281.48439764596696) rotate(0 82.18350118943397 -63.73814888144756)" stroke="none"><path fill="#f36d6b" d="M 0.15,-3.90 Q 0.15,-3.90 2.29,-3.98 4.43,-4.05 7.33,-4.25 10.22,-4.44 14.52,-4.53 18.82,-4.62 23.55,-4.24 28.27,-3.86 33.67,-3.34 39.07,-2.82 43.99,-2.35 48.91,-1.89 53.70,-1.56 58.50,-1.22 62.74,-1.05 66.98,-0.87 70.63,-0.97 74.28,-1.08 77.57,-1.21 80.87,-1.35 84.31,-1.72 87.75,-2.09 90.45,-2.26 93.14,-2.43 95.76,-2.48 98.37,-2.54 101.34,-2.43 104.30,-2.32 107.44,-2.14 110.57,-1.97 113.47,-1.90 116.36,-1.84 118.93,-1.79 121.51,-1.73 124.08,-1.65 126.65,-1.58 128.98,-1.46 131.31,-1.34 133.95,-1.40 136.59,-1.46 138.79,-2.06 140.99,-2.66 143.09,-3.44 145.19,-4.22 147.58,-5.01 149.97,-5.80 151.33,-8.86 152.69,-11.92 153.39,-14.02 154.09,-16.11 154.83,-18.89 155.56,-21.68 156.07,-24.39 156.58,-27.11 156.78,-29.69 156.99,-32.27 157.15,-34.99 157.31,-37.71 157.37,-40.31 157.42,-42.92 157.45,-45.91 157.48,-48.90 157.46,-51.39 157.45,-53.88 157.43,-56.04 157.41,-58.20 157.32,-60.49 157.24,-62.79 157.02,-66.04 156.80,-69.29 156.71,-71.43 156.61,-73.57 156.61,-75.97 156.61,-78.38 156.56,-80.64 156.52,-82.91 156.43,-85.05 156.34,-87.20 156.07,-90.97 155.81,-94.73 155.53,-98.59 155.25,-102.45 154.97,-106.32 154.68,-110.19 154.36,-113.40 154.05,-116.61 153.60,-119.50 153.15,-122.40 152.78,-125.28 152.40,-128.16 149.45,-126.75 146.49,-125.33 144.31,-125.25 142.12,-125.17 139.82,-125.09 137.52,-125.00 134.98,-124.94 132.45,-124.87 129.46,-124.86 126.48,-124.85 123.68,-124.79 120.89,-124.73 117.90,-124.76 114.90,-124.78 112.00,-124.76 109.10,-124.73 105.72,-124.82 102.35,-124.90 99.21,-124.95 96.07,-125.01 93.10,-124.96 90.12,-124.91 87.25,-124.88 84.37,-124.85 81.51,-124.76 78.64,-124.68 75.18,-124.66 71.72,-124.64 69.08,-124.47 66.45,-124.29 63.78,-124.11 61.11,-123.94 58.25,-123.79 55.40,-123.64 52.65,-123.47 49.91,-123.31 47.30,-123.21 44.69,-123.10 42.03,-123.05 39.37,-123.00 36.78,-122.89 34.20,-122.78 31.47,-122.73 28.75,-122.67 26.40,-122.61 24.04,-122.55 20.47,-122.40 16.90,-122.25 14.56,-121.78 12.22,-121.31 9.04,-120.90 5.86,-120.50 4.88,-120.63 3.91,-120.76 3.03,-121.19 2.15,-121.63 1.45,-122.32 0.75,-123.01 0.31,-123.89 -0.11,-124.77 -0.25,-125.74 -0.39,-126.71 -0.20,-127.68 -0.02,-128.64 0.45,-129.50 0.93,-130.36 1.66,-131.01 2.39,-131.67 3.29,-132.06 4.19,-132.45 5.17,-132.54 6.15,-132.62 7.10,-132.38 8.06,-132.15 8.89,-131.62 9.72,-131.10 10.33,-130.33 10.95,-129.57 11.29,-128.65 11.63,-127.73 11.66,-126.75 11.69,-125.76 11.41,-124.82 11.12,-123.88 10.55,-123.08 9.98,-122.29 9.18,-121.71 8.39,-121.14 7.45,-120.84 6.51,-120.55 5.53,-120.58 4.55,-120.60 3.62,-120.94 2.70,-121.27 1.93,-121.89 1.17,-122.50 0.63,-123.33 0.10,-124.15 -0.13,-125.10 -0.37,-126.06 -0.29,-127.04 -0.21,-128.02 0.16,-128.92 0.55,-129.82 1.20,-130.55 1.86,-131.29 2.71,-131.77 3.57,-132.26 4.53,-132.45 5.49,-132.63 5.49,-132.63 5.49,-132.63 8.34,-132.79 11.20,-132.95 14.03,-133.11 16.87,-133.27 20.42,-133.15 23.97,-133.02 26.28,-132.99 28.59,-132.96 31.21,-132.99 33.82,-133.02 36.54,-133.11 39.27,-133.19 41.85,-133.19 44.43,-133.20 46.90,-133.22 49.37,-133.24 52.13,-133.37 54.89,-133.51 57.73,-133.65 60.58,-133.79 63.26,-133.91 65.94,-134.02 68.65,-134.13 71.36,-134.23 74.83,-134.47 78.29,-134.71 81.26,-134.83 84.23,-134.96 87.02,-135.00 89.81,-135.05 92.91,-135.19 96.00,-135.33 99.10,-135.43 102.20,-135.52 105.43,-135.70 108.67,-135.88 111.66,-136.08 114.65,-136.28 117.46,-136.43 120.26,-136.58 123.06,-136.82 125.86,-137.06 128.78,-137.34 131.70,-137.63 134.20,-137.86 136.70,-138.08 138.99,-138.29 141.28,-138.50 143.46,-138.69 145.63,-138.88 148.62,-139.10 151.62,-139.33 153.94,-139.29 156.26,-139.26 159.74,-137.99 163.23,-136.73 164.36,-133.42 165.48,-130.12 165.79,-127.39 166.10,-124.66 166.44,-121.29 166.78,-117.91 167.06,-114.55 167.34,-111.19 167.65,-107.33 167.96,-103.46 168.27,-99.59 168.59,-95.73 168.90,-91.86 169.21,-87.99 169.38,-85.76 169.56,-83.53 169.74,-81.13 169.92,-78.74 170.23,-74.57 170.54,-70.40 170.84,-67.03 171.14,-63.67 171.23,-60.93 171.32,-58.20 171.29,-56.04 171.27,-53.88 171.25,-51.37 171.24,-48.87 171.24,-45.80 171.24,-42.73 171.17,-39.64 171.10,-36.54 170.93,-33.89 170.77,-31.25 170.53,-28.16 170.30,-25.07 169.72,-21.80 169.15,-18.52 168.32,-15.17 167.50,-11.81 166.75,-9.63 166.00,-7.45 164.62,-3.86 163.24,-0.28 161.33,2.24 159.42,4.77 157.27,6.00 155.13,7.23 152.22,8.12 149.31,9.01 146.73,9.70 144.15,10.40 142.05,10.88 139.94,11.36 137.53,11.42 135.12,11.48 132.99,11.38 130.86,11.28 128.35,11.03 125.84,10.78 123.24,10.55 120.65,10.33 118.12,10.08 115.59,9.82 112.67,9.54 109.75,9.25 106.61,8.84 103.48,8.43 100.63,8.01 97.78,7.58 95.21,7.25 92.65,6.92 90.21,6.58 87.76,6.25 84.34,5.90 80.91,5.55 77.63,5.46 74.36,5.36 70.60,5.35 66.85,5.34 62.53,5.34 58.21,5.34 53.35,5.25 48.48,5.16 43.56,5.03 38.64,4.90 33.38,4.83 28.11,4.77 23.46,4.98 18.82,5.19 14.48,5.08 10.15,4.97 7.13,4.68 4.11,4.38 1.98,4.14 -0.15,3.90 -0.61,3.83 -1.08,3.75 -1.51,3.57 -1.94,3.39 -2.32,3.10 -2.70,2.82 -3.00,2.46 -3.30,2.09 -3.50,1.67 -3.70,1.24 -3.80,0.78 -3.89,0.32 -3.88,-0.14 -3.86,-0.62 -3.73,-1.07 -3.60,-1.52 -3.36,-1.93 -3.13,-2.34 -2.80,-2.68 -2.47,-3.02 -2.08,-3.27 -1.68,-3.53 -1.23,-3.68 -0.78,-3.83 -0.31,-3.87 0.15,-3.90 0.15,-3.90 L 0.15,-3.90 Z"></path></g><g transform="translate(97.5687918202243 147.76616644388628) rotate(0 130.4308620736988 69.36706236711525)" stroke="none"><path fill="#f36d6b" d="M 4.36,1.25 Q 4.36,1.25 3.96,3.07 3.56,4.90 3.00,8.15 2.44,11.40 2.12,14.72 1.81,18.04 1.45,20.65 1.10,23.25 0.56,26.56 0.03,29.88 -0.78,33.76 -1.61,37.64 -2.48,41.50 -3.34,45.37 -3.94,48.83 -4.54,52.30 -5.04,55.65 -5.55,59.01 -5.87,61.96 -6.19,64.91 -6.45,67.70 -6.72,70.50 -6.95,73.08 -7.18,75.66 -7.30,77.89 -7.42,80.13 -7.44,82.63 -7.45,85.13 -7.59,88.73 -7.74,92.33 -7.83,96.51 -7.93,100.70 -8.27,105.25 -8.61,109.81 -8.72,112.22 -8.82,114.62 -9.04,117.06 -9.25,119.51 -9.50,121.76 -9.75,124.01 -10.01,126.17 -10.28,128.32 -10.41,131.01 -10.55,133.69 -10.82,137.35 -11.10,141.01 -11.31,144.38 -11.52,147.75 -11.53,150.25 -11.53,152.76 -11.81,155.69 -12.10,158.62 -12.23,161.12 -12.36,163.63 -12.72,166.43 -13.07,169.23 -13.22,171.58 -13.36,173.92 -13.12,176.14 -12.88,178.35 -10.96,177.29 -9.04,176.24 -6.80,176.84 -4.56,177.45 -2.15,177.92 0.25,178.40 2.75,178.74 5.26,179.08 7.56,179.32 9.86,179.56 12.34,179.79 14.82,180.02 17.66,180.36 20.51,180.70 23.27,181.04 26.03,181.39 29.12,181.88 32.21,182.37 35.70,182.97 39.18,183.57 42.82,184.10 46.46,184.64 50.12,185.18 53.79,185.72 58.19,186.40 62.58,187.08 67.33,187.62 72.08,188.16 76.84,188.62 81.60,189.08 86.75,189.67 91.89,190.25 97.11,190.70 102.33,191.15 107.81,191.62 113.30,192.09 118.97,192.57 124.64,193.04 130.35,193.34 136.05,193.64 141.73,193.86 147.41,194.08 152.72,194.18 158.02,194.28 163.36,194.32 168.70,194.37 173.68,194.31 178.66,194.25 182.98,194.05 187.29,193.86 189.84,193.53 192.38,193.20 194.97,192.88 197.56,192.56 200.55,192.30 203.55,192.05 207.72,191.96 211.90,191.87 214.67,191.54 217.45,191.21 219.83,190.90 222.20,190.58 226.10,190.00 229.99,189.42 233.41,188.91 236.83,188.40 239.17,187.65 241.50,186.90 243.68,185.65 245.86,184.40 247.95,183.81 250.03,183.23 253.10,182.57 256.16,181.90 258.31,181.38 260.46,180.85 262.53,179.77 264.59,178.68 266.97,176.91 269.35,175.15 270.56,172.62 271.78,170.09 272.75,165.96 273.72,161.83 274.06,159.23 274.40,156.63 274.68,153.56 274.96,150.50 275.08,147.37 275.19,144.24 274.99,141.23 274.78,138.21 274.49,134.97 274.20,131.72 274.05,127.83 273.90,123.93 273.79,119.88 273.68,115.83 273.60,111.52 273.52,107.22 273.47,102.61 273.42,98.00 273.34,93.83 273.27,89.65 273.14,85.65 273.01,81.65 272.70,77.80 272.39,73.94 272.04,69.89 271.69,65.85 271.28,61.91 270.86,57.97 270.35,54.44 269.84,50.91 269.27,47.39 268.69,43.87 268.05,40.17 267.40,36.47 266.71,32.67 266.03,28.86 265.29,25.21 264.55,21.56 263.81,18.30 263.07,15.05 262.27,12.21 261.47,9.37 260.65,6.65 259.83,3.92 259.13,1.32 258.43,-1.27 257.90,-3.82 257.36,-6.37 256.90,-8.62 256.45,-10.87 256.11,-13.12 255.77,-15.37 255.18,-18.82 254.60,-22.28 254.29,-25.38 253.98,-28.48 253.78,-31.16 253.58,-33.84 253.29,-37.04 253.01,-40.25 252.91,-43.17 252.82,-46.09 252.70,-49.31 252.58,-52.53 249.67,-52.04 246.75,-51.54 242.26,-51.98 237.77,-52.41 232.73,-52.85 227.70,-53.28 223.03,-53.59 218.37,-53.89 213.64,-54.11 208.92,-54.32 203.72,-54.57 198.51,-54.81 193.51,-54.96 188.50,-55.10 179.54,-55.12 170.57,-55.13 165.73,-55.16 160.88,-55.19 156.10,-55.13 151.32,-55.07 146.75,-54.89 142.17,-54.71 137.64,-54.56 133.10,-54.41 128.80,-54.18 124.50,-53.95 120.02,-53.68 115.53,-53.42 111.12,-53.23 106.71,-53.03 102.44,-52.86 98.17,-52.70 94.13,-52.50 90.09,-52.29 86.32,-52.05 82.56,-51.81 79.26,-51.52 75.96,-51.22 72.85,-50.93 69.74,-50.64 66.70,-50.38 63.67,-50.11 61.03,-49.82 58.39,-49.53 55.73,-49.27 53.06,-49.02 50.75,-48.75 48.44,-48.48 46.17,-48.30 43.91,-48.13 41.40,-48.03 38.88,-47.93 36.54,-47.77 34.19,-47.61 31.82,-47.44 29.46,-47.26 26.82,-47.17 24.18,-47.08 21.86,-47.01 19.55,-46.94 16.90,-46.76 14.26,-46.59 12.77,-44.68 11.28,-42.76 10.25,-40.02 9.23,-37.27 8.21,-34.22 7.19,-31.17 6.16,-27.78 5.13,-24.40 4.41,-20.52 3.69,-16.64 2.97,-12.40 2.24,-8.16 1.62,-4.17 1.00,-0.19 0.26,3.35 -0.47,6.89 -1.06,8.98 -1.64,11.06 -2.10,11.98 -2.55,12.90 -3.28,13.62 -4.00,14.35 -4.92,14.80 -5.83,15.26 -6.85,15.40 -7.86,15.54 -8.87,15.34 -9.88,15.15 -10.77,14.65 -11.66,14.15 -12.34,13.38 -13.03,12.62 -13.43,11.68 -13.84,10.74 -13.92,9.72 -14.00,8.70 -13.76,7.71 -13.51,6.71 -12.96,5.85 -12.41,4.99 -11.61,4.34 -10.81,3.70 -9.85,3.35 -8.89,2.99 -7.87,2.97 -6.84,2.94 -5.86,3.24 -4.89,3.54 -4.05,4.14 -3.22,4.73 -2.62,5.56 -2.03,6.40 -1.73,7.37 -1.42,8.35 -1.45,9.38 -1.48,10.40 -1.83,11.36 -2.18,12.32 -2.83,13.12 -3.47,13.92 -4.33,14.47 -5.19,15.02 -6.19,15.27 -7.18,15.52 -8.20,15.44 -9.22,15.35 -10.16,14.95 -11.10,14.54 -11.87,13.86 -12.63,13.18 -13.13,12.29 -13.64,11.39 -13.83,10.39 -14.02,9.38 -13.88,8.37 -13.75,7.35 -13.75,7.35 -13.75,7.36 -12.85,4.16 -11.96,0.97 -11.23,-2.46 -10.50,-5.89 -10.23,-8.17 -9.96,-10.44 -9.33,-14.32 -8.70,-18.21 -8.40,-20.81 -8.10,-23.41 -7.56,-25.98 -7.01,-28.55 -6.01,-31.77 -5.00,-34.99 -3.82,-38.39 -2.64,-41.78 -1.33,-45.00 -0.02,-48.21 1.85,-50.99 3.73,-53.77 6.61,-55.71 9.50,-57.64 11.86,-57.66 14.22,-57.67 16.83,-57.53 19.45,-57.38 21.70,-57.35 23.96,-57.32 26.44,-57.35 28.92,-57.37 31.36,-57.44 33.79,-57.52 36.28,-57.55 38.78,-57.59 43.32,-57.49 47.87,-57.40 50.23,-57.43 52.59,-57.46 55.27,-57.50 57.94,-57.54 60.63,-57.55 63.31,-57.56 66.35,-57.59 69.40,-57.62 72.53,-57.63 75.66,-57.64 78.99,-57.65 82.32,-57.66 86.10,-57.72 89.87,-57.79 93.91,-57.90 97.95,-58.01 102.21,-58.19 106.46,-58.37 110.83,-58.58 115.20,-58.79 119.70,-59.08 124.19,-59.37 128.54,-59.63 132.88,-59.89 137.40,-60.09 141.92,-60.29 146.56,-60.53 151.20,-60.78 156.02,-60.92 160.84,-61.06 165.68,-61.15 170.53,-61.24 179.54,-61.39 188.55,-61.54 193.59,-61.61 198.64,-61.68 203.79,-61.73 208.95,-61.79 213.69,-61.97 218.43,-62.16 223.15,-62.39 227.86,-62.62 232.82,-62.88 237.78,-63.14 242.28,-63.57 246.79,-64.00 251.17,-64.12 255.55,-64.25 258.40,-63.75 261.24,-63.26 262.69,-61.67 264.13,-60.08 264.68,-56.62 265.22,-53.17 265.28,-49.66 265.34,-46.14 265.30,-43.38 265.25,-40.62 265.28,-38.33 265.31,-36.05 265.22,-33.86 265.13,-31.67 265.13,-28.95 265.14,-26.23 265.11,-23.21 265.07,-20.20 265.38,-16.25 265.69,-12.30 265.93,-10.07 266.17,-7.84 266.45,-5.48 266.74,-3.11 267.18,-0.61 267.61,1.89 268.25,4.74 268.88,7.59 269.49,10.62 270.10,13.65 270.66,16.94 271.23,20.23 271.95,23.94 272.66,27.64 273.39,31.47 274.11,35.30 274.77,39.08 275.43,42.87 275.91,46.49 276.39,50.11 276.76,53.70 277.12,57.30 277.56,61.27 277.99,65.24 278.43,69.32 278.87,73.40 279.21,77.40 279.55,81.39 279.75,85.38 279.94,89.37 280.22,93.52 280.50,97.67 280.88,102.17 281.26,106.67 281.79,110.90 282.32,115.14 282.85,119.11 283.38,123.07 283.92,126.75 284.46,130.43 284.99,133.73 285.52,137.03 286.04,140.55 286.55,144.08 286.76,147.47 286.97,150.86 287.05,154.27 287.13,157.68 287.01,160.64 286.89,163.60 286.58,166.53 286.26,169.46 285.04,174.03 283.83,178.59 282.68,180.86 281.54,183.12 279.55,184.67 277.56,186.22 275.41,187.74 273.27,189.27 270.75,190.66 268.23,192.06 265.30,192.94 262.36,193.82 259.62,194.24 256.89,194.66 254.53,194.98 252.17,195.31 249.74,195.96 247.31,196.61 245.14,197.30 242.98,197.98 240.37,198.25 237.76,198.52 234.24,198.61 230.73,198.70 226.75,198.73 222.76,198.76 220.35,198.78 217.95,198.79 215.11,198.83 212.28,198.87 208.09,199.24 203.89,199.60 200.89,199.62 197.89,199.64 195.24,199.57 192.59,199.49 190.07,199.33 187.54,199.17 183.14,199.38 178.74,199.59 173.70,199.67 168.66,199.74 163.30,199.72 157.94,199.69 152.58,199.62 147.22,199.55 141.51,199.37 135.79,199.19 130.00,198.95 124.21,198.71 118.54,198.31 112.86,197.92 107.38,197.56 101.89,197.20 96.60,196.90 91.30,196.60 86.22,196.23 81.14,195.85 76.34,195.67 71.54,195.49 66.67,195.32 61.81,195.16 57.29,194.98 52.78,194.80 49.17,194.53 45.56,194.27 41.76,194.10 37.96,193.94 34.40,193.71 30.85,193.48 27.86,193.22 24.86,192.96 22.17,192.76 19.48,192.56 16.74,192.42 14.01,192.27 11.42,192.16 8.82,192.06 6.44,191.91 4.06,191.76 1.20,191.59 -1.66,191.43 -4.63,191.11 -7.61,190.79 -11.72,189.96 -15.83,189.13 -18.65,188.16 -21.46,187.19 -23.42,185.48 -25.37,183.77 -26.18,181.16 -26.99,178.55 -27.02,176.00 -27.06,173.46 -26.76,170.56 -26.45,167.66 -25.95,164.84 -25.45,162.02 -25.12,159.41 -24.79,156.79 -24.45,154.65 -24.12,152.51 -23.95,149.63 -23.79,146.75 -23.47,143.54 -23.14,140.33 -22.77,136.49 -22.39,132.65 -22.01,129.73 -21.63,126.81 -21.06,122.64 -20.49,118.46 -20.28,116.33 -20.06,114.19 -19.98,111.47 -19.89,108.74 -19.68,106.42 -19.46,104.09 -19.14,100.18 -18.82,96.27 -18.72,93.91 -18.63,91.56 -18.20,87.86 -17.78,84.17 -17.36,81.70 -16.94,79.22 -16.62,76.88 -16.30,74.55 -15.91,72.00 -15.52,69.46 -15.12,66.64 -14.72,63.82 -14.28,60.81 -13.84,57.81 -13.37,54.41 -12.89,51.00 -12.39,47.43 -11.90,43.85 -11.40,40.02 -10.90,36.18 -10.53,32.41 -10.15,28.65 -9.88,25.25 -9.60,21.86 -8.98,17.77 -8.35,13.69 -7.58,10.23 -6.81,6.77 -6.21,4.52 -5.62,2.26 -4.99,0.50 -4.36,-1.25 -4.15,-1.75 -3.93,-2.25 -3.60,-2.69 -3.28,-3.13 -2.85,-3.48 -2.43,-3.82 -1.94,-4.06 -1.44,-4.30 -0.91,-4.41 -0.37,-4.52 0.16,-4.50 0.71,-4.48 1.24,-4.33 1.76,-4.18 2.24,-3.90 2.71,-3.63 3.11,-3.25 3.50,-2.88 3.80,-2.41 4.09,-1.95 4.26,-1.43 4.44,-0.92 4.48,-0.37 4.53,0.17 4.44,0.71 4.36,1.25 4.36,1.25 L 4.36,1.25 Z"></path></g><g transform="translate(91.04909443857787 120.71430996997358) rotate(0 -32.2388111809023 -0.20667157863812236)" stroke="none"><path fill="#f36d6b" d="M 0,4.34 Q 0,4.34 -2.85,4.40 -5.70,4.46 -9.05,4.43 -12.40,4.40 -16.68,4.16 -20.95,3.93 -25.86,3.75 -30.77,3.58 -35.51,3.33 -40.25,3.08 -42.95,3.20 -45.65,3.33 -48.45,3.43 -51.25,3.54 -54.47,3.83 -57.69,4.12 -61.08,4.29 -64.47,4.46 -65.25,4.33 -66.03,4.20 -66.73,3.83 -67.43,3.46 -67.97,2.89 -68.51,2.32 -68.84,1.60 -69.17,0.88 -69.26,0.10 -69.34,-0.67 -69.17,-1.45 -69.00,-2.22 -68.60,-2.89 -68.19,-3.57 -67.59,-4.08 -66.99,-4.59 -66.25,-4.88 -65.52,-5.17 -64.73,-5.22 -63.94,-5.26 -63.18,-5.05 -62.42,-4.83 -61.77,-4.39 -61.12,-3.95 -60.64,-3.32 -60.16,-2.69 -59.91,-1.94 -59.66,-1.19 -59.66,-0.41 -59.66,0.37 -59.91,1.12 -60.16,1.87 -60.64,2.50 -61.12,3.13 -61.77,3.57 -62.43,4.01 -63.19,4.22 -63.95,4.43 -64.74,4.39 -65.52,4.35 -66.26,4.05 -66.99,3.76 -67.59,3.25 -68.19,2.74 -68.60,2.06 -69.01,1.38 -69.17,0.61 -69.34,-0.15 -69.26,-0.93 -69.17,-1.72 -68.84,-2.43 -68.51,-3.15 -67.97,-3.72 -67.42,-4.29 -66.72,-4.66 -66.03,-5.03 -65.25,-5.16 -64.47,-5.29 -64.47,-5.29 -64.47,-5.29 -61.07,-5.11 -57.67,-4.93 -54.43,-4.62 -51.19,-4.30 -48.35,-4.15 -45.52,-4.00 -42.80,-3.78 -40.08,-3.56 -35.42,-3.57 -30.77,-3.58 -25.86,-3.75 -20.95,-3.93 -16.68,-4.16 -12.40,-4.40 -9.05,-4.43 -5.70,-4.46 -2.85,-4.40 0,-4.34 0.52,-4.28 1.04,-4.22 1.53,-4.03 2.02,-3.85 2.45,-3.55 2.88,-3.25 3.23,-2.86 3.57,-2.47 3.82,-2.00 4.06,-1.54 4.19,-1.03 4.31,-0.52 4.31,0.00 4.31,0.52 4.19,1.03 4.06,1.54 3.82,2.00 3.57,2.47 3.23,2.86 2.88,3.25 2.45,3.55 2.02,3.85 1.53,4.03 1.04,4.22 0.52,4.28 -0.00,4.34 -0.00,4.34 L 0,4.34 Z"></path></g><g transform="translate(87.72957804986004 164.1223734891736) rotate(0 -32.858762849505524 2.893236549242019)" stroke="none"><path fill="#f36d6b" d="M 1.46,4.86 Q 1.46,4.86 -0.90,5.61 -3.27,6.36 -5.58,6.98 -7.89,7.61 -10.54,8.20 -13.18,8.80 -16.63,9.55 -20.08,10.30 -24.39,10.69 -28.69,11.08 -33.20,11.18 -37.71,11.28 -42.11,11.32 -46.51,11.37 -49.87,11.47 -53.24,11.57 -56.20,11.54 -59.15,11.51 -63.66,10.88 -68.17,10.24 -69.01,9.70 -69.86,9.16 -70.49,8.38 -71.12,7.60 -71.46,6.65 -71.81,5.71 -71.84,4.71 -71.86,3.70 -71.57,2.74 -71.27,1.78 -70.69,0.97 -70.10,0.15 -69.29,-0.42 -68.47,-1.01 -67.51,-1.30 -66.55,-1.60 -65.55,-1.57 -64.54,-1.54 -63.60,-1.20 -62.66,-0.85 -61.87,-0.22 -61.09,0.40 -60.55,1.24 -60.01,2.09 -59.77,3.06 -59.53,4.04 -59.61,5.04 -59.69,6.04 -60.09,6.96 -60.48,7.89 -61.15,8.63 -61.82,9.38 -62.70,9.87 -63.57,10.37 -64.56,10.56 -65.55,10.75 -66.54,10.61 -67.54,10.48 -68.44,10.03 -69.34,9.58 -70.05,8.87 -70.76,8.16 -71.20,7.26 -71.65,6.36 -71.78,5.37 -71.92,4.37 -71.73,3.39 -71.54,2.40 -71.04,1.52 -70.55,0.65 -69.80,-0.01 -69.05,-0.68 -68.13,-1.08 -67.21,-1.47 -66.21,-1.55 -65.21,-1.64 -64.23,-1.39 -63.26,-1.15 -63.26,-1.15 -63.26,-1.15 -60.78,-0.78 -58.30,-0.41 -55.77,-0.21 -53.25,-0.00 -49.89,0.08 -46.53,0.17 -42.18,0.18 -37.83,0.19 -33.64,0.07 -29.44,-0.04 -25.70,-0.31 -21.95,-0.57 -18.72,-1.01 -15.50,-1.44 -12.95,-2.02 -10.40,-2.59 -8.31,-3.05 -6.23,-3.51 -3.84,-4.19 -1.46,-4.86 -0.85,-4.97 -0.25,-5.07 0.35,-5.03 0.96,-4.99 1.55,-4.80 2.13,-4.61 2.65,-4.29 3.17,-3.96 3.60,-3.53 4.03,-3.09 4.34,-2.56 4.65,-2.03 4.83,-1.45 5.01,-0.86 5.04,-0.25 5.07,0.36 4.95,0.96 4.83,1.56 4.57,2.12 4.32,2.67 3.93,3.15 3.55,3.63 3.06,4.00 2.58,4.37 2.02,4.62 1.46,4.86 1.46,4.86 L 1.46,4.86 Z"></path></g><g transform="translate(78.61080166532247 226.12007880877076) rotate(0 -26.039042225625394 3.9265234917075986)" stroke="none"><path fill="#f36d6b" d="M 1.70,4.04 Q 1.70,4.04 -0.51,5.08 -2.74,6.12 -4.74,6.84 -6.75,7.57 -12.79,8.40 -18.83,9.23 -22.07,9.71 -25.31,10.19 -29.96,10.18 -34.61,10.17 -38.82,10.32 -43.03,10.47 -47.28,11.23 -51.53,11.98 -52.21,11.96 -52.88,11.94 -53.51,11.70 -54.14,11.47 -54.67,11.04 -55.19,10.62 -55.55,10.05 -55.91,9.48 -56.07,8.82 -56.23,8.17 -56.17,7.49 -56.11,6.82 -55.84,6.20 -55.58,5.58 -55.12,5.08 -54.67,4.58 -54.08,4.26 -53.49,3.93 -52.83,3.80 -52.16,3.68 -51.50,3.77 -50.83,3.87 -50.23,4.17 -49.62,4.47 -49.15,4.95 -48.67,5.43 -48.38,6.04 -48.08,6.64 -47.99,7.31 -47.91,7.98 -48.04,8.64 -48.17,9.31 -48.50,9.89 -48.84,10.48 -49.34,10.93 -49.85,11.37 -50.47,11.64 -51.09,11.90 -51.76,11.95 -52.43,12.00 -53.09,11.84 -53.74,11.67 -54.31,11.30 -54.87,10.94 -55.29,10.41 -55.71,9.88 -55.94,9.25 -56.17,8.61 -56.19,7.94 -56.20,7.26 -56.00,6.62 -55.80,5.98 -55.40,5.43 -55.01,4.88 -54.46,4.49 -53.91,4.10 -53.26,3.91 -52.61,3.71 -52.61,3.71 -52.61,3.71 -48.09,3.58 -43.56,3.45 -39.25,2.97 -34.94,2.48 -30.73,2.09 -26.51,1.70 -23.44,1.29 -20.36,0.87 -13.32,-0.72 -6.29,-2.32 -3.99,-3.18 -1.70,-4.04 -1.19,-4.18 -0.68,-4.33 -0.15,-4.35 0.37,-4.37 0.88,-4.26 1.40,-4.15 1.88,-3.92 2.36,-3.69 2.76,-3.36 3.17,-3.02 3.49,-2.60 3.80,-2.17 4.01,-1.68 4.21,-1.20 4.30,-0.68 4.38,-0.15 4.33,0.36 4.29,0.89 4.12,1.39 3.95,1.89 3.67,2.34 3.38,2.78 3.00,3.15 2.61,3.51 2.16,3.78 1.70,4.04 1.70,4.04 L 1.70,4.04 Z"></path></g><g transform="translate(75.30421407539029 283.15796581078075) rotate(0 -32.652107037695146 4.546475160310877)" stroke="none"><path fill="#f36d6b" d="M 1.37,3.88 Q 1.37,3.88 -2.73,5.12 -6.84,6.36 -12.65,7.36 -18.46,8.37 -21.90,9.02 -25.35,9.67 -31.33,10.16 -37.30,10.66 -40.59,11.13 -43.88,11.60 -49.08,11.77 -54.29,11.94 -57.18,12.22 -60.07,12.50 -62.62,12.74 -65.17,12.98 -65.79,12.90 -66.42,12.82 -66.98,12.55 -67.55,12.27 -68.00,11.83 -68.45,11.39 -68.73,10.82 -69.02,10.26 -69.11,9.63 -69.20,9.01 -69.08,8.39 -68.97,7.77 -68.66,7.22 -68.36,6.67 -67.89,6.24 -67.42,5.82 -66.84,5.57 -66.27,5.31 -65.64,5.26 -65.01,5.20 -64.40,5.35 -63.78,5.50 -63.25,5.83 -62.72,6.17 -62.32,6.66 -61.92,7.15 -61.70,7.74 -61.48,8.33 -61.45,8.96 -61.43,9.59 -61.61,10.19 -61.79,10.80 -62.16,11.31 -62.52,11.82 -63.03,12.20 -63.54,12.57 -64.14,12.76 -64.75,12.95 -65.38,12.93 -66.01,12.92 -66.60,12.71 -67.19,12.49 -67.69,12.10 -68.18,11.71 -68.53,11.18 -68.87,10.65 -69.03,10.04 -69.18,9.43 -69.14,8.80 -69.09,8.17 -68.84,7.59 -68.60,7.01 -68.18,6.54 -67.76,6.07 -67.22,5.75 -66.67,5.44 -66.05,5.32 -65.43,5.19 -65.43,5.19 -65.43,5.19 -62.90,5.26 -60.37,5.33 -57.50,5.37 -54.64,5.42 -49.65,5.03 -44.67,4.64 -41.32,4.36 -37.98,4.09 -32.26,3.37 -26.54,2.66 -23.16,2.16 -19.77,1.65 -14.54,0.49 -9.31,-0.65 -5.34,-2.26 -1.37,-3.88 -0.88,-3.98 -0.40,-4.09 0.09,-4.08 0.59,-4.07 1.06,-3.94 1.54,-3.81 1.98,-3.57 2.41,-3.33 2.78,-2.99 3.14,-2.65 3.41,-2.24 3.68,-1.82 3.85,-1.35 4.01,-0.89 4.06,-0.39 4.11,0.09 4.04,0.58 3.97,1.07 3.78,1.53 3.59,1.99 3.30,2.39 3.01,2.80 2.63,3.12 2.25,3.44 1.81,3.66 1.36,3.88 1.36,3.88 L 1.37,3.88 Z"></path></g><g transform="translate(374.54643349047706 141.39959968574195) rotate(0 41.105759792018375 -2.47829305894534)" stroke="none"><path fill="#f36d6b" d="M -0.37,-3.93 Q -0.37,-3.93 4.62,-4.22 9.61,-4.52 12.48,-4.86 15.34,-5.20 21.82,-5.36 28.30,-5.52 31.76,-5.71 35.22,-5.91 42.66,-5.95 50.10,-5.99 53.85,-6.08 57.59,-6.18 63.39,-6.46 69.19,-6.74 72.10,-7.17 75.00,-7.61 78.37,-8.21 81.74,-8.80 82.37,-8.77 82.99,-8.75 83.58,-8.52 84.16,-8.30 84.65,-7.90 85.13,-7.50 85.46,-6.96 85.79,-6.43 85.93,-5.82 86.08,-5.21 86.01,-4.58 85.95,-3.96 85.70,-3.39 85.44,-2.82 85.02,-2.35 84.59,-1.89 84.04,-1.59 83.49,-1.29 82.87,-1.18 82.25,-1.07 81.63,-1.17 81.01,-1.26 80.46,-1.55 79.90,-1.84 79.46,-2.29 79.02,-2.74 78.75,-3.30 78.48,-3.87 78.41,-4.49 78.33,-5.11 78.46,-5.73 78.59,-6.34 78.90,-6.88 79.22,-7.43 79.69,-7.84 80.17,-8.25 80.75,-8.49 81.33,-8.73 81.95,-8.77 82.58,-8.81 83.19,-8.65 83.79,-8.49 84.32,-8.14 84.84,-7.80 85.22,-7.30 85.61,-6.81 85.82,-6.22 86.02,-5.63 86.03,-5.00 86.04,-4.37 85.85,-3.77 85.65,-3.18 85.28,-2.67 84.91,-2.17 84.39,-1.81 83.88,-1.45 83.27,-1.28 82.67,-1.10 82.67,-1.10 82.67,-1.10 79.17,-0.86 75.67,-0.63 72.64,-0.50 69.61,-0.37 63.67,0.12 57.73,0.62 54.00,0.68 50.26,0.73 42.89,1.05 35.51,1.36 32.08,1.44 28.65,1.52 22.27,2.01 15.89,2.50 13.09,2.56 10.30,2.62 5.33,3.27 0.37,3.93 -0.10,3.91 -0.57,3.90 -1.03,3.77 -1.49,3.65 -1.91,3.42 -2.32,3.19 -2.67,2.86 -3.02,2.54 -3.28,2.14 -3.54,1.74 -3.69,1.29 -3.85,0.84 -3.90,0.37 -3.94,-0.10 -3.87,-0.57 -3.80,-1.04 -3.62,-1.48 -3.44,-1.92 -3.16,-2.30 -2.88,-2.69 -2.52,-3.00 -2.15,-3.30 -1.73,-3.51 -1.30,-3.72 -0.83,-3.82 -0.37,-3.93 -0.37,-3.93 L -0.37,-3.93 Z"></path></g><g transform="translate(374.0943670041545 207.12035758444944) rotate(0 39.67205060764854 -1.0332948258794943)" stroke="none"><path fill="#f36d6b" d="M -0.16,-3.95 Q -0.16,-3.95 5.42,-4.01 11.00,-4.07 14.10,-4.27 17.20,-4.48 23.97,-4.60 30.74,-4.72 34.29,-4.99 37.83,-5.26 45.04,-5.24 52.25,-5.21 55.99,-5.29 59.73,-5.36 65.23,-4.92 70.74,-4.47 73.36,-4.41 75.97,-4.34 77.86,-4.33 79.75,-4.33 80.36,-4.16 80.98,-3.99 81.50,-3.64 82.03,-3.28 82.42,-2.78 82.81,-2.27 83.02,-1.67 83.22,-1.06 83.23,-0.43 83.23,0.20 83.03,0.80 82.83,1.41 82.44,1.92 82.06,2.43 81.54,2.79 81.01,3.15 80.40,3.32 79.78,3.49 79.15,3.46 78.51,3.43 77.92,3.20 77.32,2.97 76.84,2.56 76.35,2.15 76.02,1.60 75.69,1.06 75.55,0.44 75.41,-0.18 75.47,-0.81 75.54,-1.44 75.80,-2.02 76.07,-2.60 76.51,-3.07 76.94,-3.53 77.50,-3.83 78.06,-4.13 78.69,-4.24 79.32,-4.35 79.95,-4.25 80.58,-4.15 81.14,-3.85 81.71,-3.55 82.15,-3.09 82.59,-2.63 82.86,-2.06 83.13,-1.48 83.20,-0.85 83.27,-0.21 83.14,0.40 83.00,1.02 82.68,1.57 82.35,2.12 81.87,2.53 81.38,2.95 80.79,3.19 80.20,3.42 79.57,3.46 78.93,3.50 78.93,3.50 78.93,3.50 77.08,3.12 75.23,2.73 72.79,2.28 70.35,1.82 65.07,1.59 59.80,1.35 56.07,1.37 52.34,1.38 45.32,1.60 38.30,1.83 34.66,2.04 31.03,2.24 24.24,2.68 17.45,3.12 14.38,3.12 11.31,3.12 5.74,3.54 0.16,3.95 -0.30,3.91 -0.78,3.88 -1.23,3.73 -1.68,3.58 -2.09,3.32 -2.49,3.07 -2.82,2.73 -3.16,2.38 -3.40,1.97 -3.64,1.56 -3.77,1.10 -3.90,0.64 -3.92,0.16 -3.94,-0.30 -3.85,-0.77 -3.75,-1.24 -3.55,-1.67 -3.35,-2.10 -3.05,-2.47 -2.74,-2.85 -2.36,-3.13 -1.98,-3.42 -1.54,-3.61 -1.11,-3.80 -0.63,-3.87 -0.16,-3.95 -0.16,-3.95 L -0.16,-3.95 Z"></path></g><g transform="translate(388.547628834993 257.5451640075618) rotate(0 31.61879644498788 3.306524522621004)" stroke="none"><path fill="#f36d6b" d="M 1.73,-3.09 Q 1.73,-3.09 4.73,-1.48 7.72,0.12 13.73,1.21 19.75,2.30 26.88,2.15 34.01,2.00 38.55,1.87 43.09,1.73 48.65,0.78 54.20,-0.17 58.46,-0.89 62.71,-1.62 63.18,-1.63 63.65,-1.64 64.10,-1.49 64.55,-1.35 64.93,-1.07 65.31,-0.80 65.58,-0.41 65.85,-0.03 65.99,0.42 66.12,0.87 66.10,1.34 66.09,1.81 65.92,2.25 65.75,2.69 65.46,3.05 65.16,3.42 64.76,3.67 64.36,3.92 63.90,4.03 63.44,4.14 62.97,4.10 62.51,4.05 62.07,3.86 61.64,3.67 61.30,3.36 60.95,3.04 60.72,2.63 60.49,2.21 60.41,1.75 60.32,1.29 60.39,0.82 60.46,0.36 60.67,-0.05 60.88,-0.47 61.22,-0.80 61.56,-1.13 61.98,-1.34 62.40,-1.54 62.87,-1.60 63.34,-1.66 63.80,-1.57 64.26,-1.48 64.67,-1.24 65.08,-1.01 65.39,-0.65 65.70,-0.30 65.88,0.12 66.06,0.56 66.10,1.03 66.13,1.50 66.01,1.95 65.90,2.41 65.64,2.80 65.38,3.20 65.01,3.49 64.64,3.78 64.20,3.94 63.76,4.10 63.76,4.10 63.76,4.10 59.52,4.93 55.29,5.76 49.36,6.90 43.43,8.05 38.84,8.39 34.26,8.72 26.63,9.13 19.00,9.53 14.00,9.13 8.99,8.73 6.57,7.63 4.15,6.53 1.20,4.81 -1.73,3.09 -2.08,2.84 -2.42,2.59 -2.70,2.26 -2.97,1.93 -3.16,1.55 -3.35,1.16 -3.44,0.75 -3.53,0.33 -3.52,-0.09 -3.51,-0.52 -3.39,-0.93 -3.28,-1.34 -3.07,-1.72 -2.86,-2.09 -2.57,-2.40 -2.28,-2.72 -1.92,-2.95 -1.56,-3.18 -1.15,-3.32 -0.75,-3.46 -0.32,-3.50 0.09,-3.54 0.52,-3.48 0.94,-3.42 1.33,-3.26 1.73,-3.09 1.73,-3.09 L 1.73,-3.09 Z"></path></g><g transform="translate(174.4650419972993 76.51189790001314) rotate(0 -2.0665896517589317 -33.25594895000657)" stroke="none"><path fill="#f36d6b" d="M -4.14,0.75 Q -4.14,0.75 -4.72,-3.18 -5.29,-7.11 -5.82,-13.63 -6.34,-20.15 -6.60,-22.50 -6.86,-24.85 -6.71,-30.19 -6.55,-35.54 -6.68,-38.50 -6.81,-41.45 -6.76,-45.88 -6.71,-50.30 -6.94,-52.56 -7.17,-54.81 -7.43,-57.37 -7.69,-59.93 -8.22,-62.90 -8.75,-65.87 -8.73,-66.63 -8.71,-67.38 -8.45,-68.09 -8.19,-68.80 -7.72,-69.39 -7.25,-69.98 -6.61,-70.38 -5.98,-70.79 -5.24,-70.97 -4.51,-71.16 -3.76,-71.10 -3.01,-71.04 -2.31,-70.74 -1.62,-70.44 -1.06,-69.94 -0.50,-69.43 -0.12,-68.78 0.24,-68.12 0.38,-67.38 0.53,-66.64 0.42,-65.89 0.32,-65.14 -0.00,-64.47 -0.34,-63.79 -0.87,-63.26 -1.40,-62.72 -2.08,-62.38 -2.75,-62.05 -3.50,-61.95 -4.25,-61.84 -4.99,-61.98 -5.73,-62.13 -6.39,-62.50 -7.05,-62.87 -7.55,-63.43 -8.06,-63.99 -8.36,-64.68 -8.65,-65.38 -8.72,-66.13 -8.78,-66.88 -8.60,-67.61 -8.42,-68.35 -8.01,-68.98 -7.60,-69.62 -7.02,-70.09 -6.43,-70.57 -5.72,-70.83 -5.01,-71.09 -4.26,-71.11 -3.50,-71.13 -2.78,-70.91 -2.06,-70.69 -1.45,-70.25 -0.83,-69.81 -0.39,-69.20 0.04,-68.58 0.26,-67.86 0.48,-67.14 0.48,-67.14 0.48,-67.14 0.58,-63.76 0.67,-60.38 0.69,-57.69 0.72,-55.00 0.59,-52.75 0.47,-50.50 0.77,-46.00 1.08,-41.50 0.99,-38.55 0.90,-35.60 1.14,-30.41 1.39,-25.22 1.34,-22.90 1.29,-20.58 1.86,-14.55 2.44,-8.52 3.29,-4.64 4.14,-0.75 4.17,-0.24 4.20,0.25 4.11,0.75 4.01,1.25 3.81,1.71 3.60,2.18 3.28,2.58 2.97,2.98 2.57,3.29 2.17,3.60 1.71,3.81 1.24,4.02 0.74,4.11 0.24,4.20 -0.25,4.17 -0.76,4.14 -1.24,3.98 -1.73,3.83 -2.16,3.57 -2.60,3.31 -2.95,2.95 -3.31,2.59 -3.57,2.15 -3.84,1.72 -3.99,1.23 -4.14,0.75 -4.14,0.75 L -4.14,0.75 Z"></path></g><g transform="translate(227.36971816213577 76.53449176423257) rotate(0 1.653278028138402 -32.84424948452715)" stroke="none"><path fill="#f36d6b" d="M -4.14,-0.43 Q -4.14,-0.43 -4.03,-2.70 -3.92,-4.96 -3.67,-8.32 -3.41,-11.67 -2.78,-18.91 -2.16,-26.14 -2.10,-28.78 -2.04,-31.43 -1.51,-37.63 -0.99,-43.83 -0.93,-46.95 -0.87,-50.07 -0.63,-54.31 -0.39,-58.55 -0.69,-62.14 -0.99,-65.73 -0.87,-66.42 -0.75,-67.10 -0.42,-67.72 -0.08,-68.33 0.42,-68.80 0.93,-69.27 1.56,-69.56 2.20,-69.84 2.89,-69.91 3.58,-69.98 4.26,-69.82 4.94,-69.66 5.53,-69.30 6.12,-68.93 6.57,-68.39 7.01,-67.86 7.26,-67.21 7.51,-66.56 7.54,-65.86 7.57,-65.17 7.38,-64.50 7.18,-63.83 6.79,-63.26 6.39,-62.69 5.83,-62.27 5.27,-61.86 4.61,-61.64 3.95,-61.43 3.25,-61.44 2.56,-61.45 1.90,-61.68 1.24,-61.91 0.69,-62.33 0.14,-62.76 -0.23,-63.34 -0.61,-63.92 -0.79,-64.60 -0.97,-65.27 -0.92,-65.96 -0.88,-66.66 -0.61,-67.30 -0.35,-67.94 0.10,-68.47 0.56,-68.99 1.16,-69.35 1.76,-69.70 2.44,-69.84 3.12,-69.98 3.81,-69.90 4.50,-69.82 5.13,-69.52 5.76,-69.22 6.26,-68.73 6.76,-68.25 7.08,-67.63 7.39,-67.01 7.50,-66.32 7.60,-65.63 7.60,-65.63 7.60,-65.63 7.22,-62.04 6.84,-58.45 6.97,-54.09 7.09,-49.73 6.89,-46.59 6.68,-43.45 6.59,-37.17 6.50,-30.89 6.23,-28.20 5.95,-25.51 5.59,-18.32 5.24,-11.12 5.06,-7.57 4.88,-4.03 4.51,-1.79 4.14,0.43 4.03,0.92 3.92,1.41 3.69,1.86 3.46,2.31 3.14,2.69 2.81,3.07 2.40,3.36 1.99,3.66 1.52,3.84 1.06,4.03 0.56,4.10 0.06,4.16 -0.43,4.11 -0.93,4.06 -1.40,3.89 -1.88,3.72 -2.29,3.44 -2.71,3.16 -3.05,2.79 -3.39,2.42 -3.63,1.98 -3.87,1.53 -4.00,1.05 -4.13,0.56 -4.13,0.06 -4.14,-0.43 -4.14,-0.43 L -4.14,-0.43 Z"></path></g><g transform="translate(273.24803365810953 78.21682805598317) rotate(0 5.993097376638843 -27.072325226383995)" stroke="none"><path fill="#f36d6b" d="M -3.80,-1.48 Q -3.80,-1.48 -1.96,-5.68 -0.11,-9.89 0.68,-12.45 1.49,-15.00 3.20,-20.72 4.90,-26.44 5.66,-29.86 6.41,-33.28 7.09,-38.56 7.77,-43.85 7.88,-46.88 7.99,-49.91 8.00,-52.18 8.01,-54.46 8.16,-55.08 8.32,-55.71 8.66,-56.25 9.01,-56.80 9.51,-57.20 10.01,-57.61 10.62,-57.83 11.22,-58.05 11.87,-58.07 12.51,-58.09 13.13,-57.90 13.75,-57.71 14.27,-57.34 14.79,-56.96 15.17,-56.44 15.55,-55.92 15.74,-55.30 15.93,-54.68 15.91,-54.04 15.90,-53.39 15.67,-52.79 15.45,-52.18 15.05,-51.68 14.65,-51.18 14.10,-50.83 13.56,-50.48 12.94,-50.32 12.31,-50.17 11.67,-50.22 11.02,-50.27 10.43,-50.53 9.84,-50.78 9.36,-51.21 8.88,-51.64 8.56,-52.20 8.24,-52.76 8.12,-53.39 8.00,-54.03 8.08,-54.67 8.17,-55.30 8.46,-55.88 8.74,-56.46 9.20,-56.92 9.65,-57.37 10.23,-57.66 10.81,-57.95 11.45,-58.04 12.08,-58.12 12.72,-58.00 13.35,-57.88 13.91,-57.57 14.47,-57.25 14.91,-56.77 15.34,-56.29 15.59,-55.70 15.85,-55.11 15.90,-54.46 15.95,-53.82 15.95,-53.82 15.95,-53.82 15.60,-51.58 15.25,-49.33 14.87,-46.24 14.49,-43.15 14.02,-37.40 13.55,-31.65 12.71,-28.11 11.88,-24.58 10.41,-18.40 8.93,-12.23 7.85,-9.72 6.77,-7.21 5.29,-2.86 3.80,1.48 3.57,1.91 3.34,2.34 3.01,2.71 2.68,3.08 2.27,3.35 1.86,3.63 1.40,3.80 0.94,3.97 0.45,4.03 -0.03,4.08 -0.52,4.02 -1.01,3.95 -1.47,3.78 -1.92,3.60 -2.33,3.31 -2.73,3.03 -3.05,2.66 -3.38,2.29 -3.60,1.85 -3.83,1.41 -3.94,0.93 -4.06,0.45 -4.05,-0.03 -4.05,-0.52 -3.92,-1.00 -3.80,-1.48 -3.80,-1.48 L -3.80,-1.48 Z"></path></g><g transform="translate(146.35937858625948 339.84712211578756) rotate(0 0.6199989690866232 33.89043369212288)" stroke="none"><path fill="#f36d6b" d="M 4.01,0.32 Q 4.01,0.32 3.84,3.29 3.68,6.27 3.56,12.70 3.45,19.14 3.71,21.73 3.97,24.32 3.95,30.51 3.92,36.70 4.01,40.27 4.09,43.84 4.08,49.38 4.08,54.93 4.50,58.44 4.93,61.96 5.39,64.65 5.86,67.34 5.83,67.96 5.80,68.57 5.57,69.15 5.35,69.72 4.95,70.20 4.55,70.67 4.02,70.99 3.50,71.31 2.89,71.45 2.29,71.59 1.68,71.52 1.06,71.46 0.50,71.21 -0.05,70.95 -0.50,70.53 -0.95,70.10 -1.25,69.56 -1.54,69.02 -1.64,68.41 -1.75,67.80 -1.65,67.19 -1.55,66.58 -1.27,66.03 -0.98,65.48 -0.54,65.06 -0.09,64.63 0.46,64.37 1.02,64.10 1.63,64.03 2.25,63.96 2.85,64.09 3.45,64.22 3.99,64.54 4.52,64.85 4.92,65.32 5.32,65.79 5.55,66.36 5.79,66.93 5.82,67.55 5.86,68.17 5.70,68.76 5.54,69.36 5.19,69.87 4.85,70.39 4.36,70.76 3.87,71.14 3.29,71.34 2.70,71.54 2.08,71.54 1.47,71.55 0.88,71.35 0.29,71.16 -0.19,70.79 -0.69,70.42 -1.04,69.91 -1.38,69.40 -1.55,68.80 -1.72,68.21 -1.72,68.21 -1.72,68.21 -1.88,65.48 -2.04,62.76 -2.46,58.94 -2.87,55.12 -3.18,49.56 -3.49,44.00 -3.57,40.46 -3.64,36.92 -4.03,30.86 -4.42,24.79 -4.46,22.03 -4.50,19.27 -4.56,12.43 -4.63,5.60 -4.32,2.64 -4.01,-0.32 -3.91,-0.79 -3.81,-1.27 -3.60,-1.70 -3.40,-2.14 -3.09,-2.52 -2.78,-2.89 -2.40,-3.19 -2.01,-3.48 -1.56,-3.67 -1.12,-3.86 -0.64,-3.94 -0.16,-4.01 0.31,-3.98 0.80,-3.94 1.26,-3.78 1.72,-3.63 2.13,-3.37 2.54,-3.11 2.87,-2.76 3.21,-2.41 3.45,-1.99 3.70,-1.57 3.83,-1.11 3.97,-0.64 3.99,-0.16 4.01,0.32 4.01,0.32 L 4.01,0.32 Z"></path></g><g transform="translate(219.93001433599693 348.95303276885056) rotate(0 6.403176800563074 28.722367113118935)" stroke="none"><path fill="#f36d6b" d="M 4.16,-0.92 Q 4.16,-0.92 4.87,2.28 5.58,5.48 6.64,12.76 7.69,20.04 8.21,23.26 8.72,26.48 9.32,31.91 9.92,37.34 10.47,42.03 11.02,46.72 11.95,49.32 12.87,51.92 14.34,53.18 15.81,54.43 16.15,54.98 16.48,55.53 16.63,56.16 16.77,56.78 16.70,57.42 16.64,58.06 16.37,58.65 16.11,59.24 15.67,59.71 15.23,60.18 14.66,60.48 14.10,60.79 13.46,60.89 12.83,61.00 12.19,60.90 11.56,60.80 10.99,60.50 10.42,60.21 9.97,59.74 9.53,59.28 9.25,58.70 8.98,58.12 8.90,57.48 8.83,56.84 8.96,56.21 9.10,55.58 9.43,55.03 9.75,54.47 10.24,54.05 10.73,53.63 11.33,53.39 11.92,53.15 12.56,53.11 13.21,53.07 13.83,53.24 14.45,53.41 14.98,53.76 15.52,54.12 15.91,54.63 16.30,55.14 16.51,55.75 16.72,56.36 16.72,57.00 16.73,57.64 16.53,58.25 16.33,58.87 15.94,59.38 15.55,59.89 15.02,60.26 14.49,60.62 13.88,60.80 13.26,60.98 12.61,60.95 11.97,60.91 11.37,60.68 10.77,60.45 10.28,60.03 9.79,59.62 9.79,59.62 9.79,59.62 7.88,56.95 5.97,54.28 5.11,51.01 4.26,47.74 3.42,43.08 2.58,38.42 1.59,33.06 0.59,27.69 0.15,24.50 -0.28,21.31 -1.51,14.32 -2.74,7.33 -3.45,4.12 -4.16,0.92 -4.21,0.41 -4.26,-0.09 -4.18,-0.60 -4.11,-1.11 -3.91,-1.59 -3.72,-2.06 -3.42,-2.48 -3.12,-2.89 -2.73,-3.23 -2.33,-3.56 -1.87,-3.79 -1.41,-4.01 -0.91,-4.12 -0.41,-4.24 0.09,-4.22 0.61,-4.21 1.10,-4.08 1.60,-3.94 2.05,-3.69 2.50,-3.44 2.87,-3.09 3.25,-2.74 3.53,-2.32 3.81,-1.89 3.98,-1.40 4.16,-0.92 4.16,-0.92 L 4.16,-0.92 Z"></path></g><g transform="translate(307.1335954004462 362.17269799359735) rotate(0 3.300091656883751 21.279415320455712)" stroke="none"><path fill="#f36d6b" d="M 4.17,-0.74 Q 4.17,-0.74 4.78,3.92 5.40,8.59 6.00,11.11 6.61,13.64 6.99,19.07 7.38,24.49 7.75,27.21 8.13,29.94 8.77,33.26 9.42,36.58 10.05,39.17 10.68,41.75 10.70,42.42 10.72,43.10 10.53,43.74 10.33,44.39 9.94,44.93 9.55,45.48 9.01,45.88 8.46,46.27 7.82,46.48 7.18,46.68 6.50,46.66 5.83,46.65 5.20,46.42 4.56,46.19 4.04,45.77 3.51,45.35 3.14,44.78 2.78,44.22 2.61,43.56 2.45,42.91 2.50,42.24 2.55,41.57 2.81,40.95 3.08,40.33 3.52,39.83 3.97,39.32 4.56,38.99 5.14,38.65 5.80,38.52 6.46,38.39 7.13,38.48 7.80,38.57 8.40,38.86 9.01,39.16 9.49,39.64 9.96,40.11 10.27,40.71 10.57,41.31 10.66,41.98 10.76,42.65 10.63,43.31 10.51,43.97 10.18,44.56 9.85,45.15 9.35,45.60 8.85,46.05 8.24,46.32 7.62,46.59 6.95,46.65 6.28,46.70 5.62,46.55 4.97,46.39 4.40,46.03 3.83,45.67 3.41,45.14 2.98,44.62 2.75,43.99 2.51,43.36 2.51,43.36 2.51,43.36 2.12,40.73 1.72,38.10 0.97,34.37 0.23,30.64 0.13,27.95 0.03,25.27 -0.68,20.19 -1.41,15.12 -1.75,12.52 -2.09,9.93 -3.13,5.33 -4.17,0.74 -4.20,0.23 -4.22,-0.27 -4.13,-0.77 -4.04,-1.27 -3.82,-1.74 -3.61,-2.20 -3.30,-2.60 -2.98,-3.00 -2.58,-3.32 -2.17,-3.63 -1.70,-3.84 -1.24,-4.05 -0.74,-4.14 -0.23,-4.23 0.27,-4.19 0.78,-4.16 1.26,-4.01 1.75,-3.85 2.19,-3.59 2.62,-3.32 2.98,-2.96 3.34,-2.59 3.60,-2.16 3.87,-1.72 4.02,-1.23 4.17,-0.74 4.17,-0.74 L 4.17,-0.74 Z"></path></g></svg>