<?xml version="1.0" standalone="no"?>
<!DOCTYPE svg PUBLIC "-//W3C//DTD SVG 1.1//EN" "http://www.w3.org/Graphics/SVG/1.1/DTD/svg11.dtd">
<svg version="1.1" xmlns="http://www.w3.org/2000/svg" viewBox="0 0 308.2777746741233 216.86224974498384" width="308.2777746741233" height="216.86224974498384"><!-- svg-source:excalidraw --><metadata></metadata><defs><style class="style-fonts">
      </style></defs><g transform="translate(11.982757999310707 11.737111608986595) rotate(0 66.61823418056906 -0.17371182355415016)" stroke="none"><path fill="#f36d6b" d="M 0.08,-1.58 Q 0.08,-1.58 1.93,-1.50 3.78,-1.43 7.31,-1.19 10.84,-0.96 13.12,-0.84 15.41,-0.73 21.21,-0.67 27.01,-0.61 30.73,-0.58 34.45,-0.55 42.98,-0.38 51.52,-0.21 63.27,-0.19 75.02,-0.16 87.24,-0.50 99.46,-0.84 108.44,-1.33 117.42,-1.82 121.54,-2.07 125.66,-2.33 127.79,-2.53 129.92,-2.74 131.50,-2.99 133.08,-3.24 133.33,-3.23 133.57,-3.21 133.80,-3.12 134.03,-3.02 134.21,-2.86 134.40,-2.70 134.52,-2.49 134.65,-2.28 134.70,-2.04 134.75,-1.80 134.72,-1.55 134.69,-1.31 134.58,-1.09 134.48,-0.87 134.31,-0.69 134.14,-0.51 133.92,-0.40 133.70,-0.29 133.46,-0.25 133.21,-0.21 132.97,-0.26 132.73,-0.30 132.52,-0.42 132.30,-0.53 132.13,-0.71 131.97,-0.89 131.87,-1.12 131.77,-1.34 131.74,-1.59 131.72,-1.83 131.77,-2.07 131.83,-2.31 131.96,-2.52 132.09,-2.73 132.27,-2.88 132.46,-3.04 132.69,-3.13 132.92,-3.22 133.17,-3.23 133.41,-3.24 133.65,-3.17 133.88,-3.10 134.09,-2.96 134.29,-2.82 134.43,-2.62 134.58,-2.43 134.66,-2.19 134.73,-1.96 134.73,-1.72 134.73,-1.47 134.64,-1.24 134.56,-1.01 134.41,-0.81 134.26,-0.62 134.06,-0.48 133.85,-0.35 133.62,-0.29 133.38,-0.22 133.38,-0.22 133.38,-0.22 131.78,-0.16 130.18,-0.10 128.00,0.10 125.83,0.32 121.70,0.58 117.57,0.85 108.56,1.35 99.54,1.85 87.28,2.20 75.02,2.55 63.24,2.54 51.47,2.53 42.95,2.39 34.44,2.25 30.72,2.25 26.99,2.25 21.15,2.24 15.30,2.23 12.99,2.18 10.67,2.12 7.14,1.98 3.60,1.83 1.76,1.70 -0.08,1.58 -0.27,1.54 -0.46,1.51 -0.63,1.43 -0.81,1.36 -0.96,1.24 -1.11,1.12 -1.23,0.97 -1.35,0.82 -1.43,0.65 -1.51,0.48 -1.54,0.29 -1.58,0.10 -1.57,-0.08 -1.56,-0.27 -1.50,-0.45 -1.44,-0.64 -1.35,-0.80 -1.25,-0.96 -1.11,-1.10 -0.98,-1.24 -0.82,-1.34 -0.65,-1.44 -0.47,-1.49 -0.29,-1.55 -0.10,-1.56 0.08,-1.58 0.08,-1.58 L 0.08,-1.58 Z"></path></g><g transform="translate(10.694834041106787 14.367197877291005) rotate(0 0.000019879664705513278 54.71223340413273)" stroke="none"><path fill="#f36d6b" d="M 2.10,0 Q 2.10,0 2.14,1.39 2.18,2.78 2.15,4.58 2.11,6.37 2.18,7.43 2.24,8.49 2.22,10.41 2.19,12.33 2.17,15.82 2.15,19.30 2.21,20.59 2.28,21.87 2.12,24.59 1.97,27.30 1.95,28.78 1.93,30.25 1.81,33.13 1.69,36.00 1.73,37.53 1.76,39.07 1.63,41.93 1.49,44.79 1.52,46.35 1.55,47.90 1.41,51.12 1.28,54.33 1.29,56.04 1.30,57.75 1.22,61.22 1.15,64.68 1.17,66.46 1.20,68.23 1.14,71.33 1.09,74.43 1.15,76.00 1.22,77.57 1.11,79.95 1.00,82.33 1.08,83.64 1.15,84.94 1.15,86.68 1.16,88.42 1.35,90.62 1.54,92.83 1.80,94.61 2.07,96.40 2.26,98.06 2.45,99.72 2.57,101.15 2.70,102.59 2.82,103.76 2.93,104.93 3.27,107.00 3.61,109.08 3.59,109.55 3.57,110.03 3.40,110.47 3.23,110.92 2.92,111.28 2.62,111.65 2.21,111.90 1.80,112.14 1.34,112.25 0.87,112.36 0.40,112.31 -0.06,112.26 -0.50,112.07 -0.93,111.87 -1.28,111.55 -1.63,111.22 -1.86,110.80 -2.08,110.38 -2.16,109.91 -2.24,109.44 -2.17,108.97 -2.10,108.50 -1.88,108.08 -1.66,107.66 -1.32,107.33 -0.97,107.00 -0.54,106.79 -0.11,106.59 0.35,106.53 0.82,106.48 1.29,106.58 1.76,106.68 2.17,106.92 2.58,107.16 2.89,107.52 3.20,107.88 3.38,108.32 3.56,108.76 3.59,109.24 3.62,109.71 3.50,110.17 3.37,110.63 3.11,111.03 2.84,111.43 2.47,111.72 2.09,112.01 1.64,112.16 1.19,112.32 0.71,112.32 0.24,112.33 -0.20,112.18 -0.66,112.03 -1.04,111.75 -1.42,111.46 -1.69,111.07 -1.96,110.68 -2.09,110.22 -2.22,109.76 -2.22,109.76 -2.22,109.76 -2.48,107.54 -2.74,105.31 -2.74,103.99 -2.73,102.67 -2.69,101.35 -2.64,100.03 -2.64,98.37 -2.65,96.72 -2.69,94.85 -2.73,92.99 -2.63,90.70 -2.52,88.41 -2.50,86.64 -2.47,84.88 -2.36,83.57 -2.24,82.26 -2.25,79.92 -2.26,77.57 -2.19,76.00 -2.12,74.43 -2.18,71.33 -2.23,68.22 -2.19,66.45 -2.16,64.67 -2.21,61.18 -2.26,57.70 -2.20,55.98 -2.14,54.27 -2.16,51.06 -2.17,47.85 -2.10,46.28 -2.02,44.72 -2.05,41.88 -2.07,39.04 -2.01,37.50 -1.95,35.96 -2.01,33.01 -2.07,30.06 -1.95,28.65 -1.83,27.23 -1.88,24.56 -1.94,21.89 -1.88,20.60 -1.83,19.32 -1.91,15.88 -1.99,12.44 -2.12,10.46 -2.24,8.49 -2.18,7.43 -2.11,6.37 -2.15,4.58 -2.18,2.78 -2.14,1.39 -2.10,0 -2.07,-0.25 -2.04,-0.50 -1.95,-0.74 -1.86,-0.97 -1.71,-1.18 -1.57,-1.39 -1.38,-1.56 -1.19,-1.73 -0.97,-1.84 -0.74,-1.96 -0.49,-2.02 -0.25,-2.08 0.00,-2.08 0.25,-2.08 0.49,-2.02 0.74,-1.96 0.97,-1.84 1.19,-1.73 1.38,-1.56 1.57,-1.39 1.71,-1.18 1.86,-0.97 1.95,-0.74 2.04,-0.50 2.07,-0.25 2.10,0.00 2.10,0.00 L 2.10,0 Z"></path></g><g transform="translate(12.381742870133849 123.95993942081117) rotate(0 76.08550702796686 0.5211387839399038)" stroke="none"><path fill="#f36d6b" d="M -0.12,-1.57 Q -0.12,-1.57 1.77,-1.74 3.66,-1.90 6.75,-1.98 9.84,-2.05 14.57,-1.97 19.30,-1.89 25.06,-1.70 30.81,-1.50 33.81,-1.36 36.80,-1.22 41.72,-1.01 46.63,-0.80 49.17,-0.70 51.70,-0.61 56.57,-0.52 61.43,-0.43 64.25,-0.38 67.06,-0.34 71.30,-0.32 75.54,-0.31 78.00,-0.30 80.45,-0.29 84.34,-0.23 88.24,-0.18 93.40,-0.01 98.57,0.16 101.20,0.23 103.83,0.31 107.54,0.34 111.24,0.37 115.22,0.38 119.19,0.40 123.23,0.40 127.26,0.41 130.73,0.41 134.19,0.41 136.96,0.42 139.73,0.42 141.91,0.42 144.09,0.42 145.91,0.35 147.73,0.29 149.95,0.21 152.17,0.13 152.42,0.17 152.68,0.21 152.91,0.33 153.14,0.46 153.31,0.64 153.49,0.83 153.60,1.07 153.71,1.30 153.74,1.56 153.77,1.82 153.71,2.07 153.66,2.33 153.52,2.55 153.39,2.77 153.19,2.94 152.99,3.11 152.75,3.20 152.51,3.30 152.25,3.31 151.99,3.33 151.74,3.26 151.49,3.19 151.28,3.04 151.06,2.90 150.91,2.69 150.75,2.48 150.67,2.24 150.58,1.99 150.58,1.73 150.58,1.47 150.67,1.23 150.75,0.98 150.91,0.77 151.06,0.57 151.28,0.42 151.49,0.28 151.74,0.21 151.99,0.14 152.25,0.15 152.51,0.17 152.75,0.26 152.99,0.36 153.19,0.53 153.39,0.69 153.52,0.92 153.66,1.14 153.71,1.39 153.77,1.65 153.74,1.90 153.71,2.16 153.60,2.40 153.49,2.63 153.31,2.82 153.14,3.01 152.91,3.13 152.68,3.25 152.42,3.29 152.17,3.34 152.17,3.34 152.17,3.34 149.95,3.25 147.73,3.17 145.91,3.11 144.08,3.05 141.91,3.05 139.73,3.04 136.96,3.04 134.19,3.04 130.73,3.04 127.26,3.04 123.22,3.03 119.18,3.03 115.20,3.02 111.22,3.00 107.49,2.97 103.76,2.94 101.12,2.87 98.48,2.80 93.34,2.63 88.21,2.45 84.32,2.40 80.44,2.35 77.99,2.35 75.53,2.34 71.28,2.33 67.03,2.32 64.21,2.29 61.38,2.25 56.50,2.17 51.61,2.09 49.07,2.02 46.52,1.94 41.61,1.75 36.69,1.56 33.71,1.45 30.72,1.34 25.00,1.19 19.27,1.04 14.61,1.02 9.96,1.00 6.94,1.15 3.92,1.30 2.02,1.44 0.12,1.57 -0.06,1.56 -0.25,1.55 -0.43,1.50 -0.62,1.45 -0.78,1.35 -0.95,1.26 -1.08,1.12 -1.22,0.99 -1.32,0.83 -1.42,0.67 -1.48,0.49 -1.54,0.31 -1.56,0.12 -1.57,-0.06 -1.54,-0.25 -1.51,-0.44 -1.44,-0.61 -1.36,-0.79 -1.25,-0.94 -1.13,-1.09 -0.99,-1.21 -0.84,-1.33 -0.67,-1.41 -0.49,-1.50 -0.31,-1.53 -0.12,-1.57 -0.12,-1.57 L -0.12,-1.57 Z"></path></g><g transform="translate(145.6168461609616 14.372644905422817) rotate(0 4.950778688099717 57.75150281125899)" stroke="none"><path fill="#f36d6b" d="M 1.71,-0.27 Q 1.71,-0.27 2.01,1.25 2.32,2.79 2.55,4.97 2.79,7.15 3.02,8.28 3.25,9.40 3.47,11.56 3.70,13.72 3.96,15.39 4.23,17.06 4.46,20.16 4.70,23.26 5.03,28.08 5.36,32.89 5.48,35.45 5.60,38.00 5.85,41.82 6.09,45.64 6.43,49.96 6.77,54.27 7.21,58.54 7.65,62.81 8.08,66.98 8.52,71.15 8.85,75.08 9.18,79.02 9.47,82.38 9.76,85.74 9.98,88.88 10.20,92.02 10.45,93.52 10.69,95.03 10.84,96.90 10.98,98.77 11.26,101.28 11.54,103.79 11.64,105.43 11.74,107.07 11.83,108.49 11.92,109.91 11.89,112.82 11.85,115.73 11.76,116.10 11.66,116.46 11.45,116.77 11.24,117.08 10.94,117.31 10.65,117.54 10.29,117.66 9.94,117.78 9.56,117.78 9.19,117.79 8.83,117.67 8.48,117.55 8.18,117.33 7.88,117.10 7.66,116.79 7.45,116.48 7.35,116.12 7.25,115.76 7.27,115.39 7.28,115.01 7.42,114.66 7.56,114.32 7.80,114.03 8.04,113.74 8.36,113.55 8.68,113.35 9.04,113.27 9.41,113.19 9.78,113.22 10.16,113.26 10.50,113.42 10.84,113.57 11.11,113.83 11.39,114.09 11.56,114.42 11.74,114.75 11.80,115.11 11.87,115.48 11.81,115.85 11.75,116.23 11.58,116.56 11.40,116.89 11.13,117.15 10.86,117.41 10.52,117.57 10.18,117.73 9.81,117.77 9.44,117.81 9.07,117.73 8.70,117.66 8.38,117.46 8.06,117.27 7.82,116.99 7.57,116.70 7.43,116.36 7.29,116.01 7.27,115.63 7.24,115.26 7.24,115.26 7.24,115.26 7.51,112.63 7.77,110.01 7.79,108.63 7.81,107.26 7.76,105.61 7.70,103.96 7.74,101.46 7.79,98.97 7.71,97.14 7.63,95.32 7.58,93.76 7.54,92.21 7.31,89.09 7.08,85.98 6.79,82.61 6.49,79.25 6.14,75.34 5.80,71.44 5.35,67.27 4.89,63.10 4.42,58.81 3.95,54.51 3.57,50.18 3.19,45.85 2.89,42.02 2.60,38.19 2.40,35.66 2.21,33.14 1.78,28.37 1.36,23.59 1.00,20.57 0.64,17.56 0.45,15.88 0.25,14.21 -0.12,12.03 -0.51,9.84 -0.54,8.74 -0.57,7.63 -0.94,5.50 -1.32,3.38 -1.51,1.82 -1.71,0.27 -1.71,0.06 -1.72,-0.14 -1.68,-0.34 -1.64,-0.55 -1.55,-0.73 -1.46,-0.92 -1.33,-1.08 -1.19,-1.25 -1.03,-1.37 -0.86,-1.50 -0.67,-1.58 -0.48,-1.66 -0.27,-1.69 -0.06,-1.73 0.13,-1.71 0.34,-1.69 0.54,-1.63 0.74,-1.56 0.92,-1.45 1.09,-1.34 1.24,-1.19 1.38,-1.04 1.49,-0.85 1.59,-0.67 1.65,-0.47 1.71,-0.27 1.71,-0.27 L 1.71,-0.27 Z"></path></g><g transform="translate(122.48205863970361 206.34111096104397) rotate(0 87.89785801720984 -2.9530844340333147)" stroke="none"><path fill="#f36d6b" d="M 0.07,-1.56 Q 0.07,-1.56 3.02,-1.37 5.96,-1.19 10.47,-1.20 14.97,-1.21 21.44,-1.36 27.90,-1.51 35.76,-1.61 43.61,-1.72 47.90,-1.76 52.19,-1.80 58.95,-1.87 65.72,-1.93 68.99,-1.96 72.27,-1.98 78.47,-2.34 84.68,-2.70 87.92,-2.90 91.17,-3.10 97.50,-3.44 103.83,-3.77 107.42,-3.96 111.01,-4.16 116.49,-4.34 121.97,-4.52 125.05,-4.59 128.13,-4.67 133.06,-5.00 137.98,-5.33 140.84,-5.52 143.69,-5.71 147.50,-6.00 151.30,-6.28 153.38,-6.41 155.46,-6.54 158.39,-6.69 161.32,-6.84 162.87,-7.00 164.41,-7.17 166.66,-7.26 168.90,-7.36 172.28,-7.72 175.66,-8.08 175.93,-8.06 176.20,-8.04 176.44,-7.93 176.69,-7.82 176.89,-7.64 177.09,-7.46 177.22,-7.23 177.36,-6.99 177.41,-6.73 177.46,-6.46 177.42,-6.20 177.38,-5.93 177.26,-5.69 177.14,-5.45 176.95,-5.26 176.76,-5.07 176.52,-4.95 176.28,-4.83 176.01,-4.79 175.74,-4.76 175.48,-4.81 175.21,-4.86 174.98,-4.99 174.74,-5.13 174.56,-5.33 174.38,-5.53 174.28,-5.78 174.17,-6.02 174.15,-6.29 174.13,-6.56 174.20,-6.82 174.26,-7.09 174.41,-7.31 174.55,-7.54 174.76,-7.71 174.98,-7.88 175.23,-7.97 175.48,-8.06 175.75,-8.07 176.02,-8.07 176.28,-7.99 176.54,-7.91 176.75,-7.75 176.97,-7.60 177.13,-7.38 177.29,-7.16 177.36,-6.90 177.44,-6.64 177.43,-6.37 177.43,-6.10 177.33,-5.85 177.24,-5.60 177.07,-5.39 176.90,-5.18 176.67,-5.03 176.44,-4.89 176.18,-4.83 175.92,-4.76 175.92,-4.76 175.92,-4.76 172.49,-4.59 169.07,-4.42 166.80,-4.26 164.54,-4.10 163.00,-4.14 161.46,-4.17 158.53,-4.02 155.61,-3.87 153.55,-3.76 151.49,-3.65 147.68,-3.37 143.87,-3.09 141.01,-2.90 138.16,-2.71 133.18,-2.37 128.20,-2.04 125.13,-1.96 122.06,-1.88 116.61,-1.70 111.15,-1.52 107.56,-1.32 103.97,-1.13 97.66,-0.79 91.34,-0.45 88.08,-0.25 84.83,-0.04 78.56,0.32 72.29,0.68 69.02,0.72 65.75,0.76 58.98,0.83 52.22,0.91 47.94,0.97 43.66,1.03 35.82,1.17 27.98,1.30 21.49,1.48 15.00,1.67 10.40,1.73 5.81,1.79 2.86,1.67 -0.07,1.56 -0.26,1.52 -0.45,1.49 -0.62,1.42 -0.79,1.34 -0.94,1.22 -1.09,1.11 -1.21,0.96 -1.32,0.82 -1.40,0.64 -1.48,0.47 -1.52,0.29 -1.55,0.10 -1.54,-0.07 -1.53,-0.26 -1.48,-0.44 -1.43,-0.62 -1.33,-0.78 -1.23,-0.95 -1.10,-1.08 -0.97,-1.22 -0.81,-1.31 -0.65,-1.41 -0.47,-1.47 -0.29,-1.53 -0.10,-1.54 0.07,-1.56 0.07,-1.56 L 0.07,-1.56 Z"></path></g><g transform="translate(272.56716574267716 81.45092103370871) rotate(0 8.768323715695033 60.70798335468101)" stroke="none"><path fill="#f36d6b" d="M 1.79,-0.44 Q 1.79,-0.44 2.31,1.96 2.84,4.37 3.19,5.55 3.54,6.72 3.98,9.40 4.41,12.08 4.75,13.55 5.08,15.02 5.66,17.98 6.24,20.93 6.61,22.60 6.99,24.28 7.56,27.34 8.14,30.39 8.51,31.99 8.89,33.58 9.36,36.16 9.84,38.75 10.24,40.16 10.63,41.58 11.07,44.29 11.50,47.00 11.84,48.30 12.18,49.61 12.57,52.09 12.96,54.58 13.32,56.05 13.68,57.53 13.99,59.90 14.30,62.28 14.59,63.61 14.89,64.94 15.11,67.19 15.33,69.45 15.58,70.72 15.84,72.00 15.87,74.14 15.89,76.28 16.01,77.46 16.13,78.63 16.16,80.91 16.19,83.19 16.31,84.52 16.44,85.86 16.48,88.05 16.51,90.25 16.65,91.40 16.80,92.54 16.75,94.66 16.69,96.77 16.74,99.48 16.78,102.19 16.93,104.88 17.07,107.56 17.32,109.78 17.56,111.99 17.84,113.06 18.12,114.13 18.38,115.34 18.64,116.56 19.14,118.82 19.63,121.07 19.63,121.42 19.63,121.76 19.52,122.09 19.41,122.42 19.20,122.69 18.99,122.96 18.70,123.15 18.42,123.35 18.09,123.44 17.75,123.53 17.41,123.51 17.07,123.49 16.75,123.36 16.43,123.23 16.17,123.01 15.90,122.78 15.73,122.49 15.55,122.19 15.48,121.86 15.41,121.52 15.44,121.18 15.48,120.83 15.63,120.52 15.77,120.21 16.01,119.96 16.25,119.71 16.55,119.55 16.86,119.39 17.20,119.34 17.54,119.28 17.88,119.34 18.22,119.40 18.52,119.56 18.83,119.72 19.06,119.97 19.30,120.22 19.44,120.54 19.59,120.85 19.62,121.19 19.66,121.53 19.58,121.87 19.51,122.21 19.33,122.50 19.15,122.80 18.89,123.02 18.62,123.24 18.30,123.37 17.98,123.49 17.64,123.51 17.29,123.53 16.96,123.43 16.63,123.34 16.35,123.15 16.06,122.95 15.85,122.68 15.65,122.40 15.54,122.07 15.43,121.75 15.43,121.75 15.43,121.75 15.15,119.42 14.87,117.10 14.78,115.87 14.70,114.65 14.64,113.51 14.58,112.37 14.26,110.08 13.94,107.79 13.69,105.06 13.44,102.32 13.27,99.57 13.09,96.81 13.00,94.76 12.90,92.71 12.94,91.58 12.98,90.44 12.78,88.22 12.58,86.00 12.61,84.68 12.64,83.36 12.44,81.05 12.24,78.74 12.30,77.57 12.36,76.41 12.23,74.45 12.11,72.50 12.02,71.19 11.94,69.89 11.58,67.70 11.22,65.52 11.09,64.17 10.97,62.81 10.53,60.52 10.09,58.23 9.86,56.71 9.63,55.20 9.10,52.75 8.57,50.31 8.40,48.95 8.22,47.60 7.68,44.98 7.13,42.37 6.87,40.90 6.61,39.42 6.02,36.85 5.42,34.28 5.15,32.68 4.88,31.08 4.18,28.03 3.47,24.98 3.18,23.33 2.89,21.67 2.15,18.68 1.41,15.68 1.21,14.21 1.01,12.73 0.43,10.13 -0.14,7.52 -0.30,6.36 -0.45,5.20 -1.12,2.82 -1.79,0.44 -1.81,0.22 -1.84,0.00 -1.81,-0.21 -1.79,-0.43 -1.71,-0.64 -1.63,-0.85 -1.51,-1.03 -1.38,-1.22 -1.21,-1.36 -1.05,-1.51 -0.85,-1.61 -0.65,-1.72 -0.44,-1.77 -0.22,-1.83 -0.00,-1.83 0.21,-1.83 0.43,-1.77 0.64,-1.72 0.84,-1.62 1.04,-1.52 1.21,-1.37 1.37,-1.22 1.50,-1.04 1.63,-0.86 1.71,-0.65 1.79,-0.44 1.79,-0.44 L 1.79,-0.44 Z"></path></g><g transform="translate(146.61843668172537 11.110113610441132) rotate(0 64.62052004683801 39.08502114203085)" stroke="none"><path fill="#f36d6b" d="M 1.22,-1.17 Q 1.22,-1.17 2.56,0.22 3.90,1.63 4.78,2.24 5.65,2.85 7.56,4.09 9.47,5.34 10.91,6.13 12.35,6.92 15.51,8.50 18.66,10.08 24.00,12.53 29.34,14.97 35.56,17.83 41.78,20.68 48.51,23.75 55.25,26.82 58.61,28.44 61.98,30.06 66.29,32.47 70.61,34.88 73.01,36.19 75.42,37.51 78.96,39.58 82.50,41.65 84.45,42.83 86.40,44.01 89.22,45.71 92.05,47.41 95.00,49.24 97.95,51.07 100.78,52.95 103.60,54.84 106.13,56.54 108.67,58.23 110.95,59.75 113.23,61.27 114.44,61.91 115.66,62.55 117.12,63.49 118.57,64.42 120.45,65.61 122.33,66.79 123.63,67.74 124.92,68.68 125.76,69.56 126.61,70.44 127.50,71.20 128.39,71.95 130.07,74.47 131.74,76.98 131.86,77.41 131.99,77.85 131.97,78.29 131.95,78.74 131.78,79.16 131.62,79.58 131.33,79.92 131.04,80.26 130.66,80.50 130.28,80.73 129.84,80.83 129.41,80.93 128.96,80.88 128.51,80.84 128.11,80.65 127.70,80.47 127.37,80.16 127.04,79.86 126.83,79.46 126.62,79.07 126.54,78.63 126.47,78.18 126.54,77.74 126.61,77.30 126.81,76.90 127.02,76.50 127.34,76.19 127.67,75.88 128.07,75.69 128.48,75.50 128.92,75.45 129.37,75.40 129.80,75.49 130.24,75.58 130.63,75.81 131.01,76.04 131.31,76.38 131.60,76.72 131.77,77.14 131.94,77.55 131.96,78.00 131.99,78.45 131.87,78.88 131.76,79.31 131.51,79.68 131.26,80.06 130.91,80.33 130.55,80.60 130.13,80.75 129.70,80.89 129.26,80.90 128.81,80.90 128.38,80.76 127.96,80.62 127.60,80.35 127.24,80.08 126.98,79.71 126.73,79.35 126.73,79.35 126.73,79.35 125.79,77.55 124.84,75.76 123.93,74.69 123.02,73.63 122.34,72.80 121.67,71.97 120.75,70.97 119.82,69.98 118.25,68.57 116.67,67.16 115.33,66.17 113.99,65.17 112.88,64.32 111.76,63.47 109.48,61.95 107.20,60.43 104.66,58.74 102.12,57.04 99.34,55.19 96.56,53.33 93.62,51.51 90.67,49.70 87.84,48.01 85.02,46.31 83.08,45.15 81.13,43.99 77.62,41.95 74.11,39.91 71.69,38.61 69.26,37.30 65.01,34.96 60.77,32.62 57.41,31.04 54.05,29.47 47.29,26.45 40.54,23.43 34.30,20.64 28.05,17.85 22.64,15.48 17.22,13.11 13.87,11.58 10.52,10.05 9.10,9.16 7.68,8.28 5.45,7.00 3.22,5.71 2.35,4.83 1.48,3.96 0.13,2.56 -1.22,1.17 -1.34,1.01 -1.46,0.85 -1.54,0.66 -1.62,0.47 -1.66,0.27 -1.69,0.07 -1.67,-0.13 -1.66,-0.33 -1.59,-0.52 -1.53,-0.72 -1.42,-0.89 -1.31,-1.06 -1.16,-1.21 -1.02,-1.35 -0.84,-1.45 -0.66,-1.55 -0.47,-1.61 -0.27,-1.67 -0.07,-1.68 0.13,-1.68 0.33,-1.64 0.53,-1.60 0.71,-1.52 0.90,-1.43 1.06,-1.30 1.22,-1.17 1.22,-1.17 L 1.22,-1.17 Z"></path></g><g transform="translate(158.43893833350148 127.32833655695333) rotate(0 67.83217265325982 37.52025628628798)" stroke="none"><path fill="#f36d6b" d="M 0.50,-1.51 Q 0.50,-1.51 2.16,-1.00 3.82,-0.49 6.54,0.42 9.27,1.35 13.88,2.96 18.50,4.58 24.82,6.98 31.13,9.37 34.41,10.65 37.69,11.93 42.98,14.02 48.27,16.12 51.22,17.32 54.16,18.51 58.94,20.68 63.71,22.85 66.48,24.12 69.24,25.39 73.65,27.75 78.06,30.11 82.85,32.60 87.65,35.08 91.63,37.04 95.60,38.99 97.60,39.97 99.59,40.96 101.73,41.97 103.87,42.98 105.06,43.47 106.25,43.95 107.51,44.59 108.77,45.22 110.11,45.97 111.45,46.73 112.86,47.67 114.27,48.61 115.87,49.56 117.46,50.52 118.74,51.39 120.03,52.27 121.44,53.51 122.86,54.75 124.30,56.28 125.74,57.80 126.92,59.09 128.10,60.38 129.10,61.60 130.09,62.82 130.75,63.84 131.40,64.86 132.32,66.08 133.24,67.31 134.06,68.29 134.87,69.26 136.46,71.22 138.05,73.18 138.31,73.62 138.57,74.05 138.68,74.55 138.79,75.04 138.73,75.55 138.68,76.05 138.47,76.51 138.25,76.97 137.90,77.34 137.55,77.71 137.10,77.94 136.66,78.18 136.16,78.26 135.65,78.34 135.15,78.26 134.65,78.18 134.21,77.94 133.76,77.70 133.41,77.33 133.06,76.96 132.85,76.50 132.64,76.04 132.58,75.54 132.53,75.03 132.64,74.54 132.75,74.04 133.01,73.61 133.27,73.18 133.66,72.85 134.05,72.52 134.52,72.33 134.99,72.15 135.50,72.12 136.00,72.09 136.49,72.23 136.98,72.37 137.40,72.65 137.82,72.94 138.13,73.34 138.43,73.75 138.59,74.23 138.75,74.71 138.75,75.21 138.75,75.72 138.59,76.20 138.43,76.68 138.12,77.09 137.81,77.49 137.39,77.77 136.97,78.06 136.48,78.19 135.99,78.33 135.49,78.30 134.98,78.27 134.51,78.08 134.04,77.89 133.65,77.56 133.27,77.23 133.27,77.23 133.27,77.24 131.71,75.20 130.14,73.16 129.35,72.06 128.55,70.96 127.54,69.50 126.53,68.04 125.89,67.07 125.25,66.10 124.53,65.05 123.81,64.00 122.72,62.65 121.63,61.29 120.42,59.88 119.21,58.48 118.02,57.25 116.83,56.01 115.81,55.07 114.79,54.12 113.43,52.95 112.06,51.79 110.77,50.85 109.48,49.92 108.23,49.08 106.97,48.24 105.89,47.49 104.80,46.73 103.77,46.05 102.74,45.37 100.58,44.35 98.43,43.33 96.43,42.35 94.44,41.37 90.43,39.41 86.43,37.44 81.61,34.95 76.80,32.46 72.46,30.15 68.13,27.83 65.36,26.57 62.59,25.32 57.87,23.18 53.14,21.05 50.20,19.88 47.25,18.70 41.96,16.64 36.67,14.57 33.39,13.34 30.11,12.10 23.82,9.77 17.52,7.43 12.91,5.90 8.30,4.36 5.53,3.53 2.76,2.69 1.12,2.10 -0.50,1.51 -0.67,1.42 -0.85,1.34 -0.99,1.22 -1.14,1.10 -1.26,0.95 -1.37,0.79 -1.45,0.62 -1.52,0.44 -1.56,0.25 -1.59,0.06 -1.57,-0.12 -1.56,-0.31 -1.50,-0.49 -1.43,-0.68 -1.33,-0.84 -1.23,-1.00 -1.09,-1.13 -0.95,-1.27 -0.79,-1.36 -0.62,-1.46 -0.44,-1.51 -0.25,-1.57 -0.06,-1.57 0.12,-1.58 0.31,-1.54 0.50,-1.51 0.50,-1.51 L 0.50,-1.51 Z"></path></g><g transform="translate(10.621570850078342 124.89364751312931) rotate(0 62.35552382101832 40.73527518260163)" stroke="none"><path fill="#f36d6b" d="M 0.74,-1.44 Q 0.74,-1.44 2.86,-0.31 4.99,0.82 6.33,1.41 7.68,2.00 10.52,3.81 13.36,5.62 15.05,6.72 16.75,7.83 21.16,10.82 25.56,13.82 28.09,15.61 30.61,17.40 35.78,21.21 40.95,25.03 47.93,30.20 54.92,35.38 61.61,40.06 68.31,44.75 71.61,47.05 74.91,49.34 78.50,51.77 82.09,54.19 85.36,56.37 88.63,58.55 91.77,60.57 94.90,62.59 96.51,63.56 98.12,64.52 100.42,65.96 102.73,67.39 104.10,68.12 105.48,68.84 107.28,69.78 109.09,70.72 110.84,71.61 112.59,72.51 114.04,73.24 115.49,73.97 116.82,74.64 118.14,75.32 119.66,76.09 121.17,76.87 123.55,78.09 125.92,79.31 126.23,79.56 126.55,79.81 126.76,80.15 126.98,80.49 127.07,80.88 127.17,81.26 127.14,81.66 127.11,82.06 126.95,82.43 126.79,82.80 126.52,83.09 126.26,83.39 125.91,83.59 125.56,83.79 125.17,83.86 124.77,83.94 124.38,83.88 123.98,83.83 123.62,83.65 123.26,83.47 122.98,83.19 122.70,82.91 122.52,82.55 122.34,82.19 122.29,81.80 122.23,81.40 122.31,81.01 122.39,80.61 122.58,80.27 122.78,79.92 123.08,79.65 123.37,79.38 123.74,79.22 124.11,79.07 124.51,79.03 124.91,79.00 125.29,79.10 125.68,79.19 126.02,79.41 126.36,79.62 126.61,79.94 126.86,80.25 127.00,80.62 127.13,81.00 127.14,81.40 127.16,81.80 127.04,82.18 126.92,82.56 126.69,82.89 126.45,83.21 126.13,83.45 125.80,83.68 125.42,83.80 125.04,83.92 124.64,83.90 124.24,83.89 123.87,83.76 123.49,83.62 123.49,83.62 123.49,83.62 121.15,82.06 118.80,80.49 117.57,79.50 116.34,78.50 115.08,77.71 113.83,76.92 112.50,76.09 111.17,75.26 109.44,74.35 107.71,73.45 105.78,72.50 103.85,71.55 102.55,70.66 101.26,69.78 98.92,68.36 96.58,66.93 95.02,65.88 93.46,64.82 90.31,62.80 87.16,60.77 83.87,58.59 80.59,56.42 76.98,53.99 73.36,51.57 70.05,49.28 66.74,46.99 60.01,42.30 53.27,37.61 46.27,32.47 39.27,27.32 34.11,23.55 28.94,19.79 26.41,18.06 23.88,16.33 19.46,13.41 15.04,10.49 13.35,9.43 11.67,8.36 8.90,6.71 6.12,5.06 4.85,4.31 3.58,3.56 1.42,2.50 -0.74,1.44 -0.90,1.33 -1.06,1.22 -1.19,1.08 -1.33,0.93 -1.42,0.76 -1.51,0.59 -1.56,0.40 -1.61,0.21 -1.61,0.01 -1.61,-0.18 -1.57,-0.37 -1.52,-0.56 -1.43,-0.73 -1.34,-0.91 -1.21,-1.05 -1.09,-1.20 -0.93,-1.32 -0.77,-1.43 -0.58,-1.50 -0.40,-1.57 -0.21,-1.60 -0.01,-1.62 0.17,-1.60 0.37,-1.58 0.55,-1.51 0.74,-1.44 0.74,-1.44 L 0.74,-1.44 Z"></path></g><g transform="translate(132.5775885310793 206.551437813725) rotate(0 0.00004999999998744897 0.00005000000000165983)" stroke="none"><path fill="#f36d6b" d="M 1.57,-1.57 Q 1.57,-1.57 1.77,-1.27 1.98,-0.98 2.09,-0.64 2.20,-0.29 2.19,0.05 2.18,0.41 2.05,0.75 1.93,1.09 1.70,1.37 1.48,1.65 1.18,1.84 0.87,2.04 0.52,2.12 0.18,2.21 -0.17,2.18 -0.53,2.15 -0.86,2.01 -1.19,1.87 -1.46,1.63 -1.73,1.39 -1.90,1.07 -2.08,0.76 -2.15,0.41 -2.21,0.05 -2.17,-0.29 -2.12,-0.65 -1.96,-0.97 -1.80,-1.29 -1.54,-1.54 -1.29,-1.80 -0.97,-1.96 -0.65,-2.12 -0.29,-2.17 0.06,-2.21 0.41,-2.15 0.76,-2.08 1.07,-1.90 1.39,-1.73 1.63,-1.46 1.87,-1.19 2.01,-0.86 2.15,-0.53 2.18,-0.17 2.21,0.18 2.12,0.52 2.03,0.87 1.84,1.18 1.65,1.48 1.37,1.70 1.09,1.93 0.75,2.05 0.41,2.18 0.05,2.19 -0.30,2.20 -0.64,2.09 -0.98,1.98 -1.27,1.77 -1.57,1.56 -1.57,1.57 -1.57,1.57 -1.73,1.35 -1.90,1.14 -2.01,0.90 -2.12,0.66 -2.16,0.39 -2.21,0.13 -2.20,-0.13 -2.18,-0.40 -2.10,-0.65 -2.02,-0.91 -1.88,-1.14 -1.74,-1.36 -1.55,-1.55 -1.36,-1.74 -1.14,-1.88 -0.91,-2.02 -0.65,-2.10 -0.40,-2.18 -0.13,-2.20 0.13,-2.21 0.39,-2.16 0.66,-2.12 0.90,-2.01 1.14,-1.90 1.35,-1.73 1.57,-1.57 1.57,-1.57 L 1.57,-1.57 Z"></path></g><g transform="translate(123.71833522897919 128.75189284095046) rotate(0 5.471890965819966 38.29924757468684)" stroke="none"><path fill="#f36d6b" d="M 2.29,-0.55 Q 2.29,-0.55 2.65,0.88 3.00,2.33 3.29,4.01 3.58,5.69 4.03,7.90 4.49,10.10 5.01,12.27 5.53,14.43 6.11,16.59 6.70,18.74 6.98,20.59 7.26,22.44 7.60,24.70 7.95,26.95 8.23,28.01 8.51,29.08 8.75,30.67 9.00,32.27 9.35,34.31 9.70,36.36 10.00,38.21 10.30,40.05 10.53,41.95 10.76,43.85 10.82,45.34 10.87,46.83 10.91,48.46 10.95,50.09 11.03,51.74 11.11,53.40 11.19,55.04 11.27,56.67 11.54,58.61 11.81,60.54 12.07,62.11 12.34,63.68 12.52,64.91 12.71,66.14 12.93,67.50 13.15,68.86 13.41,70.07 13.66,71.27 13.92,73.88 14.19,76.49 14.12,77.01 14.05,77.53 13.82,78.01 13.59,78.48 13.22,78.85 12.85,79.23 12.38,79.46 11.91,79.70 11.39,79.77 10.86,79.85 10.35,79.75 9.83,79.65 9.37,79.39 8.91,79.14 8.56,78.75 8.21,78.36 8.00,77.87 7.79,77.39 7.74,76.87 7.70,76.34 7.82,75.83 7.95,75.32 8.23,74.88 8.51,74.43 8.92,74.10 9.33,73.77 9.82,73.58 10.31,73.40 10.84,73.38 11.36,73.37 11.87,73.52 12.37,73.67 12.80,73.98 13.23,74.28 13.54,74.71 13.85,75.14 14.00,75.64 14.16,76.14 14.15,76.67 14.14,77.19 13.96,77.69 13.78,78.18 13.45,78.59 13.12,79.01 12.68,79.29 12.24,79.58 11.73,79.71 11.22,79.83 10.69,79.79 10.17,79.75 9.68,79.55 9.20,79.34 8.80,78.99 8.41,78.64 8.15,78.18 7.89,77.73 7.79,77.21 7.69,76.69 7.69,76.70 7.69,76.70 7.61,74.99 7.54,73.29 7.40,71.99 7.27,70.69 7.17,69.48 7.06,68.27 7.04,66.85 7.02,65.42 6.96,64.32 6.90,63.21 6.79,62.09 6.67,60.98 6.57,58.98 6.47,56.99 6.33,55.40 6.20,53.80 6.01,52.08 5.81,50.36 5.68,48.75 5.54,47.13 5.43,45.69 5.32,44.25 5.23,42.53 5.15,40.81 4.98,38.89 4.81,36.96 4.67,34.96 4.53,32.96 4.15,30.41 3.78,27.87 3.13,25.62 2.49,23.37 2.09,21.68 1.68,19.99 1.18,17.81 0.68,15.64 0.19,13.23 -0.29,10.83 -0.64,8.68 -0.98,6.54 -1.29,4.99 -1.60,3.44 -1.95,2.00 -2.29,0.55 -2.33,0.27 -2.36,-0.01 -2.33,-0.29 -2.29,-0.57 -2.19,-0.84 -2.09,-1.10 -1.92,-1.34 -1.76,-1.57 -1.54,-1.76 -1.33,-1.95 -1.08,-2.08 -0.82,-2.21 -0.55,-2.28 -0.27,-2.34 0.01,-2.34 0.29,-2.34 0.57,-2.27 0.84,-2.20 1.10,-2.07 1.35,-1.94 1.56,-1.75 1.77,-1.56 1.93,-1.32 2.09,-1.09 2.19,-0.82 2.29,-0.55 2.29,-0.55 L 2.29,-0.55 Z"></path></g><g transform="translate(155.68796382406754 89.685899851329) rotate(0 61.05337927598839 0.34741702055339374)" stroke="none"><path fill="#f36d6b" d="M 0.26,-2.01 Q 0.26,-2.01 1.41,-1.92 2.57,-1.84 4.00,-1.76 5.42,-1.67 8.19,-1.50 10.95,-1.34 13.96,-1.22 16.97,-1.10 19.23,-0.98 21.48,-0.87 23.56,-0.75 25.64,-0.64 27.31,-0.65 28.97,-0.66 30.86,-0.81 32.75,-0.96 33.82,-1.07 34.88,-1.17 36.14,-1.28 37.40,-1.38 38.88,-1.42 40.36,-1.46 41.99,-1.46 43.62,-1.45 45.51,-1.39 47.39,-1.32 49.40,-1.24 51.40,-1.16 53.55,-1.06 55.69,-0.97 57.89,-0.95 60.08,-0.93 62.33,-0.89 64.58,-0.86 66.83,-0.83 69.09,-0.80 71.19,-0.79 73.30,-0.77 75.45,-0.75 77.59,-0.73 79.70,-0.72 81.81,-0.70 84.00,-0.69 86.20,-0.68 88.23,-0.69 90.26,-0.71 92.31,-0.76 94.35,-0.81 96.54,-0.82 98.72,-0.83 100.75,-0.85 102.78,-0.87 104.62,-0.97 106.46,-1.07 108.32,-1.22 110.18,-1.37 111.77,-1.54 113.37,-1.71 114.74,-1.88 116.11,-2.06 117.39,-2.22 118.67,-2.38 120.34,-2.53 122.02,-2.67 122.36,-2.63 122.71,-2.59 123.02,-2.43 123.34,-2.28 123.59,-2.04 123.84,-1.80 124.00,-1.49 124.15,-1.18 124.21,-0.83 124.26,-0.49 124.20,-0.14 124.14,0.19 123.97,0.50 123.80,0.80 123.54,1.04 123.29,1.28 122.97,1.42 122.65,1.56 122.30,1.59 121.95,1.63 121.62,1.55 121.28,1.47 120.98,1.28 120.68,1.10 120.46,0.83 120.24,0.56 120.11,0.23 119.99,-0.08 119.98,-0.43 119.96,-0.78 120.06,-1.11 120.16,-1.45 120.36,-1.73 120.56,-2.02 120.84,-2.23 121.12,-2.44 121.45,-2.54 121.78,-2.65 122.13,-2.64 122.48,-2.64 122.81,-2.52 123.14,-2.41 123.41,-2.19 123.69,-1.98 123.88,-1.69 124.07,-1.39 124.16,-1.06 124.25,-0.72 124.22,-0.37 124.20,-0.02 124.07,0.29 123.93,0.61 123.70,0.87 123.47,1.14 123.17,1.31 122.87,1.49 122.53,1.56 122.19,1.63 122.19,1.63 122.19,1.63 120.57,1.62 118.95,1.60 117.66,1.62 116.37,1.64 114.98,1.65 113.59,1.66 111.98,1.70 110.38,1.73 108.46,1.83 106.54,1.92 104.67,1.93 102.79,1.94 100.77,1.94 98.75,1.93 96.59,1.97 94.42,2.00 92.34,2.05 90.26,2.10 88.23,2.08 86.20,2.07 84.00,2.08 81.81,2.10 79.70,2.11 77.59,2.12 75.45,2.14 73.31,2.17 71.20,2.19 69.10,2.22 66.86,2.27 64.61,2.32 62.38,2.39 60.16,2.46 57.93,2.59 55.70,2.71 53.55,2.80 51.40,2.90 49.40,2.99 47.41,3.07 45.53,3.15 43.65,3.23 42.06,3.26 40.46,3.29 39.06,3.31 37.66,3.33 36.37,3.36 35.08,3.40 33.91,3.39 32.74,3.38 30.83,3.20 28.92,3.02 27.24,2.97 25.55,2.91 23.51,2.92 21.47,2.93 19.20,3.02 16.93,3.12 13.79,3.09 10.66,3.07 7.88,2.89 5.09,2.72 3.55,2.58 2.00,2.44 0.87,2.22 -0.26,2.01 -0.49,1.95 -0.73,1.88 -0.95,1.77 -1.16,1.65 -1.34,1.49 -1.53,1.33 -1.66,1.12 -1.80,0.92 -1.88,0.69 -1.97,0.46 -2.00,0.22 -2.02,-0.01 -1.99,-0.26 -1.96,-0.50 -1.87,-0.73 -1.78,-0.95 -1.64,-1.15 -1.50,-1.35 -1.32,-1.51 -1.13,-1.67 -0.91,-1.79 -0.70,-1.90 -0.46,-1.95 -0.22,-2.01 0.01,-2.01 0.26,-2.01 0.26,-2.01 L 0.26,-2.01 Z"></path></g></svg>