<?xml version="1.0" standalone="no"?>
<!DOCTYPE svg PUBLIC "-//W3C//DTD SVG 1.1//EN" "http://www.w3.org/Graphics/SVG/1.1/DTD/svg11.dtd">
<svg version="1.1" xmlns="http://www.w3.org/2000/svg" viewBox="0 0 104.2792141857733 67.12748564809928" width="104.2792141857733" height="67.12748564809928"><!-- svg-source:excalidraw --><metadata></metadata><defs><style class="style-fonts">
      </style></defs><g stroke-linecap="round" transform="translate(10.246257509241559 10) rotate(0 41.826403713240325 5.816610978527052)"><path d="M61.57 0.91 C69.53 1.29, 77.69 1.79, 80.91 2.77 C84.13 3.74, 83.69 5.59, 80.89 6.78 C78.08 7.97, 71.4 9.03, 64.09 9.89 C56.78 10.76, 45.72 12.15, 37.03 11.98 C28.33 11.81, 18.05 9.71, 11.94 8.88 C5.84 8.06, 0.85 8.28, 0.42 7.03 C-0.02 5.78, 4.06 2.39, 9.33 1.39 C14.61 0.39, 22.84 1.09, 32.09 1.05 C41.34 1.01, 58.48 1.18, 64.85 1.16 C71.23 1.13, 70.51 0.83, 70.33 0.9 M47.84 1.27 C56.13 1.63, 65.93 2.87, 71.94 3.45 C77.95 4.03, 83.42 3.96, 83.88 4.73 C84.34 5.5, 80.38 7.16, 74.68 8.07 C68.97 8.98, 58.61 9.73, 49.66 10.21 C40.7 10.69, 28.77 11.49, 20.95 10.97 C13.12 10.46, 5.78 8.34, 2.7 7.13 C-0.38 5.92, -0.53 4.77, 2.44 3.72 C5.42 2.66, 13.01 1.25, 20.55 0.8 C28.09 0.36, 43.25 1.07, 47.68 1.05 C52.11 1.04, 47.02 0.58, 47.15 0.69" stroke="#f36d6b" stroke-width="1" fill="none"></path></g><g stroke-linecap="round" transform="translate(10 27.130332114975744) rotate(0 41.826403713240325 5.816610978527052)"><path d="M59.31 -0.3 C67.29 0.16, 76.75 2.01, 80.54 3.14 C84.33 4.27, 84.61 5.22, 82.02 6.49 C79.43 7.76, 72.31 9.84, 64.99 10.75 C57.67 11.67, 46.91 12.17, 38.1 12 C29.3 11.83, 18.44 10.61, 12.19 9.74 C5.93 8.86, 1.3 7.98, 0.58 6.75 C-0.14 5.53, 2.7 3.62, 7.84 2.38 C12.99 1.13, 21.25 -0.5, 31.45 -0.69 C41.66 -0.89, 61.73 0.6, 69.06 1.22 C76.39 1.84, 75.82 3.02, 75.45 3 M36.59 -1.21 C44.83 -1.15, 57.04 0.78, 64.59 1.82 C72.14 2.86, 79.37 4.11, 81.86 5.03 C84.35 5.95, 83.13 6.51, 79.53 7.33 C75.94 8.15, 68.29 9.2, 60.3 9.96 C52.31 10.72, 40.01 12.21, 31.57 11.91 C23.14 11.6, 14.77 9.24, 9.69 8.12 C4.6 7, 0.78 6.48, 1.09 5.19 C1.4 3.91, 5.45 1.35, 11.54 0.41 C17.64 -0.53, 33.26 -0.52, 37.67 -0.45 C42.08 -0.39, 37.9 0.51, 38.01 0.81" stroke="#f36d6b" stroke-width="1" fill="none"></path></g><g stroke-linecap="round" transform="translate(10.62640675929265 45.49426369104518) rotate(0 41.826403713240325 5.816610978527052)"><path d="M32.33 1.02 C40.66 0.94, 52.98 1.1, 60.97 1.48 C68.96 1.86, 76.71 2.2, 80.29 3.31 C83.86 4.42, 85 7.04, 82.41 8.14 C79.82 9.23, 72.49 9.24, 64.76 9.88 C57.04 10.53, 44.83 11.89, 36.06 12.01 C27.29 12.14, 18.23 11.46, 12.14 10.62 C6.06 9.78, 0.32 8.5, -0.47 6.98 C-1.25 5.47, 0.92 2.81, 7.45 1.54 C13.98 0.28, 32.69 -0.34, 38.71 -0.63 C44.74 -0.91, 43.6 -0.4, 43.62 -0.17 M45.92 -0.7 C54.45 -0.62, 65.71 1.83, 71.95 2.68 C78.19 3.53, 82.77 3.49, 83.34 4.39 C83.9 5.29, 80.59 7.02, 75.34 8.09 C70.09 9.15, 60.35 10.11, 51.85 10.77 C43.36 11.43, 32.27 12.5, 24.37 12.06 C16.47 11.62, 8.33 9.64, 4.42 8.15 C0.51 6.66, -1.05 4.18, 0.91 3.13 C2.88 2.09, 8.67 2.47, 16.21 1.87 C23.75 1.27, 41.16 -0.11, 46.16 -0.46 C51.15 -0.81, 46.44 -0.63, 46.17 -0.22" stroke="#f36d6b" stroke-width="1" fill="none"></path></g><g transform="translate(13.853488937265638 17.94050797075697) rotate(0 0.00004999999998744897 0.00004999999999988347)" stroke="none"><path fill="#f36d6b" d="M 1.57,-1.57 Q 1.57,-1.57 1.77,-1.27 1.98,-0.98 2.09,-0.64 2.20,-0.29 2.19,0.05 2.18,0.41 2.05,0.75 1.93,1.09 1.70,1.37 1.48,1.65 1.18,1.84 0.87,2.04 0.52,2.12 0.18,2.21 -0.17,2.18 -0.53,2.15 -0.86,2.01 -1.19,1.87 -1.46,1.63 -1.73,1.39 -1.90,1.07 -2.08,0.76 -2.15,0.41 -2.21,0.05 -2.17,-0.29 -2.12,-0.65 -1.96,-0.97 -1.80,-1.29 -1.54,-1.54 -1.29,-1.80 -0.97,-1.96 -0.65,-2.12 -0.29,-2.17 0.06,-2.21 0.41,-2.15 0.76,-2.08 1.07,-1.90 1.39,-1.73 1.63,-1.46 1.87,-1.19 2.01,-0.86 2.15,-0.53 2.18,-0.17 2.21,0.18 2.12,0.52 2.03,0.87 1.84,1.18 1.65,1.48 1.37,1.70 1.09,1.93 0.75,2.05 0.41,2.18 0.05,2.19 -0.30,2.20 -0.64,2.09 -0.98,1.98 -1.27,1.77 -1.57,1.56 -1.57,1.57 -1.57,1.57 -1.73,1.35 -1.90,1.14 -2.01,0.90 -2.12,0.66 -2.16,0.39 -2.21,0.13 -2.20,-0.13 -2.18,-0.40 -2.10,-0.65 -2.02,-0.91 -1.88,-1.14 -1.74,-1.36 -1.55,-1.55 -1.36,-1.74 -1.14,-1.88 -0.91,-2.02 -0.65,-2.10 -0.40,-2.18 -0.13,-2.20 0.13,-2.21 0.39,-2.16 0.66,-2.12 0.90,-2.01 1.14,-1.90 1.35,-1.73 1.57,-1.57 1.57,-1.57 L 1.57,-1.57 Z"></path></g><g transform="translate(13.158641643049123 17.225303899872557) rotate(0 -1.0381956100583238 17.80133191395595)" stroke="none"><path fill="#f36d6b" d="M 2.53,0.72 Q 2.53,0.72 2.26,1.77 1.98,2.82 1.75,4.29 1.52,5.75 1.38,6.98 1.25,8.21 1.19,9.49 1.14,10.77 1.06,11.95 0.98,13.13 0.96,14.84 0.94,16.54 0.96,18.08 0.99,19.61 1.06,20.83 1.14,22.04 1.32,23.58 1.50,25.12 1.68,26.24 1.86,27.36 1.98,28.48 2.11,29.59 2.27,30.66 2.43,31.73 2.55,33.66 2.67,35.58 2.58,36.12 2.50,36.66 2.25,37.14 1.99,37.62 1.60,38.00 1.21,38.37 0.71,38.60 0.22,38.83 -0.31,38.89 -0.85,38.96 -1.38,38.84 -1.91,38.73 -2.38,38.45 -2.85,38.17 -3.20,37.76 -3.55,37.34 -3.76,36.84 -3.96,36.33 -3.99,35.79 -4.03,35.25 -3.88,34.72 -3.74,34.20 -3.44,33.75 -3.13,33.30 -2.70,32.97 -2.27,32.63 -1.75,32.46 -1.24,32.28 -0.70,32.28 -0.15,32.28 0.35,32.45 0.87,32.62 1.30,32.95 1.74,33.28 2.05,33.72 2.35,34.17 2.50,34.70 2.65,35.22 2.62,35.76 2.59,36.31 2.40,36.81 2.20,37.32 1.85,37.73 1.50,38.15 1.03,38.43 0.57,38.72 0.03,38.83 -0.49,38.95 -1.03,38.90 -1.57,38.84 -2.06,38.61 -2.56,38.39 -2.95,38.02 -3.35,37.64 -3.61,37.16 -3.86,36.68 -3.95,36.15 -4.04,35.61 -4.04,35.61 -4.04,35.61 -4.12,33.86 -4.19,32.11 -4.34,30.69 -4.49,29.27 -4.57,28.15 -4.65,27.03 -4.74,25.86 -4.82,24.68 -4.96,23.55 -5.10,22.43 -5.11,21.01 -5.13,19.59 -5.10,18.04 -5.06,16.48 -5.00,14.65 -4.95,12.82 -4.84,11.09 -4.73,9.36 -4.53,7.90 -4.34,6.45 -4.02,5.02 -3.71,3.60 -3.44,2.48 -3.17,1.35 -2.85,0.31 -2.53,-0.72 -2.41,-1.01 -2.29,-1.30 -2.10,-1.56 -1.91,-1.81 -1.66,-2.01 -1.42,-2.22 -1.13,-2.35 -0.84,-2.49 -0.53,-2.56 -0.22,-2.62 0.09,-2.61 0.40,-2.60 0.71,-2.51 1.02,-2.43 1.29,-2.27 1.57,-2.11 1.80,-1.89 2.03,-1.67 2.20,-1.41 2.37,-1.14 2.47,-0.84 2.58,-0.54 2.60,-0.22 2.63,0.09 2.58,0.40 2.53,0.72 2.53,0.72 L 2.53,0.72 Z"></path></g><g transform="translate(91.84981608449584 16.17760581008055) rotate(0 0.4274790569143079 19.886536452096244)" stroke="none"><path fill="#f36d6b" d="M 2.57,-0.29 Q 2.57,-0.29 2.70,1.46 2.83,3.21 3.12,5.25 3.41,7.30 3.57,9.05 3.73,10.80 3.80,12.41 3.88,14.02 3.80,15.65 3.71,17.28 3.71,18.75 3.70,20.22 3.68,21.58 3.66,22.93 3.60,24.67 3.53,26.41 3.48,27.58 3.42,28.75 3.33,30.34 3.24,31.92 3.18,33.56 3.12,35.21 3.27,37.32 3.42,39.44 3.39,39.97 3.36,40.50 3.16,40.99 2.96,41.48 2.61,41.88 2.27,42.28 1.81,42.55 1.35,42.82 0.84,42.93 0.32,43.04 -0.20,42.98 -0.73,42.92 -1.21,42.69 -1.69,42.47 -2.07,42.10 -2.45,41.73 -2.70,41.26 -2.94,40.79 -3.02,40.27 -3.11,39.74 -3.02,39.22 -2.93,38.70 -2.68,38.23 -2.42,37.77 -2.04,37.40 -1.65,37.04 -1.17,36.82 -0.68,36.60 -0.15,36.55 0.36,36.50 0.88,36.61 1.40,36.73 1.85,37.01 2.30,37.28 2.64,37.69 2.98,38.10 3.18,38.59 3.37,39.09 3.39,39.62 3.42,40.15 3.27,40.66 3.13,41.17 2.83,41.60 2.53,42.04 2.10,42.36 1.68,42.68 1.17,42.84 0.67,43.01 0.14,43.00 -0.38,43.00 -0.88,42.83 -1.38,42.65 -1.80,42.33 -2.22,42.01 -2.52,41.56 -2.81,41.12 -2.95,40.61 -3.09,40.10 -3.09,40.10 -3.09,40.10 -3.24,38.04 -3.40,35.99 -3.29,34.76 -3.19,33.54 -3.13,31.59 -3.08,29.64 -2.88,27.83 -2.68,26.02 -2.58,24.25 -2.48,22.49 -2.38,21.32 -2.29,20.15 -2.21,18.51 -2.13,16.87 -1.97,15.46 -1.82,14.04 -1.78,12.49 -1.73,10.94 -1.73,9.41 -1.74,7.87 -1.89,5.82 -2.04,3.76 -2.30,2.03 -2.57,0.29 -2.57,-0.02 -2.57,-0.33 -2.49,-0.63 -2.41,-0.93 -2.26,-1.21 -2.12,-1.48 -1.91,-1.72 -1.70,-1.95 -1.44,-2.12 -1.18,-2.30 -0.89,-2.41 -0.60,-2.52 -0.28,-2.55 0.02,-2.59 0.33,-2.55 0.64,-2.51 0.93,-2.39 1.22,-2.28 1.47,-2.10 1.73,-1.92 1.93,-1.69 2.14,-1.45 2.28,-1.17 2.43,-0.89 2.50,-0.59 2.57,-0.29 2.57,-0.29 L 2.57,-0.29 Z"></path></g></svg>