<?xml version="1.0" standalone="no"?>
<!DOCTYPE svg PUBLIC "-//W3C//DTD SVG 1.1//EN" "http://www.w3.org/Graphics/SVG/1.1/DTD/svg11.dtd">
<svg version="1.1" xmlns="http://www.w3.org/2000/svg" viewBox="0 0 327.6397464133938 169.39161825251227" width="327.6397464133938" height="169.39161825251227"><!-- svg-source:excalidraw --><metadata></metadata><defs><style class="style-fonts">
      </style></defs><g stroke-linecap="round" transform="translate(10 10) rotate(0 153.8198732066969 74.69580912625614)"><path d="M32 0 C110.26 2.05, 191.3 -3.38, 275.64 0 M32 0 C86.16 4.52, 140.41 3.97, 275.64 0 M275.64 0 C294.73 1.48, 307.89 9, 307.64 32 M275.64 0 C300.5 3.53, 305.2 6.23, 307.64 32 M307.64 32 C307.98 53, 303.62 65.04, 307.64 117.39 M307.64 32 C309.12 59.41, 308.61 91.67, 307.64 117.39 M307.64 117.39 C309.6 140.1, 298.39 148.16, 275.64 149.39 M307.64 117.39 C303.09 137.49, 299.51 148.6, 275.64 149.39 M275.64 149.39 C196.23 150.96, 116.77 154.88, 32 149.39 M275.64 149.39 C178.61 146.74, 83.67 148.19, 32 149.39 M32 149.39 C8.91 149.34, -3.4 141.59, 0 117.39 M32 149.39 C6.67 152.95, -3.89 140.58, 0 117.39 M0 117.39 C-3.66 89.45, -3.53 63.86, 0 32 M0 117.39 C0.23 93.67, -1.41 66.36, 0 32 M0 32 C0.02 9.09, 7.73 1.73, 32 0 M0 32 C2.46 10.76, 12.51 0.51, 32 0" stroke="#f36d6b" stroke-width="4" fill="none"></path></g><g transform="translate(35.455460061388294 31.411260349826335) rotate(0 -1.3109578630533179 0.48720419627198197)" stroke="none"><path fill="#f36d6b" d="M 8.48,-2.64 Q 8.48,-2.64 8.60,-0.52 8.73,1.60 7.86,3.53 6.99,5.47 5.31,6.78 3.64,8.10 1.55,8.48 -0.53,8.86 -2.56,8.23 -4.59,7.60 -6.09,6.09 -7.60,4.59 -8.23,2.56 -8.86,0.53 -8.48,-1.55 -8.09,-3.64 -6.78,-5.31 -5.47,-6.99 -3.53,-7.86 -1.59,-8.73 0.52,-8.60 2.64,-8.47 4.46,-7.37 6.28,-6.27 7.38,-4.46 L 8.48,-2.64 Z"></path></g><g transform="translate(293.0026658827587 28.94536685895521) rotate(0 0.00004999999998744897 0.00004999999999988347)" stroke="none"><path fill="#f36d6b" d="M 6.28,-6.28 Q 6.28,-6.28 7.11,-5.11 7.95,-3.94 8.37,-2.57 8.80,-1.19 8.76,0.23 8.72,1.67 8.22,3.02 7.73,4.37 6.83,5.49 5.93,6.61 4.72,7.38 3.50,8.15 2.11,8.50 0.72,8.85 -0.71,8.73 -2.14,8.61 -3.46,8.05 -4.78,7.48 -5.85,6.52 -6.92,5.56 -7.63,4.31 -8.33,3.06 -8.60,1.65 -8.87,0.23 -8.68,-1.18 -8.49,-2.60 -7.85,-3.89 -7.21,-5.18 -6.19,-6.19 -5.18,-7.21 -3.89,-7.85 -2.60,-8.49 -1.18,-8.68 0.24,-8.87 1.65,-8.60 3.06,-8.33 4.31,-7.62 5.56,-6.92 6.52,-5.85 7.48,-4.78 8.05,-3.46 8.62,-2.14 8.73,-0.70 8.85,0.72 8.50,2.11 8.15,3.51 7.38,4.72 6.61,5.93 5.49,6.83 4.36,7.73 3.02,8.22 1.67,8.72 0.23,8.76 -1.20,8.80 -2.57,8.37 -3.94,7.95 -5.11,7.11 -6.28,6.27 -6.28,6.28 -6.28,6.28 -6.94,5.43 -7.60,4.59 -8.04,3.61 -8.48,2.64 -8.67,1.58 -8.86,0.53 -8.80,-0.53 -8.73,-1.60 -8.41,-2.62 -8.09,-3.64 -7.54,-4.56 -6.99,-5.47 -6.23,-6.23 -5.47,-6.99 -4.56,-7.54 -3.64,-8.10 -2.62,-8.41 -1.60,-8.73 -0.53,-8.80 0.53,-8.86 1.59,-8.67 2.64,-8.48 3.61,-8.04 4.59,-7.60 5.43,-6.94 6.28,-6.28 6.28,-6.28 L 6.28,-6.28 Z"></path></g><g transform="translate(290.5666382748441 136.79423108093087) rotate(0 0.00004999999998744897 0.00005000000000165983)" stroke="none"><path fill="#f36d6b" d="M 6.28,-6.28 Q 6.28,-6.28 7.11,-5.11 7.95,-3.94 8.37,-2.57 8.80,-1.19 8.76,0.23 8.72,1.67 8.22,3.02 7.73,4.37 6.83,5.49 5.93,6.61 4.72,7.38 3.50,8.15 2.11,8.50 0.72,8.85 -0.71,8.73 -2.14,8.61 -3.46,8.05 -4.78,7.48 -5.85,6.52 -6.92,5.56 -7.63,4.31 -8.33,3.06 -8.60,1.65 -8.87,0.23 -8.68,-1.18 -8.49,-2.60 -7.85,-3.89 -7.21,-5.18 -6.19,-6.19 -5.18,-7.21 -3.89,-7.85 -2.60,-8.49 -1.18,-8.68 0.24,-8.87 1.65,-8.60 3.06,-8.33 4.31,-7.62 5.56,-6.92 6.52,-5.85 7.48,-4.78 8.05,-3.46 8.62,-2.14 8.73,-0.70 8.85,0.72 8.50,2.11 8.15,3.51 7.38,4.72 6.61,5.93 5.49,6.83 4.36,7.73 3.02,8.22 1.67,8.72 0.23,8.76 -1.20,8.80 -2.57,8.37 -3.94,7.95 -5.11,7.11 -6.28,6.27 -6.28,6.28 -6.28,6.28 -6.94,5.43 -7.60,4.59 -8.04,3.61 -8.48,2.64 -8.67,1.58 -8.86,0.53 -8.80,-0.53 -8.73,-1.60 -8.41,-2.62 -8.09,-3.64 -7.54,-4.56 -6.99,-5.47 -6.23,-6.23 -5.47,-6.99 -4.56,-7.54 -3.64,-8.10 -2.62,-8.41 -1.60,-8.73 -0.53,-8.80 0.53,-8.86 1.59,-8.67 2.64,-8.48 3.61,-8.04 4.59,-7.60 5.43,-6.94 6.28,-6.28 6.28,-6.28 L 6.28,-6.28 Z"></path></g><g transform="translate(36.446156525888455 143.56350872535896) rotate(0 0.00004999999998744897 0.00005000000000165983)" stroke="none"><path fill="#f36d6b" d="M 6.28,-6.28 Q 6.28,-6.28 7.11,-5.11 7.95,-3.94 8.37,-2.57 8.80,-1.19 8.76,0.23 8.72,1.67 8.22,3.02 7.73,4.37 6.83,5.49 5.93,6.61 4.72,7.38 3.50,8.15 2.11,8.50 0.72,8.85 -0.71,8.73 -2.14,8.61 -3.46,8.05 -4.78,7.48 -5.85,6.52 -6.92,5.56 -7.63,4.31 -8.33,3.06 -8.60,1.65 -8.87,0.23 -8.68,-1.18 -8.49,-2.60 -7.85,-3.89 -7.21,-5.18 -6.19,-6.19 -5.18,-7.21 -3.89,-7.85 -2.60,-8.49 -1.18,-8.68 0.24,-8.87 1.65,-8.60 3.06,-8.33 4.31,-7.62 5.56,-6.92 6.52,-5.85 7.48,-4.78 8.05,-3.46 8.62,-2.14 8.73,-0.70 8.85,0.72 8.50,2.11 8.15,3.51 7.38,4.72 6.61,5.93 5.49,6.83 4.36,7.73 3.02,8.22 1.67,8.72 0.23,8.76 -1.20,8.80 -2.57,8.37 -3.94,7.95 -5.11,7.11 -6.28,6.27 -6.28,6.28 -6.28,6.28 -6.94,5.43 -7.60,4.59 -8.04,3.61 -8.48,2.64 -8.67,1.58 -8.86,0.53 -8.80,-0.53 -8.73,-1.60 -8.41,-2.62 -8.09,-3.64 -7.54,-4.56 -6.99,-5.47 -6.23,-6.23 -5.47,-6.99 -4.56,-7.54 -3.64,-8.10 -2.62,-8.41 -1.60,-8.73 -0.53,-8.80 0.53,-8.86 1.59,-8.67 2.64,-8.48 3.61,-8.04 4.59,-7.60 5.43,-6.94 6.28,-6.28 6.28,-6.28 L 6.28,-6.28 Z"></path></g><g stroke-linecap="round" transform="translate(60.034293174409186 35.36864556557951) rotate(0 59.939137321841486 52.791887612193655)"><path d="M88.77 7.88 C97.84 11.02, 106.8 17.67, 112.01 24.8 C117.22 31.93, 120.04 41.54, 120.01 50.66 C119.99 59.79, 116.41 71.48, 111.85 79.54 C107.29 87.59, 101.23 94.79, 92.65 98.99 C84.07 103.19, 70.56 104.77, 60.36 104.75 C50.16 104.73, 39.84 103.16, 31.45 98.88 C23.06 94.6, 15.11 86.4, 10.02 79.08 C4.93 71.76, 1.36 63.56, 0.91 54.97 C0.45 46.38, 2.56 35.37, 7.3 27.54 C12.04 19.7, 20.58 12.46, 29.36 7.94 C38.14 3.42, 44.76 -6.02, 59.98 0.41 C75.2 6.83, 114.25 31.31, 120.66 46.5 C127.07 61.69, 99.68 91.19, 98.42 91.54 M45.98 4.67 C54.79 2.01, 66.99 -0.57, 76.18 0.96 C85.38 2.49, 94.73 7.99, 101.16 13.85 C107.59 19.72, 112.24 27.54, 114.74 36.14 C117.24 44.73, 118.57 55.99, 116.17 65.41 C113.77 74.82, 106.87 86.37, 100.34 92.65 C93.82 98.93, 85.94 100.74, 77 103.09 C68.07 105.44, 56.53 108.87, 46.72 106.74 C36.92 104.62, 25.79 97.43, 18.16 90.32 C10.53 83.21, 3.15 72.18, 0.92 64.11 C-1.32 56.04, 2.31 50.22, 4.75 41.9 C7.19 33.57, 8.94 20.31, 15.55 14.15 C22.16 7.99, 39.48 6.56, 44.43 4.94 C49.38 3.32, 45.21 4.23, 45.26 4.42" stroke="#f36d6b" stroke-width="4" fill="none"></path></g><g stroke-linecap="round"><g transform="translate(196.47623819279806 51.041972023264535) rotate(0 -29.357670852050433 16.61331702217754)"><path d="M2.8 1.01 C-7.1 6.31, -48.54 28.3, -58.76 34.13 M0.87 -0.91 C-9.54 3.3, -51.25 24.07, -61.51 29.55" stroke="#f36d6b" stroke-width="4" fill="none"></path></g></g><mask></mask></svg>