<?xml version="1.0" standalone="no"?>
<!DOCTYPE svg PUBLIC "-//W3C//DTD SVG 1.1//EN" "http://www.w3.org/Graphics/SVG/1.1/DTD/svg11.dtd">
<svg version="1.1" xmlns="http://www.w3.org/2000/svg" viewBox="0 0 331.2551152508411 184.33075555951035" width="331.2551152508411" height="184.33075555951035"><!-- svg-source:excalidraw --><metadata></metadata><defs><style class="style-fonts">
      </style></defs><g transform="translate(10 10.173715136831603) rotate(0 6.07445022987622 81.99166264292357)" stroke="none"><path fill="#f36d6b" d="M 0.09,-2.59 Q 0.09,-2.59 1.48,-2.53 2.88,-2.48 5.11,-2.38 7.35,-2.27 8.78,-2.23 10.22,-2.19 11.76,-1.45 13.30,-0.72 13.94,0.89 14.59,2.51 14.75,4.14 14.91,5.76 15.03,7.62 15.15,9.47 15.16,11.36 15.18,13.24 15.18,15.19 15.18,17.14 15.14,18.98 15.09,20.82 14.92,22.27 14.75,23.73 14.60,25.19 14.45,26.65 14.36,28.12 14.27,29.60 14.15,31.17 14.04,32.74 13.85,34.43 13.66,36.13 13.43,37.94 13.20,39.75 13.03,41.48 12.87,43.22 12.68,44.99 12.49,46.76 12.31,48.67 12.12,50.57 12.14,52.14 12.15,53.70 12.24,55.05 12.33,56.40 12.40,57.71 12.47,59.02 12.49,60.48 12.52,61.94 12.54,63.36 12.57,64.78 12.52,66.32 12.47,67.86 12.46,70.07 12.45,72.27 12.32,74.21 12.19,76.14 12.05,78.27 11.91,80.40 11.72,83.73 11.52,87.06 11.41,89.95 11.29,92.83 11.22,95.66 11.15,98.48 11.11,101.33 11.06,104.18 11.08,107.23 11.10,110.27 11.10,113.08 11.10,115.88 11.09,118.27 11.09,120.66 11.08,122.78 11.08,124.89 11.10,126.89 11.13,128.89 11.19,130.64 11.26,132.38 11.26,134.10 11.27,135.82 11.30,137.47 11.33,139.13 11.38,140.63 11.43,142.13 11.58,143.50 11.73,144.87 11.94,146.75 12.15,148.63 12.34,150.09 12.54,151.54 12.71,152.83 12.89,154.12 12.98,155.29 13.07,156.47 13.24,157.60 13.41,158.74 13.57,159.99 13.73,161.24 11.47,164.30 9.21,167.36 8.69,167.34 8.16,167.31 7.68,167.12 7.19,166.93 6.79,166.59 6.39,166.26 6.12,165.81 5.85,165.36 5.73,164.85 5.62,164.34 5.67,163.82 5.73,163.30 5.94,162.83 6.16,162.35 6.52,161.97 6.88,161.59 7.34,161.34 7.80,161.10 8.31,161.01 8.83,160.92 9.34,161.00 9.86,161.09 10.32,161.33 10.79,161.57 11.15,161.95 11.51,162.33 11.73,162.80 11.95,163.27 12.01,163.79 12.07,164.31 11.96,164.82 11.85,165.33 11.58,165.78 11.32,166.23 10.92,166.57 10.52,166.91 10.04,167.11 9.55,167.30 9.03,167.33 8.51,167.37 8.00,167.23 7.50,167.09 7.07,166.80 6.63,166.51 6.31,166.09 6.00,165.68 5.83,165.18 5.66,164.69 5.66,164.17 5.65,163.64 5.82,163.15 5.98,162.65 6.30,162.23 6.61,161.82 7.04,161.52 7.47,161.23 7.98,161.08 8.48,160.94 8.48,160.94 8.48,160.94 7.95,161.00 7.42,161.06 7.40,159.99 7.38,158.91 7.38,157.72 7.39,156.52 7.44,155.44 7.50,154.35 7.50,153.03 7.51,151.71 7.54,150.22 7.57,148.73 7.67,146.93 7.76,145.13 7.72,143.62 7.67,142.11 7.74,140.60 7.81,139.08 7.88,137.40 7.95,135.72 8.06,134.05 8.17,132.39 8.23,130.64 8.29,128.89 8.31,126.89 8.33,124.90 8.32,122.79 8.31,120.67 8.29,118.29 8.26,115.90 8.23,113.11 8.19,110.32 8.11,107.24 8.04,104.17 8.01,101.32 7.98,98.46 7.95,95.62 7.92,92.78 7.89,89.86 7.87,86.94 7.88,83.66 7.89,80.38 7.77,78.23 7.66,76.09 7.58,74.07 7.49,72.06 7.64,69.88 7.79,67.71 7.84,66.25 7.89,64.79 7.90,63.38 7.92,61.97 7.93,60.53 7.94,59.10 7.96,57.83 7.98,56.56 7.97,55.13 7.96,53.70 7.97,52.02 7.98,50.33 8.03,48.36 8.07,46.38 8.18,44.65 8.29,42.92 8.35,41.13 8.42,39.34 8.50,37.54 8.58,35.74 8.64,34.12 8.71,32.50 8.74,30.97 8.76,29.44 8.75,27.85 8.75,26.26 8.80,24.74 8.85,23.22 8.92,21.89 8.99,20.56 9.05,18.85 9.10,17.14 9.10,15.21 9.09,13.27 9.06,11.46 9.04,9.65 8.93,7.92 8.83,6.19 9.27,4.78 9.71,3.37 8.32,3.18 6.94,2.99 4.81,2.84 2.69,2.68 1.30,2.63 -0.09,2.59 -0.40,2.54 -0.71,2.49 -0.99,2.37 -1.28,2.25 -1.53,2.06 -1.78,1.87 -1.98,1.63 -2.18,1.39 -2.32,1.11 -2.45,0.83 -2.52,0.52 -2.58,0.22 -2.57,-0.09 -2.56,-0.40 -2.47,-0.70 -2.39,-1.00 -2.23,-1.27 -2.08,-1.55 -1.86,-1.77 -1.65,-2.00 -1.38,-2.17 -1.12,-2.33 -0.82,-2.44 -0.53,-2.54 -0.21,-2.56 0.09,-2.59 0.09,-2.59 L 0.09,-2.59 Z"></path></g><g transform="translate(25.107418668807668 21.4649339686896) rotate(0 127.06295113543388 0.6948472942165935)" stroke="none"><path fill="#f36d6b" d="M -0.12,-1.93 Q -0.12,-1.93 1.41,-2.07 2.95,-2.20 5.82,-2.35 8.68,-2.49 12.62,-2.47 16.56,-2.46 18.13,-2.49 19.71,-2.52 22.98,-2.43 26.25,-2.34 27.98,-2.36 29.72,-2.38 33.31,-2.30 36.89,-2.23 38.79,-2.18 40.69,-2.14 44.21,-2.06 47.74,-1.99 49.69,-1.98 51.64,-1.97 55.28,-1.87 58.91,-1.78 60.95,-1.75 62.99,-1.72 66.50,-1.68 70.01,-1.64 71.85,-1.68 73.69,-1.72 77.02,-1.68 80.35,-1.65 82.09,-1.66 83.83,-1.67 87.01,-1.51 90.19,-1.35 91.84,-1.37 93.48,-1.38 96.64,-1.21 99.79,-1.04 101.52,-1.04 103.25,-1.04 106.63,-0.92 110.01,-0.80 111.99,-0.77 113.97,-0.73 117.33,-0.59 120.68,-0.44 122.65,-0.40 124.61,-0.37 127.90,-0.22 131.20,-0.07 133.23,-0.02 135.27,0.02 138.72,0.06 142.17,0.11 146.90,0.18 151.62,0.25 156.52,0.29 161.42,0.33 163.85,0.34 166.28,0.36 169.81,0.37 173.34,0.38 177.09,0.39 180.83,0.39 184.63,0.45 188.43,0.50 192.24,0.58 196.06,0.65 199.76,0.63 203.46,0.61 206.93,0.56 210.39,0.50 213.37,0.43 216.34,0.35 219.00,0.27 221.65,0.19 224.17,0.06 226.69,-0.07 228.95,-0.22 231.21,-0.38 233.29,-0.51 235.36,-0.64 237.63,-0.79 239.90,-0.93 241.99,-1.01 244.08,-1.08 245.82,-1.27 247.57,-1.46 248.93,-1.71 250.30,-1.96 252.12,-2.23 253.94,-2.49 254.24,-2.47 254.53,-2.45 254.80,-2.34 255.07,-2.23 255.29,-2.04 255.51,-1.85 255.66,-1.59 255.81,-1.34 255.87,-1.05 255.93,-0.77 255.90,-0.48 255.86,-0.19 255.73,0.07 255.61,0.33 255.40,0.54 255.20,0.75 254.94,0.89 254.68,1.02 254.39,1.07 254.10,1.11 253.81,1.06 253.52,1.01 253.27,0.87 253.01,0.73 252.81,0.51 252.61,0.30 252.49,0.03 252.37,-0.22 252.34,-0.52 252.31,-0.81 252.38,-1.09 252.45,-1.38 252.60,-1.63 252.75,-1.88 252.98,-2.07 253.20,-2.25 253.48,-2.36 253.75,-2.46 254.04,-2.48 254.34,-2.49 254.62,-2.41 254.90,-2.33 255.14,-2.16 255.38,-1.99 255.56,-1.76 255.73,-1.52 255.82,-1.24 255.91,-0.96 255.91,-0.67 255.90,-0.38 255.81,-0.10 255.71,0.17 255.53,0.40 255.35,0.63 255.11,0.79 254.86,0.95 254.58,1.03 254.30,1.10 254.30,1.10 254.30,1.10 252.48,1.24 250.66,1.37 249.22,1.43 247.78,1.49 245.97,1.56 244.16,1.62 242.12,1.67 240.07,1.72 237.79,1.87 235.51,2.03 233.45,2.13 231.39,2.23 229.11,2.39 226.83,2.55 224.28,2.69 221.74,2.82 219.07,2.90 216.40,2.99 213.42,3.06 210.44,3.14 206.95,3.20 203.47,3.26 199.74,3.28 196.01,3.30 192.20,3.23 188.40,3.16 184.61,3.11 180.83,3.06 177.08,3.07 173.33,3.07 169.80,3.07 166.27,3.07 163.83,3.07 161.40,3.06 156.49,3.05 151.59,3.04 146.87,2.99 142.16,2.95 138.68,2.94 135.20,2.94 133.14,2.89 131.09,2.84 127.81,2.75 124.54,2.66 122.56,2.60 120.58,2.54 117.25,2.46 113.93,2.38 111.93,2.35 109.94,2.32 106.55,2.30 103.15,2.27 101.41,2.17 99.67,2.07 96.52,2.00 93.38,1.92 91.73,1.80 90.07,1.69 86.90,1.60 83.73,1.52 82.04,1.41 80.35,1.30 77.02,1.33 73.69,1.36 71.84,1.31 70.00,1.27 66.48,1.28 62.96,1.30 60.91,1.29 58.87,1.27 55.25,1.26 51.63,1.25 49.67,1.24 47.72,1.23 44.16,1.26 40.59,1.30 38.74,1.24 36.89,1.19 33.31,1.26 29.72,1.34 27.99,1.32 26.25,1.30 22.98,1.40 19.72,1.49 18.14,1.46 16.56,1.43 12.66,1.50 8.76,1.56 5.99,1.68 3.21,1.81 1.67,1.87 0.12,1.93 -0.10,1.92 -0.34,1.91 -0.56,1.84 -0.78,1.77 -0.99,1.65 -1.19,1.53 -1.35,1.36 -1.52,1.20 -1.64,1.00 -1.76,0.80 -1.83,0.58 -1.90,0.35 -1.92,0.12 -1.93,-0.10 -1.89,-0.33 -1.85,-0.57 -1.76,-0.78 -1.66,-0.99 -1.52,-1.18 -1.37,-1.36 -1.19,-1.51 -1.01,-1.65 -0.79,-1.75 -0.58,-1.85 -0.35,-1.89 -0.12,-1.93 -0.12,-1.93 L -0.12,-1.93 Z"></path></g><g transform="translate(24.590348589579435 144.8840022009204) rotate(0 146.95694908835299 -4.169057259079992)" stroke="none"><path fill="#f36d6b" d="M 0,-1.64 Q 0,-1.64 1.49,-1.72 2.99,-1.79 4.57,-1.93 6.15,-2.06 8.57,-2.08 10.98,-2.10 13.99,-2.18 17.00,-2.27 20.52,-2.43 24.05,-2.60 28.09,-2.81 32.14,-3.02 36.96,-3.30 41.77,-3.58 44.28,-3.69 46.78,-3.81 50.93,-4.05 55.09,-4.29 57.35,-4.44 59.61,-4.59 63.44,-4.75 67.26,-4.91 69.37,-5.03 71.48,-5.15 75.34,-5.30 79.20,-5.44 81.24,-5.53 83.28,-5.61 87.18,-5.78 91.08,-5.95 93.10,-6.05 95.12,-6.14 98.72,-6.26 102.32,-6.38 104.31,-6.46 106.29,-6.55 109.73,-6.65 113.16,-6.76 115.07,-6.85 116.99,-6.94 120.72,-6.94 124.44,-6.95 126.57,-6.94 128.69,-6.93 132.55,-6.93 136.40,-6.92 138.38,-6.95 140.37,-6.97 144.16,-6.96 147.95,-6.94 152.30,-6.98 156.65,-7.02 161.11,-7.04 165.56,-7.05 170.10,-7.05 174.64,-7.06 178.97,-7.06 183.29,-7.06 187.33,-7.06 191.36,-7.05 195.08,-7.05 198.79,-7.05 202.42,-7.05 206.04,-7.05 208.13,-7.06 210.22,-7.06 212.61,-7.06 215.00,-7.06 217.91,-7.06 220.82,-7.05 223.84,-7.10 226.87,-7.15 229.95,-7.22 233.04,-7.29 235.88,-7.42 238.73,-7.55 241.28,-7.70 243.84,-7.85 246.22,-8.02 248.60,-8.18 250.91,-8.35 253.22,-8.52 254.59,-8.76 255.95,-9.00 258.44,-9.17 260.94,-9.34 263.11,-9.45 265.28,-9.57 267.42,-9.61 269.56,-9.66 271.77,-9.67 273.97,-9.68 275.81,-9.74 277.65,-9.81 278.73,-9.93 279.81,-10.05 281.63,-10.23 283.45,-10.42 284.86,-10.46 286.27,-10.50 287.61,-10.62 288.95,-10.75 290.05,-10.78 291.16,-10.81 292.54,-10.80 293.93,-10.79 294.35,-10.72 294.77,-10.65 295.14,-10.45 295.52,-10.25 295.81,-9.93 296.10,-9.62 296.28,-9.24 296.45,-8.85 296.50,-8.42 296.54,-8.00 296.44,-7.58 296.35,-7.17 296.13,-6.80 295.91,-6.44 295.58,-6.17 295.25,-5.89 294.86,-5.74 294.46,-5.58 294.03,-5.56 293.61,-5.54 293.20,-5.66 292.79,-5.78 292.44,-6.02 292.08,-6.26 291.83,-6.60 291.57,-6.94 291.44,-7.35 291.31,-7.75 291.31,-8.18 291.31,-8.60 291.45,-9.01 291.59,-9.41 291.85,-9.75 292.11,-10.08 292.46,-10.32 292.82,-10.56 293.23,-10.67 293.64,-10.78 294.07,-10.75 294.49,-10.73 294.89,-10.57 295.28,-10.41 295.61,-10.13 295.93,-9.85 296.15,-9.48 296.36,-9.12 296.45,-8.70 296.54,-8.28 296.49,-7.86 296.44,-7.44 296.26,-7.05 296.08,-6.67 295.78,-6.36 295.49,-6.05 295.11,-5.85 294.73,-5.66 294.31,-5.59 293.89,-5.52 293.89,-5.52 293.89,-5.52 291.42,-5.72 288.95,-5.92 287.61,-6.04 286.27,-6.17 284.87,-6.21 283.46,-6.25 281.64,-6.43 279.82,-6.61 278.74,-6.72 277.66,-6.83 275.83,-6.87 274.01,-6.91 271.82,-6.88 269.63,-6.84 267.55,-6.77 265.46,-6.70 263.32,-6.54 261.18,-6.38 258.70,-6.15 256.22,-5.91 254.82,-5.91 253.42,-5.90 251.10,-5.73 248.78,-5.56 246.39,-5.39 244.00,-5.23 241.42,-5.07 238.85,-4.91 235.97,-4.78 233.10,-4.65 230.01,-4.58 226.91,-4.51 223.87,-4.45 220.82,-4.40 217.91,-4.40 215.00,-4.40 212.61,-4.39 210.22,-4.39 208.13,-4.40 206.04,-4.41 202.42,-4.40 198.79,-4.40 195.08,-4.40 191.37,-4.40 187.33,-4.39 183.29,-4.39 178.97,-4.38 174.64,-4.37 170.11,-4.36 165.57,-4.34 161.13,-4.31 156.68,-4.28 152.32,-4.22 147.95,-4.16 144.16,-4.15 140.37,-4.13 138.39,-4.15 136.40,-4.18 132.55,-4.16 128.71,-4.15 126.58,-4.12 124.46,-4.10 120.76,-4.05 117.07,-4.01 115.17,-3.99 113.26,-3.98 109.82,-3.84 106.37,-3.70 104.40,-3.67 102.42,-3.64 98.82,-3.50 95.22,-3.35 93.21,-3.30 91.21,-3.25 87.29,-3.06 83.37,-2.87 81.34,-2.83 79.31,-2.78 75.47,-2.63 71.64,-2.48 69.51,-2.35 67.38,-2.23 63.59,-2.05 59.80,-1.88 57.52,-1.72 55.25,-1.55 51.09,-1.28 46.93,-1.02 44.44,-0.87 41.95,-0.73 37.13,-0.41 32.32,-0.09 28.27,0.17 24.23,0.44 20.69,0.69 17.15,0.94 14.13,1.14 11.12,1.33 8.75,1.50 6.38,1.66 4.68,1.73 2.99,1.79 1.49,1.72 0,1.64 -0.19,1.62 -0.39,1.60 -0.58,1.53 -0.76,1.45 -0.92,1.34 -1.09,1.23 -1.22,1.08 -1.35,0.93 -1.44,0.76 -1.54,0.58 -1.58,0.39 -1.63,0.19 -1.63,-0.00 -1.63,-0.19 -1.58,-0.39 -1.54,-0.58 -1.44,-0.76 -1.35,-0.93 -1.22,-1.08 -1.09,-1.23 -0.92,-1.34 -0.76,-1.45 -0.58,-1.53 -0.39,-1.60 -0.19,-1.62 0.00,-1.64 0.00,-1.64 L 0,-1.64 Z"></path></g><g transform="translate(280.2810057763577 21.207081464230647) rotate(0 20.487054737241692 59.57479939333853)" stroke="none"><path fill="#f36d6b" d="M -0.26,-2.62 Q -0.26,-2.62 0.73,-2.75 1.72,-2.88 3.36,-3.10 5.00,-3.31 6.68,-3.52 8.36,-3.73 9.50,-3.80 10.63,-3.86 11.97,-3.87 13.31,-3.88 14.65,-3.96 15.98,-4.03 17.37,-4.27 18.76,-4.51 20.00,-4.63 21.24,-4.75 22.55,-4.79 23.87,-4.83 25.08,-4.87 26.29,-4.91 27.68,-5.01 29.07,-5.11 30.30,-5.14 31.53,-5.16 33.43,-4.83 35.33,-4.49 36.41,-2.79 37.50,-1.08 37.74,0.30 37.98,1.69 38.21,3.15 38.44,4.62 38.64,6.37 38.83,8.12 39.04,10.15 39.24,12.19 39.34,13.98 39.44,15.76 39.51,17.65 39.58,19.55 39.70,21.56 39.82,23.57 40.02,25.57 40.22,27.58 40.41,29.48 40.60,31.37 40.92,34.19 41.24,37.02 41.42,39.29 41.59,41.55 41.83,44.02 42.06,46.49 42.19,49.09 42.33,51.68 42.36,54.40 42.40,57.12 42.40,59.97 42.40,62.82 42.39,65.78 42.39,68.74 42.32,71.46 42.26,74.17 42.08,76.66 41.90,79.14 41.67,81.40 41.43,83.66 41.18,85.91 40.93,88.17 40.67,90.57 40.42,92.97 40.21,95.43 40.00,97.89 39.86,100.12 39.72,102.35 39.62,104.40 39.53,106.45 39.48,108.32 39.44,110.20 39.48,111.78 39.52,113.35 39.60,114.62 39.68,115.89 39.92,118.11 40.16,120.34 40.19,120.67 40.23,120.99 40.16,121.32 40.09,121.64 39.92,121.92 39.74,122.21 39.49,122.42 39.24,122.63 38.93,122.75 38.63,122.88 38.30,122.89 37.97,122.91 37.65,122.82 37.33,122.73 37.06,122.55 36.78,122.36 36.58,122.10 36.38,121.84 36.28,121.52 36.17,121.21 36.17,120.88 36.17,120.55 36.28,120.24 36.39,119.92 36.59,119.66 36.79,119.40 37.06,119.21 37.33,119.03 37.65,118.94 37.97,118.85 38.30,118.87 38.63,118.89 38.94,119.01 39.24,119.13 39.50,119.35 39.75,119.56 39.92,119.85 40.09,120.13 40.16,120.45 40.23,120.77 40.19,121.10 40.16,121.43 40.02,121.73 39.88,122.03 39.65,122.27 39.42,122.51 39.13,122.66 38.84,122.82 38.51,122.87 38.19,122.92 37.86,122.87 37.53,122.82 37.24,122.66 36.95,122.51 36.72,122.27 36.50,122.03 36.36,121.73 36.22,121.43 36.22,121.43 36.22,121.43 36.14,118.63 36.06,115.84 36.17,114.56 36.29,113.27 36.41,111.66 36.53,110.05 36.68,108.18 36.82,106.31 36.95,104.25 37.07,102.19 37.21,99.93 37.34,97.66 37.55,95.18 37.75,92.69 38.00,90.29 38.25,87.88 38.49,85.64 38.73,83.39 38.94,81.17 39.15,78.95 39.30,76.54 39.46,74.13 39.48,71.44 39.51,68.75 39.47,65.80 39.44,62.85 39.37,60.03 39.31,57.21 39.18,54.57 39.06,51.92 38.82,49.43 38.58,46.94 38.18,44.48 37.78,42.02 37.39,39.75 37.00,37.47 36.73,34.68 36.47,31.90 36.19,30.08 35.91,28.27 35.47,26.25 35.03,24.23 34.58,22.18 34.14,20.13 33.81,18.33 33.49,16.53 33.13,14.81 32.78,13.09 32.47,11.08 32.16,9.08 31.93,7.82 31.70,6.56 31.51,5.23 31.32,3.91 31.45,2.80 31.58,1.70 30.04,1.68 28.51,1.66 27.40,1.72 26.30,1.78 25.11,1.75 23.92,1.72 22.73,1.71 21.53,1.70 20.13,1.75 18.73,1.80 17.39,1.88 16.05,1.96 14.74,1.92 13.44,1.89 12.21,1.93 10.98,1.98 9.82,2.05 8.67,2.12 7.25,2.20 5.83,2.27 4.05,2.38 2.26,2.48 1.26,2.55 0.26,2.62 -0.05,2.61 -0.37,2.61 -0.68,2.52 -0.98,2.44 -1.26,2.29 -1.54,2.13 -1.77,1.92 -2.01,1.70 -2.18,1.44 -2.36,1.17 -2.46,0.87 -2.57,0.57 -2.60,0.26 -2.63,-0.05 -2.59,-0.37 -2.54,-0.68 -2.42,-0.98 -2.31,-1.27 -2.12,-1.53 -1.93,-1.79 -1.69,-1.99 -1.45,-2.20 -1.16,-2.34 -0.88,-2.48 -0.57,-2.55 -0.26,-2.62 -0.26,-2.62 L -0.26,-2.62 Z"></path></g><g stroke-linecap="round" transform="translate(53.756202285751215 44.839927478694754) rotate(0 45.33048618761484 41.35276076158115)"><path d="M53.48 -0.74 C60.99 0.22, 68.5 6.55, 74.37 11.53 C80.25 16.51, 86.55 22.29, 88.75 29.13 C90.95 35.96, 89.64 45.13, 87.56 52.54 C85.48 59.96, 82.27 68.85, 76.26 73.62 C70.26 78.38, 60.14 80.4, 51.53 81.15 C42.93 81.9, 31.92 81.33, 24.64 78.13 C17.35 74.92, 11.84 68.41, 7.83 61.93 C3.82 55.45, 0.48 46.27, 0.56 39.26 C0.63 32.24, 3.95 25.47, 8.27 19.82 C12.58 14.16, 16.7 7.98, 26.45 5.34 C36.19 2.69, 57.45 2.2, 66.75 3.96 C76.04 5.72, 82.46 14.7, 82.24 15.9 M38.72 -0.22 C47.18 -1.76, 58.9 2.35, 66.73 5.25 C74.56 8.15, 81.95 11.19, 85.7 17.17 C89.44 23.16, 89.72 33.07, 89.19 41.15 C88.66 49.24, 86.67 59.62, 82.53 65.68 C78.4 71.74, 71.98 74.62, 64.39 77.51 C56.79 80.39, 45.2 83.45, 36.95 83.01 C28.69 82.58, 20.42 80.12, 14.85 74.89 C9.28 69.66, 5.72 59.17, 3.53 51.62 C1.33 44.08, -0.53 36.16, 1.7 29.63 C3.93 23.09, 10.47 17.12, 16.89 12.41 C23.32 7.7, 36.46 3.68, 40.26 1.37 C44.06 -0.95, 40.27 -1.97, 39.7 -1.49" stroke="#f36d6b" stroke-width="1" fill="none"></path></g><g stroke-linecap="round" transform="translate(187.77652435072196 42.49693522577825) rotate(0 45.33048618761484 41.35276076158115)"><path d="M69.74 8.45 C76.56 11.7, 82.78 18.23, 86.11 24.57 C89.44 30.91, 91.18 38.73, 89.74 46.49 C88.3 54.24, 82.97 65.43, 77.48 71.09 C71.99 76.75, 64.14 79.09, 56.8 80.45 C49.45 81.81, 41.24 81.46, 33.4 79.24 C25.57 77.03, 15.45 72.68, 9.78 67.18 C4.11 61.67, 0.13 53.66, -0.63 46.21 C-1.39 38.75, 1.17 28.94, 5.21 22.47 C9.25 16, 16.92 11.36, 23.63 7.37 C30.34 3.37, 36.31 -2.2, 45.48 -1.49 C54.64 -0.78, 72.2 8.04, 78.64 11.61 C85.08 15.19, 84.67 19.47, 84.11 19.95 M83.09 17.34 C88.37 22.38, 87.59 26.66, 88.37 33.88 C89.14 41.09, 91.38 53.86, 87.76 60.64 C84.15 67.41, 73.55 71.06, 66.68 74.52 C59.8 77.99, 53.99 81, 46.52 81.44 C39.04 81.87, 28.8 81.55, 21.81 77.13 C14.82 72.72, 7.76 61.78, 4.59 54.95 C1.43 48.12, 1.65 42.77, 2.83 36.17 C4.02 29.57, 6.14 21.19, 11.69 15.33 C17.24 9.48, 27.92 3.1, 36.12 1.03 C44.32 -1.04, 53.29 0.81, 60.88 2.9 C68.46 5, 78.79 11.93, 81.62 13.61 C84.44 15.29, 78.83 12.64, 77.82 12.98" stroke="#f36d6b" stroke-width="1" fill="none"></path></g><g transform="translate(87.40730593484454 143.2337647267369) rotate(0 76.69010064437884 4.501538024877746)" stroke="none"><path fill="#f36d6b" d="M 2.63,-0.27 Q 2.63,-0.27 2.76,0.66 2.89,1.60 3.09,3.47 3.29,5.33 3.53,6.41 3.77,7.49 5.14,6.84 6.50,6.20 7.95,6.33 9.41,6.45 12.01,6.64 14.62,6.84 17.13,6.90 19.63,6.96 22.08,6.98 24.52,7.00 26.67,6.99 28.82,6.98 31.02,6.98 33.21,6.98 35.51,7.00 37.81,7.01 40.17,7.02 42.52,7.03 44.31,7.16 46.10,7.29 48.09,7.52 50.07,7.75 52.14,7.93 54.22,8.11 56.41,8.23 58.59,8.35 60.80,8.38 63.01,8.41 65.35,8.40 67.69,8.38 70.17,8.29 72.65,8.20 75.32,8.13 77.99,8.05 80.93,7.98 83.86,7.90 86.84,7.78 89.82,7.65 92.55,7.56 95.27,7.46 98.15,7.42 101.02,7.38 104.14,7.42 107.27,7.45 109.09,7.40 110.91,7.36 113.08,7.38 115.25,7.41 117.97,7.43 120.69,7.44 123.55,7.46 126.40,7.47 128.91,7.48 131.42,7.48 133.77,7.44 136.13,7.40 138.21,7.28 140.29,7.16 141.85,6.91 143.41,6.67 144.67,6.36 145.93,6.06 147.20,5.59 148.47,5.13 149.14,4.02 149.81,2.91 150.22,0.82 150.63,-1.26 150.71,-1.70 150.79,-2.13 151.00,-2.52 151.21,-2.91 151.54,-3.21 151.86,-3.52 152.27,-3.70 152.67,-3.88 153.12,-3.92 153.56,-3.96 153.99,-3.86 154.42,-3.76 154.80,-3.53 155.18,-3.29 155.46,-2.95 155.74,-2.61 155.90,-2.20 156.06,-1.78 156.08,-1.34 156.10,-0.90 155.98,-0.47 155.85,-0.04 155.60,0.31 155.34,0.68 154.99,0.94 154.63,1.20 154.21,1.34 153.79,1.48 153.34,1.47 152.90,1.47 152.48,1.32 152.06,1.17 151.71,0.90 151.36,0.63 151.11,0.26 150.87,-0.11 150.76,-0.53 150.64,-0.96 150.67,-1.41 150.70,-1.85 150.87,-2.26 151.04,-2.67 151.33,-3.00 151.63,-3.34 152.01,-3.56 152.39,-3.79 152.83,-3.88 153.26,-3.97 153.70,-3.91 154.14,-3.86 154.54,-3.67 154.94,-3.48 155.26,-3.17 155.58,-2.86 155.78,-2.46 155.99,-2.07 156.05,-1.63 156.12,-1.19 156.12,-1.19 156.12,-1.19 155.72,1.18 155.31,3.57 154.70,4.81 154.09,6.06 153.08,7.14 152.07,8.22 150.81,8.67 149.54,9.12 148.01,9.29 146.48,9.47 145.09,9.60 143.69,9.72 142.07,9.78 140.44,9.84 138.31,9.96 136.18,10.08 133.80,10.14 131.42,10.19 128.91,10.20 126.40,10.21 123.54,10.22 120.69,10.23 117.97,10.24 115.24,10.25 113.07,10.27 110.89,10.28 109.07,10.21 107.25,10.14 104.15,10.11 101.06,10.09 98.22,10.14 95.39,10.20 92.67,10.32 89.96,10.44 86.95,10.59 83.95,10.75 81.03,10.86 78.11,10.98 75.46,11.11 72.81,11.24 70.30,11.41 67.78,11.58 65.43,11.70 63.07,11.82 60.82,11.93 58.56,12.05 56.34,12.12 54.12,12.20 51.95,12.28 49.78,12.35 47.87,12.34 45.96,12.33 44.24,12.36 42.52,12.38 40.17,12.39 37.81,12.40 35.51,12.42 33.21,12.43 31.02,12.43 28.82,12.44 26.67,12.42 24.52,12.41 22.05,12.41 19.59,12.42 17.01,12.41 14.43,12.40 11.79,12.41 9.15,12.42 6.98,12.36 4.81,12.30 3.12,12.08 1.43,11.85 -0.27,10.25 -1.98,8.64 -2.17,7.11 -2.36,5.58 -2.43,3.88 -2.49,2.17 -2.56,1.22 -2.63,0.27 -2.62,-0.04 -2.62,-0.36 -2.53,-0.66 -2.45,-0.97 -2.30,-1.25 -2.15,-1.53 -1.93,-1.77 -1.72,-2.00 -1.45,-2.18 -1.19,-2.36 -0.89,-2.47 -0.59,-2.57 -0.27,-2.61 0.04,-2.64 0.35,-2.60 0.67,-2.55 0.96,-2.44 1.26,-2.32 1.52,-2.13 1.78,-1.95 1.99,-1.71 2.20,-1.46 2.34,-1.18 2.48,-0.89 2.55,-0.58 2.63,-0.27 2.63,-0.27 L 2.63,-0.27 Z"></path></g><g transform="translate(100.4207200005983 89.14172716253975) rotate(0 3.5610708465566177 -18.405239681935342)" stroke="none"><path fill="#f36d6b" d="M -1.92,-0.40 Q -1.92,-0.40 -1.74,-1.61 -1.56,-2.81 -1.14,-4.46 -0.73,-6.11 -0.05,-8.86 0.61,-11.62 1.18,-14.14 1.76,-16.66 2.23,-19.12 2.71,-21.58 3.19,-23.85 3.68,-26.12 3.96,-28.04 4.24,-29.97 4.39,-31.87 4.54,-33.78 4.89,-35.47 5.24,-37.16 5.35,-37.47 5.46,-37.79 5.66,-38.06 5.87,-38.33 6.15,-38.52 6.43,-38.70 6.75,-38.79 7.08,-38.88 7.42,-38.86 7.75,-38.84 8.06,-38.71 8.38,-38.58 8.63,-38.36 8.89,-38.14 9.06,-37.85 9.23,-37.56 9.30,-37.23 9.37,-36.91 9.33,-36.57 9.30,-36.24 9.15,-35.93 9.01,-35.62 8.78,-35.38 8.54,-35.14 8.24,-34.98 7.94,-34.83 7.61,-34.77 7.28,-34.72 6.95,-34.78 6.61,-34.83 6.32,-34.99 6.02,-35.15 5.79,-35.40 5.56,-35.65 5.42,-35.95 5.28,-36.26 5.24,-36.60 5.21,-36.93 5.28,-37.26 5.36,-37.59 5.54,-37.88 5.71,-38.17 5.97,-38.38 6.23,-38.60 6.54,-38.72 6.86,-38.84 7.19,-38.86 7.53,-38.88 7.85,-38.78 8.18,-38.69 8.46,-38.50 8.73,-38.31 8.94,-38.04 9.14,-37.77 9.24,-37.45 9.35,-37.13 9.35,-36.79 9.35,-36.45 9.35,-36.46 9.35,-36.46 8.92,-34.74 8.49,-33.02 7.96,-31.27 7.44,-29.51 7.16,-27.52 6.88,-25.52 6.52,-23.27 6.16,-21.03 5.84,-18.50 5.51,-15.97 5.13,-13.32 4.75,-10.68 4.05,-7.88 3.35,-5.08 2.95,-3.52 2.55,-1.95 2.24,-0.77 1.92,0.40 1.84,0.62 1.77,0.85 1.64,1.05 1.51,1.25 1.34,1.41 1.17,1.57 0.96,1.69 0.76,1.81 0.53,1.87 0.30,1.94 0.06,1.95 -0.16,1.95 -0.39,1.91 -0.63,1.86 -0.84,1.75 -1.05,1.65 -1.24,1.50 -1.42,1.35 -1.56,1.16 -1.70,0.97 -1.79,0.75 -1.89,0.53 -1.92,0.30 -1.96,0.06 -1.94,-0.16 -1.92,-0.40 -1.92,-0.40 L -1.92,-0.40 Z"></path></g><g transform="translate(100.58765617176209 95.23382390812765) rotate(0 23.61453684326193 -0.6039110812568538)" stroke="none"><path fill="#f36d6b" d="M -0.52,-2.08 Q -0.52,-2.08 0.66,-2.43 1.84,-2.78 3.59,-2.97 5.35,-3.17 8.46,-3.12 11.57,-3.08 15.03,-2.88 18.48,-2.68 19.68,-2.70 20.87,-2.72 23.31,-2.54 25.76,-2.36 26.95,-2.41 28.14,-2.45 30.17,-2.27 32.21,-2.09 33.94,-2.18 35.67,-2.27 37.10,-2.54 38.53,-2.82 40.30,-3.22 42.08,-3.62 44.64,-3.71 47.21,-3.81 47.68,-3.73 48.15,-3.66 48.57,-3.44 48.99,-3.22 49.32,-2.87 49.65,-2.53 49.86,-2.10 50.06,-1.67 50.11,-1.19 50.17,-0.72 50.07,-0.25 49.97,0.21 49.73,0.62 49.48,1.03 49.12,1.34 48.76,1.65 48.32,1.83 47.87,2.01 47.40,2.03 46.92,2.06 46.46,1.94 46.00,1.81 45.61,1.55 45.21,1.28 44.92,0.90 44.63,0.53 44.47,0.08 44.32,-0.37 44.31,-0.84 44.31,-1.32 44.46,-1.77 44.61,-2.23 44.90,-2.61 45.18,-2.99 45.58,-3.26 45.97,-3.53 46.43,-3.66 46.89,-3.79 47.36,-3.77 47.84,-3.74 48.29,-3.57 48.73,-3.39 49.09,-3.09 49.46,-2.78 49.71,-2.37 49.96,-1.97 50.06,-1.50 50.17,-1.04 50.12,-0.56 50.07,-0.09 49.87,0.34 49.67,0.77 49.35,1.12 49.02,1.47 48.60,1.69 48.18,1.92 47.71,2.00 47.24,2.08 47.24,2.08 47.24,2.08 44.84,2.05 42.43,2.03 41.32,2.12 40.21,2.20 39.10,2.28 37.99,2.35 36.77,2.28 35.56,2.21 33.77,1.99 31.99,1.76 30.01,1.72 28.04,1.68 26.84,1.57 25.65,1.47 23.17,1.51 20.70,1.55 19.50,1.43 18.30,1.32 14.87,1.23 11.43,1.15 8.63,1.21 5.84,1.27 4.38,1.42 2.92,1.58 1.72,1.83 0.52,2.08 0.26,2.11 0.00,2.14 -0.24,2.11 -0.50,2.08 -0.74,1.99 -0.98,1.90 -1.20,1.75 -1.41,1.61 -1.58,1.41 -1.76,1.22 -1.88,0.99 -2.00,0.76 -2.06,0.51 -2.12,0.26 -2.12,0.00 -2.12,-0.25 -2.06,-0.50 -2.00,-0.75 -1.88,-0.98 -1.76,-1.21 -1.59,-1.40 -1.42,-1.60 -1.21,-1.74 -1.00,-1.89 -0.76,-1.98 -0.52,-2.08 -0.52,-2.08 L -0.52,-2.08 Z"></path></g><g transform="translate(102.63690502298846 92.29429740542975) rotate(0 0.6941581325065727 14.677918512647452)" stroke="none"><path fill="#f36d6b" d="M 2.50,-0.53 Q 2.50,-0.53 2.80,1.12 3.10,2.78 3.44,4.96 3.79,7.13 3.90,9.37 4.00,11.60 4.00,13.70 4.01,15.81 3.91,17.60 3.81,19.40 3.77,20.75 3.72,22.11 3.73,23.26 3.74,24.41 3.68,26.92 3.62,29.44 3.53,29.94 3.43,30.43 3.18,30.87 2.93,31.31 2.56,31.64 2.18,31.98 1.72,32.17 1.26,32.37 0.76,32.41 0.25,32.45 -0.22,32.33 -0.71,32.20 -1.14,31.93 -1.56,31.66 -1.87,31.27 -2.19,30.87 -2.36,30.40 -2.53,29.93 -2.54,29.43 -2.56,28.92 -2.41,28.44 -2.26,27.96 -1.96,27.55 -1.67,27.15 -1.26,26.85 -0.85,26.56 -0.37,26.41 0.10,26.27 0.61,26.28 1.11,26.30 1.58,26.47 2.05,26.65 2.44,26.96 2.84,27.28 3.11,27.71 3.38,28.13 3.50,28.62 3.62,29.11 3.57,29.61 3.53,30.11 3.33,30.57 3.13,31.03 2.79,31.41 2.46,31.78 2.02,32.03 1.58,32.27 1.08,32.37 0.59,32.46 0.09,32.39 -0.40,32.32 -0.85,32.10 -1.30,31.87 -1.65,31.51 -2.01,31.16 -2.23,30.71 -2.45,30.25 -2.52,29.76 -2.58,29.26 -2.58,29.26 -2.58,29.26 -2.45,26.79 -2.32,24.32 -2.23,22.98 -2.14,21.65 -1.99,20.30 -1.84,18.95 -1.64,17.28 -1.44,15.61 -1.36,13.64 -1.28,11.67 -1.32,9.64 -1.35,7.60 -1.52,5.70 -1.70,3.80 -2.10,2.16 -2.50,0.53 -2.52,0.22 -2.55,-0.08 -2.50,-0.38 -2.46,-0.69 -2.34,-0.97 -2.22,-1.26 -2.04,-1.50 -1.85,-1.75 -1.61,-1.95 -1.38,-2.15 -1.10,-2.28 -0.82,-2.41 -0.52,-2.48 -0.22,-2.54 0.08,-2.53 0.39,-2.52 0.68,-2.44 0.98,-2.35 1.25,-2.20 1.52,-2.05 1.74,-1.84 1.96,-1.63 2.13,-1.37 2.30,-1.11 2.40,-0.82 2.50,-0.52 2.50,-0.52 L 2.50,-0.53 Z"></path></g><g transform="translate(102.28810967901495 94.73984074618798) rotate(0 -21.4485811070507 5.732466984344796)" stroke="none"><path fill="#f36d6b" d="M 0.45,1.89 Q 0.45,1.89 -0.98,2.28 -2.41,2.67 -4.32,3.22 -6.23,3.77 -9.05,4.57 -11.87,5.38 -14.90,6.11 -17.94,6.84 -20.42,7.43 -22.90,8.02 -24.93,8.55 -26.97,9.09 -28.86,9.56 -30.75,10.03 -32.66,10.69 -34.57,11.36 -36.13,11.98 -37.69,12.61 -40.14,13.32 -42.59,14.02 -42.98,14.01 -43.37,14.00 -43.73,13.86 -44.10,13.72 -44.40,13.47 -44.70,13.23 -44.91,12.90 -45.12,12.57 -45.21,12.19 -45.30,11.81 -45.26,11.42 -45.23,11.03 -45.07,10.67 -44.91,10.32 -44.65,10.03 -44.38,9.74 -44.04,9.55 -43.70,9.36 -43.32,9.29 -42.94,9.22 -42.55,9.28 -42.16,9.34 -41.82,9.51 -41.47,9.69 -41.19,9.97 -40.92,10.25 -40.75,10.60 -40.58,10.95 -40.53,11.33 -40.48,11.72 -40.56,12.10 -40.64,12.49 -40.83,12.82 -41.03,13.16 -41.32,13.42 -41.61,13.68 -41.97,13.83 -42.33,13.98 -42.72,14.01 -43.11,14.03 -43.49,13.94 -43.87,13.84 -44.19,13.63 -44.52,13.41 -44.76,13.11 -45.00,12.80 -45.13,12.43 -45.26,12.07 -45.27,11.68 -45.28,11.29 -45.16,10.91 -45.04,10.54 -44.81,10.23 -44.58,9.91 -44.26,9.69 -43.94,9.46 -43.57,9.35 -43.20,9.24 -43.20,9.24 -43.20,9.24 -41.05,8.76 -38.90,8.28 -37.22,7.95 -35.53,7.61 -33.49,7.34 -31.45,7.07 -29.61,6.66 -27.76,6.25 -25.70,5.65 -23.65,5.05 -21.20,4.39 -18.75,3.72 -15.82,2.91 -12.90,2.10 -10.15,1.16 -7.40,0.21 -5.39,-0.52 -3.37,-1.27 -1.91,-1.58 -0.45,-1.89 -0.22,-1.91 0.00,-1.94 0.24,-1.91 0.47,-1.88 0.69,-1.80 0.91,-1.71 1.10,-1.58 1.29,-1.44 1.45,-1.27 1.60,-1.09 1.71,-0.88 1.82,-0.68 1.87,-0.45 1.93,-0.22 1.93,0.00 1.92,0.24 1.87,0.47 1.81,0.69 1.70,0.90 1.59,1.11 1.43,1.28 1.28,1.46 1.08,1.59 0.89,1.72 0.67,1.80 0.45,1.89 0.45,1.89 L 0.45,1.89 Z"></path></g><g transform="translate(103.50273068686101 90.91818725455155) rotate(0 -19.455644719405996 -13.549465911507035)" stroke="none"><path fill="#f36d6b" d="M -1.17,1.69 Q -1.17,1.69 -2.48,0.81 -3.79,-0.06 -5.33,-0.98 -6.88,-1.90 -9.20,-3.08 -11.52,-4.25 -13.98,-5.49 -16.44,-6.73 -18.25,-7.84 -20.06,-8.94 -21.72,-9.84 -23.39,-10.73 -24.89,-11.69 -26.40,-12.64 -27.86,-13.71 -29.31,-14.79 -30.60,-15.77 -31.89,-16.76 -32.93,-17.55 -33.96,-18.34 -35.55,-19.70 -37.14,-21.06 -38.02,-22.02 -38.90,-22.97 -39.92,-24.20 -40.94,-25.42 -41.15,-25.79 -41.37,-26.16 -41.45,-26.58 -41.54,-26.99 -41.49,-27.42 -41.43,-27.84 -41.25,-28.22 -41.06,-28.61 -40.77,-28.91 -40.47,-29.22 -40.09,-29.41 -39.71,-29.60 -39.29,-29.67 -38.86,-29.73 -38.45,-29.65 -38.03,-29.58 -37.65,-29.37 -37.28,-29.17 -36.99,-28.85 -36.70,-28.54 -36.53,-28.15 -36.36,-27.76 -36.32,-27.33 -36.28,-26.91 -36.38,-26.49 -36.47,-26.08 -36.70,-25.72 -36.93,-25.36 -37.25,-25.09 -37.58,-24.82 -37.98,-24.66 -38.38,-24.51 -38.81,-24.50 -39.23,-24.48 -39.64,-24.60 -40.05,-24.72 -40.40,-24.97 -40.75,-25.21 -41.00,-25.55 -41.25,-25.90 -41.38,-26.30 -41.51,-26.71 -41.51,-27.14 -41.50,-27.56 -41.36,-27.96 -41.21,-28.36 -40.95,-28.70 -40.69,-29.04 -40.33,-29.27 -39.97,-29.50 -39.56,-29.61 -39.15,-29.72 -38.72,-29.69 -38.30,-29.66 -37.91,-29.49 -37.51,-29.33 -37.19,-29.05 -36.87,-28.77 -36.87,-28.77 -36.87,-28.77 -35.30,-26.57 -33.73,-24.38 -32.48,-22.99 -31.23,-21.60 -30.31,-20.75 -29.39,-19.90 -28.19,-18.91 -26.99,-17.91 -25.64,-16.90 -24.29,-15.89 -22.96,-15.00 -21.63,-14.12 -19.92,-13.26 -18.20,-12.41 -16.29,-11.51 -14.38,-10.61 -12.00,-9.35 -9.63,-8.08 -7.27,-6.74 -4.91,-5.41 -3.15,-4.46 -1.40,-3.52 -0.11,-2.61 1.17,-1.69 1.36,-1.53 1.54,-1.36 1.69,-1.16 1.83,-0.95 1.91,-0.72 2.00,-0.49 2.03,-0.24 2.06,0.00 2.03,0.25 2.00,0.49 1.91,0.73 1.82,0.96 1.68,1.16 1.54,1.37 1.35,1.53 1.17,1.70 0.95,1.81 0.73,1.93 0.48,1.99 0.24,2.05 -0.00,2.05 -0.25,2.05 -0.49,1.99 -0.73,1.93 -0.95,1.81 -1.17,1.69 -1.17,1.69 L -1.17,1.69 Z"></path></g><g transform="translate(236.20988309530662 89.52850591922817) rotate(0 5.732513370229071 -21.366478091779094)" stroke="none"><path fill="#f36d6b" d="M -2.11,0.09 Q -2.11,0.09 -2.23,-1.00 -2.34,-2.09 -2.30,-3.48 -2.26,-4.87 -1.94,-6.63 -1.62,-8.39 -0.85,-10.49 -0.09,-12.59 0.64,-15.15 1.37,-17.71 1.96,-19.41 2.55,-21.11 3.23,-22.84 3.91,-24.58 4.42,-26.24 4.94,-27.90 5.39,-29.37 5.83,-30.84 6.18,-32.06 6.53,-33.29 6.86,-34.36 7.18,-35.42 7.51,-37.07 7.84,-38.72 8.44,-41.06 9.04,-43.40 9.21,-43.80 9.39,-44.20 9.68,-44.52 9.97,-44.84 10.35,-45.05 10.73,-45.26 11.16,-45.33 11.59,-45.41 12.02,-45.35 12.45,-45.28 12.83,-45.09 13.22,-44.89 13.52,-44.58 13.83,-44.27 14.02,-43.88 14.21,-43.49 14.26,-43.06 14.31,-42.63 14.23,-42.20 14.14,-41.78 13.93,-41.40 13.71,-41.03 13.38,-40.74 13.06,-40.45 12.66,-40.29 12.25,-40.12 11.82,-40.09 11.39,-40.06 10.97,-40.17 10.55,-40.27 10.19,-40.51 9.82,-40.75 9.55,-41.09 9.28,-41.43 9.14,-41.84 8.99,-42.25 8.99,-42.68 8.98,-43.12 9.11,-43.53 9.24,-43.94 9.50,-44.29 9.76,-44.64 10.11,-44.89 10.47,-45.14 10.88,-45.27 11.30,-45.39 11.73,-45.37 12.17,-45.36 12.57,-45.20 12.98,-45.05 13.31,-44.77 13.65,-44.50 13.88,-44.13 14.11,-43.76 14.21,-43.34 14.31,-42.92 14.27,-42.49 14.23,-42.05 14.23,-42.05 14.23,-42.05 13.68,-40.17 13.13,-38.29 12.66,-37.07 12.20,-35.84 11.44,-33.88 10.69,-31.92 10.24,-30.73 9.79,-29.54 9.29,-28.14 8.80,-26.74 8.28,-24.95 7.76,-23.15 7.16,-21.47 6.57,-19.78 6.05,-18.12 5.53,-16.46 4.67,-13.92 3.81,-11.38 3.34,-9.49 2.87,-7.61 2.62,-6.09 2.38,-4.58 2.26,-3.44 2.14,-2.29 2.13,-1.19 2.11,-0.09 2.09,0.15 2.07,0.41 1.99,0.65 1.91,0.89 1.78,1.11 1.64,1.33 1.46,1.50 1.28,1.68 1.06,1.81 0.84,1.94 0.59,2.01 0.35,2.09 0.09,2.10 -0.15,2.11 -0.41,2.06 -0.66,2.01 -0.89,1.90 -1.12,1.79 -1.32,1.63 -1.52,1.47 -1.67,1.27 -1.83,1.06 -1.93,0.83 -2.03,0.59 -2.07,0.34 -2.11,0.09 -2.11,0.09 L -2.11,0.09 Z"></path></g><g transform="translate(237.07843889979995 89.69136013257065) rotate(0 18.58712867424208 -2.953097687143085)" stroke="none"><path fill="#f36d6b" d="M 0.04,-2.01 Q 0.04,-2.01 2.24,-1.87 4.43,-1.72 5.72,-1.82 7.01,-1.92 9.56,-2.09 12.11,-2.26 13.71,-2.47 15.32,-2.67 18.21,-3.05 21.10,-3.44 22.63,-3.74 24.17,-4.05 26.67,-4.57 29.18,-5.09 30.41,-5.53 31.64,-5.96 34.00,-6.94 36.37,-7.92 36.68,-8.00 37.00,-8.08 37.32,-8.06 37.65,-8.03 37.95,-7.90 38.25,-7.78 38.49,-7.56 38.74,-7.34 38.90,-7.06 39.06,-6.78 39.12,-6.46 39.18,-6.14 39.14,-5.81 39.10,-5.49 38.95,-5.20 38.81,-4.90 38.58,-4.67 38.35,-4.44 38.06,-4.30 37.77,-4.15 37.44,-4.11 37.12,-4.06 36.80,-4.12 36.48,-4.18 36.20,-4.34 35.91,-4.50 35.69,-4.74 35.47,-4.98 35.35,-5.28 35.22,-5.58 35.19,-5.91 35.16,-6.23 35.24,-6.55 35.32,-6.87 35.49,-7.14 35.66,-7.42 35.92,-7.62 36.17,-7.83 36.48,-7.94 36.78,-8.05 37.11,-8.06 37.43,-8.07 37.75,-7.98 38.06,-7.88 38.32,-7.69 38.59,-7.50 38.78,-7.24 38.97,-6.98 39.07,-6.66 39.17,-6.35 39.16,-6.03 39.15,-5.70 39.04,-5.40 38.93,-5.09 38.72,-4.83 38.52,-4.58 38.25,-4.40 37.97,-4.23 37.97,-4.23 37.97,-4.23 35.31,-3.29 32.64,-2.36 31.30,-2.08 29.96,-1.79 27.36,-1.10 24.75,-0.42 23.20,-0.22 21.64,-0.03 18.67,0.51 15.69,1.06 14.08,1.18 12.46,1.30 9.78,1.65 7.10,2.01 5.72,1.97 4.35,1.92 2.15,1.97 -0.04,2.01 -0.28,1.97 -0.52,1.94 -0.75,1.85 -0.97,1.76 -1.17,1.61 -1.37,1.47 -1.52,1.29 -1.68,1.10 -1.79,0.88 -1.89,0.67 -1.95,0.43 -2.00,0.19 -1.99,-0.04 -1.99,-0.28 -1.93,-0.52 -1.86,-0.75 -1.74,-0.96 -1.63,-1.18 -1.46,-1.36 -1.30,-1.53 -1.09,-1.67 -0.89,-1.80 -0.66,-1.88 -0.43,-1.96 -0.19,-1.99 0.04,-2.01 0.04,-2.01 L 0.04,-2.01 Z"></path></g><g transform="translate(238.31076606235183 93.16558335054387) rotate(0 0.6039177078117746 12.330096977071591)" stroke="none"><path fill="#f36d6b" d="M 2.40,-0.33 Q 2.40,-0.33 2.58,1.47 2.77,3.27 3.08,5.92 3.39,8.56 3.43,11.22 3.47,13.88 3.39,16.35 3.31,18.81 3.24,20.05 3.17,21.29 2.93,22.47 2.70,23.64 2.64,23.94 2.58,24.24 2.45,24.52 2.32,24.80 2.13,25.04 1.93,25.28 1.69,25.46 1.44,25.65 1.16,25.77 0.88,25.89 0.58,25.94 0.27,25.99 -0.02,25.97 -0.33,25.95 -0.62,25.85 -0.91,25.75 -1.17,25.59 -1.44,25.43 -1.65,25.21 -1.86,24.99 -2.02,24.72 -2.17,24.45 -2.26,24.16 -2.35,23.86 -2.36,23.56 -2.37,23.25 -2.36,23.17 -2.36,23.09 -2.23,22.70 -2.11,22.30 -1.87,21.97 -1.62,21.63 -1.29,21.39 -0.95,21.16 -0.56,21.04 -0.16,20.92 0.24,20.93 0.65,20.94 1.04,21.09 1.43,21.23 1.75,21.49 2.07,21.75 2.29,22.10 2.51,22.45 2.61,22.85 2.70,23.25 2.67,23.66 2.63,24.07 2.47,24.45 2.30,24.83 2.03,25.14 1.75,25.44 1.39,25.64 1.03,25.84 0.62,25.92 0.22,26.00 -0.18,25.94 -0.59,25.88 -0.96,25.70 -1.33,25.51 -1.62,25.22 -1.91,24.92 -2.09,24.55 -2.27,24.18 -2.33,23.77 -2.38,23.36 -2.30,22.96 -2.22,22.55 -2.01,22.20 -1.81,21.84 -1.50,21.56 -1.19,21.29 -0.81,21.13 -0.43,20.97 -0.02,20.94 0.38,20.90 0.78,21.01 1.18,21.11 1.53,21.33 1.87,21.56 2.13,21.88 2.39,22.20 2.53,22.59 2.67,22.98 2.69,23.31 2.70,23.64 2.64,23.94 2.58,24.24 2.45,24.52 2.32,24.80 2.13,25.04 1.93,25.28 1.69,25.46 1.44,25.65 1.16,25.77 0.88,25.89 0.58,25.94 0.27,25.99 -0.02,25.97 -0.33,25.95 -0.62,25.85 -0.91,25.75 -1.17,25.59 -1.43,25.43 -1.65,25.21 -1.86,24.99 -2.02,24.72 -2.17,24.45 -2.26,24.16 -2.35,23.86 -2.36,23.56 -2.37,23.25 -2.12,22.08 -1.86,20.90 -1.74,19.68 -1.62,18.46 -1.47,16.13 -1.31,13.80 -1.32,11.35 -1.32,8.90 -1.55,6.40 -1.78,3.90 -2.09,2.11 -2.40,0.33 -2.40,0.03 -2.41,-0.25 -2.34,-0.53 -2.28,-0.82 -2.15,-1.08 -2.01,-1.34 -1.82,-1.56 -1.63,-1.79 -1.40,-1.96 -1.16,-2.13 -0.89,-2.23 -0.61,-2.34 -0.32,-2.38 -0.03,-2.42 0.25,-2.39 0.54,-2.36 0.81,-2.26 1.09,-2.16 1.33,-2.00 1.58,-1.84 1.77,-1.62 1.97,-1.41 2.11,-1.15 2.25,-0.89 2.33,-0.61 2.40,-0.33 2.40,-0.33 L 2.40,-0.33 Z"></path></g><g transform="translate(239.34482670214948 94.03413915503717) rotate(0 -21.712503535802398 3.911204754621039)" stroke="none"><path fill="#f36d6b" d="M 0.35,1.80 Q 0.35,1.80 -1.44,2.15 -3.24,2.50 -4.35,2.78 -5.46,3.07 -7.95,3.41 -10.44,3.76 -12.06,4.03 -13.68,4.31 -16.97,4.54 -20.25,4.76 -22.22,4.92 -24.20,5.08 -27.14,5.49 -30.07,5.91 -31.57,6.23 -33.07,6.55 -35.07,7.13 -37.06,7.70 -39.91,8.88 -42.76,10.07 -43.08,10.12 -43.40,10.18 -43.72,10.13 -44.05,10.08 -44.34,9.93 -44.62,9.78 -44.85,9.54 -45.08,9.31 -45.22,9.02 -45.36,8.72 -45.40,8.40 -45.43,8.07 -45.37,7.75 -45.30,7.43 -45.14,7.15 -44.97,6.87 -44.72,6.66 -44.48,6.44 -44.17,6.32 -43.87,6.20 -43.55,6.18 -43.22,6.16 -42.91,6.24 -42.59,6.32 -42.32,6.50 -42.05,6.68 -41.85,6.94 -41.65,7.20 -41.54,7.51 -41.43,7.82 -41.43,8.14 -41.43,8.47 -41.53,8.78 -41.63,9.09 -41.82,9.35 -42.02,9.61 -42.29,9.80 -42.56,9.98 -42.87,10.07 -43.18,10.16 -43.51,10.15 -43.83,10.14 -44.14,10.02 -44.44,9.90 -44.69,9.69 -44.94,9.48 -45.12,9.20 -45.29,8.93 -45.36,8.61 -45.43,8.29 -45.40,7.97 -45.37,7.64 -45.23,7.34 -45.10,7.05 -44.88,6.81 -44.66,6.57 -44.37,6.41 -44.08,6.26 -44.08,6.26 -44.08,6.26 -41.06,5.43 -38.03,4.60 -35.84,3.86 -33.65,3.12 -32.11,2.94 -30.57,2.76 -27.54,2.23 -24.50,1.69 -22.54,1.49 -20.57,1.30 -17.40,0.92 -14.23,0.55 -12.65,0.36 -11.07,0.17 -8.62,-0.35 -6.17,-0.87 -5.05,-0.98 -3.94,-1.10 -2.14,-1.45 -0.35,-1.80 -0.13,-1.81 0.09,-1.83 0.30,-1.79 0.52,-1.75 0.72,-1.67 0.93,-1.58 1.10,-1.44 1.28,-1.31 1.42,-1.14 1.56,-0.96 1.65,-0.76 1.74,-0.56 1.78,-0.34 1.83,-0.13 1.82,0.08 1.81,0.31 1.74,0.52 1.68,0.73 1.57,0.92 1.45,1.11 1.30,1.27 1.14,1.43 0.96,1.54 0.77,1.66 0.56,1.73 0.35,1.80 0.35,1.80 L 0.35,1.80 Z"></path></g><g transform="translate(238.47226845849377 91.27645857203916) rotate(0 -20.41106140559259 -13.636323479922844)" stroke="none"><path fill="#f36d6b" d="M -1.26,1.32 Q -1.26,1.32 -2.35,0.37 -3.44,-0.58 -4.97,-1.91 -6.50,-3.24 -9.34,-5.16 -12.18,-7.07 -16.12,-9.45 -20.07,-11.83 -24.04,-14.16 -28.01,-16.49 -29.95,-17.64 -31.89,-18.79 -33.77,-19.94 -35.64,-21.09 -37.15,-22.17 -38.65,-23.24 -40.33,-24.65 -42.00,-26.06 -42.16,-26.28 -42.33,-26.50 -42.41,-26.76 -42.49,-27.02 -42.49,-27.30 -42.48,-27.57 -42.39,-27.83 -42.30,-28.09 -42.13,-28.30 -41.96,-28.52 -41.73,-28.67 -41.50,-28.82 -41.23,-28.88 -40.97,-28.95 -40.70,-28.93 -40.42,-28.91 -40.17,-28.81 -39.92,-28.70 -39.71,-28.52 -39.51,-28.34 -39.37,-28.10 -39.23,-27.86 -39.18,-27.60 -39.13,-27.33 -39.16,-27.06 -39.20,-26.78 -39.31,-26.54 -39.43,-26.29 -39.63,-26.10 -39.82,-25.90 -40.06,-25.78 -40.31,-25.65 -40.58,-25.62 -40.85,-25.58 -41.12,-25.63 -41.39,-25.67 -41.63,-25.81 -41.87,-25.94 -42.05,-26.14 -42.24,-26.34 -42.35,-26.59 -42.46,-26.85 -42.48,-27.12 -42.50,-27.39 -42.44,-27.66 -42.38,-27.92 -42.23,-28.16 -42.09,-28.39 -41.87,-28.56 -41.66,-28.73 -41.41,-28.83 -41.15,-28.93 -40.88,-28.94 -40.60,-28.95 -40.34,-28.87 -40.08,-28.79 -39.85,-28.63 -39.63,-28.47 -39.63,-28.47 -39.63,-28.47 -38.20,-27.07 -36.77,-25.67 -35.48,-24.59 -34.19,-23.51 -32.31,-22.40 -30.44,-21.29 -28.48,-20.19 -26.52,-19.08 -22.50,-16.81 -18.48,-14.53 -14.42,-12.19 -10.37,-9.86 -7.31,-7.94 -4.26,-6.03 -2.50,-4.72 -0.75,-3.41 0.25,-2.37 1.26,-1.32 1.40,-1.15 1.54,-0.98 1.64,-0.78 1.73,-0.58 1.78,-0.37 1.82,-0.15 1.81,0.06 1.81,0.28 1.75,0.49 1.69,0.71 1.58,0.90 1.47,1.09 1.31,1.25 1.16,1.41 0.97,1.53 0.79,1.65 0.58,1.72 0.37,1.79 0.15,1.81 -0.06,1.83 -0.28,1.79 -0.50,1.76 -0.70,1.67 -0.91,1.59 -1.08,1.46 -1.26,1.32 -1.26,1.32 L -1.26,1.32 Z"></path></g></svg>