<?xml version="1.0" standalone="no"?>
<!DOCTYPE svg PUBLIC "-//W3C//DTD SVG 1.1//EN" "http://www.w3.org/Graphics/SVG/1.1/DTD/svg11.dtd">
<svg version="1.1" xmlns="http://www.w3.org/2000/svg" viewBox="0 0 436.1913463087892 184.43901807747167" width="436.1913463087892" height="184.43901807747167"><!-- svg-source:excalidraw --><metadata></metadata><defs><style class="style-fonts">
      </style></defs><g stroke-linecap="round" transform="translate(10 41.26527133588104) rotate(0 208.0956731543946 46.82622008450683)"><path d="M23.41 0 C122.61 -2.42, 222.11 -3.47, 392.78 0 M23.41 0 C150.81 -3.24, 274.67 -4.6, 392.78 0 M392.78 0 C407.58 -1.51, 418.79 9.79, 416.19 23.41 M392.78 0 C409.58 1.17, 415.23 7.01, 416.19 23.41 M416.19 23.41 C414.81 37.92, 416.73 49.94, 416.19 70.24 M416.19 23.41 C416.28 39.44, 413.87 55.69, 416.19 70.24 M416.19 70.24 C419.99 89.46, 406.79 93.59, 392.78 93.65 M416.19 70.24 C420.12 89.17, 404.85 89.06, 392.78 93.65 M392.78 93.65 C309.39 96.92, 228.11 97.64, 23.41 93.65 M392.78 93.65 C296.1 95.15, 199.33 94.85, 23.41 93.65 M23.41 93.65 C7.09 93.46, -2.51 86.23, 0 70.24 M23.41 93.65 C12.34 95.91, 3.09 85.11, 0 70.24 M0 70.24 C0.92 53.13, 4.19 34.53, 0 23.41 M0 70.24 C-0.21 53.45, 1.51 38.86, 0 23.41 M0 23.41 C1.1 5.71, 9.92 2.59, 23.41 0 M0 23.41 C-3.2 3.67, 8.83 1.11, 23.41 0" stroke="#f36d6b" stroke-width="2" fill="none"></path></g><g transform="translate(45.71081777854329 40.548244950246556) rotate(0 0 -11.206095226013446)" stroke="none"><path fill="#f36d6b" d="M -2.41,0 Q -2.41,0 -2.40,-1.48 -2.40,-2.97 -2.36,-4.68 -2.32,-6.39 -2.22,-8.41 -2.11,-10.43 -2.18,-11.51 -2.25,-12.58 -2.25,-14.11 -2.26,-15.65 -2.29,-16.94 -2.33,-18.24 -2.38,-20.32 -2.43,-22.41 -2.37,-22.80 -2.30,-23.18 -2.12,-23.53 -1.93,-23.88 -1.65,-24.15 -1.36,-24.42 -1.00,-24.59 -0.65,-24.75 -0.25,-24.80 0.13,-24.84 0.51,-24.75 0.90,-24.67 1.23,-24.47 1.57,-24.26 1.83,-23.96 2.08,-23.66 2.23,-23.30 2.37,-22.93 2.39,-22.54 2.42,-22.14 2.31,-21.76 2.20,-21.38 1.98,-21.06 1.76,-20.73 1.45,-20.49 1.14,-20.26 0.76,-20.13 0.39,-20.00 -0.00,-20.00 -0.39,-20.00 -0.76,-20.13 -1.14,-20.26 -1.45,-20.49 -1.76,-20.73 -1.98,-21.06 -2.21,-21.39 -2.31,-21.76 -2.42,-22.14 -2.39,-22.54 -2.37,-22.93 -2.23,-23.30 -2.08,-23.66 -1.83,-23.96 -1.57,-24.26 -1.23,-24.47 -0.90,-24.67 -0.51,-24.75 -0.13,-24.84 0.26,-24.80 0.65,-24.75 1.00,-24.59 1.36,-24.42 1.65,-24.15 1.93,-23.88 2.12,-23.53 2.30,-23.18 2.37,-22.80 2.43,-22.41 2.43,-22.41 2.43,-22.41 2.38,-20.32 2.33,-18.24 2.29,-16.94 2.26,-15.65 2.25,-14.11 2.25,-12.58 2.18,-11.51 2.11,-10.43 2.22,-8.41 2.32,-6.39 2.36,-4.68 2.40,-2.97 2.40,-1.48 2.41,0 2.37,0.28 2.34,0.57 2.23,0.84 2.13,1.12 1.97,1.36 1.80,1.59 1.58,1.79 1.37,1.98 1.11,2.12 0.85,2.25 0.57,2.32 0.29,2.39 -0.00,2.39 -0.29,2.39 -0.57,2.32 -0.85,2.25 -1.11,2.12 -1.37,1.98 -1.58,1.79 -1.80,1.59 -1.97,1.36 -2.13,1.12 -2.23,0.84 -2.34,0.57 -2.37,0.28 -2.41,-0.00 -2.41,-0.00 L -2.41,0 Z"></path></g><g transform="translate(95.48413263044858 42.43592665936586) rotate(0 0.3746754385551867 -13.286937921552976)" stroke="none"><path fill="#f36d6b" d="M -2.29,0.15 Q -2.29,0.15 -2.38,-1.45 -2.48,-3.06 -2.53,-4.65 -2.58,-6.24 -2.70,-8.37 -2.82,-10.50 -2.83,-11.89 -2.84,-13.28 -2.65,-15.23 -2.45,-17.18 -2.11,-19.14 -1.78,-21.10 -1.46,-23.96 -1.15,-26.82 -1.05,-27.18 -0.95,-27.54 -0.74,-27.85 -0.53,-28.15 -0.24,-28.38 0.05,-28.60 0.40,-28.72 0.75,-28.84 1.13,-28.83 1.50,-28.83 1.85,-28.71 2.20,-28.59 2.50,-28.37 2.79,-28.14 3.00,-27.83 3.21,-27.53 3.30,-27.17 3.40,-26.81 3.38,-26.44 3.36,-26.07 3.22,-25.72 3.08,-25.38 2.84,-25.10 2.60,-24.81 2.28,-24.62 1.96,-24.43 1.60,-24.36 1.24,-24.28 0.87,-24.32 0.50,-24.36 0.16,-24.52 -0.17,-24.67 -0.43,-24.93 -0.70,-25.19 -0.88,-25.51 -1.05,-25.84 -1.11,-26.21 -1.17,-26.58 -1.11,-26.94 -1.04,-27.31 -0.87,-27.64 -0.69,-27.96 -0.42,-28.22 -0.15,-28.47 0.17,-28.63 0.51,-28.78 0.88,-28.82 1.25,-28.86 1.61,-28.78 1.98,-28.70 2.29,-28.51 2.61,-28.31 2.85,-28.03 3.09,-27.75 3.23,-27.40 3.36,-27.05 3.38,-26.68 3.40,-26.31 3.40,-26.31 3.40,-26.31 2.95,-23.41 2.50,-20.50 2.32,-18.71 2.14,-16.91 2.12,-15.10 2.10,-13.29 2.10,-11.91 2.10,-10.53 2.03,-8.45 1.97,-6.37 2.01,-4.87 2.05,-3.36 2.17,-1.76 2.29,-0.15 2.27,0.12 2.26,0.39 2.18,0.66 2.10,0.92 1.95,1.16 1.81,1.40 1.62,1.60 1.42,1.79 1.19,1.94 0.95,2.08 0.69,2.17 0.42,2.25 0.15,2.27 -0.12,2.29 -0.39,2.24 -0.66,2.19 -0.92,2.08 -1.17,1.97 -1.39,1.80 -1.61,1.63 -1.78,1.41 -1.95,1.20 -2.07,0.94 -2.18,0.69 -2.24,0.42 -2.29,0.15 -2.29,0.15 L -2.29,0.15 Z"></path></g><g transform="translate(156.52211834521972 36.44510661556785) rotate(0 0.7492222650754456 -10.278359456287376)" stroke="none"><path fill="#f36d6b" d="M -2.60,-0.20 Q -2.60,-0.20 -2.49,-1.58 -2.37,-2.97 -2.36,-4.90 -2.35,-6.83 -2.27,-8.84 -2.19,-10.84 -2.04,-12.74 -1.90,-14.65 -1.68,-17.70 -1.46,-20.75 -1.35,-21.22 -1.24,-21.68 -0.99,-22.09 -0.74,-22.50 -0.37,-22.81 -0.00,-23.12 0.44,-23.29 0.89,-23.46 1.37,-23.48 1.85,-23.50 2.31,-23.37 2.77,-23.23 3.17,-22.96 3.56,-22.68 3.85,-22.30 4.13,-21.91 4.28,-21.45 4.43,-21.00 4.42,-20.52 4.42,-20.03 4.26,-19.58 4.10,-19.13 3.80,-18.75 3.51,-18.37 3.11,-18.11 2.71,-17.84 2.24,-17.72 1.78,-17.60 1.30,-17.63 0.82,-17.66 0.37,-17.84 -0.06,-18.03 -0.42,-18.34 -0.78,-18.66 -1.03,-19.07 -1.27,-19.49 -1.37,-19.96 -1.46,-20.43 -1.41,-20.91 -1.35,-21.38 -1.14,-21.82 -0.93,-22.25 -0.60,-22.59 -0.26,-22.94 0.15,-23.16 0.58,-23.38 1.06,-23.45 1.53,-23.52 2.00,-23.44 2.48,-23.35 2.90,-23.12 3.32,-22.89 3.65,-22.54 3.97,-22.19 4.17,-21.75 4.36,-21.31 4.41,-20.83 4.46,-20.35 4.46,-20.35 4.46,-20.35 4.11,-17.19 3.77,-14.02 3.56,-12.17 3.36,-10.32 3.20,-8.53 3.04,-6.74 2.92,-4.65 2.80,-2.57 2.70,-1.18 2.60,0.20 2.54,0.51 2.48,0.81 2.34,1.10 2.21,1.38 2.01,1.63 1.81,1.87 1.56,2.06 1.31,2.25 1.02,2.38 0.73,2.50 0.42,2.55 0.11,2.61 -0.20,2.58 -0.51,2.56 -0.81,2.46 -1.11,2.36 -1.37,2.19 -1.64,2.02 -1.86,1.80 -2.08,1.57 -2.24,1.30 -2.40,1.03 -2.48,0.72 -2.57,0.42 -2.59,0.11 -2.60,-0.20 -2.60,-0.20 L -2.60,-0.20 Z"></path></g><g transform="translate(204.45756721624844 38.329858828333215) rotate(0 2.247652505000474 -11.220735562670058)" stroke="none"><path fill="#f36d6b" d="M -2.51,-0.63 Q -2.51,-0.63 -2.19,-1.91 -1.87,-3.20 -1.47,-4.95 -1.08,-6.69 -0.86,-8.08 -0.65,-9.47 -0.35,-11.43 -0.05,-13.40 0.31,-15.33 0.67,-17.26 0.84,-18.52 1.01,-19.79 1.25,-21.24 1.50,-22.68 1.62,-23.15 1.73,-23.62 2.00,-24.03 2.26,-24.44 2.64,-24.75 3.02,-25.05 3.47,-25.22 3.93,-25.38 4.41,-25.40 4.90,-25.41 5.36,-25.27 5.82,-25.12 6.22,-24.84 6.61,-24.56 6.90,-24.16 7.18,-23.77 7.32,-23.30 7.46,-22.84 7.45,-22.35 7.44,-21.87 7.27,-21.41 7.10,-20.96 6.80,-20.58 6.49,-20.20 6.08,-19.94 5.67,-19.68 5.20,-19.56 4.73,-19.45 4.25,-19.49 3.76,-19.53 3.32,-19.72 2.87,-19.91 2.51,-20.23 2.15,-20.56 1.91,-20.98 1.67,-21.40 1.58,-21.88 1.49,-22.36 1.56,-22.84 1.62,-23.32 1.84,-23.75 2.05,-24.19 2.40,-24.53 2.74,-24.87 3.18,-25.09 3.61,-25.31 4.09,-25.37 4.57,-25.44 5.05,-25.34 5.53,-25.25 5.95,-25.01 6.37,-24.77 6.70,-24.41 7.02,-24.05 7.21,-23.60 7.40,-23.16 7.44,-22.67 7.48,-22.19 7.48,-22.19 7.48,-22.19 6.99,-19.80 6.49,-17.40 6.14,-15.86 5.79,-14.31 5.54,-13.18 5.30,-12.05 4.93,-10.39 4.56,-8.74 4.38,-7.29 4.20,-5.84 3.68,-3.88 3.16,-1.92 2.83,-0.64 2.51,0.63 2.39,0.92 2.28,1.21 2.10,1.47 1.92,1.72 1.69,1.93 1.45,2.13 1.18,2.28 0.90,2.42 0.60,2.49 0.29,2.57 -0.01,2.57 -0.32,2.56 -0.62,2.49 -0.93,2.41 -1.20,2.26 -1.48,2.12 -1.71,1.91 -1.94,1.70 -2.12,1.44 -2.29,1.19 -2.40,0.89 -2.51,0.60 -2.55,0.29 -2.58,-0.01 -2.55,-0.32 -2.51,-0.63 -2.51,-0.63 L -2.51,-0.63 Z"></path></g><g transform="translate(247.90059770295193 40.22925852286829) rotate(0 1.865731921804013 -11.416826045444239)" stroke="none"><path fill="#f36d6b" d="M -2.38,-0.47 Q -2.38,-0.47 -2.03,-2.07 -1.68,-3.68 -1.29,-6.21 -0.90,-8.75 -0.45,-10.74 -0.01,-12.73 0.32,-15.17 0.65,-17.62 0.93,-20.30 1.20,-22.99 1.29,-23.39 1.39,-23.79 1.60,-24.14 1.81,-24.49 2.13,-24.75 2.44,-25.01 2.83,-25.16 3.21,-25.30 3.62,-25.32 4.02,-25.34 4.42,-25.23 4.81,-25.11 5.15,-24.88 5.48,-24.65 5.73,-24.32 5.97,-23.99 6.10,-23.60 6.23,-23.21 6.22,-22.80 6.22,-22.39 6.08,-22.01 5.95,-21.62 5.70,-21.30 5.45,-20.97 5.11,-20.75 4.77,-20.52 4.37,-20.42 3.98,-20.31 3.57,-20.34 3.16,-20.36 2.78,-20.52 2.40,-20.67 2.09,-20.94 1.78,-21.21 1.57,-21.56 1.37,-21.92 1.28,-22.32 1.20,-22.72 1.25,-23.12 1.30,-23.53 1.47,-23.90 1.65,-24.27 1.93,-24.56 2.22,-24.86 2.58,-25.05 2.94,-25.23 3.35,-25.30 3.75,-25.36 4.16,-25.29 4.56,-25.22 4.92,-25.02 5.28,-24.83 5.56,-24.53 5.83,-24.23 6.00,-23.85 6.17,-23.48 6.21,-23.07 6.25,-22.67 6.25,-22.67 6.25,-22.67 5.74,-19.66 5.24,-16.66 4.95,-15.43 4.66,-14.21 4.45,-13.12 4.24,-12.02 4.02,-10.00 3.81,-7.98 3.38,-5.37 2.96,-2.76 2.67,-1.14 2.38,0.47 2.29,0.75 2.20,1.02 2.04,1.27 1.89,1.52 1.68,1.72 1.47,1.93 1.21,2.08 0.96,2.22 0.68,2.31 0.40,2.39 0.11,2.40 -0.18,2.42 -0.46,2.36 -0.75,2.30 -1.02,2.18 -1.28,2.06 -1.51,1.87 -1.74,1.69 -1.91,1.45 -2.09,1.22 -2.21,0.95 -2.32,0.68 -2.37,0.40 -2.42,0.11 -2.40,-0.18 -2.38,-0.47 -2.38,-0.47 L -2.38,-0.47 Z"></path></g><g transform="translate(293.56781614337206 39.49759894569024) rotate(0 4.869937577877863 -11.425607389392965)" stroke="none"><path fill="#f36d6b" d="M -2.31,-1.06 Q -2.31,-1.06 -1.64,-2.45 -0.97,-3.84 -0.03,-5.91 0.91,-7.97 1.82,-9.90 2.73,-11.82 3.47,-13.67 4.20,-15.53 4.78,-17.30 5.35,-19.08 6.40,-21.86 7.45,-24.63 7.79,-24.95 8.14,-25.27 8.57,-25.46 8.99,-25.65 9.46,-25.69 9.93,-25.74 10.39,-25.63 10.84,-25.53 11.24,-25.28 11.64,-25.03 11.94,-24.67 12.24,-24.31 12.41,-23.87 12.57,-23.43 12.59,-22.96 12.61,-22.50 12.48,-22.05 12.35,-21.59 12.08,-21.21 11.81,-20.83 11.44,-20.55 11.06,-20.27 10.61,-20.12 10.17,-19.98 9.70,-19.98 9.23,-19.99 8.79,-20.15 8.34,-20.30 7.97,-20.59 7.60,-20.88 7.35,-21.27 7.09,-21.66 6.97,-22.12 6.85,-22.57 6.88,-23.04 6.91,-23.51 7.09,-23.94 7.27,-24.37 7.58,-24.73 7.89,-25.08 8.29,-25.32 8.70,-25.55 9.16,-25.65 9.62,-25.74 10.08,-25.69 10.55,-25.63 10.97,-25.43 11.39,-25.23 11.73,-24.90 12.07,-24.57 12.28,-24.15 12.49,-23.74 12.56,-23.27 12.63,-22.81 12.55,-22.35 12.47,-21.88 12.25,-21.47 12.02,-21.06 12.02,-21.06 12.02,-21.06 11.32,-19.12 10.63,-17.18 9.91,-15.21 9.19,-13.24 8.35,-11.34 7.52,-9.44 6.54,-7.56 5.57,-5.68 4.56,-3.72 3.56,-1.75 2.93,-0.34 2.31,1.06 2.15,1.32 1.99,1.59 1.77,1.80 1.55,2.02 1.28,2.17 1.02,2.33 0.72,2.42 0.43,2.51 0.12,2.52 -0.17,2.54 -0.47,2.48 -0.78,2.42 -1.06,2.29 -1.33,2.16 -1.57,1.97 -1.81,1.78 -2.00,1.54 -2.19,1.29 -2.31,1.01 -2.44,0.73 -2.49,0.43 -2.54,0.12 -2.52,-0.17 -2.50,-0.48 -2.40,-0.77 -2.31,-1.06 -2.31,-1.06 L -2.31,-1.06 Z"></path></g><g transform="translate(342.2554167758303 37.6157619390527) rotate(0 2.434940208486637 -9.365249732991813)" stroke="none"><path fill="#f36d6b" d="M -2.41,-0.80 Q -2.41,-0.80 -1.98,-2.09 -1.56,-3.39 -1.02,-5.36 -0.49,-7.33 -0.10,-9.12 0.27,-10.92 0.63,-12.27 0.99,-13.63 1.58,-16.53 2.17,-19.43 2.35,-19.84 2.53,-20.25 2.84,-20.58 3.14,-20.91 3.54,-21.13 3.93,-21.35 4.37,-21.43 4.82,-21.51 5.26,-21.45 5.71,-21.38 6.11,-21.18 6.51,-20.97 6.83,-20.65 7.14,-20.33 7.34,-19.92 7.54,-19.52 7.59,-19.07 7.65,-18.62 7.56,-18.18 7.47,-17.74 7.24,-17.35 7.02,-16.96 6.68,-16.66 6.34,-16.36 5.93,-16.19 5.51,-16.02 5.06,-15.98 4.61,-15.95 4.17,-16.06 3.74,-16.18 3.36,-16.42 2.98,-16.67 2.70,-17.02 2.43,-17.38 2.27,-17.80 2.12,-18.23 2.12,-18.68 2.11,-19.13 2.25,-19.56 2.38,-19.99 2.65,-20.35 2.92,-20.72 3.28,-20.97 3.65,-21.23 4.08,-21.36 4.52,-21.49 4.97,-21.47 5.42,-21.46 5.84,-21.30 6.26,-21.14 6.61,-20.85 6.96,-20.56 7.20,-20.18 7.44,-19.80 7.54,-19.36 7.64,-18.92 7.60,-18.47 7.56,-18.03 7.56,-18.03 7.56,-18.03 6.90,-15.17 6.25,-12.32 5.93,-10.96 5.61,-9.60 5.08,-7.62 4.54,-5.63 3.91,-3.70 3.28,-1.77 2.85,-0.48 2.41,0.80 2.28,1.08 2.15,1.36 1.95,1.59 1.76,1.83 1.52,2.02 1.27,2.20 0.99,2.32 0.70,2.44 0.40,2.49 0.10,2.54 -0.20,2.52 -0.50,2.49 -0.79,2.39 -1.09,2.30 -1.35,2.13 -1.61,1.97 -1.82,1.75 -2.03,1.53 -2.18,1.26 -2.34,0.99 -2.42,0.70 -2.51,0.40 -2.52,0.10 -2.53,-0.20 -2.47,-0.50 -2.41,-0.80 -2.41,-0.80 L -2.41,-0.80 Z"></path></g><g transform="translate(391.6950834283614 39.85464024521747) rotate(0 3.746097035151479 -11.612902237992273)" stroke="none"><path fill="#f36d6b" d="M -2.27,-0.75 Q -2.27,-0.75 -1.86,-2.05 -1.44,-3.35 -0.87,-5.11 -0.30,-6.86 -0.01,-7.93 0.26,-8.99 0.86,-10.54 1.47,-12.09 2.06,-13.74 2.66,-15.39 3.10,-16.77 3.53,-18.16 4.34,-21.12 5.15,-24.08 5.35,-24.44 5.55,-24.79 5.85,-25.06 6.15,-25.32 6.52,-25.48 6.89,-25.64 7.29,-25.67 7.69,-25.71 8.08,-25.61 8.48,-25.51 8.82,-25.29 9.16,-25.07 9.41,-24.76 9.66,-24.44 9.80,-24.07 9.94,-23.69 9.95,-23.28 9.96,-22.88 9.84,-22.49 9.72,-22.11 9.48,-21.78 9.25,-21.45 8.92,-21.22 8.59,-20.98 8.21,-20.87 7.82,-20.75 7.42,-20.76 7.01,-20.77 6.63,-20.91 6.26,-21.05 5.94,-21.31 5.63,-21.56 5.41,-21.90 5.19,-22.24 5.10,-22.63 5.00,-23.02 5.03,-23.42 5.07,-23.83 5.23,-24.20 5.39,-24.57 5.66,-24.87 5.93,-25.17 6.28,-25.37 6.63,-25.56 7.03,-25.64 7.42,-25.71 7.82,-25.66 8.22,-25.60 8.58,-25.42 8.95,-25.24 9.23,-24.96 9.52,-24.67 9.69,-24.31 9.87,-23.95 9.93,-23.55 9.98,-23.15 9.90,-22.75 9.83,-22.36 9.83,-22.36 9.83,-22.36 8.84,-19.54 7.85,-16.73 7.37,-15.36 6.90,-13.99 6.37,-12.21 5.84,-10.44 4.94,-8.05 4.05,-5.66 3.61,-3.74 3.17,-1.81 2.72,-0.52 2.27,0.75 2.15,1.02 2.03,1.28 1.84,1.50 1.66,1.73 1.43,1.90 1.20,2.07 0.93,2.19 0.66,2.30 0.38,2.35 0.09,2.40 -0.19,2.37 -0.47,2.35 -0.75,2.26 -1.02,2.17 -1.27,2.01 -1.51,1.86 -1.71,1.65 -1.91,1.44 -2.06,1.19 -2.20,0.94 -2.29,0.66 -2.37,0.38 -2.38,0.09 -2.39,-0.19 -2.33,-0.47 -2.27,-0.75 -2.27,-0.75 L -2.27,-0.75 Z"></path></g><g transform="translate(129.14638933425 39.921961500453506) rotate(0 1.1237976720481129 -10.472985190884572)" stroke="none"><path fill="#f36d6b" d="M -2.49,-0.41 Q -2.49,-0.41 -2.29,-1.70 -2.08,-2.98 -1.91,-4.88 -1.74,-6.78 -1.56,-8.15 -1.38,-9.51 -1.19,-11.69 -1.00,-13.87 -0.81,-15.35 -0.61,-16.83 -0.54,-18.95 -0.46,-21.06 -0.37,-21.49 -0.28,-21.92 -0.05,-22.30 0.16,-22.68 0.49,-22.97 0.82,-23.25 1.23,-23.42 1.64,-23.59 2.07,-23.61 2.51,-23.64 2.94,-23.53 3.36,-23.41 3.73,-23.17 4.09,-22.93 4.36,-22.58 4.63,-22.23 4.77,-21.82 4.92,-21.40 4.92,-20.96 4.92,-20.53 4.79,-20.11 4.65,-19.69 4.39,-19.34 4.13,-18.99 3.76,-18.74 3.40,-18.49 2.98,-18.37 2.56,-18.25 2.12,-18.27 1.68,-18.29 1.27,-18.44 0.86,-18.60 0.53,-18.88 0.19,-19.17 -0.03,-19.54 -0.26,-19.91 -0.36,-20.34 -0.46,-20.77 -0.41,-21.21 -0.37,-21.64 -0.19,-22.04 -0.01,-22.44 0.28,-22.77 0.58,-23.09 0.97,-23.30 1.35,-23.51 1.79,-23.58 2.22,-23.66 2.65,-23.59 3.09,-23.52 3.48,-23.32 3.87,-23.12 4.17,-22.80 4.48,-22.48 4.66,-22.09 4.85,-21.69 4.90,-21.25 4.95,-20.82 4.95,-20.82 4.95,-20.82 4.79,-18.53 4.62,-16.23 4.48,-14.79 4.34,-13.34 4.11,-11.10 3.88,-8.86 3.72,-7.49 3.56,-6.12 3.25,-4.13 2.95,-2.14 2.72,-0.86 2.49,0.41 2.40,0.71 2.32,1.00 2.16,1.26 2.01,1.53 1.80,1.75 1.59,1.96 1.33,2.13 1.07,2.29 0.78,2.38 0.49,2.48 0.18,2.50 -0.11,2.52 -0.41,2.47 -0.71,2.42 -0.99,2.30 -1.27,2.18 -1.52,2.00 -1.76,1.81 -1.95,1.57 -2.14,1.34 -2.27,1.06 -2.40,0.78 -2.46,0.48 -2.52,0.19 -2.51,-0.11 -2.49,-0.41 -2.49,-0.41 L -2.49,-0.41 Z"></path></g><g transform="translate(190.56775323528177 38.81568364562466) rotate(0 0 -11.410967052736353)" stroke="none"><path fill="#f36d6b" d="M -2.49,0 Q -2.49,0 -2.41,-1.82 -2.34,-3.64 -2.35,-6.34 -2.35,-9.05 -2.40,-11.47 -2.45,-13.89 -2.52,-15.95 -2.59,-18.02 -2.62,-20.42 -2.65,-22.82 -2.59,-23.24 -2.52,-23.67 -2.31,-24.05 -2.11,-24.43 -1.80,-24.72 -1.49,-25.02 -1.10,-25.20 -0.71,-25.38 -0.28,-25.43 0.14,-25.47 0.56,-25.38 0.98,-25.29 1.35,-25.07 1.72,-24.84 2.00,-24.52 2.27,-24.19 2.43,-23.79 2.59,-23.39 2.62,-22.96 2.64,-22.53 2.52,-22.11 2.41,-21.70 2.17,-21.34 1.93,-20.99 1.58,-20.73 1.24,-20.47 0.83,-20.33 0.42,-20.19 -0.00,-20.19 -0.43,-20.19 -0.83,-20.33 -1.24,-20.47 -1.58,-20.73 -1.93,-20.99 -2.17,-21.34 -2.41,-21.70 -2.52,-22.12 -2.64,-22.53 -2.62,-22.96 -2.59,-23.39 -2.43,-23.79 -2.27,-24.19 -2.00,-24.52 -1.72,-24.84 -1.35,-25.07 -0.98,-25.29 -0.56,-25.38 -0.14,-25.47 0.28,-25.43 0.71,-25.38 1.10,-25.20 1.49,-25.02 1.80,-24.72 2.11,-24.43 2.31,-24.05 2.52,-23.67 2.59,-23.24 2.65,-22.82 2.65,-22.82 2.65,-22.82 2.62,-20.42 2.59,-18.02 2.52,-15.95 2.45,-13.89 2.40,-11.47 2.35,-9.05 2.35,-6.34 2.34,-3.64 2.41,-1.82 2.49,0 2.45,0.29 2.42,0.59 2.31,0.87 2.20,1.15 2.03,1.40 1.86,1.65 1.64,1.85 1.41,2.05 1.14,2.19 0.88,2.33 0.59,2.40 0.30,2.47 -0.00,2.47 -0.30,2.47 -0.59,2.40 -0.88,2.33 -1.15,2.19 -1.41,2.05 -1.64,1.85 -1.86,1.65 -2.03,1.40 -2.20,1.15 -2.31,0.87 -2.42,0.59 -2.45,0.29 -2.49,-0.00 -2.49,-0.00 L -2.49,0 Z"></path></g><g transform="translate(234.7716525213457 36.971901511136025) rotate(0 2.2476810854527685 -13.485950755568012)" stroke="none"><path fill="#f36d6b" d="M -2.49,0 Q -2.49,0 -2.53,-1.07 -2.56,-2.15 -2.43,-3.77 -2.29,-5.39 -2.04,-7.65 -1.80,-9.91 -1.33,-12.13 -0.87,-14.35 -0.27,-16.71 0.32,-19.07 0.74,-21.20 1.15,-23.33 1.45,-25.30 1.74,-27.28 1.87,-27.71 1.99,-28.14 2.24,-28.51 2.49,-28.88 2.85,-29.14 3.20,-29.41 3.63,-29.55 4.05,-29.70 4.50,-29.69 4.95,-29.69 5.37,-29.55 5.79,-29.40 6.15,-29.13 6.50,-28.86 6.75,-28.49 7.00,-28.12 7.12,-27.69 7.24,-27.26 7.21,-26.81 7.19,-26.36 7.02,-25.95 6.85,-25.53 6.56,-25.19 6.27,-24.85 5.89,-24.62 5.50,-24.40 5.07,-24.30 4.63,-24.21 4.18,-24.26 3.74,-24.31 3.34,-24.50 2.93,-24.69 2.61,-24.99 2.28,-25.30 2.08,-25.70 1.87,-26.09 1.80,-26.54 1.73,-26.98 1.80,-27.42 1.87,-27.86 2.09,-28.25 2.30,-28.65 2.62,-28.95 2.95,-29.26 3.36,-29.45 3.76,-29.63 4.21,-29.68 4.65,-29.73 5.09,-29.63 5.52,-29.53 5.91,-29.30 6.29,-29.07 6.58,-28.72 6.86,-28.38 7.03,-27.97 7.19,-27.55 7.21,-27.10 7.24,-26.66 7.24,-26.66 7.24,-26.66 6.84,-24.54 6.45,-22.42 5.95,-20.23 5.44,-18.04 4.86,-15.52 4.28,-12.99 3.82,-10.96 3.35,-8.92 3.04,-6.98 2.72,-5.04 2.64,-3.60 2.56,-2.15 2.53,-1.07 2.49,0 2.45,0.29 2.42,0.59 2.31,0.87 2.20,1.15 2.03,1.40 1.86,1.65 1.64,1.85 1.41,2.05 1.15,2.19 0.88,2.33 0.59,2.40 0.30,2.47 -0.00,2.47 -0.30,2.47 -0.59,2.40 -0.88,2.33 -1.15,2.19 -1.41,2.05 -1.64,1.85 -1.86,1.65 -2.03,1.40 -2.20,1.15 -2.31,0.87 -2.42,0.59 -2.45,0.29 -2.49,-0.00 -2.49,-0.00 L -2.49,0 Z"></path></g><g transform="translate(278.9669205108355 38.46155755222526) rotate(0 2.4349116280343424 -8.602859024549687)" stroke="none"><path fill="#f36d6b" d="M -2.34,-0.73 Q -2.34,-0.73 -1.74,-2.43 -1.14,-4.12 -0.85,-5.27 -0.56,-6.42 -0.07,-7.99 0.42,-9.56 0.68,-10.65 0.94,-11.74 1.27,-13.05 1.60,-14.36 2.01,-16.16 2.43,-17.96 2.62,-18.33 2.80,-18.69 3.09,-18.98 3.39,-19.28 3.76,-19.46 4.13,-19.64 4.53,-19.69 4.94,-19.75 5.35,-19.67 5.75,-19.59 6.11,-19.38 6.47,-19.18 6.74,-18.87 7.02,-18.56 7.18,-18.19 7.34,-17.81 7.37,-17.40 7.40,-16.98 7.30,-16.58 7.20,-16.19 6.98,-15.84 6.75,-15.49 6.43,-15.24 6.11,-14.98 5.72,-14.84 5.34,-14.70 4.92,-14.69 4.51,-14.68 4.12,-14.80 3.72,-14.92 3.39,-15.16 3.06,-15.41 2.82,-15.74 2.58,-16.08 2.46,-16.47 2.34,-16.87 2.35,-17.28 2.36,-17.69 2.51,-18.08 2.65,-18.46 2.91,-18.78 3.17,-19.10 3.52,-19.32 3.87,-19.54 4.27,-19.64 4.67,-19.74 5.08,-19.71 5.49,-19.67 5.87,-19.51 6.25,-19.34 6.55,-19.07 6.86,-18.79 7.06,-18.43 7.26,-18.07 7.34,-17.66 7.41,-17.26 7.35,-16.85 7.30,-16.44 7.30,-16.44 7.30,-16.44 6.83,-14.78 6.36,-13.12 6.00,-11.77 5.64,-10.43 5.29,-9.32 4.94,-8.22 4.50,-6.65 4.06,-5.07 3.68,-3.90 3.30,-2.73 2.82,-0.99 2.34,0.73 2.22,1.00 2.10,1.27 1.92,1.51 1.73,1.74 1.50,1.92 1.26,2.11 0.99,2.23 0.72,2.35 0.43,2.40 0.14,2.45 -0.15,2.43 -0.44,2.42 -0.73,2.33 -1.01,2.24 -1.26,2.08 -1.52,1.93 -1.73,1.72 -1.94,1.51 -2.09,1.26 -2.24,1.00 -2.33,0.72 -2.42,0.43 -2.44,0.14 -2.45,-0.15 -2.40,-0.44 -2.34,-0.73 -2.34,-0.73 L -2.34,-0.73 Z"></path></g><g transform="translate(376.0024716814089 36.980690000197825) rotate(0 -0.37460398742473444 -7.117597227991354)" stroke="none"><path fill="#f36d6b" d="M -2.43,0.20 Q -2.43,0.20 -2.56,-1.08 -2.68,-2.37 -2.84,-3.75 -2.99,-5.13 -3.13,-7.48 -3.27,-9.83 -3.14,-12.13 -3.01,-14.43 -2.90,-14.85 -2.80,-15.26 -2.57,-15.63 -2.35,-15.99 -2.01,-16.26 -1.68,-16.53 -1.28,-16.68 -0.88,-16.82 -0.45,-16.84 -0.02,-16.85 0.37,-16.73 0.78,-16.60 1.13,-16.36 1.48,-16.11 1.73,-15.76 1.98,-15.42 2.11,-15.01 2.24,-14.60 2.23,-14.17 2.22,-13.74 2.07,-13.34 1.93,-12.94 1.66,-12.60 1.40,-12.27 1.04,-12.04 0.68,-11.81 0.26,-11.70 -0.14,-11.60 -0.57,-11.63 -1.00,-11.66 -1.39,-11.83 -1.78,-12.00 -2.10,-12.28 -2.42,-12.56 -2.64,-12.94 -2.85,-13.31 -2.93,-13.73 -3.01,-14.15 -2.96,-14.57 -2.90,-14.99 -2.71,-15.38 -2.52,-15.76 -2.22,-16.07 -1.92,-16.37 -1.54,-16.56 -1.16,-16.75 -0.73,-16.81 -0.31,-16.87 0.10,-16.79 0.52,-16.72 0.89,-16.51 1.27,-16.30 1.55,-15.98 1.84,-15.66 2.01,-15.27 2.18,-14.88 2.22,-14.45 2.26,-14.03 2.26,-14.03 2.26,-14.03 2.05,-11.98 1.85,-9.93 1.90,-7.80 1.94,-5.67 2.10,-4.23 2.25,-2.79 2.34,-1.49 2.43,-0.20 2.42,0.09 2.41,0.38 2.32,0.66 2.24,0.95 2.10,1.20 1.95,1.46 1.75,1.67 1.54,1.88 1.30,2.04 1.05,2.20 0.77,2.29 0.49,2.39 0.20,2.41 -0.09,2.43 -0.38,2.39 -0.67,2.34 -0.94,2.23 -1.21,2.11 -1.45,1.94 -1.68,1.76 -1.87,1.53 -2.06,1.31 -2.18,1.04 -2.31,0.77 -2.37,0.49 -2.43,0.20 -2.43,0.20 L -2.43,0.20 Z"></path></g><g transform="translate(69.94635534171198 39.97755048004771) rotate(0 2.2125128389793645 -10.481759389720267)" stroke="none"><path fill="#f36d6b" d="M -2.31,-0.75 Q -2.31,-0.75 -1.57,-2.64 -0.83,-4.54 -0.34,-6.83 0.14,-9.12 0.36,-10.45 0.58,-11.79 0.91,-13.30 1.24,-14.81 1.48,-16.23 1.71,-17.65 1.83,-19.40 1.96,-21.15 2.05,-21.54 2.15,-21.92 2.36,-22.26 2.57,-22.60 2.88,-22.85 3.19,-23.10 3.57,-23.24 3.94,-23.38 4.34,-23.40 4.74,-23.41 5.12,-23.29 5.51,-23.18 5.83,-22.95 6.16,-22.71 6.39,-22.39 6.63,-22.07 6.75,-21.69 6.87,-21.30 6.86,-20.90 6.85,-20.50 6.71,-20.13 6.58,-19.75 6.33,-19.44 6.08,-19.13 5.74,-18.91 5.41,-18.69 5.02,-18.59 4.63,-18.50 4.23,-18.53 3.83,-18.56 3.47,-18.71 3.10,-18.87 2.80,-19.14 2.50,-19.40 2.30,-19.75 2.10,-20.10 2.03,-20.49 1.95,-20.88 2.00,-21.28 2.05,-21.67 2.23,-22.03 2.41,-22.39 2.69,-22.68 2.97,-22.96 3.33,-23.14 3.68,-23.32 4.08,-23.37 4.48,-23.43 4.87,-23.36 5.26,-23.28 5.61,-23.09 5.96,-22.89 6.23,-22.60 6.50,-22.30 6.66,-21.93 6.82,-21.57 6.85,-21.17 6.88,-20.77 6.88,-20.77 6.88,-20.77 6.65,-18.83 6.41,-16.88 6.15,-15.34 5.90,-13.79 5.59,-12.38 5.28,-10.96 5.01,-9.46 4.73,-7.97 4.38,-6.66 4.02,-5.36 3.68,-4.28 3.34,-3.19 2.83,-1.22 2.31,0.75 2.19,1.01 2.07,1.28 1.88,1.51 1.70,1.74 1.47,1.92 1.23,2.09 0.96,2.21 0.69,2.33 0.40,2.38 0.12,2.43 -0.17,2.41 -0.46,2.39 -0.74,2.30 -1.02,2.21 -1.27,2.05 -1.52,1.90 -1.72,1.69 -1.93,1.48 -2.08,1.22 -2.23,0.97 -2.31,0.69 -2.40,0.41 -2.41,0.11 -2.43,-0.17 -2.37,-0.46 -2.31,-0.75 -2.31,-0.75 L -2.31,-0.75 Z"></path></g><g transform="translate(42.942257951134934 135.86886895522613) rotate(0 -2.060364801514197 10.29445025089484)" stroke="none"><path fill="#f36d6b" d="M 2.44,0.37 Q 2.44,0.37 2.23,1.77 2.02,3.17 1.51,5.65 1.01,8.12 0.44,10.72 -0.11,13.31 -0.49,15.71 -0.86,18.12 -1.23,19.69 -1.59,21.25 -1.76,21.64 -1.94,22.03 -2.22,22.34 -2.51,22.65 -2.88,22.85 -3.25,23.05 -3.67,23.12 -4.09,23.20 -4.50,23.13 -4.92,23.07 -5.30,22.87 -5.67,22.68 -5.97,22.38 -6.26,22.07 -6.44,21.69 -6.62,21.31 -6.68,20.89 -6.73,20.47 -6.64,20.06 -6.55,19.64 -6.34,19.28 -6.13,18.91 -5.81,18.64 -5.49,18.36 -5.10,18.20 -4.71,18.04 -4.28,18.01 -3.86,17.98 -3.45,18.09 -3.04,18.20 -2.69,18.43 -2.34,18.67 -2.08,19.00 -1.82,19.34 -1.68,19.73 -1.54,20.13 -1.54,20.56 -1.53,20.98 -1.66,21.38 -1.79,21.78 -2.05,22.12 -2.30,22.46 -2.65,22.70 -2.99,22.94 -3.40,23.06 -3.81,23.18 -4.23,23.16 -4.65,23.14 -5.04,22.99 -5.44,22.84 -5.76,22.57 -6.09,22.30 -6.31,21.94 -6.53,21.58 -6.63,21.17 -6.72,20.75 -6.68,20.33 -6.64,19.91 -6.64,19.91 -6.64,19.91 -6.23,18.56 -5.81,17.20 -5.38,14.80 -4.94,12.40 -4.40,9.82 -3.87,7.23 -3.37,4.82 -2.88,2.41 -2.66,1.01 -2.44,-0.37 -2.36,-0.66 -2.28,-0.95 -2.14,-1.21 -1.99,-1.47 -1.78,-1.69 -1.58,-1.90 -1.33,-2.06 -1.08,-2.23 -0.79,-2.32 -0.51,-2.42 -0.21,-2.45 0.08,-2.47 0.37,-2.43 0.67,-2.38 0.94,-2.27 1.22,-2.15 1.46,-1.97 1.70,-1.80 1.89,-1.57 2.08,-1.34 2.21,-1.07 2.34,-0.80 2.40,-0.51 2.46,-0.21 2.45,0.07 2.44,0.37 2.44,0.37 L 2.44,0.37 Z"></path></g><g transform="translate(65.79052894334086 139.60033279883405) rotate(0 0.36434360507280417 10.670526131609591)" stroke="none"><path fill="#f36d6b" d="M 2.56,-0.27 Q 2.56,-0.27 2.70,0.68 2.84,1.64 2.90,3.01 2.95,4.38 2.92,6.03 2.89,7.68 2.95,9.84 3.01,12.00 3.08,13.71 3.15,15.42 3.25,17.82 3.36,20.22 3.47,20.67 3.58,21.12 3.54,21.58 3.50,22.04 3.31,22.47 3.13,22.89 2.81,23.23 2.50,23.58 2.10,23.80 1.70,24.03 1.24,24.11 0.78,24.20 0.33,24.13 -0.12,24.07 -0.54,23.86 -0.95,23.65 -1.27,23.32 -1.60,22.99 -1.80,22.58 -2.01,22.16 -2.07,21.70 -2.13,21.24 -2.04,20.79 -1.95,20.33 -1.72,19.93 -1.49,19.53 -1.14,19.22 -0.79,18.92 -0.37,18.74 0.05,18.56 0.51,18.52 0.97,18.49 1.42,18.60 1.87,18.71 2.26,18.97 2.65,19.22 2.93,19.58 3.22,19.94 3.38,20.38 3.54,20.81 3.55,21.28 3.56,21.74 3.42,22.18 3.28,22.62 3.01,23.00 2.74,23.37 2.36,23.64 1.98,23.91 1.54,24.04 1.09,24.17 0.63,24.16 0.17,24.14 -0.26,23.98 -0.69,23.82 -1.05,23.53 -1.41,23.23 -1.65,22.84 -1.90,22.45 -1.90,22.45 -1.90,22.45 -2.17,18.94 -2.43,15.42 -2.37,13.71 -2.30,12.01 -2.27,9.87 -2.23,7.74 -2.29,6.15 -2.36,4.56 -2.39,3.39 -2.43,2.21 -2.49,1.24 -2.56,0.27 -2.56,-0.03 -2.55,-0.34 -2.47,-0.64 -2.39,-0.94 -2.25,-1.22 -2.10,-1.49 -1.89,-1.72 -1.68,-1.95 -1.42,-2.12 -1.16,-2.30 -0.87,-2.40 -0.58,-2.51 -0.27,-2.54 0.03,-2.57 0.34,-2.53 0.65,-2.49 0.94,-2.38 1.23,-2.26 1.48,-2.08 1.73,-1.90 1.94,-1.67 2.14,-1.43 2.28,-1.15 2.42,-0.88 2.49,-0.57 2.56,-0.27 2.56,-0.27 L 2.56,-0.27 Z"></path></g><g transform="translate(109.97099225857346 138.09017028326727) rotate(0 1.1238405427262705 13.291339311196964)" stroke="none"><path fill="#f36d6b" d="M 2.38,-0.31 Q 2.38,-0.31 2.58,1.29 2.77,2.90 2.92,4.70 3.07,6.49 3.26,9.04 3.45,11.59 3.51,12.66 3.57,13.73 3.56,15.27 3.55,16.81 3.85,18.99 4.15,21.18 4.50,23.75 4.85,26.32 4.82,26.74 4.79,27.17 4.63,27.56 4.47,27.95 4.19,28.27 3.92,28.59 3.55,28.80 3.19,29.02 2.77,29.11 2.36,29.19 1.94,29.14 1.52,29.09 1.13,28.91 0.75,28.73 0.45,28.43 0.14,28.14 -0.04,27.76 -0.24,27.39 -0.30,26.97 -0.36,26.55 -0.29,26.13 -0.22,25.72 -0.02,25.34 0.18,24.97 0.49,24.68 0.80,24.40 1.18,24.22 1.57,24.05 1.99,24.01 2.41,23.97 2.82,24.06 3.24,24.16 3.60,24.38 3.96,24.60 4.23,24.93 4.50,25.25 4.65,25.65 4.80,26.04 4.82,26.47 4.84,26.89 4.72,27.30 4.61,27.70 4.36,28.05 4.12,28.40 3.78,28.65 3.44,28.90 3.04,29.03 2.64,29.16 2.21,29.16 1.79,29.16 1.39,29.02 0.99,28.88 0.66,28.62 0.32,28.36 0.09,28.00 -0.13,27.65 -0.24,27.24 -0.35,26.83 -0.35,26.83 -0.35,26.83 -0.61,24.27 -0.86,21.71 -1.09,19.28 -1.33,16.84 -1.32,14.27 -1.31,11.70 -1.36,9.35 -1.41,7.00 -1.66,5.26 -1.90,3.53 -2.14,1.92 -2.38,0.31 -2.39,0.02 -2.39,-0.26 -2.33,-0.54 -2.26,-0.82 -2.13,-1.08 -2.00,-1.34 -1.81,-1.56 -1.62,-1.78 -1.38,-1.95 -1.14,-2.12 -0.87,-2.22 -0.60,-2.33 -0.31,-2.37 -0.02,-2.41 0.25,-2.37 0.54,-2.34 0.82,-2.24 1.09,-2.14 1.33,-1.98 1.57,-1.82 1.77,-1.60 1.96,-1.39 2.10,-1.13 2.24,-0.88 2.31,-0.60 2.38,-0.31 2.38,-0.31 L 2.38,-0.31 Z"></path></g><g transform="translate(94.62077432937849 138.10480347481084) rotate(0 0.7492508455276266 14.036160186628507)" stroke="none"><path fill="#f36d6b" d="M 2.20,-0.11 Q 2.20,-0.11 2.21,1.92 2.23,3.97 2.33,5.28 2.43,6.59 2.56,8.70 2.68,10.80 2.85,12.06 3.02,13.33 3.04,15.21 3.06,17.09 3.29,19.51 3.52,21.94 3.83,24.90 4.15,27.86 4.12,28.23 4.10,28.60 3.95,28.94 3.81,29.28 3.57,29.56 3.32,29.84 3.00,30.02 2.68,30.21 2.32,30.28 1.95,30.36 1.59,30.31 1.22,30.26 0.88,30.10 0.55,29.94 0.29,29.68 0.02,29.42 -0.14,29.09 -0.31,28.76 -0.36,28.39 -0.41,28.03 -0.35,27.66 -0.28,27.30 -0.10,26.97 0.07,26.65 0.34,26.40 0.62,26.15 0.95,26.00 1.29,25.85 1.66,25.82 2.03,25.78 2.39,25.87 2.75,25.95 3.07,26.15 3.38,26.35 3.62,26.63 3.85,26.92 3.98,27.27 4.11,27.61 4.13,27.98 4.14,28.35 4.04,28.71 3.93,29.07 3.72,29.37 3.50,29.67 3.20,29.89 2.91,30.11 2.55,30.22 2.20,30.33 1.83,30.33 1.46,30.32 1.11,30.20 0.76,30.07 0.47,29.84 0.18,29.61 -0.01,29.30 -0.22,28.99 -0.31,28.63 -0.40,28.28 -0.40,28.28 -0.40,28.28 -0.63,25.28 -0.86,22.28 -0.90,19.73 -0.94,17.18 -1.01,15.42 -1.07,13.66 -1.10,12.43 -1.12,11.21 -1.47,8.98 -1.82,6.75 -1.81,5.46 -1.79,4.18 -2.00,2.15 -2.20,0.11 -2.18,-0.14 -2.16,-0.41 -2.08,-0.66 -2.00,-0.92 -1.86,-1.14 -1.72,-1.37 -1.53,-1.56 -1.34,-1.74 -1.11,-1.88 -0.89,-2.02 -0.63,-2.09 -0.38,-2.17 -0.11,-2.18 0.15,-2.20 0.41,-2.15 0.67,-2.10 0.91,-1.99 1.15,-1.88 1.36,-1.71 1.57,-1.54 1.73,-1.33 1.89,-1.12 2.00,-0.88 2.11,-0.64 2.15,-0.37 2.20,-0.11 2.20,-0.11 L 2.20,-0.11 Z"></path></g><g transform="translate(148.93923849997964 138.45600007185627) rotate(0 2.6222707826512988 13.860561888105792)" stroke="none"><path fill="#f36d6b" d="M 2.15,-0.67 Q 2.15,-0.67 2.65,1.06 3.14,2.79 3.85,5.78 4.56,8.76 4.93,11.55 5.30,14.33 5.66,15.66 6.01,16.99 6.23,18.96 6.45,20.94 6.96,24.22 7.47,27.50 7.44,27.86 7.42,28.23 7.28,28.56 7.14,28.89 6.90,29.17 6.66,29.44 6.35,29.62 6.04,29.80 5.68,29.88 5.33,29.95 4.97,29.91 4.61,29.86 4.29,29.71 3.96,29.55 3.70,29.30 3.44,29.05 3.28,28.72 3.11,28.40 3.06,28.04 3.00,27.69 3.07,27.33 3.13,26.97 3.30,26.66 3.48,26.34 3.74,26.09 4.01,25.85 4.34,25.70 4.67,25.55 5.03,25.52 5.39,25.49 5.74,25.57 6.10,25.65 6.40,25.84 6.71,26.03 6.94,26.31 7.17,26.59 7.30,26.93 7.43,27.27 7.44,27.63 7.46,27.99 7.36,28.34 7.26,28.68 7.05,28.98 6.84,29.28 6.55,29.49 6.26,29.71 5.92,29.82 5.57,29.93 5.21,29.92 4.85,29.92 4.51,29.80 4.17,29.68 3.88,29.45 3.60,29.23 3.40,28.93 3.20,28.63 3.11,28.28 3.01,27.93 3.01,27.93 3.01,27.93 2.79,24.68 2.57,21.44 2.31,19.65 2.05,17.87 1.79,16.43 1.52,14.99 0.94,12.27 0.36,9.55 -0.31,6.82 -0.99,4.09 -1.57,2.38 -2.15,0.67 -2.20,0.40 -2.25,0.13 -2.23,-0.13 -2.22,-0.40 -2.13,-0.66 -2.05,-0.92 -1.91,-1.15 -1.77,-1.39 -1.58,-1.58 -1.39,-1.77 -1.16,-1.91 -0.92,-2.05 -0.66,-2.13 -0.40,-2.22 -0.13,-2.23 0.13,-2.25 0.40,-2.20 0.66,-2.15 0.91,-2.04 1.16,-1.93 1.38,-1.76 1.59,-1.59 1.76,-1.38 1.93,-1.16 2.04,-0.92 2.15,-0.67 2.15,-0.67 L 2.15,-0.67 Z"></path></g><g transform="translate(136.57707827134664 136.9956247040803) rotate(0 0.37463256787691535 16.4813464872409)" stroke="none"><path fill="#f36d6b" d="M 2.10,0.11 Q 2.10,0.11 1.93,2.05 1.77,3.98 1.63,6.70 1.50,9.42 1.52,11.03 1.54,12.63 1.46,15.24 1.37,17.85 1.42,19.39 1.48,20.94 1.72,23.20 1.96,25.47 2.19,26.70 2.42,27.94 2.79,30.33 3.16,32.71 3.15,33.05 3.13,33.38 3.02,33.69 2.90,34.00 2.68,34.26 2.47,34.51 2.19,34.69 1.90,34.86 1.58,34.94 1.25,35.01 0.92,34.98 0.59,34.95 0.29,34.81 -0.01,34.67 -0.25,34.45 -0.50,34.22 -0.66,33.93 -0.82,33.64 -0.87,33.31 -0.93,32.98 -0.88,32.65 -0.83,32.32 -0.68,32.03 -0.52,31.73 -0.28,31.50 -0.05,31.27 0.25,31.12 0.55,30.98 0.88,30.94 1.21,30.90 1.53,30.97 1.86,31.04 2.15,31.20 2.44,31.37 2.65,31.63 2.87,31.88 3.00,32.19 3.13,32.49 3.15,32.83 3.17,33.16 3.08,33.48 3.00,33.80 2.81,34.08 2.63,34.36 2.37,34.56 2.10,34.77 1.79,34.88 1.47,34.99 1.14,34.99 0.81,34.99 0.49,34.89 0.17,34.79 -0.08,34.59 -0.35,34.39 -0.54,34.12 -0.73,33.84 -0.82,33.52 -0.92,33.20 -0.92,33.20 -0.92,33.20 -1.12,30.78 -1.33,28.36 -1.37,27.14 -1.41,25.92 -1.82,23.43 -2.22,20.93 -2.16,19.39 -2.09,17.84 -2.16,15.21 -2.23,12.58 -2.17,10.97 -2.11,9.36 -2.15,6.56 -2.20,3.76 -2.15,1.82 -2.10,-0.11 -2.05,-0.36 -2.01,-0.61 -1.90,-0.84 -1.80,-1.07 -1.65,-1.28 -1.49,-1.48 -1.29,-1.63 -1.09,-1.79 -0.86,-1.90 -0.63,-2.00 -0.38,-2.05 -0.13,-2.09 0.11,-2.08 0.36,-2.07 0.61,-1.99 0.85,-1.92 1.07,-1.79 1.28,-1.66 1.46,-1.48 1.65,-1.30 1.78,-1.08 1.91,-0.87 1.99,-0.63 2.06,-0.38 2.08,-0.13 2.10,0.11 2.10,0.11 L 2.10,0.11 Z"></path></g><g transform="translate(193.8924029217976 140.36417396522702) rotate(0 1.4984445301511187 17.037422056122324)" stroke="none"><path fill="#f36d6b" d="M 2.09,-0.32 Q 2.09,-0.32 2.34,1.06 2.59,2.45 2.58,4.90 2.57,7.34 2.73,10.23 2.90,13.11 3.05,16.09 3.20,19.08 3.37,20.56 3.54,22.04 3.67,23.94 3.79,25.85 4.12,28.37 4.45,30.90 4.78,32.33 5.11,33.77 5.10,34.11 5.10,34.46 4.98,34.78 4.86,35.11 4.65,35.38 4.43,35.65 4.14,35.84 3.85,36.03 3.52,36.12 3.18,36.20 2.83,36.18 2.49,36.15 2.17,36.02 1.85,35.88 1.59,35.65 1.33,35.42 1.16,35.12 0.99,34.82 0.92,34.48 0.85,34.14 0.90,33.80 0.94,33.46 1.09,33.14 1.25,32.83 1.49,32.59 1.73,32.34 2.04,32.18 2.35,32.03 2.69,31.98 3.04,31.93 3.38,31.99 3.72,32.06 4.02,32.22 4.32,32.39 4.55,32.65 4.79,32.91 4.93,33.22 5.07,33.54 5.10,33.88 5.13,34.23 5.04,34.57 4.96,34.90 4.78,35.20 4.59,35.49 4.33,35.71 4.06,35.93 3.73,36.05 3.41,36.17 3.06,36.18 2.72,36.19 2.39,36.09 2.05,35.99 1.77,35.79 1.49,35.59 1.28,35.31 1.08,35.03 0.98,34.70 0.87,34.37 0.87,34.37 0.87,34.37 0.63,32.82 0.39,31.26 0.32,28.69 0.26,26.12 0.09,24.19 -0.06,22.26 -0.08,20.79 -0.10,19.32 -0.37,16.37 -0.65,13.42 -1.00,10.46 -1.34,7.50 -1.54,5.31 -1.73,3.12 -1.91,1.72 -2.09,0.32 -2.10,0.06 -2.11,-0.18 -2.06,-0.43 -2.00,-0.68 -1.89,-0.91 -1.78,-1.14 -1.62,-1.34 -1.45,-1.54 -1.25,-1.69 -1.04,-1.84 -0.81,-1.94 -0.57,-2.04 -0.32,-2.08 -0.06,-2.12 0.18,-2.09 0.44,-2.07 0.68,-1.99 0.92,-1.90 1.14,-1.77 1.35,-1.63 1.53,-1.44 1.70,-1.26 1.83,-1.03 1.95,-0.81 2.02,-0.56 2.09,-0.32 2.09,-0.32 L 2.09,-0.32 Z"></path></g><g transform="translate(232.85470442913925 140.7417217392318) rotate(0 -0.7492079748493552 13.485943610454967)" stroke="none"><path fill="#f36d6b" d="M 2.17,0.72 Q 2.17,0.72 1.76,2.01 1.36,3.30 1.10,5.30 0.83,7.29 0.82,8.46 0.80,9.63 0.74,11.37 0.67,13.12 0.62,14.94 0.57,16.77 0.68,18.34 0.79,19.91 0.88,21.29 0.97,22.66 1.25,24.72 1.52,26.78 1.49,27.14 1.46,27.51 1.32,27.85 1.17,28.19 0.93,28.47 0.68,28.74 0.36,28.92 0.04,29.11 -0.32,29.18 -0.68,29.25 -1.04,29.20 -1.41,29.15 -1.74,28.99 -2.07,28.82 -2.33,28.56 -2.59,28.30 -2.76,27.97 -2.92,27.64 -2.97,27.28 -3.03,26.91 -2.96,26.55 -2.89,26.18 -2.71,25.86 -2.53,25.54 -2.25,25.29 -1.98,25.05 -1.64,24.90 -1.30,24.75 -0.93,24.72 -0.56,24.69 -0.20,24.78 0.14,24.87 0.45,25.07 0.77,25.27 1.00,25.55 1.23,25.84 1.36,26.19 1.49,26.53 1.50,26.90 1.51,27.27 1.40,27.62 1.29,27.98 1.08,28.28 0.86,28.58 0.56,28.79 0.26,29.01 -0.08,29.12 -0.43,29.23 -0.80,29.22 -1.17,29.21 -1.52,29.08 -1.86,28.96 -2.15,28.72 -2.44,28.49 -2.64,28.18 -2.84,27.87 -2.93,27.51 -3.02,27.16 -3.02,27.16 -3.02,27.16 -3.18,24.98 -3.35,22.80 -3.34,21.49 -3.34,20.17 -3.43,18.45 -3.53,16.74 -3.55,14.89 -3.57,13.04 -3.57,11.19 -3.57,9.34 -3.43,8.15 -3.29,6.96 -3.19,4.41 -3.08,1.86 -2.62,0.56 -2.17,-0.72 -2.05,-0.97 -1.93,-1.22 -1.76,-1.43 -1.58,-1.65 -1.36,-1.81 -1.14,-1.98 -0.89,-2.09 -0.63,-2.19 -0.36,-2.24 -0.09,-2.28 0.18,-2.26 0.45,-2.24 0.71,-2.15 0.98,-2.06 1.21,-1.92 1.44,-1.77 1.63,-1.57 1.82,-1.37 1.96,-1.13 2.10,-0.89 2.18,-0.63 2.25,-0.36 2.27,-0.09 2.28,0.18 2.22,0.45 2.17,0.72 2.17,0.72 L 2.17,0.72 Z"></path></g><g transform="translate(275.18561235853235 138.86867322165605) rotate(0 0.9365242587878129 16.102355400398352)" stroke="none"><path fill="#f36d6b" d="M 2.13,0 Q 2.13,0 2.13,1.61 2.14,3.22 2.14,5.36 2.13,7.51 2.24,8.89 2.35,10.26 2.27,12.81 2.19,15.35 2.25,16.85 2.31,18.36 2.34,20.68 2.36,23.01 2.59,24.26 2.81,25.52 3.02,27.05 3.23,28.58 3.57,30.10 3.90,31.61 3.94,31.95 3.98,32.29 3.91,32.62 3.84,32.96 3.67,33.25 3.50,33.55 3.24,33.77 2.98,34.00 2.67,34.13 2.35,34.26 2.01,34.28 1.67,34.31 1.34,34.22 1.01,34.13 0.72,33.94 0.43,33.75 0.22,33.49 0.01,33.22 -0.09,32.89 -0.21,32.57 -0.21,32.23 -0.21,31.88 -0.11,31.56 -0.00,31.23 0.19,30.96 0.39,30.68 0.67,30.49 0.95,30.29 1.28,30.20 1.61,30.10 1.95,30.11 2.30,30.13 2.62,30.25 2.94,30.37 3.20,30.59 3.46,30.81 3.64,31.10 3.82,31.39 3.90,31.72 3.98,32.06 3.95,32.40 3.91,32.74 3.77,33.05 3.63,33.36 3.40,33.62 3.17,33.87 2.87,34.03 2.57,34.20 2.23,34.26 1.90,34.32 1.56,34.26 1.22,34.21 0.91,34.06 0.61,33.90 0.37,33.66 0.13,33.41 -0.01,33.10 -0.15,32.79 -0.15,32.79 -0.15,32.79 -0.45,30.91 -0.75,29.04 -0.89,27.50 -1.02,25.97 -1.11,24.57 -1.19,23.17 -1.39,20.78 -1.59,18.38 -1.54,16.88 -1.50,15.38 -1.61,12.89 -1.73,10.40 -1.72,9.05 -1.70,7.70 -1.92,5.46 -2.14,3.22 -2.13,1.61 -2.13,0 -2.10,-0.25 -2.06,-0.51 -1.97,-0.75 -1.88,-0.99 -1.74,-1.20 -1.59,-1.41 -1.40,-1.58 -1.21,-1.75 -0.98,-1.87 -0.75,-1.99 -0.50,-2.05 -0.25,-2.11 0.00,-2.11 0.25,-2.11 0.50,-2.05 0.75,-1.99 0.98,-1.87 1.21,-1.75 1.40,-1.58 1.59,-1.41 1.74,-1.20 1.88,-0.99 1.97,-0.75 2.06,-0.50 2.10,-0.25 2.13,0.00 2.13,0.00 L 2.13,0 Z"></path></g><g transform="translate(316.7497639154042 139.61202220379758) rotate(0 0.7492365553016498 15.904807314560287)" stroke="none"><path fill="#f36d6b" d="M 2.14,0 Q 2.14,0 2.11,1.82 2.07,3.64 2.13,4.84 2.19,6.05 2.08,8.28 1.96,10.52 2.01,11.90 2.07,13.28 2.07,15.55 2.08,17.81 2.20,19.02 2.33,20.22 2.39,22.21 2.45,24.21 3.06,27.90 3.68,31.59 3.66,31.95 3.63,32.30 3.50,32.63 3.36,32.96 3.13,33.23 2.89,33.49 2.59,33.67 2.28,33.85 1.93,33.93 1.59,34.00 1.23,33.96 0.88,33.91 0.56,33.76 0.24,33.61 -0.01,33.36 -0.26,33.11 -0.42,32.80 -0.59,32.48 -0.64,32.13 -0.69,31.78 -0.63,31.43 -0.57,31.08 -0.40,30.77 -0.23,30.46 0.02,30.21 0.28,29.97 0.61,29.83 0.93,29.68 1.29,29.65 1.64,29.61 1.98,29.69 2.33,29.78 2.63,29.96 2.93,30.15 3.16,30.42 3.39,30.70 3.52,31.03 3.64,31.36 3.66,31.71 3.67,32.07 3.57,32.41 3.47,32.75 3.27,33.04 3.07,33.33 2.78,33.55 2.50,33.76 2.16,33.87 1.82,33.98 1.47,33.97 1.11,33.97 0.78,33.85 0.44,33.73 0.16,33.51 -0.11,33.29 -0.30,33.00 -0.50,32.70 -0.59,32.36 -0.68,32.02 -0.68,32.02 -0.68,32.02 -0.91,29.40 -1.15,26.78 -1.24,25.61 -1.32,24.45 -1.52,22.41 -1.72,20.37 -1.68,19.18 -1.65,17.99 -1.86,15.63 -2.07,13.28 -2.01,11.90 -1.96,10.52 -2.08,8.28 -2.19,6.05 -2.13,4.84 -2.07,3.64 -2.11,1.82 -2.14,0 -2.11,-0.25 -2.08,-0.51 -1.99,-0.75 -1.90,-0.99 -1.75,-1.21 -1.60,-1.42 -1.41,-1.59 -1.22,-1.76 -0.99,-1.88 -0.76,-2.00 -0.51,-2.07 -0.25,-2.13 0.00,-2.13 0.25,-2.13 0.51,-2.07 0.76,-2.00 0.99,-1.88 1.22,-1.76 1.41,-1.59 1.60,-1.42 1.75,-1.21 1.90,-0.99 1.99,-0.75 2.08,-0.51 2.11,-0.25 2.14,0.00 2.14,0.00 L 2.14,0 Z"></path></g><g transform="translate(346.3321896433238 141.10460774124076) rotate(0 2.9895724645302835 15.351689822485042)" stroke="none"><path fill="#f36d6b" d="M 2.03,-0.42 Q 2.03,-0.42 2.37,1.63 2.71,3.69 2.98,4.80 3.24,5.91 3.48,7.90 3.71,9.90 4.00,11.12 4.29,12.34 4.53,14.43 4.76,16.52 5.14,19.11 5.51,21.69 5.93,23.39 6.35,25.09 7.08,27.59 7.81,30.10 7.86,30.41 7.91,30.72 7.85,31.03 7.80,31.33 7.65,31.61 7.50,31.88 7.27,32.10 7.04,32.31 6.76,32.44 6.47,32.56 6.16,32.60 5.85,32.63 5.55,32.56 5.24,32.49 4.98,32.32 4.71,32.16 4.51,31.92 4.31,31.68 4.20,31.39 4.08,31.09 4.07,30.78 4.06,30.47 4.14,30.17 4.23,29.87 4.41,29.61 4.59,29.36 4.84,29.17 5.09,28.98 5.38,28.89 5.68,28.79 5.99,28.79 6.31,28.80 6.60,28.90 6.90,29.00 7.14,29.19 7.39,29.38 7.56,29.64 7.74,29.91 7.82,30.21 7.90,30.51 7.88,30.82 7.86,31.13 7.74,31.42 7.62,31.71 7.41,31.95 7.21,32.18 6.94,32.34 6.67,32.50 6.36,32.56 6.06,32.63 5.75,32.59 5.44,32.55 5.16,32.42 4.87,32.29 4.65,32.07 4.42,31.85 4.28,31.57 4.14,31.30 4.14,31.30 4.14,31.30 3.51,28.60 2.89,25.90 2.49,24.10 2.09,22.30 1.55,19.70 1.01,17.10 0.62,15.09 0.23,13.09 0.05,11.78 -0.11,10.47 -0.46,8.53 -0.81,6.59 -0.91,5.53 -1.00,4.47 -1.52,2.44 -2.03,0.42 -2.05,0.17 -2.07,-0.07 -2.03,-0.32 -2.00,-0.56 -1.90,-0.80 -1.80,-1.03 -1.65,-1.23 -1.50,-1.43 -1.31,-1.59 -1.11,-1.75 -0.89,-1.86 -0.66,-1.97 -0.42,-2.02 -0.17,-2.07 0.07,-2.06 0.32,-2.05 0.56,-1.98 0.80,-1.91 1.02,-1.79 1.24,-1.66 1.42,-1.49 1.60,-1.32 1.74,-1.11 1.87,-0.90 1.95,-0.66 2.03,-0.42 2.03,-0.42 L 2.03,-0.42 Z"></path></g><g transform="translate(377.7817763156586 144.46441138400402) rotate(0 3.9290119294460055 11.983111980886065)" stroke="none"><path fill="#f36d6b" d="M 2.14,-0.89 Q 2.14,-0.89 3.09,1.74 4.04,4.37 4.64,5.66 5.24,6.94 5.84,9.38 6.45,11.81 6.90,13.20 7.34,14.60 7.83,16.26 8.31,17.93 9.20,20.75 10.10,23.57 10.10,23.94 10.10,24.31 9.99,24.66 9.87,25.01 9.65,25.30 9.43,25.60 9.13,25.81 8.83,26.02 8.47,26.12 8.12,26.22 7.75,26.21 7.38,26.19 7.04,26.06 6.70,25.92 6.41,25.69 6.13,25.45 5.94,25.14 5.75,24.82 5.66,24.46 5.58,24.11 5.62,23.74 5.65,23.37 5.81,23.04 5.96,22.70 6.21,22.43 6.46,22.16 6.78,21.99 7.11,21.81 7.47,21.75 7.83,21.68 8.20,21.74 8.56,21.80 8.89,21.97 9.21,22.14 9.47,22.40 9.73,22.67 9.88,23.00 10.04,23.33 10.08,23.70 10.13,24.06 10.05,24.42 9.98,24.78 9.79,25.10 9.60,25.42 9.32,25.66 9.04,25.90 8.70,26.04 8.36,26.18 8.00,26.20 7.63,26.23 7.27,26.13 6.92,26.04 6.61,25.83 6.30,25.63 6.08,25.34 5.85,25.05 5.73,24.70 5.61,24.35 5.61,24.35 5.61,24.35 5.03,21.70 4.45,19.06 3.95,17.38 3.45,15.69 3.11,14.29 2.77,12.89 2.04,10.76 1.31,8.63 0.78,7.29 0.25,5.95 -0.94,3.42 -2.14,0.89 -2.21,0.62 -2.29,0.35 -2.30,0.07 -2.30,-0.20 -2.25,-0.47 -2.19,-0.75 -2.07,-1.00 -1.94,-1.25 -1.77,-1.47 -1.59,-1.68 -1.36,-1.85 -1.14,-2.01 -0.88,-2.12 -0.62,-2.23 -0.34,-2.27 -0.07,-2.31 0.20,-2.29 0.48,-2.26 0.74,-2.17 1.01,-2.08 1.24,-1.93 1.48,-1.78 1.67,-1.58 1.86,-1.37 2.00,-1.13 2.14,-0.89 2.14,-0.89 L 2.14,-0.89 Z"></path></g><g transform="translate(399.1141115409466 138.0989730625552) rotate(0 12.35630123592523 15.168746347738306)" stroke="none"><path fill="#f36d6b" d="M 1.58,-1.16 Q 1.58,-1.16 2.72,0.48 3.86,2.13 5.49,4.59 7.13,7.06 8.02,8.28 8.92,9.50 10.45,11.51 11.99,13.52 12.95,14.53 13.91,15.55 15.53,17.56 17.15,19.57 18.07,20.60 18.98,21.63 20.42,23.38 21.86,25.12 22.78,26.01 23.70,26.90 24.89,27.85 26.08,28.80 26.29,29.06 26.50,29.32 26.62,29.63 26.73,29.95 26.74,30.28 26.75,30.61 26.65,30.93 26.55,31.25 26.36,31.52 26.16,31.79 25.89,31.98 25.62,32.18 25.30,32.28 24.98,32.37 24.65,32.36 24.32,32.36 24.01,32.24 23.69,32.13 23.43,31.92 23.17,31.71 22.99,31.43 22.82,31.15 22.73,30.82 22.65,30.50 22.68,30.17 22.71,29.83 22.84,29.53 22.97,29.22 23.20,28.97 23.42,28.73 23.71,28.56 24.00,28.40 24.33,28.34 24.65,28.27 24.98,28.32 25.31,28.36 25.61,28.51 25.91,28.66 26.15,28.90 26.38,29.13 26.53,29.43 26.68,29.73 26.72,30.06 26.77,30.39 26.70,30.72 26.64,31.04 26.48,31.33 26.31,31.62 26.06,31.85 25.82,32.07 25.51,32.20 25.20,32.33 24.87,32.36 24.54,32.39 24.22,32.30 23.89,32.22 23.61,32.04 23.33,31.86 23.33,31.86 23.33,31.87 22.12,30.66 20.90,29.45 20.09,28.43 19.27,27.40 17.65,25.67 16.02,23.94 15.29,22.87 14.55,21.79 12.82,19.87 11.08,17.95 10.21,16.80 9.34,15.66 7.59,13.60 5.84,11.54 5.09,10.28 4.33,9.02 2.59,6.67 0.86,4.32 -0.36,2.74 -1.58,1.16 -1.70,0.95 -1.81,0.74 -1.88,0.51 -1.94,0.29 -1.95,0.05 -1.95,-0.18 -1.90,-0.41 -1.85,-0.64 -1.75,-0.85 -1.64,-1.07 -1.49,-1.25 -1.34,-1.43 -1.15,-1.57 -0.96,-1.71 -0.74,-1.80 -0.52,-1.89 -0.28,-1.93 -0.05,-1.96 0.18,-1.94 0.41,-1.92 0.64,-1.84 0.86,-1.76 1.06,-1.63 1.26,-1.50 1.42,-1.33 1.58,-1.16 1.58,-1.16 L 1.58,-1.16 Z"></path></g></svg>