<?xml version="1.0" standalone="no"?>
<!DOCTYPE svg PUBLIC "-//W3C//DTD SVG 1.1//EN" "http://www.w3.org/Graphics/SVG/1.1/DTD/svg11.dtd">
<svg version="1.1" xmlns="http://www.w3.org/2000/svg" viewBox="0 0 705.4074403570676 260.23823421427187" width="705.4074403570676" height="260.23823421427187"><!-- svg-source:excalidraw --><metadata></metadata><defs><style class="style-fonts">
      </style></defs><g stroke-linecap="round" transform="translate(10 10) rotate(0 342.7037201785338 120.11911710713593)"><path d="M32 0 C271.93 -0.09, 508.22 -1.32, 653.41 0 M32 0 C174.56 -1.69, 317.53 -1.65, 653.41 0 M653.41 0 C674.3 -0.29, 687.87 11.36, 685.41 32 M653.41 0 C676.49 -1.31, 686.53 8.46, 685.41 32 M685.41 32 C687.31 86.82, 691.38 139.75, 685.41 208.24 M685.41 32 C684.86 102.45, 681.14 171.41, 685.41 208.24 M685.41 208.24 C685.54 227.77, 674.18 243.65, 653.41 240.24 M685.41 208.24 C682.47 232.96, 671.71 243.68, 653.41 240.24 M653.41 240.24 C485.1 241.68, 318.51 242.62, 32 240.24 M653.41 240.24 C468.92 236.25, 285.89 235.91, 32 240.24 M32 240.24 C10.93 242.52, -1.92 232.75, 0 208.24 M32 240.24 C6.23 242.89, -3.3 229.16, 0 208.24 M0 208.24 C-3.14 147.6, 1.07 87.82, 0 32 M0 208.24 C-1.68 145.5, -0.13 82.81, 0 32 M0 32 C1.96 10.15, 11.41 2.41, 32 0 M0 32 C-2.52 11.54, 15.02 4.37, 32 0" stroke="#f36d6b" stroke-width="2" fill="none"></path></g><g stroke-linecap="round" transform="translate(32.94801234565716 99.68841314155358) rotate(0 27.272512697094612 15.320208740146072)"><path d="M7.66 0 C20.74 -1.93, 36.59 -0.28, 46.88 0 M7.66 0 C18.74 -0.99, 27.21 -0.6, 46.88 0 M46.88 0 C51.3 -0.42, 56.75 -0.84, 54.55 7.66 M46.88 0 C53.67 3.56, 53.66 4, 54.55 7.66 M54.55 7.66 C51.74 10.32, 53.32 13.36, 54.55 22.98 M54.55 7.66 C55.86 11.86, 54.56 17.29, 54.55 22.98 M54.55 22.98 C57.4 27.86, 54.05 30.91, 46.88 30.64 M54.55 22.98 C56.26 29.03, 52.86 34.61, 46.88 30.64 M46.88 30.64 C33.86 33.2, 28.28 28.43, 7.66 30.64 M46.88 30.64 C37.61 29.39, 27.6 30.39, 7.66 30.64 M7.66 30.64 C-0.47 27.22, -1.61 30.57, 0 22.98 M7.66 30.64 C5.28 28.68, -1.74 25.04, 0 22.98 M0 22.98 C1.56 19.65, -2.89 10.46, 0 7.66 M0 22.98 C0.94 16.39, -1.51 12.96, 0 7.66 M0 7.66 C-2.37 2.91, 4.52 2, 7.66 0 M0 7.66 C-0.91 3.92, 4.12 -2.24, 7.66 0" stroke="#f36d6b" stroke-width="2" fill="none"></path></g><g stroke-linecap="round" transform="translate(98.34346278545149 100.61077355756052) rotate(0 27.272512697094612 15.320208740146072)"><path d="M7.66 0 C18.94 2.69, 23.55 -1.2, 46.88 0 M7.66 0 C17.12 1.11, 27.23 -1.79, 46.88 0 M46.88 0 C49.28 1.84, 56.92 1.82, 54.55 7.66 M46.88 0 C55.37 -3.86, 50.57 4.3, 54.55 7.66 M54.55 7.66 C56.1 10.74, 55.48 16.08, 54.55 22.98 M54.55 7.66 C54.18 11.99, 55.71 16.25, 54.55 22.98 M54.55 22.98 C52.25 25.57, 50.03 32.96, 46.88 30.64 M54.55 22.98 C50.92 31.3, 52.76 29.25, 46.88 30.64 M46.88 30.64 C36.01 32.67, 19.03 28.38, 7.66 30.64 M46.88 30.64 C32.84 31.13, 21.09 30.4, 7.66 30.64 M7.66 30.64 C5.76 31.18, 3.73 26.5, 0 22.98 M7.66 30.64 C5.67 26.5, 0.16 30.58, 0 22.98 M0 22.98 C-0.98 21.26, 1.69 16.43, 0 7.66 M0 22.98 C1.64 19.32, 0.47 16.48, 0 7.66 M0 7.66 C0.75 -0.87, 3.28 2.03, 7.66 0 M0 7.66 C1.88 1.8, -0.43 4.01, 7.66 0" stroke="#f36d6b" stroke-width="2" fill="none"></path></g><g stroke-linecap="round" transform="translate(164.51765248343054 98.72815267542671) rotate(0 27.272512697094612 15.320208740146072)"><path d="M7.66 0 C19.62 0.05, 34.16 0.73, 46.88 0 M7.66 0 C16.96 1.23, 24.18 -1.37, 46.88 0 M46.88 0 C51.12 -2.28, 52.48 0.38, 54.55 7.66 M46.88 0 C47.77 -3.72, 51.35 -1.99, 54.55 7.66 M54.55 7.66 C54.76 11.56, 55.23 18.77, 54.55 22.98 M54.55 7.66 C54.82 13.31, 55.04 18.5, 54.55 22.98 M54.55 22.98 C57.48 28.89, 54.79 33.14, 46.88 30.64 M54.55 22.98 C52.67 25.09, 49.68 29.23, 46.88 30.64 M46.88 30.64 C34.35 31.91, 17.68 27.91, 7.66 30.64 M46.88 30.64 C35.46 31.06, 23.7 28.32, 7.66 30.64 M7.66 30.64 C1.8 32.85, 0.81 28.78, 0 22.98 M7.66 30.64 C3.33 32.92, -3.29 26.56, 0 22.98 M0 22.98 C-3.19 16.56, -0.31 16.28, 0 7.66 M0 22.98 C1.41 20.18, 0.75 16.5, 0 7.66 M0 7.66 C2.25 4.59, 3.54 -3.1, 7.66 0 M0 7.66 C-3.91 0.2, 4.67 0.66, 7.66 0" stroke="#f36d6b" stroke-width="2" fill="none"></path></g><g stroke-linecap="round" transform="translate(229.91310292322487 99.65051309143365) rotate(0 27.272512697094612 15.320208740146072)"><path d="M7.66 0 C18.58 0.55, 25.81 -3.75, 46.88 0 M7.66 0 C17.87 -1.97, 28.77 -1.54, 46.88 0 M46.88 0 C49.93 -2.18, 50.88 -0.68, 54.55 7.66 M46.88 0 C48.8 -4.54, 56.68 5.48, 54.55 7.66 M54.55 7.66 C55.04 12.12, 54.9 13.66, 54.55 22.98 M54.55 7.66 C55.33 13.14, 55.76 16.32, 54.55 22.98 M54.55 22.98 C57.35 30.59, 50.36 28.04, 46.88 30.64 M54.55 22.98 C52.24 26.68, 54.15 30.42, 46.88 30.64 M46.88 30.64 C34.51 28.5, 26.6 30.18, 7.66 30.64 M46.88 30.64 C40.11 29.53, 30.42 32.2, 7.66 30.64 M7.66 30.64 C3.37 31.33, 0.68 30.07, 0 22.98 M7.66 30.64 C-0.74 29.11, -2.45 30.07, 0 22.98 M0 22.98 C0.13 19.1, -2.64 13.64, 0 7.66 M0 22.98 C0.48 17.88, 0.58 14.03, 0 7.66 M0 7.66 C0.99 -0.55, -0.85 -2.05, 7.66 0 M0 7.66 C2.12 3.21, 2.94 1.2, 7.66 0" stroke="#f36d6b" stroke-width="2" fill="none"></path></g><g stroke-linecap="round" transform="translate(295.1332199647445 98.61367353224631) rotate(0 27.272512697094612 15.320208740146072)"><path d="M7.66 0 C21.3 0.28, 38.47 2.29, 46.88 0 M7.66 0 C15.79 -2.39, 25.19 0.7, 46.88 0 M46.88 0 C49.64 -1.5, 54.46 3.88, 54.55 7.66 M46.88 0 C49.97 4.24, 55.11 3.34, 54.55 7.66 M54.55 7.66 C55.02 12.04, 54.79 15.72, 54.55 22.98 M54.55 7.66 C55.45 12.31, 54.76 15.85, 54.55 22.98 M54.55 22.98 C54.94 28.98, 50.51 27.69, 46.88 30.64 M54.55 22.98 C56.66 26.08, 48.02 30.71, 46.88 30.64 M46.88 30.64 C31.51 33.39, 19.69 31.66, 7.66 30.64 M46.88 30.64 C32.67 31.86, 20.15 32.43, 7.66 30.64 M7.66 30.64 C3.17 33.72, -1.96 25.77, 0 22.98 M7.66 30.64 C3.22 33.31, -4.36 25.24, 0 22.98 M0 22.98 C1.67 19.36, 1.75 9.11, 0 7.66 M0 22.98 C-0.77 18.59, 0.1 13.01, 0 7.66 M0 7.66 C-2.17 5.98, -0.53 -0.61, 7.66 0 M0 7.66 C2.65 1.86, 6.29 1.61, 7.66 0" stroke="#f36d6b" stroke-width="2" fill="none"></path></g><g stroke-linecap="round" transform="translate(360.52867040453884 99.53603394825325) rotate(0 27.272512697094612 15.320208740146072)"><path d="M7.66 0 C21.96 2.58, 33.21 -3.9, 46.88 0 M7.66 0 C21.72 2.11, 37.67 -0.11, 46.88 0 M46.88 0 C51.91 1.33, 52.79 6.24, 54.55 7.66 M46.88 0 C52.56 0.79, 53.91 5.77, 54.55 7.66 M54.55 7.66 C54.6 11.65, 52.59 14.63, 54.55 22.98 M54.55 7.66 C55.23 12.24, 54.93 15.19, 54.55 22.98 M54.55 22.98 C53.06 25.14, 53.83 28.89, 46.88 30.64 M54.55 22.98 C50.57 28.16, 52.21 29.39, 46.88 30.64 M46.88 30.64 C30.62 31.91, 22.25 29.3, 7.66 30.64 M46.88 30.64 C35.22 33.11, 25.14 32.72, 7.66 30.64 M7.66 30.64 C0.6 28.32, 0.58 30.41, 0 22.98 M7.66 30.64 C-1.81 27.79, 3.19 25.98, 0 22.98 M0 22.98 C1.46 16, -0.58 15.64, 0 7.66 M0 22.98 C0.37 17.44, -0.71 15.6, 0 7.66 M0 7.66 C-3.08 1.95, 4.86 -0.61, 7.66 0 M0 7.66 C3.74 4.16, 4.18 -0.88, 7.66 0" stroke="#f36d6b" stroke-width="2" fill="none"></path></g><g stroke-linecap="round" transform="translate(424.1918387301855 97.78509749978537) rotate(0 27.272512697094612 15.320208740146072)"><path d="M7.66 0 C18.33 -4.18, 33.31 -0.64, 46.88 0 M7.66 0 C20.92 -0.98, 37.11 0.66, 46.88 0 M46.88 0 C52.06 2.84, 55.52 1.42, 54.55 7.66 M46.88 0 C49.35 2.31, 53.44 2.69, 54.55 7.66 M54.55 7.66 C55.66 10.1, 51.44 17.83, 54.55 22.98 M54.55 7.66 C53.09 12.44, 54.14 15.96, 54.55 22.98 M54.55 22.98 C56.76 30.34, 52.1 33.75, 46.88 30.64 M54.55 22.98 C53.66 26.82, 47.75 29.19, 46.88 30.64 M46.88 30.64 C32.3 26.88, 21.38 29.89, 7.66 30.64 M46.88 30.64 C38.08 29.82, 27.78 32.89, 7.66 30.64 M7.66 30.64 C2.44 33.66, -0.82 26.46, 0 22.98 M7.66 30.64 C6.1 30.9, -3.68 26.37, 0 22.98 M0 22.98 C-1.33 14.87, 2.98 10.56, 0 7.66 M0 22.98 C-0.23 20.57, 0.9 16.75, 0 7.66 M0 7.66 C-2.77 -1.41, 2.2 1.48, 7.66 0 M0 7.66 C-2.81 6.29, -0.78 4.12, 7.66 0" stroke="#f36d6b" stroke-width="2" fill="none"></path></g><g stroke-linecap="round" transform="translate(489.58728916997984 98.7074579157923) rotate(0 27.272512697094612 15.320208740146072)"><path d="M7.66 0 C20.55 0.65, 40.27 2.47, 46.88 0 M7.66 0 C17.09 0.79, 27.01 1.97, 46.88 0 M46.88 0 C52.97 -1.14, 52.25 4.56, 54.55 7.66 M46.88 0 C50.88 0.13, 54.1 1.32, 54.55 7.66 M54.55 7.66 C51.64 13.7, 53.75 14.4, 54.55 22.98 M54.55 7.66 C54.18 13.09, 55.16 19.33, 54.55 22.98 M54.55 22.98 C54.65 31.2, 51.22 29.54, 46.88 30.64 M54.55 22.98 C50.31 26.64, 51.37 26.26, 46.88 30.64 M46.88 30.64 C31.47 29.01, 18.95 26.07, 7.66 30.64 M46.88 30.64 C31.03 31.94, 18.74 31.65, 7.66 30.64 M7.66 30.64 C1.74 29.02, 3.09 28.31, 0 22.98 M7.66 30.64 C-1.12 28.92, 2.73 25.84, 0 22.98 M0 22.98 C2.98 15.74, -1.83 10.07, 0 7.66 M0 22.98 C0.84 19.89, -0.99 13.32, 0 7.66 M0 7.66 C-0.36 4.04, 0.11 3.25, 7.66 0 M0 7.66 C-3.33 6.67, 5.77 2.42, 7.66 0" stroke="#f36d6b" stroke-width="2" fill="none"></path></g><g stroke-linecap="round" transform="translate(550.9178924670402 98.05108133673755) rotate(0 27.272512697094612 15.320208740146072)"><path d="M7.66 0 C16.28 -0.84, 28.54 0.26, 46.88 0 M7.66 0 C19.06 1.08, 29.15 0.73, 46.88 0 M46.88 0 C50.29 2.09, 55.79 0.55, 54.55 7.66 M46.88 0 C48.7 1.04, 56.68 1.76, 54.55 7.66 M54.55 7.66 C54.01 10.11, 56.46 15.11, 54.55 22.98 M54.55 7.66 C55.61 14.68, 54.38 18.53, 54.55 22.98 M54.55 22.98 C57.16 26.73, 52.4 33.51, 46.88 30.64 M54.55 22.98 C57.13 29.75, 49.09 33.7, 46.88 30.64 M46.88 30.64 C32.89 28.84, 25.03 27.84, 7.66 30.64 M46.88 30.64 C33.37 28.64, 19.32 30.37, 7.66 30.64 M7.66 30.64 C-1.42 33.08, 2.3 25.25, 0 22.98 M7.66 30.64 C0.5 27.02, 3.53 24.75, 0 22.98 M0 22.98 C-2.58 19.12, -1.98 15.73, 0 7.66 M0 22.98 C-0.31 18.59, 0.11 14.68, 0 7.66 M0 7.66 C-0.27 1.11, 1.5 2.38, 7.66 0 M0 7.66 C1.6 2.03, 3.49 -4.08, 7.66 0" stroke="#f36d6b" stroke-width="2" fill="none"></path></g><g stroke-linecap="round" transform="translate(616.3133429068346 98.97344175274449) rotate(0 27.272512697094612 15.320208740146072)"><path d="M7.66 0 C23.71 0.66, 33.43 -2.88, 46.88 0 M7.66 0 C21.36 0.65, 35.96 0.4, 46.88 0 M46.88 0 C53.24 -2.01, 51.68 3.46, 54.55 7.66 M46.88 0 C54.13 -0.8, 51.86 6.09, 54.55 7.66 M54.55 7.66 C56.15 12.94, 57.34 20.78, 54.55 22.98 M54.55 7.66 C54.28 10.33, 55.71 14.88, 54.55 22.98 M54.55 22.98 C54.95 30.96, 54.24 32.09, 46.88 30.64 M54.55 22.98 C51.65 31.15, 51.21 33.74, 46.88 30.64 M46.88 30.64 C34.16 27.17, 22.02 30.19, 7.66 30.64 M46.88 30.64 C34.94 29.96, 24.05 31.18, 7.66 30.64 M7.66 30.64 C4.85 27.8, -1.79 24.94, 0 22.98 M7.66 30.64 C6.09 27.3, -2.83 32.53, 0 22.98 M0 22.98 C-1.45 18.39, 0.52 13.88, 0 7.66 M0 22.98 C0.19 19.85, -0.05 13.79, 0 7.66 M0 7.66 C-1.05 4.93, 3.94 -0.45, 7.66 0 M0 7.66 C0.93 -1.53, 4.65 0.4, 7.66 0" stroke="#f36d6b" stroke-width="2" fill="none"></path></g><g stroke-linecap="round" transform="translate(32.76922718495143 42.027479230709616) rotate(0 27.272512697094612 15.320208740146072)"><path d="M7.66 0 C16.1 4.5, 33.9 -0.84, 46.88 0 M7.66 0 C23.69 -0.57, 34.13 2.23, 46.88 0 M46.88 0 C55.11 -1.28, 57 0.86, 54.55 7.66 M46.88 0 C54.34 3.48, 58.17 -1.34, 54.55 7.66 M54.55 7.66 C56.43 15.63, 55.45 17.14, 54.55 22.98 M54.55 7.66 C54.74 11.7, 55.74 19.37, 54.55 22.98 M54.55 22.98 C54.37 24.92, 52.91 28.43, 46.88 30.64 M54.55 22.98 C52.87 28.38, 52.27 31.15, 46.88 30.64 M46.88 30.64 C33.69 32.36, 22.54 30.22, 7.66 30.64 M46.88 30.64 C37.97 30.82, 27.19 29.19, 7.66 30.64 M7.66 30.64 C5.37 31.91, -0.51 28.4, 0 22.98 M7.66 30.64 C2.24 31.51, 1.01 32.4, 0 22.98 M0 22.98 C1.65 18.07, 1.33 10.04, 0 7.66 M0 22.98 C-0.86 20.83, 1.1 15.06, 0 7.66 M0 7.66 C-2.28 4.78, 5.26 -2.06, 7.66 0 M0 7.66 C-0.5 7.04, 1.34 3.13, 7.66 0" stroke="#f36d6b" stroke-width="2" fill="none"></path></g><g stroke-linecap="round" transform="translate(164.3388673227248 41.06721876458275) rotate(0 27.272512697094612 15.320208740146072)"><path d="M7.66 0 C25.67 2.31, 35.97 3.97, 46.88 0 M7.66 0 C18.8 -1.3, 28.06 -1.51, 46.88 0 M46.88 0 C54.04 3.02, 57.7 -0.84, 54.55 7.66 M46.88 0 C56.49 -2.11, 57.85 5.59, 54.55 7.66 M54.55 7.66 C56.57 11.36, 57.4 19.49, 54.55 22.98 M54.55 7.66 C54.76 9.53, 55.17 12.97, 54.55 22.98 M54.55 22.98 C53.08 28.35, 52.24 31.09, 46.88 30.64 M54.55 22.98 C55.67 27.39, 54.94 30.09, 46.88 30.64 M46.88 30.64 C32.67 30.08, 22.91 33.71, 7.66 30.64 M46.88 30.64 C36.93 30.56, 23.9 30.08, 7.66 30.64 M7.66 30.64 C2.28 31.4, 0.88 31.83, 0 22.98 M7.66 30.64 C5.07 31.54, 0.33 30.66, 0 22.98 M0 22.98 C-2.35 18.06, 1.45 11.53, 0 7.66 M0 22.98 C-1.09 17.9, 0.82 10.32, 0 7.66 M0 7.66 C-0.43 6.46, 1.5 2.73, 7.66 0 M0 7.66 C4.46 3.55, -0.57 1.31, 7.66 0" stroke="#f36d6b" stroke-width="2" fill="none"></path></g><g stroke-linecap="round" transform="translate(229.73431776251914 41.989579180589686) rotate(0 27.272512697094612 15.320208740146072)"><path d="M7.66 0 C15.2 3.28, 26.03 -4.21, 46.88 0 M7.66 0 C23.97 -0.6, 38.85 1.76, 46.88 0 M46.88 0 C55.14 -3.39, 58.46 0.72, 54.55 7.66 M46.88 0 C55.3 3.04, 57.36 4.12, 54.55 7.66 M54.55 7.66 C57.49 11.66, 51.7 16.9, 54.55 22.98 M54.55 7.66 C54.88 12.01, 53.97 18.16, 54.55 22.98 M54.55 22.98 C54.79 28.53, 52.97 30.04, 46.88 30.64 M54.55 22.98 C57.49 27.54, 53.4 31.9, 46.88 30.64 M46.88 30.64 C37.99 33.82, 24.75 33.33, 7.66 30.64 M46.88 30.64 C38.45 31.05, 30.4 31.27, 7.66 30.64 M7.66 30.64 C3.43 34.39, 2.19 28.87, 0 22.98 M7.66 30.64 C2.88 33.21, 0.78 30.18, 0 22.98 M0 22.98 C1.81 17.69, 2.9 18.05, 0 7.66 M0 22.98 C1.21 18.53, 0.01 17.16, 0 7.66 M0 7.66 C-1.06 5.28, 6.43 0.86, 7.66 0 M0 7.66 C-3.12 3.86, 4.26 -0.9, 7.66 0" stroke="#f36d6b" stroke-width="2" fill="none"></path></g><g stroke-linecap="round" transform="translate(294.9544348040388 40.952739621402344) rotate(0 27.272512697094612 15.320208740146072)"><path d="M7.66 0 C19.17 -4.54, 38.52 2.4, 46.88 0 M7.66 0 C19.19 1.84, 30.26 -1.36, 46.88 0 M46.88 0 C55.91 -1.83, 57.42 5.2, 54.55 7.66 M46.88 0 C54.81 1.57, 50.47 5.43, 54.55 7.66 M54.55 7.66 C51.78 14.11, 56.03 14.89, 54.55 22.98 M54.55 7.66 C54.06 11.14, 54.71 14.6, 54.55 22.98 M54.55 22.98 C55.52 27.48, 54.55 30.16, 46.88 30.64 M54.55 22.98 C55.95 29.35, 50.93 29.2, 46.88 30.64 M46.88 30.64 C35.08 34.04, 20.43 34.1, 7.66 30.64 M46.88 30.64 C33.74 31.08, 21.3 32.58, 7.66 30.64 M7.66 30.64 C4.74 31.42, 0.28 30.32, 0 22.98 M7.66 30.64 C3.34 32.73, -3.12 24.77, 0 22.98 M0 22.98 C2.52 20.6, -2.04 12.11, 0 7.66 M0 22.98 C-0.37 19.02, -0.61 13.12, 0 7.66 M0 7.66 C3.88 3.42, -0.16 1.13, 7.66 0 M0 7.66 C1.71 1.65, 4.49 -4.44, 7.66 0" stroke="#f36d6b" stroke-width="2" fill="none"></path></g><g stroke-linecap="round" transform="translate(360.3498852438331 41.87510003740928) rotate(0 27.272512697094612 15.320208740146072)"><path d="M7.66 0 C26.41 3.87, 37.12 3.2, 46.88 0 M7.66 0 C19.34 -2.29, 29.83 -1.51, 46.88 0 M46.88 0 C54.86 2.64, 56.99 3.92, 54.55 7.66 M46.88 0 C47.92 2.88, 51.79 6.69, 54.55 7.66 M54.55 7.66 C55.45 12.51, 51.82 18.32, 54.55 22.98 M54.55 7.66 C54.53 11.58, 54.81 14.93, 54.55 22.98 M54.55 22.98 C57.11 27.61, 53.21 31.74, 46.88 30.64 M54.55 22.98 C53.48 26.65, 51.56 32.9, 46.88 30.64 M46.88 30.64 C28.26 34, 18.23 30.67, 7.66 30.64 M46.88 30.64 C35.25 32.66, 23.83 31.18, 7.66 30.64 M7.66 30.64 C2.84 32.87, 0.68 29.9, 0 22.98 M7.66 30.64 C-0.56 27.33, -0.1 30.48, 0 22.98 M0 22.98 C-2.15 17.5, 1.44 17.59, 0 7.66 M0 22.98 C-0.37 20.22, 1.52 15.7, 0 7.66 M0 7.66 C-2.72 3.69, 4.04 -0.79, 7.66 0 M0 7.66 C1.94 -1.89, -0.34 3.22, 7.66 0" stroke="#f36d6b" stroke-width="2" fill="none"></path></g><g stroke-linecap="round" transform="translate(489.4085040092741 41.04652400494834) rotate(0 27.272512697094612 15.320208740146072)"><path d="M7.66 0 C20.79 1.56, 40.34 2.67, 46.88 0 M7.66 0 C17.54 1.68, 25.77 1.04, 46.88 0 M46.88 0 C48.45 2.5, 52.15 6.15, 54.55 7.66 M46.88 0 C53.14 -4.56, 58.7 4.37, 54.55 7.66 M54.55 7.66 C52.61 11.07, 54.5 16.91, 54.55 22.98 M54.55 7.66 C55.6 12.24, 55.09 17.61, 54.55 22.98 M54.55 22.98 C53.62 26.83, 51.61 32.6, 46.88 30.64 M54.55 22.98 C58.29 27.61, 55.17 26.42, 46.88 30.64 M46.88 30.64 C32.67 30.26, 18.58 31.42, 7.66 30.64 M46.88 30.64 C31.59 31.91, 16.34 31.7, 7.66 30.64 M7.66 30.64 C-0.16 27.76, -0.09 30.17, 0 22.98 M7.66 30.64 C-0.05 34.67, 3.28 25.26, 0 22.98 M0 22.98 C-1.75 18.93, 2.82 14.73, 0 7.66 M0 22.98 C-1.34 17.77, 0.27 11.4, 0 7.66 M0 7.66 C1.69 -1.31, 0.04 2.8, 7.66 0 M0 7.66 C-1.88 -1.52, 6.25 -3.2, 7.66 0" stroke="#f36d6b" stroke-width="2" fill="none"></path></g><g stroke-linecap="round" transform="translate(550.7391073063345 40.39014742589359) rotate(0 27.272512697094612 15.320208740146072)"><path d="M7.66 0 C24.85 2.75, 32.61 3.51, 46.88 0 M7.66 0 C18.85 0.16, 25.83 0.73, 46.88 0 M46.88 0 C49.6 3.59, 55.54 -1.41, 54.55 7.66 M46.88 0 C56.14 1.81, 54.35 -1.08, 54.55 7.66 M54.55 7.66 C54.57 12.8, 54.72 18.3, 54.55 22.98 M54.55 7.66 C55.21 12.45, 54.39 15.91, 54.55 22.98 M54.55 22.98 C54.17 30.05, 55.25 30.23, 46.88 30.64 M54.55 22.98 C57.72 23.87, 55.23 32.1, 46.88 30.64 M46.88 30.64 C36.38 31.47, 28.11 32.78, 7.66 30.64 M46.88 30.64 C34.69 31.99, 20.46 29.64, 7.66 30.64 M7.66 30.64 C2.47 32.72, -2.26 31.59, 0 22.98 M7.66 30.64 C5.83 27.82, -2.63 30.65, 0 22.98 M0 22.98 C3.15 16.54, 2.25 14.68, 0 7.66 M0 22.98 C0.78 17.75, 0.85 11.65, 0 7.66 M0 7.66 C-2.52 5.35, 0.92 -3.54, 7.66 0 M0 7.66 C3.7 -0.65, 6.92 0.65, 7.66 0" stroke="#f36d6b" stroke-width="2" fill="none"></path></g><g stroke-linecap="round" transform="translate(616.1345577461288 41.312507841900526) rotate(0 27.272512697094612 15.320208740146072)"><path d="M7.66 0 C18.04 3.3, 33.37 2.25, 46.88 0 M7.66 0 C20.25 0.98, 35.18 1.53, 46.88 0 M46.88 0 C52.99 -3.97, 58.15 4.13, 54.55 7.66 M46.88 0 C51.79 -3.64, 55.6 0.01, 54.55 7.66 M54.55 7.66 C54.91 12.44, 54.1 17.69, 54.55 22.98 M54.55 7.66 C54.28 11.59, 54.49 17.24, 54.55 22.98 M54.55 22.98 C57.8 27.67, 54.75 26.97, 46.88 30.64 M54.55 22.98 C57.78 29.54, 51.4 31, 46.88 30.64 M46.88 30.64 C39.14 33, 24.68 31.1, 7.66 30.64 M46.88 30.64 C31.57 29.56, 18.93 32.04, 7.66 30.64 M7.66 30.64 C0.29 34.14, 2.85 25.63, 0 22.98 M7.66 30.64 C-0.07 33.21, 3.11 25.71, 0 22.98 M0 22.98 C1.79 21.52, 0.36 12.04, 0 7.66 M0 22.98 C0.53 16.47, -1.08 13.99, 0 7.66 M0 7.66 C-1.63 -0.99, 5.77 -2.78, 7.66 0 M0 7.66 C4.36 3.2, -1.74 -2.51, 7.66 0" stroke="#f36d6b" stroke-width="2" fill="none"></path></g><g stroke-linecap="round" transform="translate(32.789662208298296 143.01697877530276) rotate(0 27.272512697094612 15.320208740146072)"><path d="M7.66 0 C21.52 0.55, 25.7 0.28, 46.88 0 M7.66 0 C14.58 -1.45, 24.42 1.7, 46.88 0 M46.88 0 C54.52 0.2, 52.43 -0.68, 54.55 7.66 M46.88 0 C47.76 -3.41, 53.75 4.15, 54.55 7.66 M54.55 7.66 C52.74 13.65, 53.04 21.84, 54.55 22.98 M54.55 7.66 C55.46 13.93, 54.62 18.73, 54.55 22.98 M54.55 22.98 C56.38 28.65, 52.19 29.53, 46.88 30.64 M54.55 22.98 C56.02 23.76, 55.47 28.09, 46.88 30.64 M46.88 30.64 C35.09 33.58, 26.8 30.07, 7.66 30.64 M46.88 30.64 C36.32 30.37, 22.05 32.43, 7.66 30.64 M7.66 30.64 C-1.12 33.92, -1.81 28.28, 0 22.98 M7.66 30.64 C0.13 32.61, -1.91 29.6, 0 22.98 M0 22.98 C-0.47 20.73, 1.21 12.03, 0 7.66 M0 22.98 C0.96 19.05, -0.63 14.9, 0 7.66 M0 7.66 C1.49 2.18, 3.71 -2.6, 7.66 0 M0 7.66 C3.2 4.98, 1.07 3.52, 7.66 0" stroke="#f36d6b" stroke-width="2" fill="none"></path></g><g stroke-linecap="round" transform="translate(98.18511264809263 143.9393391913097) rotate(0 27.272512697094612 15.320208740146072)"><path d="M7.66 0 C13.69 -0.32, 21.75 -0.07, 46.88 0 M7.66 0 C20.28 2.4, 34.55 0.59, 46.88 0 M46.88 0 C49.88 -3.23, 50.86 -0.41, 54.55 7.66 M46.88 0 C51.2 1.6, 58.82 5.56, 54.55 7.66 M54.55 7.66 C52.64 13.72, 56.44 13.99, 54.55 22.98 M54.55 7.66 C54.99 12.66, 55.46 18.3, 54.55 22.98 M54.55 22.98 C54.74 26.98, 53.27 26.87, 46.88 30.64 M54.55 22.98 C58.02 25.53, 52.25 30.19, 46.88 30.64 M46.88 30.64 C41.91 31.34, 29.61 29.08, 7.66 30.64 M46.88 30.64 C34.19 32.17, 20.38 32.13, 7.66 30.64 M7.66 30.64 C0.74 30.84, -2.11 29.8, 0 22.98 M7.66 30.64 C0.64 32.15, 0.89 25.65, 0 22.98 M0 22.98 C1.11 16.72, 0.45 14.41, 0 7.66 M0 22.98 C-0.69 21.41, 0.35 16.7, 0 7.66 M0 7.66 C1.16 -0.05, 5.34 2.11, 7.66 0 M0 7.66 C-1.48 6.08, -0.73 1.63, 7.66 0" stroke="#f36d6b" stroke-width="2" fill="none"></path></g><g stroke-linecap="round" transform="translate(164.35930234607167 142.0567183091759) rotate(0 27.272512697094612 15.320208740146072)"><path d="M7.66 0 C16.01 -0.01, 32.14 -3.05, 46.88 0 M7.66 0 C18.26 -0.65, 25.26 -2.36, 46.88 0 M46.88 0 C48.31 -2.96, 53.86 3.94, 54.55 7.66 M46.88 0 C56.27 3.01, 52.53 -0.45, 54.55 7.66 M54.55 7.66 C56.47 10.72, 55.61 18.96, 54.55 22.98 M54.55 7.66 C55.29 13.1, 54.67 17.68, 54.55 22.98 M54.55 22.98 C55.83 24.32, 55.02 28.42, 46.88 30.64 M54.55 22.98 C54.81 27.64, 48.6 30.86, 46.88 30.64 M46.88 30.64 C32.15 28.39, 17.03 34, 7.66 30.64 M46.88 30.64 C34.04 32.94, 23.96 31.4, 7.66 30.64 M7.66 30.64 C0.45 32.35, -1.66 29.4, 0 22.98 M7.66 30.64 C3.44 28.2, 1.52 27.14, 0 22.98 M0 22.98 C0.28 18.69, -3.16 13.39, 0 7.66 M0 22.98 C0.66 17.38, 0.54 11.07, 0 7.66 M0 7.66 C2.78 4.67, 1.26 3.06, 7.66 0 M0 7.66 C-3.28 4.18, 5.61 -2.59, 7.66 0" stroke="#f36d6b" stroke-width="2" fill="none"></path></g><g stroke-linecap="round" transform="translate(229.754752785866 142.97907872518283) rotate(0 27.272512697094612 15.320208740146072)"><path d="M7.66 0 C20.17 -3.1, 28.06 -0.36, 46.88 0 M7.66 0 C22.12 -1.65, 36.84 -1.52, 46.88 0 M46.88 0 C51.3 1.39, 58.26 5.17, 54.55 7.66 M46.88 0 C49.98 -3, 54.5 -0.01, 54.55 7.66 M54.55 7.66 C55.99 15.46, 56.01 19.45, 54.55 22.98 M54.55 7.66 C54.76 11.62, 55.18 14.99, 54.55 22.98 M54.55 22.98 C57.57 25.87, 52.22 30.25, 46.88 30.64 M54.55 22.98 C51.16 28.31, 56.04 35.13, 46.88 30.64 M46.88 30.64 C35.69 33.56, 22.57 29.48, 7.66 30.64 M46.88 30.64 C30.92 31.38, 15.72 32.14, 7.66 30.64 M7.66 30.64 C0.89 31.96, 0.77 25.97, 0 22.98 M7.66 30.64 C4.07 29.69, 3.96 29.66, 0 22.98 M0 22.98 C-3.09 21.21, 1.68 14.02, 0 7.66 M0 22.98 C0.33 15.89, 0.95 11.6, 0 7.66 M0 7.66 C-1.29 5.62, -0.3 1.42, 7.66 0 M0 7.66 C3.06 -0.04, -1.26 4.03, 7.66 0" stroke="#f36d6b" stroke-width="2" fill="none"></path></g><g stroke-linecap="round" transform="translate(294.97486982738565 141.9422391659955) rotate(0 27.272512697094612 15.320208740146072)"><path d="M7.66 0 C16.87 0.23, 34.86 3.14, 46.88 0 M7.66 0 C17.78 -0.85, 31.24 1.33, 46.88 0 M46.88 0 C55.71 2.62, 52.79 -0.06, 54.55 7.66 M46.88 0 C51.95 -2.56, 57.75 5.7, 54.55 7.66 M54.55 7.66 C55.92 11.96, 54.25 16.74, 54.55 22.98 M54.55 7.66 C55.05 11.03, 55.72 16.43, 54.55 22.98 M54.55 22.98 C54.77 27.69, 49.04 30.83, 46.88 30.64 M54.55 22.98 C58.59 32.57, 52 31.19, 46.88 30.64 M46.88 30.64 C36.55 30.58, 31.11 27.63, 7.66 30.64 M46.88 30.64 C30.85 31.53, 16.1 31.34, 7.66 30.64 M7.66 30.64 C3.33 28.52, 1.32 27.26, 0 22.98 M7.66 30.64 C6.51 32.21, -1.75 28.66, 0 22.98 M0 22.98 C2.02 16.64, 3.3 13.3, 0 7.66 M0 22.98 C0.98 19.34, -0.58 15.25, 0 7.66 M0 7.66 C-2.85 3.97, 5.21 -2.25, 7.66 0 M0 7.66 C-3.82 6.58, 0.24 -3.98, 7.66 0" stroke="#f36d6b" stroke-width="2" fill="none"></path></g><g stroke-linecap="round" transform="translate(360.37032026718 142.86459958200243) rotate(0 27.272512697094612 15.320208740146072)"><path d="M7.66 0 C20.2 2.61, 25.29 -2.04, 46.88 0 M7.66 0 C15.92 1.28, 26.72 1.89, 46.88 0 M46.88 0 C50.24 -2.61, 54.51 0.33, 54.55 7.66 M46.88 0 C55.2 3.14, 52.26 4.4, 54.55 7.66 M54.55 7.66 C54.25 14.73, 55.1 19.14, 54.55 22.98 M54.55 7.66 C55.8 10.98, 54.73 15.85, 54.55 22.98 M54.55 22.98 C51.6 28.28, 55.51 34.54, 46.88 30.64 M54.55 22.98 C54.55 28.64, 49.41 31.31, 46.88 30.64 M46.88 30.64 C35.18 26.83, 20.04 28.69, 7.66 30.64 M46.88 30.64 C34.09 31.63, 23.35 29.92, 7.66 30.64 M7.66 30.64 C3.87 29.82, 3.44 29.45, 0 22.98 M7.66 30.64 C0.81 31.21, 2.44 23.5, 0 22.98 M0 22.98 C2.82 18.41, -0.46 12.44, 0 7.66 M0 22.98 C-0.71 20.55, -1.31 16.33, 0 7.66 M0 7.66 C2.66 0.3, -0.77 3.51, 7.66 0 M0 7.66 C-2.31 -1.42, 6.27 -3.92, 7.66 0" stroke="#f36d6b" stroke-width="2" fill="none"></path></g><g stroke-linecap="round" transform="translate(424.03348859282664 141.11366313353454) rotate(0 27.272512697094612 15.320208740146072)"><path d="M7.66 0 C19.26 -2.61, 27.23 -4.18, 46.88 0 M7.66 0 C18.38 1.04, 24.51 -1.58, 46.88 0 M46.88 0 C51.95 -2.22, 57.33 5.29, 54.55 7.66 M46.88 0 C49.71 1.85, 57.75 4.44, 54.55 7.66 M54.55 7.66 C54.94 12.64, 53.66 18.3, 54.55 22.98 M54.55 7.66 C54.86 10.66, 53.65 14.04, 54.55 22.98 M54.55 22.98 C58.06 31.99, 52 31.12, 46.88 30.64 M54.55 22.98 C51.96 28.75, 55.85 29.75, 46.88 30.64 M46.88 30.64 C39.1 28.11, 24.96 27.81, 7.66 30.64 M46.88 30.64 C33.83 29.84, 20.65 30.49, 7.66 30.64 M7.66 30.64 C6 32.01, -1.52 28.59, 0 22.98 M7.66 30.64 C5 26.06, 3.36 30.67, 0 22.98 M0 22.98 C-0.58 19.74, -2.29 16.85, 0 7.66 M0 22.98 C-0.99 18.12, 1.12 11.31, 0 7.66 M0 7.66 C-3.32 6.06, 0.54 -3.46, 7.66 0 M0 7.66 C3.71 -1.37, 1.88 -3.7, 7.66 0" stroke="#f36d6b" stroke-width="2" fill="none"></path></g><g stroke-linecap="round" transform="translate(489.428939032621 142.03602354954148) rotate(0 27.272512697094612 15.320208740146072)"><path d="M7.66 0 C18.68 -3.27, 33.2 -0.27, 46.88 0 M7.66 0 C19.91 -1.82, 33.9 -1.63, 46.88 0 M46.88 0 C54.78 2.73, 52.56 4.16, 54.55 7.66 M46.88 0 C55.19 1.88, 55.24 1.92, 54.55 7.66 M54.55 7.66 C53.74 13.94, 51.7 20.57, 54.55 22.98 M54.55 7.66 C53.43 11.48, 55.91 16.64, 54.55 22.98 M54.55 22.98 C54.55 28.57, 49.74 31.22, 46.88 30.64 M54.55 22.98 C58.41 27.2, 51.16 34.5, 46.88 30.64 M46.88 30.64 C38.91 28.18, 32.26 28.62, 7.66 30.64 M46.88 30.64 C34.49 29.81, 22.49 30.91, 7.66 30.64 M7.66 30.64 C1.04 31.14, 2.12 24.1, 0 22.98 M7.66 30.64 C5.92 33.22, -1.39 32.59, 0 22.98 M0 22.98 C-1.97 19.95, 1.65 11.66, 0 7.66 M0 22.98 C1.24 16.35, -1.05 12.78, 0 7.66 M0 7.66 C-2.01 -0.91, 5.78 -3.41, 7.66 0 M0 7.66 C-0.68 -1.15, 3.01 -0.99, 7.66 0" stroke="#f36d6b" stroke-width="2" fill="none"></path></g><g stroke-linecap="round" transform="translate(550.7595423296814 141.37964697048673) rotate(0 27.272512697094612 15.320208740146072)"><path d="M7.66 0 C14.39 0.03, 28.44 4.44, 46.88 0 M7.66 0 C21.97 -0.6, 37.72 1.88, 46.88 0 M46.88 0 C50.01 1.61, 57.33 4.19, 54.55 7.66 M46.88 0 C52.69 -0.63, 56.65 3.2, 54.55 7.66 M54.55 7.66 C51.58 14.65, 52.76 17.18, 54.55 22.98 M54.55 7.66 C55.67 13.6, 54.32 16.74, 54.55 22.98 M54.55 22.98 C52.3 28.67, 55.35 29.87, 46.88 30.64 M54.55 22.98 C53.71 31.94, 47.77 34.41, 46.88 30.64 M46.88 30.64 C38.61 28.57, 28.22 31, 7.66 30.64 M46.88 30.64 C38.92 31.16, 26.75 30.73, 7.66 30.64 M7.66 30.64 C4.68 26.65, 2.92 30.33, 0 22.98 M7.66 30.64 C1.16 35.14, 1.72 27.66, 0 22.98 M0 22.98 C1.82 16.95, 2.55 10.71, 0 7.66 M0 22.98 C-1.48 19.18, -0.97 11.38, 0 7.66 M0 7.66 C3.23 -0.86, 1.96 -3.22, 7.66 0 M0 7.66 C0.45 1.56, 6.47 2.37, 7.66 0" stroke="#f36d6b" stroke-width="2" fill="none"></path></g><g stroke-linecap="round" transform="translate(616.1549927694757 142.30200738649367) rotate(0 27.272512697094612 15.320208740146072)"><path d="M7.66 0 C17.21 3.85, 26.59 -1.62, 46.88 0 M7.66 0 C18.26 1.8, 25.08 1.24, 46.88 0 M46.88 0 C54.78 1.64, 55.15 2, 54.55 7.66 M46.88 0 C54.1 0.65, 54.77 1.28, 54.55 7.66 M54.55 7.66 C52.55 12.92, 53.96 15.58, 54.55 22.98 M54.55 7.66 C54.82 12.51, 53.95 17.22, 54.55 22.98 M54.55 22.98 C57.9 27.31, 51.27 34, 46.88 30.64 M54.55 22.98 C50.32 31.85, 49.91 30.86, 46.88 30.64 M46.88 30.64 C38.5 31.09, 25.36 31.63, 7.66 30.64 M46.88 30.64 C35.16 31.16, 26.03 28.92, 7.66 30.64 M7.66 30.64 C5.48 32.88, -1.21 32, 0 22.98 M7.66 30.64 C4.27 30.21, 1.33 25.09, 0 22.98 M0 22.98 C2.18 15.13, 0.92 13.69, 0 7.66 M0 22.98 C-0.52 17.92, 1.49 14.21, 0 7.66 M0 7.66 C-0.59 -0.66, 2.95 -0.86, 7.66 0 M0 7.66 C3.91 4.93, 4.3 4.44, 7.66 0" stroke="#f36d6b" stroke-width="2" fill="none"></path></g><g stroke-linecap="round" transform="translate(33.263454513440365 184.47831201350567) rotate(0 27.272512697094612 15.320208740146086)"><path d="M7.66 0 C19.04 2.98, 30 -2.64, 46.88 0 M7.66 0 C19.32 -0.26, 27.66 1.4, 46.88 0 M46.88 0 C51.04 0.61, 50.6 5.69, 54.55 7.66 M46.88 0 C49.94 -2.34, 58 4.75, 54.55 7.66 M54.55 7.66 C53.16 8.89, 57.03 14.45, 54.55 22.98 M54.55 7.66 C53.68 13, 54.33 20.97, 54.55 22.98 M54.55 22.98 C50.72 32.04, 51.51 27.6, 46.88 30.64 M54.55 22.98 C51.11 32.34, 53.07 27.06, 46.88 30.64 M46.88 30.64 C37.54 26.96, 26.38 33.41, 7.66 30.64 M46.88 30.64 C37.27 29.72, 30.19 29.88, 7.66 30.64 M7.66 30.64 C-0.68 33.98, 3.83 27.33, 0 22.98 M7.66 30.64 C5.23 26.34, 3.24 32.2, 0 22.98 M0 22.98 C1.83 18.36, -0.86 14.25, 0 7.66 M0 22.98 C1.16 17.48, -0.51 12.76, 0 7.66 M0 7.66 C0.29 5.43, 2.45 3.41, 7.66 0 M0 7.66 C-1.17 7.07, 0.12 2.97, 7.66 0" stroke="#f36d6b" stroke-width="2" fill="none"></path></g><g stroke-linecap="round" transform="translate(98.6589049532347 185.40067242951267) rotate(0 27.272512697094612 15.320208740146086)"><path d="M7.66 0 C18.89 -3.38, 28.36 -1.76, 46.88 0 M7.66 0 C18.22 1.55, 31.66 0.37, 46.88 0 M46.88 0 C48.04 3.13, 52.76 0.52, 54.55 7.66 M46.88 0 C55.45 2.19, 52.53 4.39, 54.55 7.66 M54.55 7.66 C56.76 10.31, 57.44 12.41, 54.55 22.98 M54.55 7.66 C54.48 13.24, 52.96 18.2, 54.55 22.98 M54.55 22.98 C54.06 25.05, 49.01 34.33, 46.88 30.64 M54.55 22.98 C55.62 24.51, 47.88 31.38, 46.88 30.64 M46.88 30.64 C30.15 32.45, 18.51 25.95, 7.66 30.64 M46.88 30.64 C39.49 30.39, 27.99 32.2, 7.66 30.64 M7.66 30.64 C6.38 29.88, 2.33 24.34, 0 22.98 M7.66 30.64 C5.79 34.76, 3.72 31.84, 0 22.98 M0 22.98 C-0.81 21.17, 0.08 11.71, 0 7.66 M0 22.98 C-0.89 18.91, -0.09 17.43, 0 7.66 M0 7.66 C-0.11 5.96, 1.53 3.93, 7.66 0 M0 7.66 C-2.43 5.53, 1.24 4.47, 7.66 0" stroke="#f36d6b" stroke-width="2" fill="none"></path></g><g stroke-linecap="round" transform="translate(164.57234075350198 183.40357240419843) rotate(0 92.71067338660748 16.06795911193157)"><path d="M8.03 0 C53.37 -4.76, 102.34 -2.34, 177.39 0 M8.03 0 C60.54 -3.67, 116.33 -1.7, 177.39 0 M177.39 0 C180.99 1.59, 183.12 0.71, 185.42 8.03 M177.39 0 C178.7 3.54, 183.82 7.25, 185.42 8.03 M185.42 8.03 C183.76 11.57, 187.65 11.79, 185.42 24.1 M185.42 8.03 C184.18 15.93, 185.76 19.6, 185.42 24.1 M185.42 24.1 C181.85 30.1, 183.75 31.05, 177.39 32.14 M185.42 24.1 C180.96 24.88, 185.7 28.85, 177.39 32.14 M177.39 32.14 C142.65 33.52, 108.8 27.81, 8.03 32.14 M177.39 32.14 C113.6 29.62, 48.89 33.28, 8.03 32.14 M8.03 32.14 C5.91 35.4, 0.42 32.17, 0 24.1 M8.03 32.14 C4.5 31.23, 4.42 29.89, 0 24.1 M0 24.1 C-1.33 18.75, -1.29 16.53, 0 8.03 M0 24.1 C-0.4 19.7, -0.84 13.19, 0 8.03 M0 8.03 C-1.14 6.56, 4.2 -0.81, 8.03 0 M0 8.03 C-1.86 6.39, 5.41 2.96, 8.03 0" stroke="#f36d6b" stroke-width="2" fill="none"></path></g><g stroke-linecap="round" transform="translate(360.84411257232205 184.32593282020537) rotate(0 27.272512697094612 15.320208740146057)"><path d="M7.66 0 C24.02 -0.29, 35.03 -3.29, 46.88 0 M7.66 0 C24 1.35, 36.46 1.19, 46.88 0 M46.88 0 C49.69 -1.97, 51.03 5.64, 54.55 7.66 M46.88 0 C50.39 4.57, 50.52 2.3, 54.55 7.66 M54.55 7.66 C56.53 8.74, 57.42 15.29, 54.55 22.98 M54.55 7.66 C54.68 9.9, 52.95 14.77, 54.55 22.98 M54.55 22.98 C55.56 27, 48.11 26.66, 46.88 30.64 M54.55 22.98 C57.5 24.8, 47.47 26.97, 46.88 30.64 M46.88 30.64 C36.11 27.89, 29.22 34.95, 7.66 30.64 M46.88 30.64 C37.27 31.7, 26.46 31.54, 7.66 30.64 M7.66 30.64 C2.97 33.36, 1.58 27.3, 0 22.98 M7.66 30.64 C6.97 31.07, -2.64 24.28, 0 22.98 M0 22.98 C-1.34 17.62, 2.36 11.74, 0 7.66 M0 22.98 C-0.73 18.07, -0.36 12.67, 0 7.66 M0 7.66 C1.52 1.74, 0.94 3.22, 7.66 0 M0 7.66 C2.73 5.51, 5.18 0.19, 7.66 0" stroke="#f36d6b" stroke-width="2" fill="none"></path></g><g stroke-linecap="round" transform="translate(424.5072808979687 182.57499637173748) rotate(0 27.272512697094612 15.320208740146057)"><path d="M7.66 0 C16.74 -3.76, 27.73 -1.59, 46.88 0 M7.66 0 C16.56 0.42, 26.06 -1.36, 46.88 0 M46.88 0 C48.47 3.08, 53.16 6.53, 54.55 7.66 M46.88 0 C47.97 -0.25, 52.76 0.2, 54.55 7.66 M54.55 7.66 C57.79 11.94, 52.43 14.68, 54.55 22.98 M54.55 7.66 C53.25 13.92, 55 19.27, 54.55 22.98 M54.55 22.98 C50.67 24.11, 54.56 27.78, 46.88 30.64 M54.55 22.98 C50.02 24.42, 50.51 29.97, 46.88 30.64 M46.88 30.64 C36.03 33.83, 17.73 32.33, 7.66 30.64 M46.88 30.64 C40.41 32.97, 30.9 32.7, 7.66 30.64 M7.66 30.64 C4.14 29.85, 3.84 28.46, 0 22.98 M7.66 30.64 C-0.08 26.84, 2.95 25.81, 0 22.98 M0 22.98 C2.35 18.99, 2.76 14.39, 0 7.66 M0 22.98 C-0.28 18.37, 0.74 10.47, 0 7.66 M0 7.66 C-1.61 5.78, 4.93 2.57, 7.66 0 M0 7.66 C2.62 2.75, 0.59 4.4, 7.66 0" stroke="#f36d6b" stroke-width="2" fill="none"></path></g><g stroke-linecap="round" transform="translate(489.90273133776304 183.49735678774442) rotate(0 27.272512697094612 15.320208740146086)"><path d="M7.66 0 C21.62 -1.01, 27.29 3.78, 46.88 0 M7.66 0 C20.15 -1.3, 33.18 1.23, 46.88 0 M46.88 0 C50.6 3.97, 51.05 2.34, 54.55 7.66 M46.88 0 C50.21 -2.35, 54.72 5.77, 54.55 7.66 M54.55 7.66 C52.52 8.51, 57.68 14.64, 54.55 22.98 M54.55 7.66 C54.66 10.65, 52.79 12.95, 54.55 22.98 M54.55 22.98 C57.12 25.23, 48.06 27.45, 46.88 30.64 M54.55 22.98 C53.06 27.42, 54.84 30.32, 46.88 30.64 M46.88 30.64 C37.53 33.72, 25.95 34.21, 7.66 30.64 M46.88 30.64 C31.82 32.64, 17.12 30.89, 7.66 30.64 M7.66 30.64 C6.4 31.01, -2.29 24.78, 0 22.98 M7.66 30.64 C5.5 28.36, -2.07 25.85, 0 22.98 M0 22.98 C2.39 17.49, 2.79 11.95, 0 7.66 M0 22.98 C0.67 17.08, -0.53 13.04, 0 7.66 M0 7.66 C2.37 5.12, 4.83 0.17, 7.66 0 M0 7.66 C-1.96 6.95, -0.32 -1.51, 7.66 0" stroke="#f36d6b" stroke-width="2" fill="none"></path></g><g stroke-linecap="round" transform="translate(551.2333346348234 182.8409802086897) rotate(0 27.272512697094612 15.320208740146086)"><path d="M7.66 0 C13.53 3.35, 25.36 -1.4, 46.88 0 M7.66 0 C19.23 1.93, 33.63 2.37, 46.88 0 M46.88 0 C48.49 -0.22, 52.99 0.51, 54.55 7.66 M46.88 0 C52.16 3.21, 50.15 7.1, 54.55 7.66 M54.55 7.66 C57.14 12.79, 51.93 13.74, 54.55 22.98 M54.55 7.66 C53.14 10.98, 55.61 16.25, 54.55 22.98 M54.55 22.98 C50.61 24.9, 50.7 30.06, 46.88 30.64 M54.55 22.98 C57.4 27.77, 48.27 34.48, 46.88 30.64 M46.88 30.64 C27.62 33.91, 19.43 34.33, 7.66 30.64 M46.88 30.64 C32.71 30.78, 18.87 31.36, 7.66 30.64 M7.66 30.64 C0.26 27.33, 2.56 26.11, 0 22.98 M7.66 30.64 C0.48 28.41, 0.33 31.4, 0 22.98 M0 22.98 C2.75 16.81, 1.72 12.99, 0 7.66 M0 22.98 C-0.73 18.13, 0.79 11.8, 0 7.66 M0 7.66 C2.28 2.72, 0.85 3.82, 7.66 0 M0 7.66 C-2.87 1.05, 4.13 -0.24, 7.66 0" stroke="#f36d6b" stroke-width="2" fill="none"></path></g><g stroke-linecap="round" transform="translate(616.6287850746178 183.76334062469658) rotate(0 27.272512697094612 15.320208740146086)"><path d="M7.66 0 C19.59 -2.34, 29.3 -2.89, 46.88 0 M7.66 0 C16.8 1.38, 25.58 -0.71, 46.88 0 M46.88 0 C50.44 -2.04, 54.69 5.35, 54.55 7.66 M46.88 0 C47.6 4.55, 53.99 -0.94, 54.55 7.66 M54.55 7.66 C52.44 8.37, 55.32 15.34, 54.55 22.98 M54.55 7.66 C55.23 10.75, 52.74 14.8, 54.55 22.98 M54.55 22.98 C53.25 27.51, 54.47 30.37, 46.88 30.64 M54.55 22.98 C50.82 31.93, 56.39 29.77, 46.88 30.64 M46.88 30.64 C36.42 34.43, 22.05 31.61, 7.66 30.64 M46.88 30.64 C34.38 30.67, 16.88 28.83, 7.66 30.64 M7.66 30.64 C5.12 28.66, -1.8 26.15, 0 22.98 M7.66 30.64 C2.88 33.95, -0.12 32, 0 22.98 M0 22.98 C1.68 17.9, 2.67 15.73, 0 7.66 M0 22.98 C1.03 19.68, 1 14.47, 0 7.66 M0 7.66 C-1.7 6.38, 0.06 -1.31, 7.66 0 M0 7.66 C1.58 2.32, 4.01 0.59, 7.66 0" stroke="#f36d6b" stroke-width="2" fill="none"></path></g></svg>