<?xml version="1.0" standalone="no"?>
<!DOCTYPE svg PUBLIC "-//W3C//DTD SVG 1.1//EN" "http://www.w3.org/Graphics/SVG/1.1/DTD/svg11.dtd">
<svg version="1.1" xmlns="http://www.w3.org/2000/svg" viewBox="0 0 283.8509944899497 123.87927289208766" width="283.8509944899497" height="123.87927289208766"><!-- svg-source:excalidraw --><metadata></metadata><defs><style class="style-fonts">
      </style></defs><g transform="translate(86.90246847597064 11.150847043441473) rotate(0 0.7029913301946635 49.756716729276086)" stroke="none"><path fill="#f36d6b" d="M 1.98,0.07 Q 1.98,0.07 1.99,1.41 2.00,2.75 1.92,4.69 1.83,6.64 1.85,7.82 1.86,9.00 1.72,10.96 1.57,12.93 1.62,14.06 1.66,15.19 1.55,17.25 1.44,19.31 1.50,20.60 1.56,21.88 1.55,23.80 1.55,25.71 1.53,28.13 1.51,30.56 1.58,33.17 1.64,35.78 1.83,37.07 2.03,38.35 2.14,40.14 2.24,41.92 2.50,44.02 2.75,46.11 2.95,48.06 3.15,50.00 3.26,52.07 3.38,54.13 3.39,55.76 3.40,57.38 3.50,59.59 3.59,61.81 3.66,63.78 3.72,65.74 3.73,67.49 3.73,69.24 3.87,71.74 4.00,74.23 3.97,76.18 3.94,78.13 3.87,80.18 3.80,82.24 3.71,84.51 3.62,86.78 3.75,87.95 3.88,89.11 3.93,90.71 3.97,92.30 4.02,93.77 4.06,95.25 4.12,97.37 4.19,99.50 4.13,99.87 4.07,100.23 3.90,100.55 3.73,100.88 3.46,101.13 3.20,101.39 2.86,101.54 2.53,101.70 2.16,101.74 1.80,101.78 1.44,101.70 1.08,101.62 0.76,101.43 0.45,101.25 0.21,100.97 -0.02,100.69 -0.16,100.34 -0.30,100.00 -0.32,99.64 -0.34,99.27 -0.24,98.91 -0.14,98.56 0.05,98.25 0.26,97.95 0.55,97.73 0.84,97.50 1.19,97.38 1.54,97.27 1.91,97.26 2.28,97.26 2.62,97.38 2.97,97.50 3.27,97.72 3.56,97.94 3.77,98.24 3.97,98.55 4.07,98.90 4.17,99.26 4.15,99.62 4.14,99.99 4.00,100.33 3.87,100.68 3.63,100.96 3.39,101.24 3.08,101.43 2.76,101.62 2.40,101.70 2.04,101.78 1.68,101.74 1.31,101.70 0.98,101.55 0.64,101.39 0.38,101.14 0.11,100.89 -0.06,100.56 -0.23,100.24 -0.29,99.88 -0.35,99.51 -0.35,99.51 -0.35,99.51 -0.30,97.40 -0.25,95.28 -0.23,93.82 -0.21,92.37 -0.21,90.83 -0.21,89.30 -0.19,88.05 -0.17,86.80 -0.29,84.55 -0.41,82.31 -0.55,80.31 -0.69,78.32 -0.87,76.39 -1.06,74.46 -1.15,71.99 -1.24,69.52 -1.43,67.63 -1.62,65.75 -1.57,63.80 -1.52,61.85 -1.49,59.69 -1.46,57.54 -1.56,55.86 -1.65,54.18 -1.62,52.21 -1.58,50.24 -1.57,48.29 -1.55,46.34 -1.51,44.23 -1.47,42.12 -1.55,40.38 -1.63,38.65 -1.64,37.30 -1.66,35.95 -1.86,33.30 -2.05,30.66 -2.21,28.23 -2.36,25.81 -2.47,23.83 -2.57,21.86 -2.50,20.58 -2.42,19.29 -2.51,17.18 -2.59,15.07 -2.48,13.93 -2.38,12.78 -2.37,10.78 -2.37,8.78 -2.24,7.69 -2.10,6.60 -2.15,4.60 -2.19,2.60 -2.09,1.26 -1.98,-0.07 -1.94,-0.30 -1.91,-0.54 -1.81,-0.76 -1.72,-0.98 -1.58,-1.17 -1.44,-1.37 -1.25,-1.52 -1.07,-1.67 -0.85,-1.77 -0.63,-1.88 -0.40,-1.93 -0.16,-1.98 0.07,-1.97 0.30,-1.96 0.54,-1.89 0.77,-1.83 0.97,-1.71 1.18,-1.59 1.36,-1.43 1.53,-1.26 1.66,-1.06 1.79,-0.86 1.86,-0.63 1.94,-0.40 1.96,-0.16 1.98,0.07 1.98,0.07 L 1.98,0.07 Z"></path></g><g transform="translate(91.61439961907854 13.272013895050577) rotate(0 54.895427827755725 48.66762255099325)" stroke="none"><path fill="#f36d6b" d="M -0.48,-1.59 Q -0.48,-1.59 1.09,-2.12 2.67,-2.66 5.15,-3.08 7.63,-3.50 11.28,-3.77 14.93,-4.03 19.21,-4.22 23.50,-4.42 28.13,-4.44 32.77,-4.46 37.36,-4.27 41.95,-4.07 44.23,-3.98 46.51,-3.89 49.76,-3.65 53.00,-3.40 54.83,-3.31 56.66,-3.22 59.67,-2.78 62.68,-2.34 66.26,-1.70 69.84,-1.05 73.17,-0.37 76.49,0.30 79.72,1.09 82.95,1.89 85.93,2.73 88.92,3.58 91.46,4.67 93.99,5.75 96.04,7.11 98.09,8.47 99.13,9.09 100.16,9.72 101.29,10.87 102.42,12.02 103.91,13.84 105.41,15.67 106.72,17.45 108.03,19.23 108.75,20.98 109.47,22.74 110.33,25.28 111.18,27.83 111.82,30.26 112.46,32.68 112.85,35.37 113.24,38.06 113.15,40.41 113.05,42.75 113.08,44.04 113.10,45.33 112.88,46.98 112.66,48.63 112.09,50.82 111.52,53.01 110.78,55.41 110.04,57.81 108.88,60.67 107.72,63.54 106.33,66.14 104.95,68.74 103.74,70.73 102.53,72.73 101.30,74.50 100.06,76.28 98.53,77.97 97.01,79.67 95.29,81.30 93.57,82.92 91.77,84.38 89.96,85.83 88.12,87.11 86.28,88.39 84.44,89.54 82.59,90.69 80.68,91.69 78.77,92.70 76.62,93.59 74.47,94.47 72.36,95.25 70.24,96.02 68.02,96.71 65.80,97.39 63.61,98.03 61.43,98.67 59.13,99.25 56.83,99.82 54.31,100.23 51.79,100.63 49.20,100.90 46.62,101.17 44.13,101.38 41.64,101.60 39.15,101.69 36.67,101.78 34.40,101.77 32.13,101.76 30.08,101.77 28.03,101.79 26.06,101.81 24.10,101.84 21.45,101.78 18.80,101.71 16.89,101.73 14.97,101.74 13.14,101.73 11.31,101.72 9.65,101.76 7.99,101.79 6.49,101.85 4.99,101.91 3.75,101.98 2.51,102.06 0.37,101.89 -1.76,101.71 -2.06,101.60 -2.37,101.49 -2.62,101.28 -2.87,101.08 -3.05,100.80 -3.22,100.53 -3.30,100.22 -3.38,99.90 -3.35,99.58 -3.32,99.25 -3.19,98.95 -3.06,98.66 -2.85,98.42 -2.63,98.17 -2.35,98.01 -2.06,97.86 -1.75,97.79 -1.43,97.73 -1.10,97.78 -0.78,97.82 -0.49,97.97 -0.20,98.11 0.02,98.34 0.25,98.57 0.39,98.86 0.53,99.15 0.58,99.48 0.62,99.80 0.56,100.12 0.50,100.44 0.34,100.72 0.18,101.00 -0.06,101.22 -0.30,101.43 -0.60,101.56 -0.89,101.69 -1.22,101.72 -1.54,101.74 -1.86,101.66 -2.17,101.58 -2.45,101.41 -2.72,101.23 -2.92,100.98 -3.12,100.73 -3.24,100.42 -3.35,100.11 -3.36,99.79 -3.36,99.47 -3.27,99.16 -3.17,98.85 -2.98,98.58 -2.79,98.32 -2.53,98.13 -2.26,97.94 -1.95,97.85 -1.64,97.75 -1.32,97.76 -0.99,97.77 -0.99,97.77 -0.99,97.77 0.76,97.94 2.53,98.11 3.77,98.20 5.01,98.29 6.53,98.37 8.04,98.45 9.73,98.53 11.41,98.62 13.21,98.72 15.00,98.83 16.93,98.89 18.85,98.95 21.48,98.98 24.10,99.02 26.07,99.05 28.04,99.09 30.09,99.11 32.15,99.13 34.36,99.14 36.57,99.15 38.99,99.07 41.41,98.98 43.88,98.76 46.35,98.55 48.86,98.29 51.37,98.03 53.78,97.65 56.19,97.26 58.44,96.70 60.68,96.13 62.85,95.50 65.02,94.86 67.17,94.20 69.32,93.53 71.39,92.77 73.45,92.01 75.48,91.16 77.52,90.32 79.35,89.36 81.17,88.41 82.95,87.29 84.73,86.17 86.48,84.94 88.23,83.71 89.94,82.31 91.65,80.91 93.26,79.34 94.88,77.78 96.26,76.20 97.65,74.62 98.79,72.92 99.93,71.21 101.03,69.25 102.13,67.29 103.35,64.81 104.58,62.33 105.55,59.60 106.53,56.86 107.07,54.53 107.60,52.21 107.91,50.11 108.22,48.01 108.43,46.61 108.64,45.21 108.72,44.02 108.81,42.83 108.64,40.75 108.46,38.67 108.13,36.21 107.79,33.76 107.26,31.42 106.73,29.08 106.05,26.76 105.37,24.44 104.79,23.05 104.21,21.66 103.11,19.78 102.01,17.89 100.88,16.10 99.76,14.31 99.00,13.27 98.24,12.23 97.43,11.46 96.61,10.68 94.77,9.44 92.93,8.21 90.56,7.19 88.18,6.17 85.25,5.35 82.31,4.53 79.13,3.76 75.95,2.99 72.65,2.34 69.36,1.69 65.82,1.09 62.28,0.48 59.35,0.10 56.42,-0.28 54.61,-0.48 52.81,-0.69 49.61,-0.91 46.42,-1.13 44.13,-1.20 41.84,-1.26 37.32,-1.42 32.80,-1.59 28.23,-1.52 23.65,-1.45 19.42,-1.19 15.18,-0.94 11.72,-0.61 8.25,-0.28 5.98,0.20 3.71,0.70 2.09,1.14 0.48,1.59 0.29,1.62 0.09,1.66 -0.10,1.64 -0.30,1.63 -0.49,1.57 -0.68,1.51 -0.86,1.41 -1.03,1.30 -1.17,1.16 -1.31,1.02 -1.41,0.84 -1.52,0.67 -1.57,0.48 -1.63,0.29 -1.65,0.09 -1.66,-0.10 -1.62,-0.30 -1.58,-0.50 -1.50,-0.68 -1.42,-0.86 -1.29,-1.02 -1.17,-1.18 -1.01,-1.30 -0.85,-1.42 -0.67,-1.50 -0.48,-1.59 -0.48,-1.59 L -0.48,-1.59 Z"></path></g><g transform="translate(82.2543378034868 31.057051110495408) rotate(0 -27.965466528261345 1.3028370200174066)" stroke="none"><path fill="#f36d6b" d="M -0.49,2.29 Q -0.49,2.29 -1.20,2.20 -1.91,2.11 -3.07,2.19 -4.22,2.28 -5.96,2.38 -7.70,2.48 -10.07,2.54 -12.44,2.59 -14.82,2.54 -17.19,2.49 -18.62,2.56 -20.05,2.63 -22.13,2.62 -24.21,2.61 -26.91,2.66 -29.61,2.71 -32.45,2.79 -35.30,2.88 -36.81,3.01 -38.33,3.14 -40.01,3.33 -41.70,3.52 -43.99,3.90 -46.29,4.29 -47.93,4.69 -49.58,5.09 -53.08,5.17 -56.58,5.25 -56.96,5.08 -57.34,4.91 -57.64,4.63 -57.94,4.35 -58.14,3.99 -58.34,3.62 -58.41,3.21 -58.49,2.81 -58.42,2.40 -58.36,1.99 -58.17,1.62 -57.98,1.25 -57.69,0.96 -57.39,0.67 -57.02,0.50 -56.64,0.32 -56.23,0.27 -55.82,0.22 -55.41,0.30 -55.01,0.39 -54.65,0.59 -54.29,0.80 -54.02,1.12 -53.75,1.43 -53.59,1.81 -53.43,2.19 -53.41,2.61 -53.38,3.02 -53.48,3.42 -53.59,3.82 -53.82,4.17 -54.05,4.51 -54.37,4.77 -54.70,5.02 -55.09,5.16 -55.48,5.29 -55.89,5.30 -56.31,5.31 -56.70,5.18 -57.10,5.05 -57.43,4.80 -57.76,4.56 -58.00,4.22 -58.24,3.88 -58.35,3.48 -58.47,3.08 -58.45,2.67 -58.43,2.26 -58.28,1.87 -58.14,1.48 -57.87,1.16 -57.61,0.84 -57.25,0.63 -56.90,0.41 -56.50,0.31 -56.10,0.22 -55.68,0.26 -55.27,0.30 -55.27,0.30 -55.27,0.30 -52.79,0.33 -50.31,0.35 -48.58,0.19 -46.84,0.03 -44.47,-0.09 -42.09,-0.23 -40.29,-0.40 -38.50,-0.57 -37.00,-0.58 -35.50,-0.59 -32.66,-0.83 -29.82,-1.07 -27.14,-1.33 -24.46,-1.59 -22.34,-1.84 -20.23,-2.10 -18.83,-2.13 -17.44,-2.17 -15.04,-2.47 -12.64,-2.77 -10.29,-2.88 -7.94,-3.00 -6.21,-3.04 -4.48,-3.08 -2.68,-2.89 -0.88,-2.70 -0.19,-2.50 0.49,-2.29 0.76,-2.20 1.02,-2.11 1.26,-1.95 1.50,-1.80 1.69,-1.59 1.89,-1.39 2.03,-1.14 2.17,-0.90 2.24,-0.62 2.32,-0.35 2.33,-0.07 2.34,0.21 2.28,0.48 2.22,0.76 2.09,1.02 1.97,1.27 1.79,1.49 1.61,1.71 1.38,1.87 1.15,2.04 0.89,2.15 0.63,2.26 0.35,2.30 0.07,2.34 -0.21,2.32 -0.49,2.29 -0.49,2.29 L -0.49,2.29 Z"></path></g><g transform="translate(85.54941873616144 104.36318221470562) rotate(0 -37.77470936808072 0.6948274145518809)" stroke="none"><path fill="#f36d6b" d="M 0.17,1.68 Q 0.17,1.68 -1.26,1.90 -2.69,2.13 -4.28,2.37 -5.86,2.62 -7.53,2.87 -9.20,3.12 -11.58,3.25 -13.95,3.37 -17.14,3.40 -20.32,3.43 -23.97,3.37 -27.63,3.31 -31.34,3.17 -35.04,3.03 -38.64,2.76 -42.23,2.49 -45.79,2.22 -49.36,1.95 -52.97,1.68 -56.58,1.41 -60.05,1.24 -63.51,1.07 -65.29,1.07 -67.06,1.07 -68.80,1.09 -70.54,1.12 -72.94,1.34 -75.34,1.56 -75.65,1.54 -75.96,1.53 -76.25,1.41 -76.54,1.29 -76.77,1.09 -77.01,0.89 -77.17,0.63 -77.33,0.36 -77.40,0.05 -77.46,-0.24 -77.43,-0.55 -77.40,-0.86 -77.27,-1.14 -77.14,-1.42 -76.92,-1.65 -76.71,-1.87 -76.43,-2.02 -76.16,-2.16 -75.85,-2.22 -75.54,-2.27 -75.24,-2.21 -74.93,-2.16 -74.65,-2.02 -74.38,-1.87 -74.17,-1.65 -73.95,-1.42 -73.82,-1.14 -73.69,-0.86 -73.66,-0.55 -73.62,-0.24 -73.69,0.06 -73.76,0.36 -73.92,0.63 -74.08,0.89 -74.32,1.09 -74.55,1.30 -74.84,1.41 -75.13,1.53 -75.44,1.54 -75.75,1.56 -76.05,1.48 -76.35,1.39 -76.61,1.22 -76.87,1.04 -77.06,0.79 -77.24,0.55 -77.34,0.25 -77.44,-0.03 -77.44,-0.34 -77.44,-0.65 -77.34,-0.95 -77.24,-1.24 -77.05,-1.49 -76.87,-1.74 -76.61,-1.91 -76.35,-2.09 -76.05,-2.17 -75.75,-2.25 -75.75,-2.25 -75.75,-2.25 -73.12,-2.16 -70.49,-2.07 -68.72,-1.99 -66.95,-1.91 -65.17,-1.77 -63.39,-1.64 -59.88,-1.49 -56.38,-1.34 -52.77,-1.09 -49.16,-0.85 -45.60,-0.61 -42.03,-0.38 -38.50,-0.16 -34.96,0.05 -31.29,0.12 -27.62,0.19 -24.01,0.16 -20.41,0.13 -17.33,-0.00 -14.26,-0.15 -12.00,-0.43 -9.75,-0.71 -8.06,-0.94 -6.36,-1.16 -4.72,-1.35 -3.07,-1.53 -1.62,-1.60 -0.17,-1.68 0.02,-1.68 0.23,-1.67 0.43,-1.62 0.62,-1.57 0.80,-1.47 0.98,-1.37 1.13,-1.24 1.28,-1.10 1.40,-0.93 1.51,-0.76 1.58,-0.56 1.65,-0.37 1.67,-0.17 1.69,0.02 1.66,0.23 1.63,0.43 1.56,0.62 1.48,0.81 1.36,0.98 1.24,1.14 1.09,1.27 0.93,1.41 0.75,1.50 0.57,1.59 0.37,1.64 0.17,1.68 0.17,1.68 L 0.17,1.68 Z"></path></g><g transform="translate(205.94076101991027 54.171495108195316) rotate(0 33.955116735019715 -1.3896879618783018)" stroke="none"><path fill="#f36d6b" d="M -0.10,-1.68 Q -0.10,-1.68 1.53,-1.83 3.18,-1.98 5.78,-2.06 8.39,-2.13 9.87,-2.31 11.35,-2.50 14.86,-2.63 18.36,-2.76 20.36,-2.83 22.35,-2.90 26.49,-3.04 30.62,-3.18 32.69,-3.25 34.75,-3.31 39.38,-3.41 44.01,-3.52 46.58,-3.56 49.15,-3.59 52.63,-3.65 56.12,-3.71 58.00,-3.78 59.89,-3.86 61.87,-3.93 63.86,-4.00 65.83,-4.24 67.79,-4.49 68.07,-4.46 68.34,-4.44 68.60,-4.32 68.85,-4.21 69.06,-4.02 69.26,-3.83 69.39,-3.59 69.53,-3.34 69.58,-3.07 69.62,-2.80 69.58,-2.52 69.54,-2.25 69.41,-2.00 69.29,-1.75 69.09,-1.56 68.89,-1.36 68.64,-1.24 68.39,-1.12 68.11,-1.09 67.83,-1.06 67.56,-1.11 67.29,-1.17 67.05,-1.31 66.81,-1.45 66.63,-1.66 66.44,-1.87 66.34,-2.13 66.23,-2.38 66.21,-2.66 66.19,-2.94 66.27,-3.21 66.34,-3.48 66.49,-3.71 66.64,-3.94 66.86,-4.11 67.08,-4.28 67.34,-4.38 67.61,-4.47 67.88,-4.47 68.16,-4.47 68.43,-4.39 68.69,-4.30 68.91,-4.14 69.14,-3.97 69.30,-3.74 69.46,-3.52 69.53,-3.25 69.61,-2.98 69.60,-2.70 69.59,-2.43 69.49,-2.17 69.39,-1.91 69.21,-1.69 69.03,-1.48 68.80,-1.33 68.56,-1.19 68.29,-1.12 68.02,-1.06 68.02,-1.06 68.02,-1.06 65.99,-1.04 63.96,-1.01 61.95,-0.96 59.94,-0.90 58.06,-0.91 56.18,-0.93 52.69,-0.84 49.21,-0.75 46.65,-0.67 44.09,-0.59 39.48,-0.43 34.87,-0.27 32.82,-0.18 30.76,-0.08 26.63,0.14 22.49,0.37 20.52,0.47 18.55,0.56 15.08,0.82 11.62,1.08 10.09,1.13 8.57,1.17 5.98,1.37 3.39,1.58 1.75,1.63 0.10,1.68 -0.10,1.67 -0.30,1.66 -0.49,1.60 -0.69,1.53 -0.86,1.43 -1.04,1.32 -1.18,1.18 -1.32,1.04 -1.43,0.86 -1.53,0.69 -1.60,0.49 -1.66,0.30 -1.67,0.10 -1.68,-0.10 -1.64,-0.30 -1.61,-0.50 -1.52,-0.68 -1.44,-0.87 -1.31,-1.03 -1.19,-1.19 -1.03,-1.31 -0.87,-1.44 -0.68,-1.52 -0.50,-1.61 -0.30,-1.64 -0.10,-1.68 -0.10,-1.68 L -0.10,-1.68 Z"></path></g><g transform="translate(205.08031611862043 55.559824626318104) rotate(0 0.3352639188580042 -1.650250727293347)" stroke="none"><path fill="#f36d6b" d="M 0.47,-2.54 Q 0.47,-2.54 1.38,-2.38 2.28,-2.22 3.26,-1.56 4.24,-0.89 4.63,0.36 5.02,1.63 4.72,2.68 4.42,3.73 4.31,3.80 4.20,3.87 3.97,4.13 3.75,4.40 3.47,4.60 3.18,4.80 2.86,4.93 2.54,5.06 2.19,5.11 1.85,5.16 1.50,5.12 1.16,5.09 0.83,4.97 0.50,4.85 0.21,4.66 -0.07,4.47 -0.30,4.21 -0.54,3.96 -0.71,3.65 -0.87,3.35 -0.96,3.01 -1.05,2.68 -1.06,2.33 -1.07,1.98 -0.99,1.64 -0.91,1.30 -0.76,0.99 -0.60,0.68 -0.77,2.01 -0.93,3.33 -1.39,1.77 -1.85,0.21 -2.11,-1.26 -2.37,-2.74 -2.32,-4.21 -2.28,-5.67 -2.10,-5.90 -1.91,-6.14 -1.81,-6.50 -1.70,-6.87 -1.51,-7.20 -1.31,-7.53 -1.05,-7.80 -0.78,-8.08 -0.46,-8.28 -0.14,-8.48 0.22,-8.60 0.58,-8.72 0.96,-8.75 1.34,-8.78 1.72,-8.72 2.09,-8.65 2.44,-8.50 2.79,-8.35 3.10,-8.12 3.40,-7.89 3.64,-7.60 3.88,-7.30 4.04,-6.95 4.21,-6.61 4.28,-6.23 4.36,-5.86 4.34,-5.48 4.32,-5.10 4.31,-3.92 4.30,-2.75 3.50,-1.73 2.70,-0.70 1.30,0.03 -0.09,0.78 -2.10,0.50 -4.11,0.22 -4.74,-0.69 -5.37,-1.62 -5.43,-2.88 -5.49,-4.14 -3.82,-5.86 -2.15,-7.57 -0.96,-7.86 0.23,-8.15 1.71,-7.61 3.18,-7.08 3.92,-5.55 4.66,-4.01 4.06,-2.34 3.45,-0.68 1.95,0.27 0.45,1.23 -1.01,1.49 -2.47,1.75 -2.88,1.77 -3.29,1.78 -3.70,1.79 -4.11,1.80 -4.51,1.70 -4.90,1.61 -5.27,1.42 -5.63,1.24 -5.94,0.97 -6.25,0.70 -6.49,0.37 -6.72,0.04 -6.87,-0.33 -7.02,-0.71 -7.08,-1.12 -7.13,-1.52 -7.09,-1.93 -7.04,-2.34 -6.90,-2.72 -6.76,-3.10 -6.54,-3.44 -6.31,-3.78 -6.01,-4.06 -5.70,-4.33 -5.34,-4.53 -4.98,-4.72 -4.59,-4.82 -4.19,-4.93 -2.81,-5.90 -1.43,-6.88 0.06,-7.12 1.55,-7.36 3.24,-7.00 4.92,-6.64 6.10,-5.30 7.28,-3.95 7.32,-2.22 7.35,-0.49 6.39,1.05 5.42,2.61 3.95,3.61 2.48,4.62 0.44,4.59 -1.58,4.57 -2.72,3.48 -3.85,2.39 -3.73,0.49 -3.61,-1.41 -2.36,-2.65 -1.11,-3.90 0.16,-4.32 1.45,-4.74 2.92,-4.44 4.38,-4.14 3.67,-4.36 2.96,-4.59 3.35,-4.58 3.75,-4.57 4.14,-4.47 4.52,-4.37 4.87,-4.17 5.22,-3.98 5.51,-3.71 5.80,-3.44 6.02,-3.11 6.24,-2.78 6.37,-2.40 6.50,-2.03 6.54,-1.63 6.58,-1.23 6.52,-0.84 6.47,-0.45 6.32,-0.08 6.17,0.28 5.94,0.60 5.70,0.92 5.40,1.18 5.10,1.44 4.74,1.62 4.38,1.79 3.99,1.88 3.61,1.97 1.78,2.07 -0.04,2.17 -1.20,2.00 -2.37,1.83 -2.75,1.74 -3.14,1.64 -3.49,1.46 -3.84,1.28 -4.14,1.02 -4.44,0.76 -4.66,0.44 -4.89,0.11 -5.04,-0.25 -5.18,-0.62 -5.23,-1.01 -5.28,-1.40 -5.24,-1.79 -5.19,-2.19 -5.05,-2.56 -4.92,-2.93 -4.69,-3.26 -4.47,-3.59 -4.18,-3.85 -3.88,-4.12 -3.53,-4.30 -3.18,-4.49 -2.80,-4.59 -2.42,-4.68 -2.02,-4.69 -1.62,-4.69 -0.67,-5.21 0.27,-5.73 0.66,-5.84 1.05,-5.94 1.46,-5.95 1.86,-5.95 2.26,-5.86 2.66,-5.77 3.02,-5.59 3.38,-5.41 3.69,-5.15 4.00,-4.88 4.24,-4.55 4.47,-4.22 4.62,-3.84 4.78,-3.47 4.83,-3.06 4.89,-2.66 4.85,-2.26 4.80,-1.85 4.67,-1.47 4.53,-1.09 4.31,-0.75 4.08,-0.41 3.78,-0.14 3.48,0.13 3.13,0.32 2.77,0.52 2.75,1.06 2.74,1.60 2.41,2.00 2.08,2.39 1.65,2.66 1.21,2.93 0.71,3.05 0.21,3.17 -0.29,3.12 -0.81,3.07 -1.28,2.86 -1.75,2.65 -2.12,2.30 -2.50,1.95 -2.75,1.50 -2.99,1.05 -3.08,0.54 -3.17,0.04 -3.10,-0.46 -3.02,-0.97 -2.79,-1.43 -2.55,-1.89 -2.18,-2.25 -1.81,-2.60 -1.35,-2.83 -0.88,-3.05 -0.37,-3.11 0.13,-3.17 0.63,-3.07 1.13,-2.96 1.58,-2.70 2.02,-2.44 2.36,-2.06 2.70,-1.67 2.89,-1.19 3.09,-0.72 3.13,-0.20 3.16,0.30 3.03,0.80 2.90,1.29 2.61,1.72 2.33,2.15 1.93,2.47 1.52,2.79 1.03,2.96 0.55,3.13 0.03,3.13 -0.47,3.14 -0.96,2.98 -1.45,2.82 -1.86,2.52 -2.28,2.21 -2.57,1.79 -2.86,1.37 -3.01,0.87 -3.15,0.38 -3.13,-0.13 -3.11,-0.64 -2.92,-1.12 -2.74,-1.60 -2.74,-1.60 -2.74,-1.60 -1.23,-3.66 0.27,-5.73 0.66,-5.84 1.05,-5.94 1.46,-5.95 1.86,-5.95 2.26,-5.86 2.66,-5.77 3.02,-5.59 3.38,-5.41 3.69,-5.15 4.00,-4.88 4.24,-4.55 4.47,-4.22 4.62,-3.84 4.78,-3.47 4.83,-3.06 4.89,-2.66 4.85,-2.26 4.80,-1.85 4.67,-1.47 4.53,-1.09 4.31,-0.75 4.08,-0.41 3.78,-0.14 3.48,0.13 3.13,0.32 2.77,0.52 2.80,0.59 2.84,0.67 1.42,1.08 0.00,1.50 -1.18,1.66 -2.37,1.83 -2.75,1.74 -3.14,1.65 -3.49,1.46 -3.84,1.28 -4.14,1.02 -4.44,0.76 -4.66,0.44 -4.89,0.11 -5.03,-0.25 -5.18,-0.61 -5.23,-1.01 -5.28,-1.40 -5.24,-1.79 -5.19,-2.19 -5.05,-2.56 -4.92,-2.93 -4.69,-3.26 -4.47,-3.59 -4.18,-3.85 -3.88,-4.11 -3.53,-4.30 -3.18,-4.49 -2.80,-4.59 -2.42,-4.68 -2.02,-4.69 -1.62,-4.69 -0.53,-4.49 0.54,-4.30 1.75,-4.44 2.96,-4.59 3.35,-4.58 3.75,-4.57 4.14,-4.47 4.52,-4.37 4.87,-4.17 5.22,-3.98 5.51,-3.71 5.80,-3.44 6.02,-3.11 6.24,-2.78 6.37,-2.40 6.50,-2.03 6.54,-1.63 6.58,-1.24 6.52,-0.84 6.47,-0.45 6.32,-0.08 6.17,0.28 5.94,0.60 5.70,0.92 5.40,1.18 5.10,1.44 4.74,1.62 4.38,1.79 4.00,1.88 3.61,1.97 2.74,1.49 1.88,1.02 1.10,-0.09 0.32,-1.22 1.41,-1.11 2.49,-1.01 1.09,-0.84 -0.31,-0.68 -1.80,0.55 -3.29,1.78 -3.70,1.79 -4.11,1.80 -4.51,1.70 -4.90,1.61 -5.27,1.42 -5.63,1.24 -5.94,0.97 -6.25,0.70 -6.49,0.37 -6.72,0.04 -6.87,-0.33 -7.02,-0.71 -7.08,-1.12 -7.13,-1.52 -7.09,-1.93 -7.04,-2.34 -6.90,-2.72 -6.76,-3.10 -6.54,-3.44 -6.31,-3.78 -6.01,-4.06 -5.70,-4.33 -5.34,-4.53 -4.98,-4.72 -4.59,-4.82 -4.19,-4.93 -2.88,-4.43 -1.57,-3.93 -0.34,-2.71 0.89,-1.50 0.80,-2.67 0.71,-3.83 -0.74,-4.65 -2.20,-5.47 -1.54,-4.61 -0.87,-3.75 -1.39,-4.95 -1.91,-6.14 -1.81,-6.50 -1.70,-6.87 -1.51,-7.20 -1.32,-7.53 -1.05,-7.80 -0.78,-8.08 -0.46,-8.28 -0.14,-8.48 0.22,-8.60 0.58,-8.72 0.96,-8.75 1.34,-8.78 1.72,-8.72 2.09,-8.66 2.44,-8.50 2.79,-8.35 3.10,-8.12 3.40,-7.89 3.64,-7.60 3.88,-7.30 4.04,-6.95 4.21,-6.61 4.28,-6.23 4.36,-5.86 4.34,-5.48 4.32,-5.10 3.98,-4.68 3.64,-4.26 3.72,-3.12 3.80,-1.98 3.92,-0.78 4.04,0.40 4.12,2.13 4.20,3.87 3.97,4.13 3.75,4.40 3.47,4.60 3.18,4.80 2.86,4.93 2.54,5.06 2.19,5.11 1.85,5.16 1.50,5.12 1.16,5.09 0.83,4.97 0.50,4.86 0.21,4.66 -0.07,4.47 -0.30,4.22 -0.54,3.96 -0.71,3.65 -0.87,3.35 -0.96,3.01 -1.05,2.68 -1.06,2.33 -1.07,1.98 -0.99,1.64 -0.91,1.30 -0.76,0.99 -0.60,0.68 -0.38,0.55 -0.15,0.42 0.36,1.62 0.89,2.82 0.20,2.68 -0.47,2.54 -0.77,2.44 -1.07,2.35 -1.33,2.19 -1.60,2.02 -1.82,1.80 -2.04,1.58 -2.20,1.31 -2.36,1.04 -2.45,0.75 -2.54,0.45 -2.56,0.14 -2.58,-0.16 -2.52,-0.47 -2.46,-0.78 -2.33,-1.06 -2.20,-1.34 -2.01,-1.59 -1.81,-1.83 -1.57,-2.02 -1.32,-2.21 -1.04,-2.34 -0.75,-2.47 -0.45,-2.52 -0.14,-2.58 0.16,-2.56 0.47,-2.54 0.47,-2.54 L 0.47,-2.54 Z"></path></g><g transform="translate(85.55483925807357 32.80637546017172) rotate(0 1.1291517026828615 -1.0354820358248489)" stroke="none"><path fill="#f36d6b" d="M -0.88,-2.50 Q -0.88,-2.50 0.18,-2.75 1.25,-3.00 2.77,-1.98 4.29,-0.95 4.56,0.18 4.83,1.33 3.56,3.18 2.30,5.03 0.21,5.52 -1.87,6.01 -3.07,5.32 -4.28,4.63 -4.84,3.48 -5.41,2.32 -5.41,0.62 -5.40,-1.08 -4.89,-2.20 -4.39,-3.32 -3.51,-4.27 -2.64,-5.22 -1.30,-5.87 0.02,-6.52 2.10,-6.59 4.19,-6.67 5.37,-5.78 6.56,-4.89 7.08,-3.52 7.59,-2.15 7.08,0.43 6.57,3.01 4.67,4.08 2.78,5.14 1.29,5.31 -0.18,5.47 -1.65,5.10 -3.12,4.73 -4.27,3.39 -5.42,2.06 -5.49,0.34 -5.55,-1.37 -4.39,-2.96 -3.22,-4.55 -1.68,-5.56 -0.15,-6.58 1.17,-7.15 2.50,-7.71 3.91,-7.91 5.33,-8.11 6.75,-7.45 8.17,-6.79 8.87,-5.33 9.56,-3.86 9.27,-2.18 8.99,-0.51 7.67,1.00 6.36,2.51 4.59,3.30 2.81,4.09 1.08,4.29 -0.65,4.48 -2.17,4.15 -3.70,3.82 -4.88,2.83 -6.07,1.84 -6.51,0.16 -6.95,-1.50 -6.30,-3.17 -5.65,-4.85 -4.29,-5.90 -2.93,-6.96 -1.51,-7.34 -0.09,-7.73 1.31,-7.34 2.72,-6.96 3.59,-5.83 4.47,-4.70 4.81,-3.62 5.14,-2.53 4.18,-1.30 3.22,-0.06 3.19,0.31 3.15,0.70 3.02,1.07 2.89,1.43 2.67,1.76 2.46,2.09 2.17,2.35 1.89,2.61 1.55,2.80 1.20,2.99 0.83,3.09 0.45,3.19 0.06,3.20 -0.32,3.21 -0.70,3.12 -1.08,3.04 -1.42,2.87 -1.77,2.69 -2.07,2.44 -2.37,2.19 -2.59,1.87 -2.82,1.56 -2.97,1.20 -3.11,0.83 -3.17,0.45 -3.22,0.06 -3.03,0.80 -2.83,1.54 -3.00,1.05 -3.18,0.55 -3.18,0.03 -3.19,-0.48 -3.03,-0.98 -2.87,-1.48 -2.55,-1.90 -2.24,-2.32 -1.81,-2.61 -1.38,-2.91 -0.88,-3.06 -0.38,-3.20 0.13,-3.18 0.65,-3.16 1.14,-2.97 1.63,-2.78 2.03,-2.45 2.43,-2.11 2.71,-1.67 2.98,-1.22 3.10,-0.72 3.22,-0.21 3.17,0.30 3.12,0.82 2.90,1.30 2.69,1.78 2.33,2.16 1.98,2.54 1.52,2.79 1.06,3.04 0.55,3.14 0.03,3.23 -0.48,3.15 -0.99,3.07 -1.46,2.83 -1.92,2.59 -2.29,2.21 -2.65,1.84 -2.87,1.37 -3.10,0.89 -3.16,0.37 -3.22,-0.13 -3.12,-0.65 -3.01,-1.16 -2.74,-1.61 -2.48,-2.06 -2.09,-2.40 -1.69,-2.74 -1.21,-2.94 -0.72,-3.14 -0.20,-3.18 0.31,-3.21 0.81,-3.08 1.32,-2.94 1.76,-2.65 2.19,-2.36 2.71,-1.21 3.22,-0.06 3.19,0.31 3.15,0.70 3.02,1.07 2.89,1.43 2.67,1.76 2.46,2.08 2.17,2.35 1.89,2.61 1.55,2.80 1.21,2.99 0.83,3.09 0.45,3.19 0.06,3.20 -0.32,3.21 -0.70,3.12 -1.08,3.04 -1.42,2.87 -1.77,2.69 -2.07,2.44 -2.37,2.19 -2.59,1.87 -2.82,1.56 -2.97,1.20 -3.11,0.84 -3.17,0.45 -3.22,0.06 -2.15,-0.64 -1.08,-1.36 0.55,-1.66 2.18,-1.97 3.49,-2.03 4.79,-2.09 3.16,-1.21 1.53,-0.33 0.37,-0.75 -0.79,-1.17 0.23,-0.70 1.26,-0.24 0.20,0.26 -0.86,0.77 0.34,1.39 1.54,2.01 1.21,2.25 0.88,2.50 0.57,2.57 0.26,2.64 -0.05,2.63 -0.37,2.62 -0.68,2.54 -0.99,2.46 -1.27,2.30 -1.55,2.15 -1.79,1.93 -2.02,1.71 -2.20,1.44 -2.37,1.18 -2.48,0.88 -2.59,0.57 -2.62,0.26 -2.65,-0.05 -2.60,-0.37 -2.56,-0.69 -2.44,-0.98 -2.32,-1.28 -2.13,-1.54 -1.94,-1.80 -1.70,-2.01 -1.45,-2.21 -1.17,-2.36 -0.88,-2.50 -0.88,-2.50 L -0.88,-2.50 Z"></path></g><g transform="translate(86.94456035272651 105.43121057494581) rotate(0 0.6079731594134046 -1.2159661984917989)" stroke="none"><path fill="#f36d6b" d="M -1.08,-2.40 Q -1.08,-2.40 -0.07,-2.88 0.92,-3.35 2.26,-3.47 3.61,-3.58 4.78,-3.03 5.94,-2.48 6.68,-0.61 7.41,1.24 6.97,2.98 6.52,4.72 5.41,5.98 4.29,7.23 3.17,7.54 2.06,7.84 0.27,6.02 -1.51,4.20 -1.91,2.28 -2.31,0.36 -2.18,-1.11 -2.05,-2.59 -1.47,-3.91 -0.88,-5.22 0.12,-6.07 1.13,-6.91 2.33,-7.17 3.53,-7.43 5.22,-6.19 6.92,-4.96 7.08,-2.67 7.23,-0.37 6.36,0.70 5.48,1.77 2.80,1.89 0.13,2.01 -0.71,1.25 -1.55,0.50 -2.06,-1.54 -2.57,-3.58 -1.97,-5.74 -1.36,-7.90 0.59,-9.18 2.54,-10.46 5.31,-9.84 8.08,-9.21 8.74,-7.95 9.40,-6.69 9.11,-5.18 8.81,-3.66 7.67,-2.39 6.52,-1.11 5.53,-0.50 4.54,0.11 3.80,0.56 3.06,1.01 2.68,1.18 2.29,1.35 1.88,1.42 1.47,1.49 1.05,1.46 0.63,1.43 0.23,1.31 -0.16,1.18 -0.51,0.96 -0.87,0.74 -1.16,0.44 -1.46,0.14 -1.67,-0.21 -1.88,-0.57 -2.01,-0.97 -2.13,-1.37 -2.15,-1.79 -2.17,-2.20 -2.09,-2.61 -2.01,-3.03 -1.84,-3.41 -1.67,-3.79 -1.40,-4.11 -1.14,-4.44 -0.81,-4.70 -0.48,-4.95 -1.28,-3.61 -2.07,-2.27 -1.77,-3.56 -1.46,-4.85 1.80,-4.49 5.07,-4.13 4.87,-2.82 4.68,-1.51 3.94,-0.48 3.19,0.54 1.62,0.89 0.06,1.24 -1.44,1.05 -2.95,0.85 -4.06,0.45 -5.18,0.04 -5.41,-0.21 -5.65,-0.47 -6.02,-0.67 -6.39,-0.86 -6.70,-1.14 -7.01,-1.42 -7.25,-1.76 -7.48,-2.10 -7.63,-2.49 -7.78,-2.88 -7.83,-3.29 -7.87,-3.71 -7.82,-4.12 -7.77,-4.53 -7.62,-4.92 -7.48,-5.31 -7.24,-5.66 -7.00,-6.00 -6.69,-6.27 -6.38,-6.55 -6.01,-6.74 -5.64,-6.93 -5.23,-7.03 -4.83,-7.13 -4.41,-7.13 -4.00,-7.13 -3.59,-7.03 -3.19,-6.93 -2.39,-7.36 -1.58,-7.79 -1.03,-7.73 -0.47,-7.67 0.03,-7.44 0.53,-7.20 0.94,-6.82 1.35,-6.44 1.61,-5.94 1.88,-5.45 1.97,-4.90 2.06,-4.35 1.97,-3.80 1.88,-3.25 1.62,-2.75 1.36,-2.26 0.96,-1.87 0.55,-1.49 0.05,-1.25 -0.45,-1.01 -1.00,-0.95 -1.56,-0.89 -2.11,-1.01 -2.65,-1.12 -3.13,-1.41 -3.61,-1.70 -3.98,-2.12 -4.34,-2.55 -4.55,-3.07 -4.76,-3.58 -4.79,-4.14 -4.82,-4.70 -4.67,-5.24 -4.52,-5.78 -4.21,-6.24 -3.90,-6.71 -3.46,-7.04 -3.01,-7.38 -2.48,-7.56 -1.95,-7.74 -1.40,-7.75 -0.84,-7.75 -0.31,-7.57 0.21,-7.40 0.66,-7.06 1.11,-6.72 1.42,-6.26 1.74,-5.80 1.89,-5.26 2.04,-4.72 2.01,-4.16 1.98,-3.61 1.78,-3.09 1.57,-2.57 1.21,-2.14 0.85,-1.71 0.37,-1.42 -0.10,-1.13 -0.64,-1.01 -1.19,-0.89 -1.19,-0.89 -1.19,-0.89 -3.42,-0.68 -5.65,-0.47 -6.02,-0.67 -6.39,-0.86 -6.70,-1.14 -7.01,-1.42 -7.25,-1.76 -7.48,-2.10 -7.63,-2.49 -7.78,-2.88 -7.83,-3.29 -7.87,-3.71 -7.82,-4.12 -7.77,-4.53 -7.62,-4.92 -7.48,-5.31 -7.24,-5.65 -7.00,-6.00 -6.69,-6.27 -6.38,-6.55 -6.01,-6.74 -5.64,-6.93 -5.23,-7.03 -4.83,-7.13 -4.41,-7.13 -4.00,-7.13 -3.59,-7.03 -3.19,-6.93 -2.83,-6.57 -2.48,-6.20 -1.47,-5.80 -0.46,-5.40 -0.78,-3.92 -1.11,-2.45 1.24,-1.40 3.59,-0.35 3.98,-1.47 4.37,-2.59 3.71,-0.79 3.06,1.01 2.68,1.18 2.29,1.35 1.88,1.42 1.47,1.49 1.05,1.46 0.63,1.43 0.23,1.31 -0.15,1.18 -0.51,0.96 -0.87,0.74 -1.16,0.44 -1.46,0.14 -1.67,-0.21 -1.88,-0.57 -2.01,-0.97 -2.13,-1.37 -2.15,-1.78 -2.17,-2.20 -2.09,-2.61 -2.02,-3.03 -1.84,-3.41 -1.67,-3.79 -1.41,-4.11 -1.14,-4.44 -0.81,-4.70 -0.48,-4.95 -0.19,-5.11 0.09,-5.26 1.27,-5.71 2.46,-6.16 3.26,-5.42 4.05,-4.68 4.00,-3.48 3.95,-2.29 2.51,-2.79 1.07,-3.29 1.58,-2.29 2.09,-1.30 3.06,-0.84 4.03,-0.38 3.93,0.88 3.83,2.14 2.41,2.19 1.00,2.23 2.03,1.89 3.07,1.55 2.07,1.98 1.08,2.40 0.77,2.49 0.47,2.59 0.15,2.61 -0.15,2.63 -0.47,2.57 -0.78,2.51 -1.07,2.38 -1.36,2.25 -1.61,2.06 -1.86,1.86 -2.06,1.61 -2.25,1.36 -2.38,1.07 -2.51,0.78 -2.57,0.47 -2.63,0.15 -2.61,-0.15 -2.59,-0.47 -2.49,-0.77 -2.40,-1.08 -2.24,-1.35 -2.07,-1.62 -1.85,-1.85 -1.62,-2.07 -1.35,-2.24 -1.08,-2.40 -1.08,-2.40 L -1.08,-2.40 Z"></path></g><g transform="translate(13.812151011902642 35.243761511842024) rotate(0 11.030662692997907 -0.7776295313658963)" stroke="none"><path fill="#f36d6b" d="M -0.89,-2.43 Q -0.89,-2.43 0.04,-2.81 0.98,-3.19 2.30,-3.47 3.62,-3.74 5.61,-3.97 7.60,-4.20 9.12,-4.17 10.63,-4.14 12.31,-4.18 13.99,-4.23 15.21,-4.22 16.43,-4.22 19.24,-4.38 22.05,-4.53 22.53,-4.46 23.00,-4.38 23.43,-4.15 23.86,-3.93 24.19,-3.58 24.52,-3.23 24.73,-2.79 24.93,-2.35 24.98,-1.87 25.04,-1.39 24.93,-0.92 24.83,-0.45 24.58,-0.04 24.33,0.37 23.97,0.68 23.60,0.99 23.15,1.17 22.70,1.35 22.22,1.38 21.74,1.41 21.27,1.28 20.81,1.15 20.41,0.88 20.01,0.61 19.72,0.22 19.42,-0.15 19.27,-0.61 19.11,-1.06 19.11,-1.55 19.11,-2.03 19.27,-2.49 19.42,-2.94 19.71,-3.33 20.00,-3.71 20.40,-3.98 20.80,-4.26 21.26,-4.39 21.73,-4.52 22.21,-4.49 22.69,-4.46 23.14,-4.29 23.59,-4.11 23.96,-3.80 24.33,-3.48 24.58,-3.07 24.83,-2.66 24.93,-2.19 25.03,-1.72 24.98,-1.24 24.93,-0.76 24.73,-0.32 24.53,0.11 24.20,0.46 23.86,0.81 23.44,1.04 23.01,1.27 22.54,1.34 22.06,1.42 22.06,1.42 22.06,1.42 20.56,1.44 19.05,1.46 17.74,1.46 16.43,1.45 15.20,1.46 13.98,1.46 12.28,1.40 10.58,1.33 9.29,1.34 8.00,1.35 6.89,1.42 5.78,1.49 4.29,1.65 2.80,1.80 1.84,2.12 0.89,2.43 0.58,2.50 0.28,2.58 -0.03,2.57 -0.34,2.57 -0.64,2.49 -0.94,2.41 -1.22,2.26 -1.49,2.11 -1.73,1.90 -1.96,1.69 -2.13,1.43 -2.31,1.17 -2.41,0.88 -2.52,0.59 -2.56,0.28 -2.59,-0.03 -2.55,-0.34 -2.51,-0.65 -2.39,-0.94 -2.28,-1.23 -2.10,-1.48 -1.92,-1.74 -1.68,-1.94 -1.44,-2.15 -1.17,-2.29 -0.89,-2.43 -0.89,-2.43 L -0.89,-2.43 Z"></path></g></svg>