<?xml version="1.0" standalone="no"?>
<!DOCTYPE svg PUBLIC "-//W3C//DTD SVG 1.1//EN" "http://www.w3.org/Graphics/SVG/1.1/DTD/svg11.dtd">
<svg version="1.1" xmlns="http://www.w3.org/2000/svg" viewBox="0 0 267.54656819623324 117.62838401131397" width="267.54656819623324" height="117.62838401131397"><!-- svg-source:excalidraw --><metadata></metadata><defs><style class="style-fonts">
      </style></defs><g transform="translate(38.192757361498934 10.173715136831603) rotate(0 27.526444012702882 47.77056262057658)" stroke="none"><path fill="#f36d6b" d="M 0.23,-1.60 Q 0.23,-1.60 1.59,-1.49 2.95,-1.38 5.02,-0.88 7.08,-0.39 9.83,0.45 12.58,1.30 15.60,2.38 18.63,3.46 21.67,4.69 24.71,5.91 27.70,7.19 30.69,8.47 33.28,9.73 35.88,10.99 37.92,12.26 39.97,13.52 41.68,14.89 43.39,16.26 44.85,17.51 46.31,18.76 47.50,19.88 48.70,20.99 49.69,22.21 50.69,23.43 51.52,24.80 52.36,26.16 53.07,27.80 53.79,29.43 54.37,31.27 54.96,33.11 55.42,34.92 55.88,36.72 56.42,38.79 56.95,40.85 57.05,42.56 57.14,44.27 57.09,46.10 57.04,47.94 56.93,49.66 56.82,51.37 56.53,52.93 56.25,54.49 55.69,56.05 55.14,57.61 54.33,59.56 53.53,61.51 52.55,62.97 51.58,64.42 50.28,66.00 48.99,67.58 47.36,69.33 45.73,71.08 44.09,72.67 42.45,74.25 40.87,75.61 39.30,76.96 37.64,78.16 35.98,79.37 34.12,80.43 32.26,81.49 30.49,82.48 28.72,83.47 26.91,84.47 25.11,85.47 23.28,86.44 21.45,87.42 19.51,88.64 17.58,89.85 16.10,90.99 14.62,92.12 13.42,93.12 12.21,94.11 10.64,95.53 9.06,96.95 8.83,97.12 8.60,97.29 8.33,97.38 8.05,97.47 7.77,97.46 7.48,97.45 7.21,97.36 6.94,97.26 6.71,97.08 6.49,96.91 6.33,96.66 6.17,96.42 6.10,96.15 6.03,95.87 6.05,95.58 6.07,95.30 6.18,95.03 6.30,94.77 6.49,94.55 6.68,94.34 6.92,94.19 7.17,94.05 7.45,93.99 7.74,93.94 8.02,93.97 8.31,94.01 8.56,94.14 8.82,94.26 9.03,94.46 9.23,94.66 9.36,94.92 9.49,95.18 9.53,95.46 9.57,95.74 9.52,96.03 9.47,96.31 9.33,96.56 9.19,96.81 8.98,97.00 8.77,97.20 8.50,97.31 8.24,97.43 7.95,97.45 7.67,97.48 7.39,97.41 7.11,97.35 6.87,97.19 6.62,97.04 6.44,96.82 6.26,96.60 6.16,96.33 6.06,96.06 6.05,95.77 6.04,95.48 6.12,95.21 6.20,94.93 6.37,94.70 6.53,94.47 6.53,94.47 6.53,94.47 8.37,92.94 10.21,91.42 11.51,90.55 12.81,89.68 14.41,88.54 16.00,87.40 18.00,86.08 20.00,84.76 21.79,83.77 23.58,82.78 25.37,81.74 27.15,80.70 28.88,79.70 30.62,78.70 32.30,77.67 33.99,76.65 35.51,75.52 37.02,74.39 38.45,73.09 39.88,71.78 41.31,70.17 42.74,68.55 44.11,66.76 45.48,64.97 46.54,63.40 47.60,61.82 48.40,60.55 49.21,59.28 50.08,57.65 50.95,56.03 51.45,54.80 51.94,53.57 52.25,52.33 52.55,51.09 52.66,49.49 52.76,47.90 52.75,46.19 52.73,44.48 52.67,43.00 52.61,41.53 52.41,39.60 52.20,37.66 51.77,35.98 51.34,34.30 50.77,32.62 50.21,30.94 49.61,29.47 49.02,28.00 48.42,26.76 47.81,25.53 47.08,24.39 46.35,23.24 45.36,22.09 44.36,20.93 43.03,19.66 41.69,18.39 40.11,17.12 38.53,15.86 36.60,14.68 34.67,13.50 32.13,12.29 29.59,11.09 26.62,9.86 23.64,8.63 20.64,7.48 17.64,6.33 14.66,5.35 11.69,4.36 9.03,3.65 6.37,2.93 4.39,2.55 2.42,2.18 1.09,1.89 -0.23,1.60 -0.42,1.55 -0.61,1.50 -0.78,1.40 -0.95,1.31 -1.10,1.17 -1.24,1.04 -1.34,0.87 -1.45,0.71 -1.52,0.53 -1.58,0.34 -1.60,0.15 -1.62,-0.04 -1.59,-0.23 -1.56,-0.43 -1.49,-0.61 -1.41,-0.79 -1.30,-0.95 -1.18,-1.10 -1.03,-1.23 -0.88,-1.35 -0.71,-1.44 -0.53,-1.53 -0.34,-1.57 -0.15,-1.61 0.04,-1.61 0.23,-1.60 0.23,-1.60 L 0.23,-1.60 Z"></path></g><g transform="translate(40.96536094614271 10.697557555172693) rotate(0 79.29102344454691 48.37855565965484)" stroke="none"><path fill="#f36d6b" d="M -0.04,-1.63 Q -0.04,-1.63 1.69,-1.72 3.43,-1.81 6.32,-1.67 9.20,-1.54 10.93,-1.51 12.65,-1.47 16.32,-1.23 19.99,-0.99 22.19,-0.88 24.39,-0.76 28.44,-0.50 32.49,-0.24 34.74,-0.12 36.99,-0.00 41.17,0.30 45.35,0.61 47.76,0.79 50.18,0.98 53.96,1.31 57.75,1.64 62.31,2.14 66.87,2.63 69.31,2.89 71.74,3.15 74.78,3.51 77.82,3.88 79.47,3.99 81.12,4.11 83.38,4.47 85.64,4.84 86.92,4.92 88.19,5.00 90.22,5.47 92.24,5.93 93.47,6.12 94.70,6.31 96.73,6.95 98.76,7.58 100.02,7.84 101.29,8.10 103.44,8.88 105.59,9.66 106.89,10.03 108.19,10.41 110.34,11.22 112.48,12.02 113.80,12.42 115.12,12.82 117.19,13.81 119.26,14.80 120.41,15.19 121.55,15.59 123.50,16.70 125.45,17.80 126.57,18.31 127.69,18.81 129.45,19.93 131.20,21.04 133.46,22.67 135.71,24.30 137.90,25.96 140.10,27.62 142.09,29.25 144.07,30.88 145.98,32.59 147.88,34.31 149.58,36.18 151.27,38.06 152.82,40.31 154.37,42.56 155.26,43.74 156.15,44.92 157.06,47.01 157.96,49.10 158.51,51.53 159.05,53.96 159.32,56.31 159.58,58.66 159.51,60.84 159.43,63.02 159.09,64.84 158.75,66.66 158.41,67.98 158.07,69.31 156.94,71.18 155.81,73.05 152.68,75.83 149.56,78.60 146.70,80.46 143.84,82.31 140.87,83.71 137.91,85.10 134.48,86.39 131.05,87.68 127.15,88.73 123.26,89.78 119.21,90.43 115.16,91.07 111.43,91.45 107.71,91.82 104.01,92.02 100.32,92.23 96.84,92.31 93.37,92.40 89.84,92.43 86.31,92.47 83.11,92.68 79.90,92.89 76.63,93.13 73.36,93.37 70.25,93.52 67.15,93.68 64.15,93.89 61.15,94.10 58.59,94.34 56.03,94.58 53.46,94.93 50.89,95.28 48.89,95.55 46.88,95.83 45.29,96.21 43.69,96.58 42.15,96.86 40.61,97.13 39.19,97.38 37.76,97.63 36.33,97.82 34.89,98.01 33.27,98.14 31.65,98.27 29.86,98.35 28.07,98.43 26.19,98.45 24.30,98.46 22.40,98.46 20.50,98.45 18.70,98.45 16.89,98.46 15.43,98.51 13.96,98.57 12.64,98.63 11.31,98.69 9.76,98.87 8.21,99.05 5.63,99.13 3.04,99.21 2.66,99.05 2.29,98.89 1.98,98.62 1.67,98.35 1.47,98.00 1.26,97.65 1.18,97.25 1.10,96.85 1.15,96.44 1.21,96.04 1.38,95.67 1.56,95.30 1.85,95.01 2.13,94.72 2.50,94.53 2.86,94.35 3.27,94.29 3.67,94.23 4.07,94.30 4.47,94.38 4.83,94.57 5.19,94.77 5.46,95.07 5.74,95.37 5.90,95.75 6.07,96.12 6.11,96.53 6.14,96.93 6.05,97.33 5.95,97.73 5.74,98.07 5.52,98.42 5.20,98.68 4.89,98.94 4.51,99.08 4.12,99.23 3.72,99.24 3.31,99.26 2.92,99.14 2.53,99.03 2.19,98.79 1.86,98.56 1.62,98.23 1.37,97.90 1.25,97.51 1.13,97.12 1.13,96.71 1.14,96.30 1.28,95.92 1.42,95.53 1.67,95.21 1.92,94.89 2.26,94.67 2.61,94.44 3.00,94.34 3.40,94.24 3.80,94.27 4.21,94.30 4.21,94.30 4.21,94.30 6.06,94.30 7.90,94.30 9.61,94.38 11.31,94.47 12.63,94.52 13.95,94.58 15.41,94.63 16.88,94.68 18.67,94.67 20.47,94.66 22.34,94.62 24.22,94.57 26.04,94.51 27.86,94.45 29.63,94.34 31.39,94.24 32.97,94.16 34.55,94.09 35.93,94.03 37.32,93.97 38.76,93.86 40.21,93.76 41.67,93.67 43.14,93.58 44.84,93.35 46.54,93.12 48.54,92.89 50.54,92.67 53.16,92.31 55.78,91.96 58.37,91.72 60.97,91.47 63.99,91.26 67.02,91.04 70.09,90.89 73.17,90.73 76.45,90.49 79.73,90.25 83.01,90.03 86.29,89.81 89.79,89.77 93.30,89.73 96.73,89.64 100.17,89.54 103.80,89.33 107.43,89.12 111.08,88.74 114.72,88.37 118.63,87.73 122.53,87.09 126.28,86.05 130.04,85.02 133.34,83.74 136.64,82.46 139.41,81.12 142.17,79.77 144.80,77.99 147.43,76.22 150.17,73.74 152.91,71.27 153.83,69.71 154.75,68.15 155.23,67.06 155.72,65.96 156.15,64.43 156.59,62.89 156.67,60.94 156.76,59.00 156.48,56.81 156.20,54.62 155.69,52.48 155.19,50.34 154.33,48.49 153.46,46.65 152.78,45.39 152.09,44.14 150.64,42.05 149.18,39.97 147.57,38.22 145.96,36.48 144.08,34.86 142.20,33.23 140.22,31.70 138.24,30.17 136.03,28.61 133.81,27.06 131.58,25.61 129.35,24.15 127.60,23.18 125.86,22.21 124.84,21.56 123.83,20.91 121.93,20.01 120.04,19.11 118.95,18.55 117.86,17.98 115.85,17.18 113.83,16.38 112.60,15.85 111.37,15.31 109.15,14.64 106.93,13.98 105.72,13.46 104.52,12.94 102.41,12.34 100.30,11.73 99.06,11.30 97.82,10.87 95.84,10.37 93.86,9.86 92.70,9.49 91.55,9.11 89.61,8.71 87.68,8.32 86.45,8.01 85.21,7.71 82.98,7.40 80.75,7.10 79.13,6.81 77.51,6.52 74.48,6.16 71.46,5.81 69.02,5.55 66.59,5.30 62.05,4.82 57.52,4.34 53.75,4.03 49.98,3.71 47.57,3.55 45.15,3.38 41.01,3.11 36.87,2.83 34.59,2.75 32.32,2.67 28.30,2.47 24.28,2.27 22.06,2.22 19.83,2.18 16.16,2.05 12.49,1.92 10.80,1.79 9.11,1.66 6.32,1.63 3.53,1.61 1.79,1.62 0.04,1.63 -0.14,1.61 -0.34,1.59 -0.53,1.53 -0.71,1.46 -0.88,1.36 -1.04,1.25 -1.18,1.10 -1.31,0.96 -1.41,0.79 -1.51,0.62 -1.56,0.43 -1.61,0.24 -1.62,0.04 -1.62,-0.15 -1.58,-0.34 -1.54,-0.53 -1.45,-0.71 -1.37,-0.88 -1.24,-1.04 -1.11,-1.19 -0.95,-1.30 -0.80,-1.42 -0.61,-1.49 -0.43,-1.57 -0.24,-1.60 -0.04,-1.63 -0.04,-1.63 L -0.04,-1.63 Z"></path></g><g transform="translate(201.4568363779697 66.81711549706309) rotate(0 -1.9169298028856474 -0.26327302637113803)" stroke="none"><path fill="#f36d6b" d="M 0.88,2.38 Q 0.88,2.38 0.09,2.72 -0.69,3.06 -2.21,3.07 -3.74,3.09 -4.57,1.99 -5.40,0.89 -5.01,-0.71 -4.63,-2.32 -3.45,-3.08 -2.28,-3.85 -0.15,-2.88 1.96,-1.90 1.82,0.04 1.68,1.98 0.70,3.04 -0.27,4.10 -1.28,4.74 -2.30,5.38 -4.45,4.22 -6.59,3.07 -6.85,1.54 -7.10,0.02 -6.75,-1.18 -6.40,-2.39 -5.75,-3.38 -5.10,-4.38 -2.36,-4.62 0.36,-4.87 1.07,-3.81 1.78,-2.75 0.99,-3.05 0.19,-3.34 0.72,-3.22 1.25,-3.11 1.71,-2.82 2.18,-2.54 2.53,-2.13 2.88,-1.71 3.08,-1.21 3.27,-0.70 3.30,-0.16 3.33,0.37 3.18,0.90 3.03,1.42 2.73,1.87 2.42,2.31 1.99,2.64 1.55,2.97 1.04,3.14 0.52,3.31 -0.01,3.30 -0.55,3.30 -1.07,3.13 -1.58,2.95 -2.01,2.62 -2.44,2.29 -2.74,1.84 -3.05,1.39 -3.19,0.87 -3.33,0.34 -3.30,-0.19 -3.27,-0.73 -3.06,-1.23 -2.86,-1.74 -2.51,-2.15 -2.15,-2.56 -1.69,-2.84 -1.22,-3.12 -0.69,-3.23 -0.16,-3.35 0.37,-3.28 0.91,-3.22 1.40,-2.99 1.89,-2.76 2.28,-2.39 2.67,-2.01 2.93,-1.53 3.18,-1.05 3.26,-0.51 3.35,0.01 3.26,0.55 3.17,1.08 2.91,1.56 2.66,2.04 2.26,2.41 1.86,2.78 1.37,3.01 0.88,3.23 0.34,3.29 -0.19,3.34 -0.19,3.34 -0.19,3.34 -2.02,1.22 -3.85,-0.90 -1.89,-0.61 0.05,-0.32 -0.44,0.73 -0.94,1.79 -2.28,0.69 -3.63,-0.40 -2.12,-0.14 -0.62,0.11 -1.56,-0.87 -2.51,-1.87 -1.69,-2.13 -0.88,-2.38 -0.58,-2.45 -0.29,-2.52 0.01,-2.52 0.32,-2.52 0.62,-2.44 0.91,-2.37 1.18,-2.22 1.45,-2.08 1.68,-1.88 1.91,-1.67 2.08,-1.42 2.26,-1.16 2.36,-0.88 2.47,-0.59 2.51,-0.28 2.54,0.01 2.50,0.32 2.46,0.62 2.35,0.91 2.24,1.19 2.06,1.44 1.89,1.70 1.66,1.90 1.43,2.10 1.15,2.24 0.88,2.38 0.88,2.38 L 0.88,2.38 Z"></path></g><g transform="translate(202.3186065902405 66.9976228526722) rotate(0 27.613980802996366 -0.8685558044932975)" stroke="none"><path fill="#f36d6b" d="M -0.05,-1.70 Q -0.05,-1.70 3.29,-1.75 6.63,-1.80 10.32,-1.80 14.00,-1.80 16.21,-1.79 18.42,-1.78 21.51,-1.77 24.60,-1.76 27.80,-1.79 31.00,-1.83 33.76,-1.89 36.51,-1.95 39.09,-1.98 41.68,-2.00 43.97,-2.01 46.27,-2.01 47.34,-2.15 48.42,-2.28 49.50,-2.48 50.58,-2.69 52.54,-3.17 54.51,-3.66 54.83,-3.73 55.16,-3.79 55.49,-3.74 55.82,-3.70 56.12,-3.55 56.42,-3.41 56.65,-3.17 56.89,-2.94 57.04,-2.64 57.19,-2.34 57.23,-2.01 57.28,-1.68 57.22,-1.36 57.16,-1.03 56.99,-0.74 56.83,-0.45 56.58,-0.22 56.34,-0.00 56.03,0.12 55.73,0.25 55.39,0.28 55.06,0.31 54.74,0.23 54.42,0.15 54.13,-0.02 53.85,-0.20 53.64,-0.46 53.43,-0.71 53.32,-1.03 53.20,-1.34 53.19,-1.67 53.18,-2.00 53.28,-2.32 53.38,-2.64 53.57,-2.91 53.76,-3.18 54.03,-3.38 54.30,-3.57 54.62,-3.67 54.94,-3.77 55.27,-3.76 55.60,-3.75 55.92,-3.64 56.23,-3.53 56.49,-3.32 56.75,-3.11 56.93,-2.83 57.11,-2.55 57.19,-2.23 57.27,-1.91 57.25,-1.57 57.22,-1.24 57.09,-0.94 56.96,-0.63 56.74,-0.38 56.52,-0.13 56.23,0.02 55.94,0.19 55.94,0.19 55.94,0.19 53.42,0.55 50.89,0.90 49.66,0.90 48.43,0.91 47.36,0.78 46.28,0.66 44.00,0.68 41.71,0.70 39.15,0.74 36.58,0.78 33.81,0.86 31.05,0.95 27.83,1.01 24.61,1.08 21.53,1.11 18.44,1.14 16.24,1.19 14.03,1.23 10.38,1.31 6.73,1.40 3.39,1.55 0.05,1.70 -0.15,1.68 -0.35,1.67 -0.55,1.60 -0.74,1.53 -0.92,1.42 -1.09,1.31 -1.23,1.16 -1.37,1.01 -1.47,0.83 -1.57,0.65 -1.63,0.45 -1.68,0.25 -1.69,0.05 -1.70,-0.15 -1.65,-0.35 -1.61,-0.55 -1.52,-0.74 -1.43,-0.92 -1.30,-1.08 -1.17,-1.24 -1.00,-1.36 -0.83,-1.48 -0.64,-1.56 -0.45,-1.64 -0.25,-1.67 -0.05,-1.70 -0.05,-1.70 L -0.05,-1.70 Z"></path></g><g transform="translate(71.50190427128064 23.76525635870722) rotate(0 1.9902128735786846 -0.000009939832352756639)" stroke="none"><path fill="#f36d6b" d="M -0.47,-2.46 Q -0.47,-2.46 0.56,-2.69 1.60,-2.93 3.84,-1.23 6.07,0.45 5.49,1.44 4.92,2.43 2.22,2.60 -0.47,2.76 -0.90,2.61 -1.33,2.46 -1.69,2.19 -2.05,1.91 -2.30,1.53 -2.55,1.15 -2.67,0.71 -2.79,0.28 -2.76,-0.17 -2.73,-0.62 -2.56,-1.04 -2.39,-1.46 -2.09,-1.81 -1.79,-2.15 -1.40,-2.38 -1.01,-2.61 -0.57,-2.70 -0.12,-2.80 0.32,-2.75 0.77,-2.69 1.18,-2.50 1.59,-2.31 1.92,-1.99 2.24,-1.68 2.45,-1.27 2.66,-0.87 2.73,-0.42 2.80,0.02 2.72,0.47 2.65,0.91 2.43,1.31 2.22,1.71 1.88,2.02 1.55,2.33 1.14,2.52 0.72,2.71 0.27,2.75 -0.17,2.80 -0.61,2.70 -1.06,2.59 -1.44,2.36 -1.83,2.12 -2.12,1.77 -2.41,1.42 -2.58,1.00 -2.74,0.58 -2.76,0.12 -2.78,-0.32 -2.66,-0.76 -2.53,-1.19 -2.27,-1.57 -2.02,-1.94 -1.65,-2.21 -1.29,-2.49 -0.86,-2.63 -0.43,-2.77 0.02,-2.76 0.47,-2.76 0.47,-2.76 0.47,-2.76 0.84,-1.95 1.21,-1.14 1.89,0.49 2.57,2.13 1.52,2.29 0.47,2.46 0.16,2.48 -0.13,2.50 -0.43,2.45 -0.72,2.40 -1.00,2.27 -1.28,2.15 -1.52,1.97 -1.76,1.78 -1.94,1.55 -2.13,1.31 -2.26,1.03 -2.38,0.76 -2.44,0.46 -2.50,0.16 -2.48,-0.13 -2.47,-0.43 -2.38,-0.72 -2.29,-1.01 -2.14,-1.27 -1.98,-1.53 -1.77,-1.74 -1.56,-1.96 -1.30,-2.12 -1.04,-2.28 -0.75,-2.37 -0.47,-2.46 -0.47,-2.46 L -0.47,-2.46 Z"></path></g><g transform="translate(71.14633658819412 25.64078344654709) rotate(0 -30.57316829409706 1.650260667125707)" stroke="none"><path fill="#f36d6b" d="M 0.43,2.10 Q 0.43,2.10 -0.74,2.41 -1.93,2.71 -3.85,2.88 -5.76,3.06 -8.73,3.24 -11.71,3.42 -14.87,3.41 -18.03,3.40 -19.14,3.48 -20.24,3.55 -22.41,3.44 -24.58,3.33 -25.80,3.40 -27.02,3.47 -29.29,3.37 -31.56,3.27 -34.47,3.19 -37.38,3.11 -38.82,3.19 -40.26,3.26 -42.01,3.36 -43.77,3.45 -46.11,3.74 -48.46,4.03 -50.56,4.37 -52.66,4.71 -54.60,4.94 -56.53,5.18 -58.64,5.53 -60.76,5.88 -61.18,5.87 -61.60,5.87 -62.00,5.72 -62.40,5.58 -62.73,5.32 -63.06,5.06 -63.30,4.71 -63.53,4.36 -63.63,3.95 -63.74,3.54 -63.71,3.12 -63.68,2.70 -63.52,2.31 -63.36,1.92 -63.08,1.60 -62.80,1.28 -62.44,1.07 -62.07,0.86 -61.66,0.77 -61.24,0.69 -60.82,0.74 -60.40,0.79 -60.02,0.97 -59.64,1.16 -59.34,1.45 -59.04,1.75 -58.85,2.12 -58.65,2.50 -58.59,2.92 -58.53,3.34 -58.61,3.75 -58.68,4.17 -58.88,4.54 -59.09,4.91 -59.40,5.19 -59.71,5.48 -60.10,5.65 -60.48,5.82 -60.90,5.86 -61.32,5.90 -61.73,5.80 -62.15,5.71 -62.50,5.48 -62.86,5.26 -63.13,4.93 -63.40,4.61 -63.55,4.21 -63.70,3.82 -63.72,3.40 -63.73,2.97 -63.61,2.57 -63.49,2.16 -63.25,1.82 -63.01,1.47 -62.67,1.22 -62.33,0.97 -61.93,0.84 -61.52,0.71 -61.52,0.71 -61.52,0.71 -59.20,0.43 -56.87,0.15 -55.01,0.11 -53.16,0.07 -50.98,-0.06 -48.81,-0.21 -46.39,-0.24 -43.98,-0.27 -42.12,-0.38 -40.26,-0.48 -38.82,-0.41 -37.38,-0.34 -34.47,-0.41 -31.56,-0.49 -29.29,-0.59 -27.03,-0.70 -25.81,-0.63 -24.59,-0.56 -22.43,-0.68 -20.27,-0.79 -19.17,-0.73 -18.07,-0.67 -14.99,-0.78 -11.91,-0.89 -9.08,-1.06 -6.25,-1.23 -4.55,-1.47 -2.85,-1.71 -1.64,-1.91 -0.43,-2.10 -0.18,-2.13 0.07,-2.15 0.33,-2.11 0.59,-2.07 0.83,-1.97 1.06,-1.87 1.27,-1.71 1.48,-1.56 1.65,-1.35 1.81,-1.15 1.92,-0.92 2.04,-0.69 2.09,-0.43 2.14,-0.18 2.13,0.07 2.12,0.33 2.05,0.58 1.98,0.83 1.85,1.06 1.72,1.28 1.54,1.47 1.36,1.66 1.15,1.80 0.93,1.94 0.68,2.02 0.43,2.10 0.43,2.10 L 0.43,2.10 Z"></path></g><g transform="translate(72.71380839161566 88.87844088305879) rotate(0 0 0.5177327347187912)" stroke="none"><path fill="#f36d6b" d="M 2.12,-0.66 Q 2.12,-0.66 2.15,-0.13 2.18,0.40 1.96,0.88 1.74,1.36 1.32,1.69 0.91,2.02 0.38,2.12 -0.13,2.21 -0.64,2.05 -1.14,1.90 -1.52,1.52 -1.90,1.14 -2.05,0.64 -2.21,0.13 -2.12,-0.38 -2.02,-0.91 -1.69,-1.32 -1.36,-1.74 -0.88,-1.96 -0.39,-2.18 0.13,-2.15 0.66,-2.11 1.11,-1.84 1.57,-1.56 1.84,-1.11 L 2.12,-0.66 Z"></path></g><g transform="translate(71.49240179154685 89.39957966699869) rotate(0 -28.662341548278846 1.1291119433534362)" stroke="none"><path fill="#f36d6b" d="M 0.38,2.10 Q 0.38,2.10 -0.70,2.36 -1.79,2.62 -3.60,2.91 -5.42,3.19 -7.67,3.22 -9.92,3.25 -12.65,3.13 -15.38,3.01 -17.67,2.79 -19.96,2.58 -22.01,2.45 -24.06,2.33 -26.61,2.28 -29.16,2.23 -30.66,2.31 -32.16,2.39 -33.36,2.52 -34.56,2.65 -36.00,2.81 -37.43,2.98 -38.79,3.17 -40.14,3.36 -42.02,3.50 -43.90,3.63 -44.96,3.68 -46.02,3.74 -47.63,3.88 -49.24,4.03 -50.47,4.26 -51.70,4.49 -52.88,4.73 -54.05,4.97 -55.55,5.19 -57.04,5.40 -57.55,5.36 -58.06,5.33 -58.53,5.13 -59.00,4.93 -59.38,4.59 -59.77,4.25 -60.02,3.81 -60.28,3.36 -60.38,2.86 -60.48,2.36 -60.41,1.86 -60.35,1.35 -60.12,0.89 -59.90,0.43 -59.54,0.06 -59.18,-0.29 -58.73,-0.52 -58.27,-0.75 -57.76,-0.82 -57.26,-0.90 -56.75,-0.80 -56.25,-0.71 -55.81,-0.46 -55.36,-0.21 -55.01,0.15 -54.67,0.53 -54.46,1.00 -54.26,1.47 -54.21,1.98 -54.17,2.49 -54.29,2.98 -54.41,3.48 -54.68,3.91 -54.95,4.35 -55.35,4.67 -55.74,4.99 -56.22,5.17 -56.70,5.35 -57.21,5.37 -57.72,5.39 -58.21,5.24 -58.70,5.09 -59.12,4.80 -59.54,4.50 -59.84,4.09 -60.14,3.68 -60.29,3.19 -60.45,2.70 -60.44,2.19 -60.43,1.68 -60.25,1.20 -60.08,0.72 -59.76,0.32 -59.45,-0.07 -59.02,-0.35 -58.59,-0.63 -58.09,-0.76 -57.60,-0.88 -57.60,-0.88 -57.60,-0.88 -55.45,-1.11 -53.29,-1.34 -52.14,-1.47 -50.99,-1.60 -49.56,-1.62 -48.13,-1.65 -46.16,-1.68 -44.19,-1.71 -42.24,-1.70 -40.29,-1.69 -38.91,-1.66 -37.53,-1.62 -36.14,-1.52 -34.74,-1.42 -33.47,-1.41 -32.20,-1.39 -30.71,-1.34 -29.21,-1.30 -26.61,-1.42 -24.00,-1.54 -21.91,-1.60 -19.82,-1.66 -17.53,-1.73 -15.23,-1.80 -12.52,-1.78 -9.81,-1.76 -7.80,-1.73 -5.79,-1.71 -4.19,-1.77 -2.60,-1.83 -1.49,-1.96 -0.38,-2.10 -0.12,-2.12 0.13,-2.13 0.38,-2.09 0.64,-2.04 0.87,-1.93 1.11,-1.83 1.31,-1.67 1.51,-1.51 1.67,-1.31 1.83,-1.10 1.94,-0.87 2.04,-0.63 2.09,-0.38 2.14,-0.12 2.12,0.13 2.10,0.38 2.03,0.63 1.95,0.88 1.81,1.10 1.68,1.32 1.50,1.50 1.31,1.68 1.09,1.82 0.87,1.95 0.63,2.03 0.38,2.10 0.38,2.10 L 0.38,2.10 Z"></path></g></svg>