<?xml version="1.0" standalone="no"?>
<!DOCTYPE svg PUBLIC "-//W3C//DTD SVG 1.1//EN" "http://www.w3.org/Graphics/SVG/1.1/DTD/svg11.dtd">
<svg version="1.1" xmlns="http://www.w3.org/2000/svg" viewBox="0 0 204.45280639948123 114.64815720839026" width="204.45280639948123" height="114.64815720839026"><!-- svg-source:excalidraw --><metadata></metadata><defs><style class="style-fonts">
      </style></defs><g transform="translate(57.12461267500316 10) rotate(0 3.908501120219853 46.290627607448634)" stroke="none"><path fill="#f36d6b" d="M 1.73,-0.17 Q 1.73,-0.17 1.92,2.27 2.11,4.72 2.35,6.14 2.59,7.57 2.93,10.20 3.28,12.82 3.58,14.30 3.88,15.77 4.21,18.61 4.54,21.46 4.81,23.11 5.07,24.76 5.35,27.53 5.64,30.29 5.99,33.92 6.34,37.55 6.63,41.21 6.91,44.86 7.18,48.46 7.44,52.06 7.74,55.58 8.04,59.10 8.30,60.77 8.55,62.45 8.70,64.80 8.85,67.15 9.04,68.44 9.22,69.73 9.34,71.48 9.45,73.24 9.63,75.85 9.81,78.47 9.96,80.35 10.10,82.23 10.14,83.51 10.17,84.78 10.15,86.17 10.12,87.56 10.05,89.85 9.98,92.14 9.94,92.44 9.89,92.74 9.77,93.02 9.66,93.30 9.48,93.55 9.30,93.79 9.06,93.99 8.83,94.18 8.56,94.31 8.28,94.45 7.99,94.51 7.69,94.57 7.39,94.56 7.08,94.55 6.79,94.47 6.50,94.39 6.23,94.24 5.97,94.09 5.75,93.88 5.53,93.67 5.36,93.42 5.20,93.16 5.10,92.88 5.00,92.59 4.97,92.29 4.95,91.98 4.95,91.97 4.95,91.96 5.03,91.56 5.11,91.16 5.32,90.81 5.52,90.46 5.83,90.19 6.14,89.92 6.51,89.77 6.89,89.61 7.30,89.58 7.70,89.56 8.10,89.66 8.49,89.76 8.83,89.99 9.17,90.21 9.42,90.53 9.67,90.86 9.81,91.24 9.94,91.62 9.95,92.03 9.95,92.44 9.83,92.83 9.70,93.21 9.46,93.54 9.22,93.87 8.89,94.10 8.55,94.34 8.16,94.45 7.77,94.56 7.36,94.55 6.95,94.53 6.57,94.38 6.19,94.24 5.88,93.98 5.57,93.72 5.35,93.37 5.14,93.03 5.04,92.63 4.95,92.23 4.99,91.83 5.03,91.42 5.20,91.05 5.36,90.68 5.64,90.38 5.92,90.08 6.27,89.88 6.63,89.69 7.03,89.62 7.43,89.54 7.84,89.61 8.24,89.67 8.60,89.85 8.96,90.04 9.25,90.33 9.53,90.62 9.71,90.99 9.88,91.36 9.93,91.75 9.98,92.14 9.94,92.44 9.89,92.74 9.77,93.02 9.66,93.30 9.48,93.55 9.30,93.79 9.06,93.99 8.83,94.18 8.56,94.31 8.28,94.44 7.99,94.51 7.69,94.57 7.39,94.56 7.08,94.55 6.79,94.47 6.50,94.39 6.23,94.24 5.97,94.09 5.75,93.88 5.53,93.67 5.36,93.42 5.20,93.16 5.10,92.88 5.00,92.59 4.97,92.29 4.95,91.98 5.13,89.68 5.31,87.38 5.38,86.08 5.45,84.79 5.48,83.51 5.51,82.24 5.64,80.37 5.77,78.51 5.85,75.95 5.93,73.40 5.88,71.67 5.83,69.93 5.86,68.65 5.89,67.37 5.68,65.08 5.48,62.79 5.36,61.07 5.24,59.35 4.90,55.82 4.56,52.29 4.26,48.71 3.95,45.12 3.60,41.51 3.25,37.89 2.81,34.29 2.37,30.70 1.97,27.96 1.57,25.23 1.40,23.58 1.23,21.93 0.77,19.12 0.31,16.31 0.15,14.83 0.00,13.34 -0.48,10.65 -0.96,7.96 -1.04,6.50 -1.12,5.05 -1.42,2.61 -1.73,0.17 -1.73,-0.03 -1.72,-0.24 -1.67,-0.44 -1.62,-0.65 -1.51,-0.83 -1.41,-1.01 -1.27,-1.17 -1.13,-1.32 -0.95,-1.44 -0.78,-1.56 -0.58,-1.63 -0.38,-1.70 -0.17,-1.72 0.03,-1.74 0.24,-1.71 0.45,-1.68 0.64,-1.60 0.84,-1.52 1.01,-1.40 1.18,-1.28 1.31,-1.12 1.45,-0.96 1.54,-0.77 1.64,-0.58 1.69,-0.38 1.73,-0.17 1.73,-0.17 L 1.73,-0.17 Z"></path></g><g transform="translate(58.686624197183164 10.339279611130195) rotate(0 46.64011873968718 47.15443879863003)" stroke="none"><path fill="#f36d6b" d="M 0.92,-1.39 Q 0.92,-1.39 2.43,-0.41 3.94,0.56 6.35,1.77 8.76,2.99 10.28,3.60 11.80,4.20 14.83,5.37 17.86,6.53 19.58,7.14 21.31,7.75 24.75,9.22 28.19,10.69 32.12,12.65 36.05,14.60 40.28,16.94 44.50,19.29 48.97,21.73 53.45,24.17 57.88,26.46 62.31,28.74 66.39,30.82 70.48,32.89 74.15,34.72 77.83,36.56 80.93,37.98 84.02,39.40 86.02,40.25 88.03,41.10 89.32,41.50 90.62,41.91 92.17,42.48 93.73,43.05 93.94,45.21 94.15,47.38 92.98,49.01 91.80,50.64 90.16,52.05 88.53,53.47 86.43,54.66 84.34,55.86 81.48,57.30 78.62,58.74 75.41,60.30 72.19,61.87 68.70,63.47 65.20,65.06 63.30,65.85 61.40,66.65 58.73,67.65 56.05,68.66 53.25,69.63 50.44,70.60 47.88,71.60 45.32,72.59 42.85,73.65 40.37,74.70 38.13,75.79 35.90,76.87 33.97,77.92 32.03,78.97 30.40,80.03 28.76,81.09 27.24,82.16 25.72,83.23 24.20,84.40 22.68,85.58 21.23,86.68 19.77,87.79 18.58,88.71 17.40,89.63 16.45,90.44 15.51,91.25 13.94,92.58 12.37,93.91 10.28,95.16 8.19,96.42 7.83,96.51 7.47,96.60 7.10,96.56 6.73,96.53 6.39,96.38 6.04,96.24 5.77,95.99 5.49,95.74 5.31,95.41 5.13,95.09 5.06,94.72 4.99,94.36 5.04,93.99 5.09,93.62 5.26,93.29 5.43,92.96 5.69,92.69 5.96,92.43 6.29,92.27 6.62,92.10 6.99,92.06 7.36,92.01 7.73,92.08 8.09,92.15 8.41,92.33 8.74,92.52 8.98,92.80 9.23,93.07 9.38,93.41 9.52,93.76 9.55,94.13 9.58,94.50 9.49,94.86 9.40,95.22 9.20,95.53 9.00,95.85 8.70,96.08 8.41,96.31 8.06,96.44 7.71,96.56 7.34,96.57 6.97,96.58 6.62,96.47 6.26,96.36 5.96,96.14 5.66,95.92 5.44,95.62 5.23,95.32 5.12,94.96 5.01,94.61 5.02,94.23 5.03,93.86 5.16,93.51 5.29,93.16 5.53,92.88 5.76,92.59 6.07,92.39 6.39,92.19 6.39,92.19 6.39,92.19 8.09,91.22 9.80,90.25 11.50,89.21 13.20,88.16 14.29,87.45 15.39,86.74 16.64,85.96 17.90,85.19 19.37,84.18 20.84,83.17 22.45,81.96 24.06,80.75 25.66,79.72 27.27,78.70 29.00,77.64 30.73,76.59 32.71,75.50 34.69,74.41 36.97,73.27 39.25,72.14 41.76,71.03 44.27,69.92 46.86,68.87 49.45,67.82 52.19,66.81 54.92,65.80 57.52,64.74 60.13,63.67 61.95,62.86 63.77,62.06 67.15,60.37 70.54,58.68 73.63,56.98 76.73,55.27 79.32,53.72 81.91,52.17 83.71,50.80 85.51,49.43 86.93,48.38 88.36,47.33 90.01,46.79 91.65,46.24 90.54,45.52 89.43,44.81 88.21,44.18 86.99,43.56 84.95,42.70 82.90,41.84 79.77,40.41 76.63,38.98 72.94,37.15 69.24,35.33 65.15,33.27 61.05,31.21 56.58,28.93 52.10,26.65 47.61,24.24 43.11,21.83 38.92,19.56 34.74,17.29 30.86,15.44 26.99,13.59 23.57,12.23 20.16,10.87 18.46,10.21 16.75,9.56 13.59,8.46 10.42,7.35 8.89,6.62 7.36,5.89 4.70,4.66 2.04,3.43 0.55,2.41 -0.92,1.39 -1.08,1.26 -1.23,1.13 -1.35,0.96 -1.46,0.80 -1.54,0.61 -1.61,0.42 -1.64,0.22 -1.67,0.02 -1.65,-0.17 -1.63,-0.37 -1.56,-0.56 -1.49,-0.75 -1.38,-0.92 -1.27,-1.08 -1.12,-1.22 -0.97,-1.36 -0.79,-1.45 -0.61,-1.55 -0.42,-1.60 -0.22,-1.65 -0.02,-1.66 0.17,-1.66 0.37,-1.61 0.56,-1.57 0.74,-1.48 0.92,-1.39 0.92,-1.39 L 0.92,-1.39 Z"></path></g><g transform="translate(151.7564818114372 55.339975414238694) rotate(0 -2.8716705804718003 1.9298184521756028)" stroke="none"><path fill="#f36d6b" d="M 2.50,0.75 Q 2.50,0.75 2.08,1.95 1.67,3.15 0.29,4.32 -1.08,5.49 -2.71,5.86 -4.34,6.24 -5.51,6.00 -6.67,5.76 -7.48,4.58 -8.29,3.41 -8.28,2.11 -8.26,0.81 -7.21,-0.51 -6.17,-1.83 -5.65,-2.15 -5.12,-2.47 -4.79,-2.64 -4.46,-2.81 -4.10,-2.90 -3.74,-2.99 -3.37,-2.98 -3.00,-2.98 -2.64,-2.89 -2.28,-2.80 -1.95,-2.63 -1.62,-2.45 -1.35,-2.20 -1.07,-1.96 -0.86,-1.65 -0.65,-1.34 -0.52,-0.99 -0.39,-0.65 -0.35,-0.28 -0.31,0.08 -0.35,0.45 -0.40,0.82 -0.53,1.16 -0.67,1.51 -0.88,1.82 -1.09,2.12 -1.37,2.36 -1.65,2.61 -1.16,3.25 -0.66,3.89 -0.86,4.35 -1.06,4.81 -1.39,5.18 -1.73,5.55 -2.16,5.79 -2.60,6.04 -3.09,6.13 -3.58,6.22 -4.07,6.15 -4.57,6.08 -5.01,5.86 -5.46,5.64 -5.81,5.28 -6.16,4.93 -6.38,4.48 -6.60,4.03 -6.67,3.54 -6.74,3.04 -6.64,2.55 -6.54,2.06 -6.30,1.63 -6.05,1.20 -5.68,0.87 -5.30,0.53 -4.85,0.34 -4.39,0.14 -3.89,0.10 -3.39,0.06 -2.91,0.19 -2.42,0.31 -2.00,0.58 -1.58,0.85 -1.27,1.24 -0.96,1.63 -0.79,2.10 -0.62,2.57 -0.61,3.07 -0.60,3.57 -0.75,4.04 -0.89,4.52 -1.19,4.92 -1.48,5.33 -1.89,5.62 -2.29,5.91 -2.77,6.05 -3.25,6.20 -3.75,6.18 -4.24,6.16 -4.71,5.99 -5.18,5.82 -5.57,5.50 -5.96,5.19 -6.22,4.77 -6.49,4.35 -6.61,3.86 -6.73,3.38 -6.69,2.88 -6.64,2.38 -6.64,2.38 -6.64,2.38 -5.88,-0.04 -5.12,-2.47 -4.79,-2.64 -4.46,-2.81 -4.10,-2.90 -3.74,-2.99 -3.37,-2.98 -3.00,-2.98 -2.64,-2.89 -2.28,-2.80 -1.95,-2.63 -1.62,-2.45 -1.35,-2.20 -1.07,-1.96 -0.86,-1.65 -0.65,-1.34 -0.52,-1.00 -0.39,-0.65 -0.35,-0.28 -0.31,0.08 -0.35,0.45 -0.40,0.82 -0.53,1.16 -0.67,1.51 -0.88,1.82 -1.09,2.12 -1.37,2.36 -1.65,2.61 -2.26,1.73 -2.87,0.86 -2.69,0.05 -2.50,-0.75 -2.38,-1.04 -2.25,-1.32 -2.06,-1.58 -1.87,-1.83 -1.62,-2.02 -1.37,-2.22 -1.09,-2.35 -0.80,-2.49 -0.49,-2.55 -0.18,-2.61 0.12,-2.59 0.44,-2.57 0.74,-2.48 1.04,-2.39 1.32,-2.23 1.59,-2.07 1.81,-1.85 2.04,-1.63 2.20,-1.36 2.37,-1.09 2.47,-0.79 2.56,-0.49 2.59,-0.18 2.61,0.13 2.56,0.44 2.50,0.75 2.50,0.75 L 2.50,0.75 Z"></path></g><g transform="translate(149.6393770379848 54.132133372060295) rotate(0 22.406714680748223 -0.521128844107551)" stroke="none"><path fill="#f36d6b" d="M 0,-1.94 Q 0,-1.94 0.99,-2.02 1.99,-2.11 3.12,-2.26 4.26,-2.41 6.93,-2.64 9.60,-2.87 12.88,-2.72 16.16,-2.56 20.43,-2.30 24.70,-2.04 28.58,-1.91 32.47,-1.77 35.36,-1.89 38.26,-2.01 39.58,-2.22 40.91,-2.44 42.77,-2.71 44.62,-2.98 44.94,-2.96 45.25,-2.94 45.55,-2.81 45.84,-2.69 46.07,-2.49 46.31,-2.28 46.47,-2.01 46.63,-1.73 46.69,-1.42 46.76,-1.12 46.72,-0.80 46.68,-0.49 46.54,-0.20 46.41,0.07 46.19,0.30 45.97,0.52 45.69,0.67 45.40,0.81 45.09,0.86 44.78,0.90 44.47,0.85 44.16,0.79 43.88,0.64 43.61,0.49 43.39,0.26 43.18,0.02 43.05,-0.25 42.92,-0.54 42.89,-0.86 42.86,-1.17 42.94,-1.48 43.01,-1.78 43.17,-2.05 43.34,-2.32 43.58,-2.52 43.83,-2.72 44.12,-2.83 44.42,-2.95 44.73,-2.96 45.05,-2.97 45.35,-2.88 45.65,-2.80 45.91,-2.61 46.17,-2.43 46.36,-2.18 46.54,-1.93 46.64,-1.63 46.74,-1.33 46.73,-1.01 46.73,-0.69 46.62,-0.40 46.52,-0.10 46.32,0.14 46.13,0.39 45.87,0.56 45.60,0.73 45.30,0.81 44.99,0.89 44.99,0.89 44.99,0.89 43.11,0.98 41.22,1.06 39.83,1.09 38.44,1.12 35.42,1.34 32.41,1.56 28.48,1.56 24.56,1.55 20.33,1.47 16.11,1.40 13.02,1.47 9.93,1.55 7.28,1.78 4.62,2.01 3.30,2.06 1.99,2.11 0.99,2.02 0,1.94 -0.23,1.91 -0.46,1.89 -0.68,1.80 -0.90,1.72 -1.09,1.59 -1.29,1.45 -1.44,1.28 -1.60,1.10 -1.71,0.89 -1.82,0.69 -1.87,0.46 -1.93,0.23 -1.93,-0.00 -1.93,-0.23 -1.87,-0.46 -1.82,-0.69 -1.71,-0.89 -1.60,-1.10 -1.44,-1.28 -1.29,-1.45 -1.09,-1.59 -0.90,-1.72 -0.68,-1.80 -0.46,-1.89 -0.23,-1.91 0.00,-1.94 0.00,-1.94 L 0,-1.94 Z"></path></g><g transform="translate(60.53097997075042 24.9595073367757) rotate(0 -23.706824873422306 1.215982764879051)" stroke="none"><path fill="#f36d6b" d="M -0.05,1.98 Q -0.05,1.98 -1.89,1.91 -3.74,1.83 -6.08,1.78 -8.43,1.72 -9.74,1.82 -11.06,1.91 -13.18,1.93 -15.30,1.95 -18.32,2.03 -21.33,2.12 -24.41,2.23 -27.49,2.35 -28.90,2.51 -30.30,2.67 -32.08,2.82 -33.86,2.96 -36.09,3.29 -38.33,3.62 -40.18,3.92 -42.03,4.22 -44.50,4.65 -46.97,5.09 -47.37,5.09 -47.78,5.10 -48.17,4.97 -48.56,4.85 -48.89,4.60 -49.22,4.36 -49.45,4.03 -49.69,3.69 -49.80,3.30 -49.91,2.91 -49.90,2.50 -49.88,2.09 -49.74,1.71 -49.59,1.33 -49.33,1.01 -49.07,0.70 -48.72,0.48 -48.37,0.27 -47.98,0.18 -47.58,0.08 -47.17,0.12 -46.77,0.16 -46.39,0.33 -46.02,0.49 -45.72,0.77 -45.42,1.05 -45.22,1.40 -45.03,1.76 -44.96,2.16 -44.88,2.57 -44.95,2.97 -45.01,3.37 -45.19,3.74 -45.38,4.10 -45.67,4.39 -45.96,4.67 -46.33,4.85 -46.70,5.02 -47.11,5.07 -47.51,5.12 -47.91,5.04 -48.31,4.96 -48.66,4.75 -49.02,4.55 -49.29,4.24 -49.55,3.93 -49.71,3.55 -49.87,3.18 -49.89,2.77 -49.92,2.36 -49.82,1.97 -49.71,1.57 -49.49,1.23 -49.26,0.89 -48.94,0.64 -48.62,0.39 -48.24,0.25 -47.85,0.12 -47.85,0.12 -47.85,0.12 -45.19,-0.14 -42.53,-0.41 -40.63,-0.46 -38.72,-0.51 -36.41,-0.54 -34.11,-0.56 -32.29,-0.68 -30.47,-0.79 -29.06,-0.77 -27.65,-0.74 -24.57,-0.95 -21.49,-1.15 -18.48,-1.36 -15.47,-1.57 -13.28,-1.75 -11.09,-1.94 -9.78,-1.88 -8.47,-1.81 -6.05,-1.92 -3.63,-2.03 -1.79,-2.01 0.05,-1.98 0.29,-1.94 0.52,-1.91 0.74,-1.82 0.96,-1.73 1.16,-1.58 1.35,-1.44 1.50,-1.26 1.66,-1.08 1.76,-0.86 1.87,-0.65 1.92,-0.41 1.97,-0.18 1.96,0.05 1.96,0.29 1.89,0.52 1.83,0.75 1.71,0.96 1.60,1.17 1.43,1.34 1.27,1.51 1.07,1.64 0.87,1.78 0.64,1.85 0.42,1.93 0.18,1.95 -0.05,1.98 -0.05,1.98 L -0.05,1.98 Z"></path></g><g transform="translate(62.80822207003416 89.38872537006448) rotate(0 -26.40411103501708 2.2582437663716064)" stroke="none"><path fill="#f36d6b" d="M 0.34,1.82 Q 0.34,1.82 -0.44,2.06 -1.22,2.29 -2.28,2.53 -3.33,2.78 -5.39,3.14 -7.44,3.50 -10.34,3.54 -13.24,3.57 -16.65,3.64 -20.06,3.70 -23.36,3.80 -26.65,3.90 -29.53,4.06 -32.41,4.23 -34.54,4.38 -36.66,4.53 -38.05,4.76 -39.45,4.99 -40.61,5.32 -41.78,5.65 -42.98,6.00 -44.19,6.35 -45.48,6.58 -46.76,6.80 -48.14,6.98 -49.52,7.15 -51.15,7.21 -52.78,7.26 -53.22,7.19 -53.66,7.13 -54.05,6.92 -54.45,6.72 -54.76,6.40 -55.06,6.08 -55.26,5.68 -55.45,5.27 -55.50,4.83 -55.55,4.39 -55.46,3.95 -55.37,3.52 -55.14,3.13 -54.92,2.75 -54.58,2.46 -54.24,2.17 -53.83,2.00 -53.42,1.83 -52.98,1.80 -52.53,1.77 -52.10,1.89 -51.67,2.00 -51.30,2.25 -50.93,2.50 -50.66,2.85 -50.39,3.20 -50.24,3.62 -50.09,4.04 -50.09,4.49 -50.08,4.93 -50.22,5.35 -50.36,5.78 -50.63,6.13 -50.89,6.49 -51.26,6.74 -51.62,7.00 -52.05,7.12 -52.48,7.24 -52.92,7.22 -53.37,7.20 -53.78,7.04 -54.20,6.88 -54.54,6.60 -54.88,6.31 -55.12,5.93 -55.35,5.55 -55.45,5.12 -55.55,4.69 -55.50,4.24 -55.46,3.80 -55.28,3.40 -55.09,2.99 -54.79,2.66 -54.49,2.34 -54.10,2.13 -53.71,1.91 -53.27,1.84 -52.83,1.76 -52.83,1.76 -52.83,1.76 -51.33,1.77 -49.82,1.79 -48.49,1.78 -47.15,1.78 -46.02,1.78 -44.89,1.78 -43.75,1.70 -42.61,1.62 -41.19,1.59 -39.77,1.56 -38.35,1.52 -36.94,1.48 -34.80,1.25 -32.66,1.01 -29.75,0.73 -26.83,0.45 -23.54,0.20 -20.25,-0.04 -16.86,-0.31 -13.48,-0.58 -10.71,-0.87 -7.95,-1.17 -6.66,-1.28 -5.38,-1.40 -3.67,-1.55 -1.97,-1.69 -1.15,-1.76 -0.34,-1.82 -0.11,-1.83 0.10,-1.85 0.32,-1.81 0.54,-1.77 0.74,-1.68 0.95,-1.59 1.13,-1.45 1.30,-1.31 1.44,-1.14 1.58,-0.96 1.67,-0.76 1.77,-0.55 1.81,-0.33 1.85,-0.11 1.84,0.10 1.82,0.32 1.76,0.54 1.69,0.75 1.58,0.94 1.46,1.13 1.30,1.29 1.15,1.45 0.96,1.57 0.76,1.69 0.55,1.75 0.34,1.82 0.34,1.82 L 0.34,1.82 Z"></path></g></svg>