<?xml version="1.0" standalone="no"?>
<!DOCTYPE svg PUBLIC "-//W3C//DTD SVG 1.1//EN" "http://www.w3.org/Graphics/SVG/1.1/DTD/svg11.dtd">
<svg version="1.1" xmlns="http://www.w3.org/2000/svg" viewBox="0 0 287.8124152776402 96.06651532160937" width="287.8124152776402" height="96.06651532160937"><!-- svg-source:excalidraw --><metadata></metadata><defs><style class="style-fonts">
      </style></defs><g stroke-linecap="round" transform="translate(10 10) rotate(0 133.9062076388201 38.033257660804686)"><path d="M19.02 0 C104.34 1.26, 182.06 0.35, 248.8 0 M19.02 0 C97.6 2.68, 172.84 1.45, 248.8 0 M248.8 0 C265.27 3.48, 267.05 8.03, 267.81 19.02 M248.8 0 C265.6 -3.46, 270.02 7.32, 267.81 19.02 M267.81 19.02 C264.97 29.05, 264.8 37.78, 267.81 57.05 M267.81 19.02 C266.53 30.23, 268.17 40.74, 267.81 57.05 M267.81 57.05 C264.38 68.99, 257.89 74.52, 248.8 76.07 M267.81 57.05 C271.94 71.44, 264.55 74.44, 248.8 76.07 M248.8 76.07 C188.36 74.77, 131.53 74.03, 19.02 76.07 M248.8 76.07 C170.36 75.54, 95.51 75.97, 19.02 76.07 M19.02 76.07 C8.37 77.78, -0.22 66.84, 0 57.05 M19.02 76.07 C9.15 72.28, -3.87 68.48, 0 57.05 M0 57.05 C-1.07 47.62, -0.88 42.34, 0 19.02 M0 57.05 C1.9 45.53, 0.32 29.38, 0 19.02 M0 19.02 C3.59 7.02, 7.46 3.39, 19.02 0 M0 19.02 C4.41 7.14, 9.63 -3.71, 19.02 0" stroke="#f36d6b" stroke-width="2" fill="none"></path></g><g transform="translate(28.54906574286838 27.590985181610122) rotate(0 0.00004999999998744897 0.00004999999999988347)" stroke="none"><path fill="#f36d6b" d="M 3.14,-3.14 Q 3.14,-3.14 3.55,-2.55 3.97,-1.97 4.18,-1.28 4.40,-0.59 4.38,0.11 4.36,0.83 4.11,1.51 3.86,2.18 3.41,2.74 2.96,3.30 2.36,3.69 1.75,4.08 1.05,4.25 0.36,4.42 -0.35,4.36 -1.07,4.31 -1.73,4.02 -2.39,3.74 -2.92,3.26 -3.46,2.78 -3.81,2.15 -4.16,1.53 -4.30,0.82 -4.43,0.11 -4.34,-0.59 -4.24,-1.30 -3.92,-1.94 -3.60,-2.59 -3.09,-3.09 -2.59,-3.60 -1.94,-3.92 -1.30,-4.24 -0.59,-4.34 0.12,-4.43 0.82,-4.30 1.53,-4.16 2.15,-3.81 2.78,-3.46 3.26,-2.92 3.74,-2.39 4.02,-1.73 4.31,-1.07 4.36,-0.35 4.42,0.36 4.25,1.05 4.07,1.75 3.69,2.36 3.30,2.96 2.74,3.41 2.18,3.86 1.51,4.11 0.83,4.36 0.11,4.38 -0.60,4.40 -1.28,4.18 -1.97,3.97 -2.55,3.55 -3.14,3.13 -3.14,3.14 -3.14,3.14 -3.47,2.71 -3.80,2.29 -4.02,1.80 -4.24,1.32 -4.33,0.79 -4.43,0.26 -4.40,-0.26 -4.36,-0.80 -4.20,-1.31 -4.04,-1.82 -3.77,-2.28 -3.49,-2.73 -3.11,-3.11 -2.73,-3.49 -2.28,-3.77 -1.82,-4.05 -1.31,-4.20 -0.80,-4.36 -0.26,-4.40 0.26,-4.43 0.79,-4.33 1.32,-4.24 1.80,-4.02 2.29,-3.80 2.71,-3.47 3.14,-3.14 3.14,-3.14 L 3.14,-3.14 Z"></path></g><g transform="translate(31.495377837788965 70.47184607064538) rotate(0 0.00004999999998744897 0.00005000000000165983)" stroke="none"><path fill="#f36d6b" d="M 3.14,-3.14 Q 3.14,-3.14 3.55,-2.55 3.97,-1.97 4.18,-1.28 4.40,-0.59 4.38,0.11 4.36,0.83 4.11,1.51 3.86,2.18 3.41,2.74 2.96,3.30 2.36,3.69 1.75,4.08 1.05,4.25 0.36,4.42 -0.35,4.36 -1.07,4.31 -1.73,4.02 -2.39,3.74 -2.92,3.26 -3.46,2.78 -3.81,2.15 -4.16,1.53 -4.30,0.82 -4.43,0.11 -4.34,-0.59 -4.24,-1.30 -3.92,-1.94 -3.60,-2.59 -3.09,-3.09 -2.59,-3.60 -1.94,-3.92 -1.30,-4.24 -0.59,-4.34 0.12,-4.43 0.82,-4.30 1.53,-4.16 2.15,-3.81 2.78,-3.46 3.26,-2.92 3.74,-2.39 4.02,-1.73 4.31,-1.07 4.36,-0.35 4.42,0.36 4.25,1.05 4.07,1.75 3.69,2.36 3.30,2.96 2.74,3.41 2.18,3.86 1.51,4.11 0.83,4.36 0.11,4.38 -0.60,4.40 -1.28,4.18 -1.97,3.97 -2.55,3.55 -3.14,3.13 -3.14,3.14 -3.14,3.14 -3.47,2.71 -3.80,2.29 -4.02,1.80 -4.24,1.32 -4.33,0.79 -4.43,0.26 -4.40,-0.26 -4.36,-0.80 -4.20,-1.31 -4.04,-1.82 -3.77,-2.28 -3.49,-2.73 -3.11,-3.11 -2.73,-3.49 -2.28,-3.77 -1.82,-4.05 -1.31,-4.20 -0.80,-4.36 -0.26,-4.40 0.26,-4.43 0.79,-4.33 1.32,-4.24 1.80,-4.02 2.29,-3.80 2.71,-3.47 3.14,-3.14 3.14,-3.14 L 3.14,-3.14 Z"></path></g><g transform="translate(254.86489419799432 72.55502288298477) rotate(0 0.00004999999998744897 0.00005000000000165983)" stroke="none"><path fill="#f36d6b" d="M 3.14,-3.14 Q 3.14,-3.14 3.55,-2.55 3.97,-1.97 4.18,-1.28 4.40,-0.59 4.38,0.11 4.36,0.83 4.11,1.51 3.86,2.18 3.41,2.74 2.96,3.30 2.36,3.69 1.75,4.08 1.05,4.25 0.36,4.42 -0.35,4.36 -1.07,4.31 -1.73,4.02 -2.39,3.74 -2.92,3.26 -3.46,2.78 -3.81,2.15 -4.16,1.53 -4.30,0.82 -4.43,0.11 -4.34,-0.59 -4.24,-1.30 -3.92,-1.94 -3.60,-2.59 -3.09,-3.09 -2.59,-3.60 -1.94,-3.92 -1.30,-4.24 -0.59,-4.34 0.12,-4.43 0.82,-4.30 1.53,-4.16 2.15,-3.81 2.78,-3.46 3.26,-2.92 3.74,-2.39 4.02,-1.73 4.31,-1.07 4.36,-0.35 4.42,0.36 4.25,1.05 4.07,1.75 3.69,2.36 3.30,2.96 2.74,3.41 2.18,3.86 1.51,4.11 0.83,4.36 0.11,4.38 -0.60,4.40 -1.28,4.18 -1.97,3.97 -2.55,3.55 -3.14,3.13 -3.14,3.14 -3.14,3.14 -3.47,2.71 -3.80,2.29 -4.02,1.80 -4.24,1.32 -4.33,0.79 -4.43,0.26 -4.40,-0.26 -4.36,-0.80 -4.20,-1.31 -4.04,-1.82 -3.77,-2.28 -3.49,-2.73 -3.11,-3.11 -2.73,-3.49 -2.28,-3.77 -1.82,-4.05 -1.31,-4.20 -0.80,-4.36 -0.26,-4.40 0.26,-4.43 0.79,-4.33 1.32,-4.24 1.80,-4.02 2.29,-3.80 2.71,-3.47 3.14,-3.14 3.14,-3.14 L 3.14,-3.14 Z"></path></g><g transform="translate(255.083331953879 28.793386822211616) rotate(0 0.00004999999998744897 0.00004999999999988347)" stroke="none"><path fill="#f36d6b" d="M 3.14,-3.14 Q 3.14,-3.14 3.55,-2.55 3.97,-1.97 4.18,-1.28 4.40,-0.59 4.38,0.11 4.36,0.83 4.11,1.51 3.86,2.18 3.41,2.74 2.96,3.30 2.36,3.69 1.75,4.08 1.05,4.25 0.36,4.42 -0.35,4.36 -1.07,4.31 -1.73,4.02 -2.39,3.74 -2.92,3.26 -3.46,2.78 -3.81,2.15 -4.16,1.53 -4.30,0.82 -4.43,0.11 -4.34,-0.59 -4.24,-1.30 -3.92,-1.94 -3.60,-2.59 -3.09,-3.09 -2.59,-3.60 -1.94,-3.92 -1.30,-4.24 -0.59,-4.34 0.12,-4.43 0.82,-4.30 1.53,-4.16 2.15,-3.81 2.78,-3.46 3.26,-2.92 3.74,-2.39 4.02,-1.73 4.31,-1.07 4.36,-0.35 4.42,0.36 4.25,1.05 4.07,1.75 3.69,2.36 3.30,2.96 2.74,3.41 2.18,3.86 1.51,4.11 0.83,4.36 0.11,4.38 -0.60,4.40 -1.28,4.18 -1.97,3.97 -2.55,3.55 -3.14,3.13 -3.14,3.14 -3.14,3.14 -3.47,2.71 -3.80,2.29 -4.02,1.80 -4.24,1.32 -4.33,0.79 -4.43,0.26 -4.40,-0.26 -4.36,-0.80 -4.20,-1.31 -4.04,-1.82 -3.77,-2.28 -3.49,-2.73 -3.11,-3.11 -2.73,-3.49 -2.28,-3.77 -1.82,-4.05 -1.31,-4.20 -0.80,-4.36 -0.26,-4.40 0.26,-4.43 0.79,-4.33 1.32,-4.24 1.80,-4.02 2.29,-3.80 2.71,-3.47 3.14,-3.14 3.14,-3.14 L 3.14,-3.14 Z"></path></g><g stroke-linecap="round" transform="translate(47.495870564237975 19.507979774178466) rotate(0 64.26974998950266 9.550045144714694)"><path d="M4.78 0 C39.9 3.19, 80.07 -1.41, 123.76 0 M4.78 0 C50.45 1.03, 97.64 2.72, 123.76 0 M123.76 0 C125.78 2.1, 129.16 -0.74, 128.54 4.78 M123.76 0 C131.05 -1.86, 131.87 -2.96, 128.54 4.78 M128.54 4.78 C129.85 9.74, 127.41 9.89, 128.54 14.33 M128.54 4.78 C128.92 9.48, 128.31 12.57, 128.54 14.33 M128.54 14.33 C125.25 19.91, 130.15 18.52, 123.76 19.1 M128.54 14.33 C126.21 21.11, 127.86 18.03, 123.76 19.1 M123.76 19.1 C90.49 18.33, 61.81 17.22, 4.78 19.1 M123.76 19.1 C96.7 21.68, 69.46 20.04, 4.78 19.1 M4.78 19.1 C4.6 21.67, 2.59 21.39, 0 14.33 M4.78 19.1 C5.94 23.68, -3.07 21.73, 0 14.33 M0 14.33 C-0.48 12.77, 1.72 8.39, 0 4.78 M0 14.33 C-0.6 13.04, -0.01 11.17, 0 4.78 M0 4.78 C-1.91 0.58, -1.85 -1.73, 4.78 0 M0 4.78 C-0.44 1.06, 5.66 0.37, 4.78 0" stroke="#f36d6b" stroke-width="2" fill="none"></path></g><g stroke-linecap="round" transform="translate(47.362251235269696 39.773215736667765) rotate(0 64.26974998950266 9.550045144714694)"><path d="M4.78 0 C30.04 -1.55, 56 0.9, 123.76 0 M4.78 0 C48.9 -0.27, 96.27 0.37, 123.76 0 M123.76 0 C130.48 0.32, 131.19 0.41, 128.54 4.78 M123.76 0 C131.35 3.98, 129.68 4.29, 128.54 4.78 M128.54 4.78 C129.77 7.94, 126.85 10.59, 128.54 14.33 M128.54 4.78 C127.96 6.38, 128.86 9.37, 128.54 14.33 M128.54 14.33 C130.28 20.43, 128.39 20.06, 123.76 19.1 M128.54 14.33 C126.13 17.63, 126.46 19.36, 123.76 19.1 M123.76 19.1 C89.06 17.97, 56.24 19.26, 4.78 19.1 M123.76 19.1 C91.57 17.83, 62.89 17.24, 4.78 19.1 M4.78 19.1 C2.68 20.43, 2.95 17.05, 0 14.33 M4.78 19.1 C2.12 17.29, 3.52 16.43, 0 14.33 M0 14.33 C1.14 11.83, -1.74 10.67, 0 4.78 M0 14.33 C-0.34 10.91, -0.38 8.03, 0 4.78 M0 4.78 C-3.02 3.47, 3.59 1.76, 4.78 0 M0 4.78 C1.38 4.98, 1.09 -3.15, 4.78 0" stroke="#f36d6b" stroke-width="2" fill="none"></path></g><g stroke-linecap="round" transform="translate(48.843602855281006 57.73677086538393) rotate(0 64.26974998950266 9.550045144714694)"><path d="M4.78 0 C35.19 1.48, 73.64 1.36, 123.76 0 M4.78 0 C42.68 1.31, 82.93 -1.56, 123.76 0 M123.76 0 C126.5 -1.03, 127.23 -0.34, 128.54 4.78 M123.76 0 C127.27 -0.15, 124.68 5.17, 128.54 4.78 M128.54 4.78 C129.69 10.02, 129.23 12.21, 128.54 14.33 M128.54 4.78 C128.13 7.25, 127.97 8.65, 128.54 14.33 M128.54 14.33 C128.65 20.86, 130.13 18.11, 123.76 19.1 M128.54 14.33 C129.78 21.75, 127.95 22.7, 123.76 19.1 M123.76 19.1 C87.7 17.48, 47.32 20.14, 4.78 19.1 M123.76 19.1 C93.87 18.25, 67.02 16.84, 4.78 19.1 M4.78 19.1 C-1.26 20.76, -2.74 20.19, 0 14.33 M4.78 19.1 C-0.53 19.9, 3.61 20.93, 0 14.33 M0 14.33 C-0.8 12.13, -0.92 8.13, 0 4.78 M0 14.33 C0.11 12.03, 0.18 10.69, 0 4.78 M0 4.78 C1.15 0.67, 4.85 -1.87, 4.78 0 M0 4.78 C-2.07 0.83, 0.45 2.28, 4.78 0" stroke="#f36d6b" stroke-width="2" fill="none"></path></g></svg>