<?xml version="1.0" standalone="no"?>
<!DOCTYPE svg PUBLIC "-//W3C//DTD SVG 1.1//EN" "http://www.w3.org/Graphics/SVG/1.1/DTD/svg11.dtd">
<svg version="1.1" xmlns="http://www.w3.org/2000/svg" viewBox="0 0 342.81776439815803 89.47362994219448" width="342.81776439815803" height="89.47362994219448"><!-- svg-source:excalidraw --><metadata></metadata><defs><style class="style-fonts">
      </style></defs><g stroke-linecap="round" transform="translate(10 12.125255435985423) rotate(0 158.6831018513932 25.2749758987215)"><path d="M12.64 0 C80.66 1.47, 143.07 1.13, 304.73 0 M12.64 0 C72.65 -4.17, 132.65 -3.12, 304.73 0 M304.73 0 C316.92 1.18, 314.35 3.15, 317.37 12.64 M304.73 0 C312.07 -0.21, 321.65 3.48, 317.37 12.64 M317.37 12.64 C318.1 26.17, 315.41 35.15, 317.37 37.91 M317.37 12.64 C319.05 16.98, 316.44 24.79, 317.37 37.91 M317.37 37.91 C318.42 45.85, 312.71 50.92, 304.73 50.55 M317.37 37.91 C315.32 49.17, 315.25 51.21, 304.73 50.55 M304.73 50.55 C233.06 55.09, 165.78 51.65, 12.64 50.55 M304.73 50.55 C221.48 50.46, 140.79 49.7, 12.64 50.55 M12.64 50.55 C3.4 49.58, -1.23 45.01, 0 37.91 M12.64 50.55 C8.23 51.4, -0.41 42.61, 0 37.91 M0 37.91 C-2.69 29.26, 2.75 14.53, 0 12.64 M0 37.91 C0.7 31.14, 0.17 26.44, 0 12.64 M0 12.64 C-3.67 1.29, 4.88 -0.46, 12.64 0 M0 12.64 C0.35 1, 1.38 -0.2, 12.64 0" stroke="#f36d6b" stroke-width="1" fill="none"></path></g><g transform="translate(33.307130961224175 65.2564359124191) rotate(0 68.01337579713402 5.550627691199807)" stroke="none"><path fill="#f36d6b" d="M 2.59,0.49 Q 2.59,0.49 2.41,1.54 2.24,2.59 2.19,4.47 2.13,6.36 2.17,7.61 2.20,8.85 4.30,8.24 6.40,7.63 8.58,7.89 10.76,8.16 13.47,8.39 16.19,8.62 19.24,8.82 22.29,9.02 25.42,9.14 28.55,9.26 30.13,9.23 31.72,9.20 33.99,9.28 36.25,9.37 39.31,9.43 42.38,9.48 46.10,9.43 49.83,9.37 53.68,9.31 57.52,9.25 61.66,9.23 65.80,9.21 69.96,9.21 74.11,9.21 77.88,9.26 81.66,9.32 84.86,9.40 88.06,9.47 90.63,9.56 93.19,9.64 94.38,9.55 95.57,9.46 96.96,9.39 98.35,9.31 99.44,9.23 100.53,9.14 101.70,9.07 102.86,9.00 104.29,9.01 105.72,9.02 107.13,9.06 108.54,9.10 109.80,9.09 111.06,9.08 112.14,9.00 113.22,8.92 115.42,8.71 117.63,8.50 119.31,8.28 120.99,8.06 122.28,7.99 123.57,7.92 125.11,7.94 126.64,7.95 127.79,7.92 128.93,7.89 130.52,7.88 132.10,7.86 133.31,7.81 134.52,7.75 134.00,6.40 133.48,5.06 133.42,3.93 133.35,2.81 133.18,1.53 133.01,0.24 133.00,-0.27 132.99,-0.79 133.14,-1.29 133.30,-1.79 133.60,-2.22 133.91,-2.64 134.33,-2.94 134.76,-3.25 135.26,-3.40 135.76,-3.55 136.28,-3.54 136.81,-3.52 137.30,-3.34 137.79,-3.16 138.19,-2.83 138.60,-2.50 138.88,-2.06 139.16,-1.62 139.29,-1.11 139.41,-0.61 139.37,-0.08 139.32,0.43 139.12,0.91 138.91,1.39 138.56,1.77 138.21,2.16 137.75,2.42 137.30,2.68 136.78,2.77 136.27,2.87 135.75,2.80 135.23,2.73 134.77,2.49 134.30,2.26 133.93,1.89 133.56,1.52 133.33,1.05 133.10,0.58 133.03,0.06 132.96,-0.45 133.06,-0.96 133.16,-1.47 133.42,-1.93 133.68,-2.38 134.07,-2.73 134.46,-3.08 134.94,-3.28 135.42,-3.49 135.94,-3.53 136.46,-3.57 136.97,-3.44 137.47,-3.32 137.91,-3.03 138.35,-2.75 138.68,-2.34 139.01,-1.93 139.19,-1.44 139.37,-0.95 139.37,-0.95 139.37,-0.95 139.56,0.84 139.76,2.64 139.77,4.03 139.78,5.41 139.71,6.51 139.64,7.62 139.46,8.70 139.28,9.77 138.09,11.52 136.89,13.26 135.68,13.51 134.47,13.75 133.05,13.63 131.63,13.51 130.30,13.41 128.97,13.30 127.85,13.29 126.72,13.28 124.20,13.36 121.69,13.44 119.83,13.52 117.97,13.59 116.80,13.64 115.63,13.69 114.50,13.72 113.38,13.74 112.16,13.74 110.95,13.73 109.63,13.66 108.31,13.59 106.93,13.49 105.56,13.38 104.20,13.29 102.85,13.20 101.68,13.13 100.51,13.05 99.41,12.95 98.31,12.86 96.90,12.75 95.48,12.65 94.29,12.49 93.11,12.33 90.56,12.26 88.01,12.19 84.82,12.13 81.63,12.07 77.87,12.04 74.12,12.01 69.97,12.04 65.83,12.07 61.71,12.13 57.59,12.19 53.75,12.31 49.91,12.44 46.14,12.58 42.37,12.72 39.31,12.77 36.24,12.82 33.96,12.89 31.68,12.96 30.10,12.90 28.51,12.84 25.35,12.89 22.18,12.94 19.12,12.98 16.06,13.01 13.33,13.08 10.60,13.16 8.42,13.29 6.25,13.41 4.53,13.44 2.81,13.47 1.02,13.07 -0.75,12.67 -2.16,10.77 -3.56,8.87 -3.49,7.52 -3.41,6.17 -3.35,5.06 -3.29,3.96 -3.16,2.77 -3.03,1.59 -2.81,0.55 -2.59,-0.49 -2.49,-0.79 -2.39,-1.09 -2.23,-1.36 -2.06,-1.63 -1.84,-1.86 -1.61,-2.08 -1.34,-2.24 -1.06,-2.41 -0.76,-2.50 -0.45,-2.59 -0.14,-2.61 0.17,-2.63 0.48,-2.57 0.79,-2.51 1.08,-2.38 1.37,-2.24 1.62,-2.05 1.87,-1.85 2.07,-1.60 2.26,-1.35 2.39,-1.06 2.52,-0.76 2.57,-0.45 2.63,-0.14 2.61,0.17 2.59,0.49 2.59,0.49 L 2.59,0.49 Z"></path></g><g transform="translate(180.78113687569567 66.46427132804259) rotate(0 67.65846414298323 5.718915679564304)" stroke="none"><path fill="#f36d6b" d="M 2.64,0.12 Q 2.64,0.12 2.61,1.21 2.59,2.31 2.63,3.47 2.67,4.63 2.96,5.90 3.24,7.17 4.65,7.30 6.06,7.43 7.36,7.54 8.66,7.64 11.06,7.78 13.46,7.92 14.53,7.92 15.61,7.92 17.81,8.13 20.01,8.34 21.25,8.32 22.48,8.31 24.73,8.53 26.98,8.74 28.41,8.79 29.84,8.84 32.15,9.05 34.47,9.26 37.53,9.55 40.60,9.83 44.05,10.19 47.50,10.54 51.49,10.81 55.47,11.08 59.55,11.21 63.62,11.34 67.50,11.41 71.38,11.48 75.13,11.52 78.88,11.55 82.26,11.53 85.64,11.50 88.46,11.39 91.28,11.29 93.90,11.24 96.52,11.20 98.92,11.14 101.32,11.07 103.84,11.00 106.36,10.92 108.92,10.84 111.49,10.76 114.10,10.72 116.70,10.69 118.79,10.62 120.88,10.55 122.14,10.35 123.41,10.16 124.76,9.78 126.12,9.41 127.71,8.98 129.30,8.56 131.30,8.24 133.29,7.93 132.47,6.99 131.65,6.06 131.33,4.78 131.00,3.50 130.22,1.51 129.44,-0.47 129.33,-0.94 129.23,-1.41 129.28,-1.88 129.33,-2.36 129.53,-2.79 129.74,-3.23 130.06,-3.57 130.39,-3.92 130.82,-4.15 131.24,-4.37 131.71,-4.45 132.18,-4.53 132.66,-4.45 133.13,-4.37 133.55,-4.15 133.98,-3.92 134.31,-3.58 134.63,-3.23 134.84,-2.79 135.04,-2.36 135.09,-1.88 135.14,-1.41 135.04,-0.94 134.93,-0.47 134.69,-0.06 134.44,0.34 134.08,0.65 133.71,0.96 133.27,1.14 132.82,1.31 132.34,1.34 131.87,1.37 131.40,1.24 130.94,1.11 130.55,0.84 130.15,0.57 129.86,0.19 129.57,-0.18 129.42,-0.63 129.26,-1.09 129.26,-1.57 129.26,-2.05 129.42,-2.50 129.57,-2.95 129.86,-3.33 130.15,-3.72 130.55,-3.98 130.94,-4.25 131.40,-4.38 131.87,-4.51 132.34,-4.48 132.82,-4.46 133.27,-4.28 133.71,-4.10 134.08,-3.79 134.44,-3.48 134.69,-3.07 134.93,-2.66 134.93,-2.66 134.93,-2.66 135.72,-0.33 136.50,1.99 136.87,3.28 137.25,4.56 137.57,6.11 137.89,7.66 137.30,9.87 136.71,12.08 135.33,12.50 133.96,12.93 131.91,13.06 129.86,13.19 128.19,13.24 126.51,13.29 125.06,13.30 123.60,13.30 122.28,13.26 120.96,13.22 118.85,13.28 116.74,13.34 114.16,13.38 111.58,13.42 109.01,13.50 106.44,13.59 103.92,13.67 101.40,13.76 98.98,13.84 96.57,13.91 93.98,13.97 91.39,14.03 88.53,14.16 85.67,14.29 82.27,14.35 78.86,14.40 75.11,14.41 71.35,14.41 67.45,14.40 63.55,14.39 59.42,14.34 55.30,14.28 51.26,14.12 47.23,13.95 43.80,13.75 40.37,13.55 37.35,13.46 34.33,13.38 31.96,13.43 29.60,13.48 28.24,13.39 26.88,13.30 24.68,13.41 22.48,13.53 21.24,13.51 20.00,13.50 17.79,13.70 15.58,13.90 14.50,13.90 13.42,13.89 10.90,13.97 8.38,14.04 7.13,14.03 5.87,14.02 4.39,13.87 2.91,13.73 1.29,12.94 -0.32,12.14 -1.32,10.85 -2.33,9.55 -2.59,8.44 -2.85,7.33 -2.92,5.94 -2.99,4.55 -2.89,3.31 -2.79,2.06 -2.71,0.97 -2.64,-0.12 -2.59,-0.43 -2.53,-0.75 -2.41,-1.04 -2.28,-1.33 -2.09,-1.58 -1.89,-1.84 -1.65,-2.04 -1.40,-2.24 -1.11,-2.38 -0.82,-2.51 -0.51,-2.57 -0.19,-2.63 0.11,-2.62 0.43,-2.61 0.74,-2.52 1.05,-2.42 1.32,-2.26 1.60,-2.10 1.83,-1.88 2.05,-1.66 2.22,-1.39 2.39,-1.12 2.49,-0.81 2.59,-0.51 2.62,-0.19 2.64,0.12 2.64,0.12 L 2.64,0.12 Z"></path></g><g transform="translate(12.668089560683939 16.427320905116304) rotate(0 159.11942735910532 25.01441313330644)" stroke="none"><path fill="#f36d6b" d="M 2.61,0 Q 2.61,0 2.62,1.29 2.62,2.59 2.54,3.77 2.47,4.95 2.48,6.04 2.50,7.13 2.42,8.28 2.35,9.43 2.33,11.08 2.31,12.73 2.25,13.93 2.18,15.13 2.06,16.63 1.94,18.14 1.85,19.44 1.77,20.74 1.74,22.43 1.71,24.12 1.64,25.25 1.56,26.37 1.50,27.92 1.44,29.46 1.40,31.13 1.37,32.79 1.42,34.31 1.46,35.83 1.56,36.95 1.65,38.07 1.94,39.58 2.23,41.09 2.95,41.88 3.66,42.66 5.36,43.17 7.06,43.68 8.61,44.02 10.16,44.37 12.03,44.73 13.91,45.09 17.08,45.50 20.24,45.91 22.88,46.20 25.53,46.49 27.96,46.76 30.40,47.03 32.60,47.17 34.79,47.32 37.14,47.45 39.49,47.59 42.31,47.67 45.14,47.74 48.11,47.84 51.07,47.93 54.11,47.98 57.16,48.03 60.16,48.11 63.17,48.19 66.24,48.27 69.32,48.36 72.76,48.40 76.20,48.44 79.77,48.51 83.34,48.58 86.81,48.67 90.27,48.75 94.54,48.83 98.81,48.92 102.82,49.01 106.83,49.09 110.99,49.23 115.15,49.37 119.41,49.48 123.66,49.59 127.96,49.63 132.26,49.68 136.83,49.65 141.39,49.62 145.79,49.61 150.18,49.60 154.20,49.59 158.22,49.59 162.13,49.63 166.04,49.68 169.74,49.70 173.45,49.72 176.79,49.83 180.13,49.94 183.34,50.04 186.54,50.13 189.60,50.17 192.65,50.21 195.71,50.08 198.77,49.95 201.97,49.74 205.18,49.54 208.18,49.30 211.18,49.07 214.12,48.86 217.06,48.66 219.80,48.48 222.54,48.29 225.01,48.11 227.47,47.94 228.92,47.75 230.37,47.56 231.88,47.39 233.39,47.23 235.36,47.20 237.34,47.17 239.27,47.16 241.20,47.15 243.12,47.14 245.04,47.14 247.14,47.13 249.23,47.12 251.53,47.09 253.82,47.06 256.09,47.00 258.36,46.95 260.43,46.87 262.49,46.79 264.58,46.76 266.67,46.73 268.66,46.70 270.65,46.67 272.74,46.67 274.84,46.68 277.21,46.79 279.57,46.91 282.06,47.01 284.55,47.12 287.01,47.22 289.46,47.31 291.48,47.29 293.49,47.26 294.83,47.10 296.17,46.93 297.50,46.72 298.84,46.51 300.20,46.29 301.56,46.07 302.89,45.81 304.23,45.55 305.48,45.26 306.73,44.97 307.82,44.67 308.92,44.37 309.99,43.68 311.05,43.00 311.96,42.27 312.88,41.54 313.99,40.64 315.10,39.74 315.85,38.40 316.60,37.05 316.75,35.66 316.90,34.27 316.75,32.67 316.59,31.06 316.35,29.08 316.11,27.11 315.80,25.07 315.48,23.03 315.17,21.04 314.86,19.04 314.58,17.24 314.30,15.43 313.92,13.95 313.55,12.46 313.17,10.74 312.79,9.01 312.46,7.48 312.13,5.95 311.76,4.48 311.39,3.01 310.93,1.11 310.47,-0.78 310.43,-1.32 310.39,-1.86 310.53,-2.38 310.66,-2.90 310.96,-3.35 311.25,-3.81 311.68,-4.14 312.10,-4.48 312.61,-4.66 313.12,-4.84 313.65,-4.85 314.19,-4.86 314.71,-4.70 315.22,-4.54 315.66,-4.22 316.10,-3.90 316.41,-3.46 316.72,-3.02 316.87,-2.50 317.03,-1.98 317.01,-1.44 316.99,-0.90 316.80,-0.40 316.61,0.10 316.27,0.52 315.93,0.93 315.47,1.22 315.01,1.51 314.49,1.63 313.96,1.76 313.42,1.71 312.89,1.66 312.39,1.45 311.90,1.23 311.50,0.86 311.10,0.50 310.84,0.03 310.58,-0.43 310.48,-0.96 310.38,-1.50 310.46,-2.03 310.54,-2.56 310.78,-3.05 311.02,-3.53 311.41,-3.91 311.79,-4.28 312.28,-4.52 312.76,-4.76 313.30,-4.82 313.84,-4.89 314.36,-4.79 314.89,-4.68 315.36,-4.41 315.83,-4.14 316.19,-3.74 316.54,-3.33 316.75,-2.83 316.96,-2.34 316.96,-2.34 316.96,-2.34 317.36,-0.47 317.76,1.39 318.02,2.52 318.27,3.65 318.45,4.90 318.64,6.14 318.98,7.78 319.32,9.42 319.65,11.01 319.99,12.60 320.31,14.46 320.62,16.32 320.89,18.22 321.15,20.12 321.49,22.14 321.83,24.16 322.00,25.21 322.16,26.27 322.40,28.29 322.64,30.31 322.77,32.40 322.90,34.50 322.81,36.20 322.71,37.91 321.99,39.55 321.27,41.19 320.66,42.08 320.05,42.97 318.63,44.13 317.21,45.30 316.07,45.88 314.93,46.47 313.48,47.26 312.03,48.05 310.97,48.42 309.91,48.78 308.71,48.99 307.52,49.19 306.19,49.39 304.86,49.58 303.42,49.74 301.98,49.91 300.57,49.99 299.16,50.08 297.73,50.11 296.30,50.15 294.90,50.10 293.51,50.04 291.44,50.04 289.36,50.04 286.91,49.96 284.45,49.88 281.95,49.80 279.46,49.72 277.15,49.64 274.85,49.57 272.76,49.59 270.67,49.60 268.70,49.60 266.72,49.60 264.66,49.64 262.61,49.68 260.54,49.77 258.47,49.86 256.19,49.97 253.91,50.08 251.61,50.19 249.31,50.30 247.18,50.40 245.05,50.50 243.14,50.51 241.23,50.51 239.31,50.53 237.40,50.55 235.49,50.59 233.58,50.63 232.06,50.63 230.54,50.63 229.10,50.59 227.66,50.56 225.19,50.73 222.72,50.91 219.98,51.10 217.24,51.28 214.31,51.48 211.39,51.68 208.37,51.92 205.34,52.16 202.11,52.37 198.89,52.57 195.75,52.71 192.61,52.84 189.54,52.80 186.47,52.76 183.25,52.66 180.04,52.57 176.74,52.46 173.43,52.35 169.72,52.33 166.01,52.31 162.11,52.26 158.22,52.22 154.21,52.22 150.19,52.23 145.80,52.24 141.41,52.25 136.82,52.29 132.23,52.32 127.92,52.27 123.60,52.23 119.33,52.12 115.06,52.01 110.92,51.88 106.78,51.74 102.76,51.66 98.75,51.58 94.48,51.50 90.21,51.42 86.75,51.35 83.29,51.28 79.73,51.22 76.17,51.16 72.71,51.14 69.25,51.11 66.18,51.05 63.11,50.98 60.12,50.94 57.13,50.89 54.07,50.89 51.01,50.88 48.05,50.85 45.10,50.82 42.24,50.82 39.38,50.83 37.03,50.81 34.68,50.79 32.41,50.79 30.15,50.80 27.72,50.74 25.29,50.68 22.59,50.67 19.90,50.66 16.62,50.60 13.34,50.54 11.32,50.49 9.31,50.44 7.34,50.30 5.38,50.15 2.99,49.54 0.60,48.93 -0.59,48.26 -1.80,47.59 -2.59,46.65 -3.39,45.71 -3.88,44.11 -4.36,42.52 -4.59,41.24 -4.81,39.96 -4.93,38.68 -5.06,37.39 -5.12,35.94 -5.17,34.48 -5.16,32.70 -5.14,30.92 -5.07,29.17 -5.00,27.42 -4.92,26.21 -4.85,24.99 -4.70,23.81 -4.56,22.63 -4.50,21.45 -4.44,20.26 -4.28,18.91 -4.13,17.56 -3.94,16.19 -3.75,14.82 -3.70,13.73 -3.65,12.63 -3.63,11.52 -3.60,10.42 -3.41,9.07 -3.21,7.72 -3.12,6.65 -3.03,5.57 -2.83,4.08 -2.62,2.59 -2.62,1.29 -2.61,0 -2.57,-0.31 -2.54,-0.62 -2.42,-0.92 -2.31,-1.21 -2.13,-1.47 -1.95,-1.73 -1.72,-1.94 -1.48,-2.15 -1.20,-2.30 -0.92,-2.44 -0.62,-2.52 -0.31,-2.59 0.00,-2.59 0.31,-2.59 0.62,-2.52 0.92,-2.44 1.20,-2.30 1.48,-2.15 1.72,-1.94 1.95,-1.73 2.13,-1.47 2.31,-1.21 2.42,-0.92 2.54,-0.62 2.57,-0.31 2.61,0.00 2.61,0.00 L 2.61,0 Z"></path></g><g transform="translate(12.331526837064757 14.342779022466488) rotate(0 159.5475955777298 -2.0845286295399887)" stroke="none"><path fill="#f36d6b" d="M -0.37,-2.32 Q -0.37,-2.32 1.16,-2.56 2.71,-2.80 5.44,-3.10 8.17,-3.40 10.89,-3.66 13.60,-3.93 16.32,-4.16 19.03,-4.39 21.28,-4.63 23.52,-4.86 25.67,-5.09 27.81,-5.32 30.06,-5.48 32.31,-5.63 34.41,-5.81 36.51,-5.98 38.75,-6.11 41.00,-6.25 43.42,-6.36 45.85,-6.47 47.94,-6.41 50.04,-6.34 52.69,-6.26 55.33,-6.17 58.13,-6.14 60.93,-6.11 62.43,-6.19 63.92,-6.27 66.07,-6.19 68.22,-6.12 69.37,-6.21 70.53,-6.30 72.47,-6.26 74.41,-6.23 76.94,-6.15 79.46,-6.07 82.23,-6.02 85.00,-5.96 86.38,-6.05 87.76,-6.14 89.76,-6.06 91.77,-5.98 93.80,-5.92 95.82,-5.86 97.81,-5.79 99.79,-5.72 102.18,-5.81 104.58,-5.90 106.54,-5.99 108.50,-6.09 110.31,-6.04 112.12,-5.99 113.89,-5.96 115.66,-5.93 117.31,-5.93 118.97,-5.93 120.77,-5.90 122.57,-5.88 124.43,-5.84 126.29,-5.81 128.19,-5.78 130.08,-5.74 131.18,-5.82 132.28,-5.90 133.75,-5.93 135.22,-5.97 137.39,-6.06 139.56,-6.16 141.44,-6.09 143.31,-6.02 145.50,-5.91 147.69,-5.79 150.36,-5.87 153.03,-5.95 155.05,-5.83 157.07,-5.70 159.40,-5.59 161.73,-5.48 164.14,-5.35 166.55,-5.23 168.85,-5.16 171.16,-5.08 173.35,-4.98 175.55,-4.89 177.66,-4.84 179.77,-4.79 181.79,-4.73 183.81,-4.68 185.45,-4.73 187.09,-4.78 188.90,-4.75 190.72,-4.72 192.69,-4.63 194.65,-4.54 196.69,-4.44 198.72,-4.33 200.71,-4.19 202.69,-4.05 204.50,-4.02 206.30,-3.99 208.16,-3.98 210.02,-3.97 211.92,-3.96 213.81,-3.96 215.61,-3.97 217.41,-3.99 219.18,-4.01 220.94,-4.03 222.59,-4.07 224.24,-4.11 226.04,-4.11 227.84,-4.12 229.70,-4.10 231.56,-4.09 233.68,-3.98 235.79,-3.87 237.98,-3.74 240.17,-3.62 242.30,-3.50 244.43,-3.38 246.54,-3.27 248.64,-3.16 250.83,-3.05 253.02,-2.94 255.06,-2.86 257.09,-2.78 258.25,-2.86 259.41,-2.94 260.72,-2.97 262.03,-2.99 263.58,-2.96 265.13,-2.92 266.69,-2.87 268.26,-2.82 269.72,-2.78 271.19,-2.73 272.71,-2.67 274.23,-2.61 275.81,-2.49 277.39,-2.36 279.79,-2.14 282.19,-1.92 284.12,-1.84 286.04,-1.76 287.85,-1.73 289.66,-1.71 291.43,-1.71 293.20,-1.71 294.85,-1.73 296.50,-1.76 297.86,-1.86 299.23,-1.96 300.64,-2.03 302.06,-2.10 303.56,-2.13 305.06,-2.16 306.40,-2.21 307.73,-2.25 309.10,-2.28 310.47,-2.31 311.89,-2.28 313.31,-2.25 314.67,-2.25 316.04,-2.25 317.57,-2.27 319.11,-2.29 319.51,-2.22 319.90,-2.15 320.25,-1.96 320.60,-1.77 320.87,-1.48 321.15,-1.19 321.31,-0.82 321.47,-0.46 321.51,-0.06 321.55,0.32 321.46,0.71 321.38,1.10 321.17,1.44 320.96,1.78 320.65,2.04 320.34,2.30 319.97,2.44 319.60,2.58 319.20,2.60 318.80,2.62 318.42,2.51 318.03,2.40 317.71,2.17 317.38,1.95 317.14,1.63 316.90,1.31 316.77,0.93 316.65,0.55 316.65,0.15 316.66,-0.24 316.79,-0.62 316.92,-1.00 317.16,-1.31 317.41,-1.63 317.74,-1.85 318.07,-2.07 318.46,-2.17 318.85,-2.28 319.24,-2.25 319.64,-2.23 320.01,-2.08 320.38,-1.93 320.68,-1.66 320.99,-1.40 321.19,-1.06 321.39,-0.71 321.47,-0.32 321.56,0.06 321.51,0.45 321.46,0.85 321.29,1.21 321.12,1.57 320.84,1.86 320.57,2.15 320.21,2.33 319.86,2.52 319.46,2.58 319.07,2.64 319.07,2.64 319.07,2.64 317.52,2.58 315.96,2.53 314.55,2.49 313.15,2.45 311.81,2.38 310.47,2.31 309.11,2.29 307.75,2.26 306.42,2.23 305.09,2.19 303.60,2.17 302.12,2.16 300.75,2.13 299.37,2.11 297.93,2.10 296.49,2.09 294.84,2.06 293.18,2.03 291.40,2.02 289.62,2.00 287.79,1.99 285.95,1.97 283.99,1.96 282.02,1.95 279.52,1.95 277.01,1.96 275.50,1.81 273.99,1.66 272.47,1.55 270.95,1.44 269.50,1.31 268.04,1.19 266.49,1.07 264.94,0.96 263.39,0.83 261.84,0.71 260.57,0.56 259.30,0.40 258.13,0.25 256.97,0.10 254.94,0.00 252.91,-0.08 250.72,-0.14 248.52,-0.20 246.42,-0.26 244.32,-0.32 242.19,-0.36 240.07,-0.41 237.89,-0.42 235.70,-0.44 233.63,-0.43 231.56,-0.41 229.70,-0.40 227.84,-0.39 226.04,-0.40 224.24,-0.40 222.59,-0.44 220.94,-0.48 219.17,-0.50 217.40,-0.53 215.59,-0.55 213.79,-0.58 211.88,-0.60 209.98,-0.61 208.09,-0.65 206.20,-0.68 204.33,-0.77 202.47,-0.85 200.53,-0.98 198.59,-1.11 196.56,-1.17 194.53,-1.23 192.57,-1.30 190.61,-1.36 188.82,-1.45 187.04,-1.54 185.38,-1.64 183.72,-1.74 181.73,-1.81 179.74,-1.88 177.60,-1.88 175.46,-1.88 173.29,-1.91 171.12,-1.93 168.79,-1.91 166.46,-1.88 164.08,-1.88 161.70,-1.87 159.34,-1.80 156.97,-1.73 155.00,-1.71 153.03,-1.68 150.36,-1.76 147.69,-1.84 145.50,-1.73 143.31,-1.61 141.44,-1.54 139.56,-1.47 137.39,-1.57 135.22,-1.67 133.75,-1.70 132.28,-1.73 131.18,-1.81 130.08,-1.89 128.19,-1.86 126.29,-1.83 124.43,-1.79 122.57,-1.76 120.76,-1.73 118.96,-1.71 117.31,-1.71 115.66,-1.71 113.88,-1.69 112.11,-1.66 110.28,-1.62 108.46,-1.58 106.43,-1.75 104.40,-1.92 102.04,-2.17 99.69,-2.43 97.74,-2.48 95.79,-2.53 93.73,-2.51 91.68,-2.50 89.72,-2.52 87.76,-2.54 86.38,-2.63 85.00,-2.72 82.23,-2.66 79.46,-2.60 76.94,-2.52 74.42,-2.44 72.48,-2.40 70.55,-2.36 69.39,-2.44 68.24,-2.52 66.12,-2.42 64.00,-2.32 62.51,-2.34 61.03,-2.36 58.22,-2.19 55.41,-2.01 52.85,-1.83 50.29,-1.65 48.13,-1.36 45.97,-1.06 43.62,-0.95 41.26,-0.83 39.11,-0.73 36.96,-0.63 34.77,-0.51 32.57,-0.40 30.43,-0.31 28.28,-0.21 26.11,-0.09 23.94,0.02 21.67,0.14 19.40,0.27 16.74,0.46 14.08,0.65 11.37,0.92 8.67,1.20 6.06,1.50 3.46,1.81 1.91,2.06 0.37,2.32 0.09,2.33 -0.19,2.35 -0.47,2.29 -0.74,2.23 -1.00,2.11 -1.26,1.99 -1.48,1.81 -1.70,1.63 -1.87,1.40 -2.04,1.17 -2.15,0.91 -2.26,0.65 -2.31,0.37 -2.35,0.09 -2.33,-0.19 -2.30,-0.47 -2.21,-0.74 -2.12,-1.01 -1.97,-1.25 -1.82,-1.49 -1.61,-1.68 -1.41,-1.88 -1.16,-2.02 -0.92,-2.17 -0.64,-2.24 -0.37,-2.32 -0.37,-2.32 L -0.37,-2.32 Z"></path></g><g stroke-linecap="round" transform="translate(40.71970130270893 30.302491930030882) rotate(0 8.779867174339188 7.885544011098397)"><path d="M3.94 0 C8.25 0.53, 8.84 0.46, 13.62 0 M3.94 0 C6.73 -0.32, 9.21 0.85, 13.62 0 M13.62 0 C17.9 -3.4, 16.25 2.5, 17.56 3.94 M13.62 0 C13.88 2.11, 16.79 4.08, 17.56 3.94 M17.56 3.94 C19.24 4.49, 18.54 7.56, 17.56 11.83 M17.56 3.94 C18.25 6.59, 17.57 7.93, 17.56 11.83 M17.56 11.83 C19.6 18.23, 13.27 17.34, 13.62 15.77 M17.56 11.83 C20.16 14.8, 13.57 18.19, 13.62 15.77 M13.62 15.77 C12.91 16.76, 8.5 14.7, 3.94 15.77 M13.62 15.77 C10.05 16.08, 7.48 15.27, 3.94 15.77 M3.94 15.77 C0.44 14.99, 2.75 11.94, 0 11.83 M3.94 15.77 C2.85 17.69, -3.09 16.34, 0 11.83 M0 11.83 C0.88 9.29, 0.47 6.64, 0 3.94 M0 11.83 C-0.32 8.02, -0.14 5.44, 0 3.94 M0 3.94 C0.03 0.11, 1.2 -3.83, 3.94 0 M0 3.94 C-0.49 2.49, 4.25 -4.09, 3.94 0" stroke="#f36d6b" stroke-width="1" fill="none"></path></g><g stroke-linecap="round" transform="translate(193.28630595748814 30.368384916138766) rotate(0 8.779867174339188 7.885544011098397)"><path d="M3.94 0 C7.68 0.88, 10.38 -1.66, 13.62 0 M3.94 0 C5.49 0.45, 8.26 -0.32, 13.62 0 M13.62 0 C14.41 -3.27, 19.47 -0.56, 17.56 3.94 M13.62 0 C15.56 -2.64, 19.55 0.35, 17.56 3.94 M17.56 3.94 C16.61 6.47, 16.53 8.47, 17.56 11.83 M17.56 3.94 C18.29 6.25, 17.06 8.22, 17.56 11.83 M17.56 11.83 C17.72 17.48, 14.19 16.51, 13.62 15.77 M17.56 11.83 C15.91 16.16, 15.25 17.11, 13.62 15.77 M13.62 15.77 C9.97 15.53, 8.76 17.41, 3.94 15.77 M13.62 15.77 C10.19 15.15, 5.49 15.26, 3.94 15.77 M3.94 15.77 C-2.39 14.3, -3.5 11.62, 0 11.83 M3.94 15.77 C5.12 17.76, 2.71 12.03, 0 11.83 M0 11.83 C-0.09 8.93, 0.5 6.36, 0 3.94 M0 11.83 C-0.27 10.71, -0.06 8.17, 0 3.94 M0 3.94 C-1.74 4.88, 1.48 1.07, 3.94 0 M0 3.94 C3 3.6, -0.71 3.72, 3.94 0" stroke="#f36d6b" stroke-width="1" fill="none"></path></g><g stroke-linecap="round" transform="translate(68.27535369356633 29.18769849596059) rotate(0 8.779867174339188 7.885544011098397)"><path d="M3.94 0 C7.88 -0.7, 10.91 -0.99, 13.62 0 M3.94 0 C5.71 0.7, 8.27 -0.78, 13.62 0 M13.62 0 C17.37 2.76, 20.63 2.37, 17.56 3.94 M13.62 0 C20.17 0.16, 21.97 -2.29, 17.56 3.94 M17.56 3.94 C18.87 5.19, 18.95 6.58, 17.56 11.83 M17.56 3.94 C17.33 6.83, 17.65 9.83, 17.56 11.83 M17.56 11.83 C15.6 12.64, 15.3 13.62, 13.62 15.77 M17.56 11.83 C17.27 14.69, 13.2 16.71, 13.62 15.77 M13.62 15.77 C10.5 15.62, 9.91 15.53, 3.94 15.77 M13.62 15.77 C10.6 16.12, 7.1 16.24, 3.94 15.77 M3.94 15.77 C0.35 12.34, -3.76 13.68, 0 11.83 M3.94 15.77 C-1.46 11.21, -1.93 17.67, 0 11.83 M0 11.83 C1.05 8.18, -0.93 5.19, 0 3.94 M0 11.83 C-0.58 9.66, 0.19 7.29, 0 3.94 M0 3.94 C-0.62 -0.79, 3.59 1.01, 3.94 0 M0 3.94 C-4.07 1.1, 3.25 4.42, 3.94 0" stroke="#f36d6b" stroke-width="1" fill="none"></path></g><g stroke-linecap="round" transform="translate(220.84195834834554 29.253591482068472) rotate(0 8.779867174339188 7.885544011098397)"><path d="M3.94 0 C7.26 -1.79, 8.19 1.23, 13.62 0 M3.94 0 C6.93 -0.34, 10.13 -0.9, 13.62 0 M13.62 0 C18.16 -1.87, 16.96 -0.98, 17.56 3.94 M13.62 0 C18.23 -0.97, 17.6 2.34, 17.56 3.94 M17.56 3.94 C16.4 5.3, 17.38 7.69, 17.56 11.83 M17.56 3.94 C17.14 5.38, 17.73 8.16, 17.56 11.83 M17.56 11.83 C15.5 15.2, 14.81 17.25, 13.62 15.77 M17.56 11.83 C16.57 15.79, 16.6 14.54, 13.62 15.77 M13.62 15.77 C12.58 17.56, 11.11 15.9, 3.94 15.77 M13.62 15.77 C10.72 15.28, 8.07 15.32, 3.94 15.77 M3.94 15.77 C-2.19 12.94, 3.31 16.19, 0 11.83 M3.94 15.77 C4.02 13.35, -1.96 13.33, 0 11.83 M0 11.83 C0.47 8.58, -1.2 9.37, 0 3.94 M0 11.83 C0.09 9.69, -0.31 8.52, 0 3.94 M0 3.94 C0.16 2.38, 3.92 1.99, 3.94 0 M0 3.94 C-2.02 5.03, -0.71 -2.41, 3.94 0" stroke="#f36d6b" stroke-width="1" fill="none"></path></g><g stroke-linecap="round" transform="translate(96.20019796439442 28.47324837646903) rotate(0 8.779867174339188 7.885544011098397)"><path d="M3.94 0 C4.21 -0.53, 7.53 0.68, 13.62 0 M3.94 0 C7.89 -0.38, 10.15 0.24, 13.62 0 M13.62 0 C14.95 3.55, 21.14 0.23, 17.56 3.94 M13.62 0 C16.29 1.48, 17.98 1.5, 17.56 3.94 M17.56 3.94 C17.03 4.92, 18.6 9.05, 17.56 11.83 M17.56 3.94 C17.46 6.55, 17.89 8.87, 17.56 11.83 M17.56 11.83 C15.75 18.05, 16.88 13.74, 13.62 15.77 M17.56 11.83 C16.2 16.9, 12.85 15.53, 13.62 15.77 M13.62 15.77 C10.52 14.22, 10.34 15.07, 3.94 15.77 M13.62 15.77 C10.59 15.85, 6.14 16.61, 3.94 15.77 M3.94 15.77 C-1.61 14.77, 1.16 10.75, 0 11.83 M3.94 15.77 C3.4 18.32, -2.47 14.73, 0 11.83 M0 11.83 C-1.36 8.08, 0.12 7.11, 0 3.94 M0 11.83 C0.25 8.45, -0.27 6.51, 0 3.94 M0 3.94 C-2.38 -2.17, -2.38 3.99, 3.94 0 M0 3.94 C0.65 5.36, -0.74 -0.22, 3.94 0" stroke="#f36d6b" stroke-width="1" fill="none"></path></g><g stroke-linecap="round" transform="translate(248.76680261917363 28.539141362576913) rotate(0 8.779867174339188 7.885544011098397)"><path d="M3.94 0 C6.11 1.48, 11.41 -1.38, 13.62 0 M3.94 0 C6.94 -0.74, 11.28 -0.41, 13.62 0 M13.62 0 C15.65 -2.29, 19.29 0.47, 17.56 3.94 M13.62 0 C16.29 1.03, 12.98 -1.56, 17.56 3.94 M17.56 3.94 C17.37 6.97, 16.35 10.18, 17.56 11.83 M17.56 3.94 C17.48 6.89, 17.04 8.79, 17.56 11.83 M17.56 11.83 C16.13 15.93, 15.38 16.93, 13.62 15.77 M17.56 11.83 C17.92 13.22, 12.56 14.18, 13.62 15.77 M13.62 15.77 C12.5 16.09, 6.74 16.65, 3.94 15.77 M13.62 15.77 C10.32 15.34, 7.98 15.01, 3.94 15.77 M3.94 15.77 C4.63 17.5, 2.35 12.35, 0 11.83 M3.94 15.77 C-0.65 14.64, -3.04 14.09, 0 11.83 M0 11.83 C-1.26 11.13, -0.77 7.67, 0 3.94 M0 11.83 C-0.36 9.52, 0.02 6.02, 0 3.94 M0 3.94 C2.61 3.3, -0.45 3.24, 3.94 0 M0 3.94 C-2.02 -1.09, -0.02 0.94, 3.94 0" stroke="#f36d6b" stroke-width="1" fill="none"></path></g><g stroke-linecap="round" transform="translate(122.93618527284661 28.92183816144393) rotate(0 8.779867174339188 7.885544011098397)"><path d="M3.94 0 C5.31 0.29, 10.08 1.15, 13.62 0 M3.94 0 C6.19 -0.38, 10.2 -0.64, 13.62 0 M13.62 0 C12.76 -3.69, 21.55 1.88, 17.56 3.94 M13.62 0 C20.29 -2.05, 17.34 -1.4, 17.56 3.94 M17.56 3.94 C18.05 7.24, 17.24 9.98, 17.56 11.83 M17.56 3.94 C17.6 6.07, 17.53 8.6, 17.56 11.83 M17.56 11.83 C16.89 12.46, 13.35 13.66, 13.62 15.77 M17.56 11.83 C16.92 18.32, 13.7 13.24, 13.62 15.77 M13.62 15.77 C11.32 14.44, 7.69 17.06, 3.94 15.77 M13.62 15.77 C11.68 15.3, 7.88 16.53, 3.94 15.77 M3.94 15.77 C0.9 14.26, -1.85 13.88, 0 11.83 M3.94 15.77 C0.57 20.14, 3.33 10.46, 0 11.83 M0 11.83 C-0.12 9.28, -0.05 6.29, 0 3.94 M0 11.83 C-0.06 10.76, -0.65 8.85, 0 3.94 M0 3.94 C2.89 3.12, -2.11 -2.9, 3.94 0 M0 3.94 C-3.37 0, 3.38 -4.59, 3.94 0" stroke="#f36d6b" stroke-width="1" fill="none"></path></g><g stroke-linecap="round" transform="translate(275.5027899276258 28.987731147551813) rotate(0 8.779867174339188 7.885544011098397)"><path d="M3.94 0 C8.57 -0.51, 10.59 -0.73, 13.62 0 M3.94 0 C5.91 -0.46, 8.58 -0.11, 13.62 0 M13.62 0 C16.28 0.89, 13.57 -1.18, 17.56 3.94 M13.62 0 C16.69 -3.1, 16.91 1.08, 17.56 3.94 M17.56 3.94 C17.42 5.49, 16.7 9.33, 17.56 11.83 M17.56 3.94 C17.2 7.2, 17.31 10.09, 17.56 11.83 M17.56 11.83 C17.87 13.38, 13.04 14.39, 13.62 15.77 M17.56 11.83 C17.36 17.06, 20.51 19.92, 13.62 15.77 M13.62 15.77 C9.64 14.69, 6.88 14.05, 3.94 15.77 M13.62 15.77 C11.87 16.05, 9.09 15.12, 3.94 15.77 M3.94 15.77 C-0.39 14.79, -2.65 14.14, 0 11.83 M3.94 15.77 C-1.22 17.11, -4.11 10.93, 0 11.83 M0 11.83 C1.36 8.97, -0.2 5.18, 0 3.94 M0 11.83 C0.51 9.15, -0.35 6.33, 0 3.94 M0 3.94 C-1.76 -0.78, 0.16 0.81, 3.94 0 M0 3.94 C4.4 3.57, 0.18 0.08, 3.94 0" stroke="#f36d6b" stroke-width="1" fill="none"></path></g></svg>