<?xml version="1.0" standalone="no"?>
<!DOCTYPE svg PUBLIC "-//W3C//DTD SVG 1.1//EN" "http://www.w3.org/Graphics/SVG/1.1/DTD/svg11.dtd">
<svg version="1.1" xmlns="http://www.w3.org/2000/svg" viewBox="0 0 385.99378322392977 332.28106744819183" width="385.99378322392977" height="332.28106744819183"><!-- svg-source:excalidraw --><metadata></metadata><defs><style class="style-fonts">
      </style></defs><g stroke-linecap="round" transform="translate(10 10) rotate(0 182.99689161196488 153.94704117607796)"><path d="M32 0 C109.79 4, 183.96 3.52, 333.99 0 M32 0 C134.54 2.21, 238.57 3.58, 333.99 0 M333.99 0 C356.34 -1.58, 366.09 13.12, 365.99 32 M333.99 0 C355.84 -4.09, 370.28 9.32, 365.99 32 M365.99 32 C364.91 103.62, 362.55 177.21, 365.99 275.89 M365.99 32 C369.95 116.84, 371.61 204.82, 365.99 275.89 M365.99 275.89 C363.32 298.02, 357.02 309.95, 333.99 307.89 M365.99 275.89 C366.18 295.11, 358.91 308.51, 333.99 307.89 M333.99 307.89 C230.49 307.72, 127.5 308.65, 32 307.89 M333.99 307.89 C230.94 306.87, 130.48 306.84, 32 307.89 M32 307.89 C9.83 311.3, -3.26 294.11, 0 275.89 M32 307.89 C11.61 305.3, -4.58 293.71, 0 275.89 M0 275.89 C-0.7 224.19, -3.18 178.17, 0 32 M0 275.89 C5.04 209.34, 1.89 146.57, 0 32 M0 32 C1.93 12.15, 13.17 -3.95, 32 0 M0 32 C-2.24 8.03, 11.73 3.95, 32 0" stroke="#f36d6b" stroke-width="1" fill="none"></path></g><g transform="translate(62.45999168366461 322.28106744819183) rotate(0 127.36738493650773 -62.16471288317305)" stroke="none"><path fill="#f36d6b" d="M -1.85,0.12 Q -1.85,0.12 -2.00,-1.47 -2.14,-3.07 -2.21,-5.49 -2.28,-7.90 -2.39,-10.65 -2.51,-13.40 -2.75,-16.48 -2.99,-19.57 -3.16,-21.33 -3.33,-23.10 -3.55,-25.54 -3.77,-27.98 -3.85,-30.81 -3.94,-33.63 -4.09,-35.03 -4.23,-36.42 -4.30,-38.11 -4.37,-39.80 -4.52,-42.20 -4.67,-44.60 -4.62,-46.52 -4.58,-48.44 -4.65,-51.20 -4.71,-53.96 -4.77,-55.13 -4.84,-56.29 -4.73,-57.94 -4.62,-59.59 -4.47,-61.16 -4.33,-62.72 -4.08,-65.12 -3.82,-67.52 -3.53,-69.63 -3.23,-71.74 -2.90,-73.83 -2.57,-75.93 -2.05,-77.67 -1.54,-79.41 -1.08,-81.13 -0.61,-82.86 -0.20,-84.49 0.20,-86.12 0.43,-87.18 0.66,-88.23 0.84,-89.51 1.03,-90.79 1.50,-93.10 1.97,-95.40 2.41,-97.24 2.84,-99.08 3.16,-100.90 3.47,-102.72 3.64,-103.92 3.81,-105.11 3.97,-106.72 4.14,-108.33 4.52,-110.47 4.90,-112.61 5.24,-113.63 5.59,-114.65 6.94,-116.34 8.28,-118.03 10.05,-118.65 11.81,-119.27 13.82,-119.92 15.82,-120.57 18.25,-121.12 20.69,-121.68 21.77,-121.93 22.86,-122.18 25.18,-122.33 27.50,-122.49 30.19,-122.70 32.88,-122.91 34.40,-123.18 35.93,-123.44 38.17,-123.56 40.42,-123.67 43.54,-123.79 46.65,-123.91 49.91,-124.05 53.16,-124.18 56.70,-124.32 60.25,-124.47 64.34,-124.63 68.43,-124.78 72.87,-124.95 77.30,-125.11 81.46,-125.17 85.62,-125.24 89.98,-125.26 94.33,-125.28 98.98,-125.28 103.63,-125.29 108.19,-125.29 112.75,-125.29 117.04,-125.39 121.34,-125.50 125.35,-125.44 129.36,-125.37 133.68,-125.02 138.00,-124.66 142.41,-124.30 146.81,-123.93 150.84,-123.56 154.87,-123.19 158.95,-122.82 163.03,-122.44 167.14,-122.07 171.24,-121.69 175.34,-121.43 179.43,-121.16 183.56,-120.83 187.69,-120.50 191.37,-120.26 195.05,-120.01 198.76,-119.80 202.48,-119.58 205.33,-119.49 208.19,-119.40 211.60,-119.15 215.00,-118.89 218.41,-118.46 221.81,-118.02 224.32,-117.73 226.82,-117.44 228.47,-117.07 230.11,-116.69 231.63,-115.84 233.15,-114.98 234.43,-114.11 235.71,-113.24 236.59,-112.52 237.46,-111.81 238.39,-110.50 239.31,-109.19 240.56,-107.06 241.81,-104.93 242.47,-103.70 243.12,-102.47 244.03,-100.41 244.93,-98.35 245.46,-96.40 246.00,-94.45 246.50,-92.40 247.01,-90.35 247.42,-88.20 247.83,-86.04 248.31,-83.58 248.80,-81.12 249.24,-78.37 249.68,-75.63 250.13,-73.17 250.59,-70.71 250.86,-68.51 251.14,-66.32 251.64,-63.61 252.15,-60.91 252.47,-59.40 252.79,-57.89 253.09,-55.96 253.38,-54.03 253.61,-52.75 253.84,-51.46 254.04,-49.43 254.25,-47.41 254.45,-46.32 254.66,-45.22 254.95,-43.75 255.23,-42.28 255.55,-40.57 255.86,-38.85 256.04,-36.75 256.23,-34.65 256.45,-32.93 256.68,-31.21 256.87,-29.38 257.06,-27.56 257.18,-25.88 257.30,-24.19 257.47,-22.68 257.65,-21.17 257.98,-19.58 258.31,-18.00 258.51,-16.55 258.72,-15.11 258.97,-13.45 259.22,-11.80 259.32,-10.52 259.43,-9.23 259.69,-7.72 259.95,-6.21 260.20,-3.52 260.44,-0.84 260.38,-0.34 260.33,0.14 260.11,0.60 259.90,1.05 259.55,1.41 259.20,1.77 258.75,2.00 258.31,2.23 257.81,2.30 257.32,2.38 256.83,2.29 256.33,2.21 255.89,1.97 255.45,1.73 255.11,1.36 254.77,0.99 254.57,0.54 254.36,0.08 254.31,-0.41 254.26,-0.91 254.38,-1.39 254.49,-1.88 254.75,-2.31 255.01,-2.73 255.40,-3.05 255.78,-3.38 256.25,-3.56 256.72,-3.74 257.22,-3.76 257.72,-3.78 258.20,-3.64 258.68,-3.50 259.09,-3.22 259.50,-2.93 259.80,-2.53 260.10,-2.13 260.26,-1.65 260.41,-1.17 260.41,-0.67 260.40,-0.17 260.24,0.29 260.07,0.76 259.76,1.16 259.46,1.55 259.04,1.83 258.62,2.11 258.14,2.24 257.65,2.36 257.15,2.33 256.65,2.30 256.19,2.11 255.73,1.92 255.35,1.59 254.97,1.26 254.72,0.83 254.46,0.40 254.36,-0.08 254.26,-0.57 254.26,-0.57 254.26,-0.57 254.11,-3.79 253.97,-7.00 253.86,-8.07 253.75,-9.13 253.79,-10.30 253.84,-11.46 253.75,-13.17 253.67,-14.88 253.71,-16.06 253.75,-17.25 253.69,-19.02 253.64,-20.80 253.52,-22.39 253.41,-23.99 253.36,-25.57 253.31,-27.15 253.10,-28.94 252.90,-30.74 252.70,-32.47 252.50,-34.19 252.19,-36.14 251.88,-38.10 251.54,-39.84 251.20,-41.59 250.95,-43.19 250.71,-44.80 250.68,-45.86 250.66,-46.93 250.32,-48.98 249.98,-51.04 249.93,-52.24 249.88,-53.45 249.54,-55.37 249.19,-57.29 249.02,-58.75 248.85,-60.20 248.19,-62.96 247.54,-65.72 247.11,-67.75 246.67,-69.79 245.97,-72.22 245.27,-74.65 244.51,-77.32 243.74,-80.00 243.07,-82.62 242.39,-85.25 242.12,-87.10 241.86,-88.95 241.38,-91.08 240.90,-93.21 240.55,-95.03 240.19,-96.84 239.60,-98.60 239.00,-100.37 238.40,-101.61 237.81,-102.84 236.78,-104.89 235.75,-106.93 234.63,-108.63 233.52,-110.33 232.41,-111.25 231.31,-112.16 230.26,-112.98 229.21,-113.80 227.86,-114.32 226.51,-114.83 224.00,-115.13 221.48,-115.42 218.14,-115.84 214.80,-116.27 211.46,-116.52 208.11,-116.78 205.22,-116.87 202.33,-116.96 198.60,-117.17 194.87,-117.38 191.17,-117.63 187.48,-117.88 183.37,-118.21 179.26,-118.54 175.13,-118.80 171.00,-119.07 166.90,-119.44 162.79,-119.82 158.71,-120.19 154.63,-120.56 150.61,-120.93 146.59,-121.30 142.19,-121.66 137.79,-122.02 133.55,-122.36 129.32,-122.71 125.36,-122.77 121.40,-122.82 117.08,-122.71 112.76,-122.59 108.20,-122.58 103.64,-122.57 99.00,-122.54 94.35,-122.52 90.01,-122.47 85.68,-122.43 81.55,-122.33 77.42,-122.23 73.00,-122.02 68.57,-121.81 64.49,-121.59 60.41,-121.37 56.88,-121.14 53.36,-120.90 50.12,-120.65 46.88,-120.40 43.84,-120.12 40.81,-119.84 38.72,-119.52 36.62,-119.20 35.03,-118.95 33.43,-118.70 30.81,-118.21 28.19,-117.72 26.12,-117.24 24.05,-116.76 22.91,-116.52 21.77,-116.28 19.57,-115.69 17.36,-115.10 15.42,-114.51 13.48,-113.93 12.33,-113.64 11.17,-113.35 10.59,-112.30 10.01,-111.24 9.55,-109.46 9.09,-107.68 8.69,-105.97 8.28,-104.25 8.02,-103.20 7.76,-102.15 7.56,-100.20 7.37,-98.26 7.12,-96.31 6.87,-94.36 6.33,-92.20 5.79,-90.03 5.22,-87.55 4.64,-85.06 4.28,-83.45 3.93,-81.84 3.59,-80.00 3.25,-78.16 2.90,-76.56 2.54,-74.96 2.13,-72.82 1.71,-70.68 1.29,-68.70 0.86,-66.73 0.49,-64.50 0.13,-62.28 -0.02,-60.78 -0.18,-59.29 -0.29,-57.79 -0.40,-56.29 -0.46,-55.13 -0.52,-53.96 -0.59,-51.20 -0.65,-48.44 -0.60,-46.53 -0.56,-44.61 -0.68,-42.23 -0.81,-39.84 -0.83,-38.19 -0.86,-36.54 -0.91,-35.15 -0.96,-33.75 -0.82,-31.03 -0.67,-28.32 -0.36,-25.82 -0.04,-23.33 0.02,-21.59 0.10,-19.86 0.43,-16.73 0.77,-13.61 1.00,-10.87 1.24,-8.12 1.47,-5.73 1.71,-3.33 1.78,-1.73 1.85,-0.12 1.84,0.09 1.83,0.32 1.77,0.53 1.70,0.75 1.58,0.94 1.47,1.13 1.31,1.29 1.15,1.45 0.96,1.57 0.77,1.69 0.56,1.76 0.34,1.83 0.12,1.84 -0.10,1.86 -0.32,1.82 -0.54,1.78 -0.74,1.69 -0.95,1.60 -1.13,1.46 -1.30,1.32 -1.44,1.15 -1.58,0.97 -1.68,0.77 -1.77,0.56 -1.81,0.34 -1.85,0.12 -1.85,0.12 L -1.85,0.12 Z"></path></g><g transform="translate(50.43445202143789 13.055393246024124) rotate(0 143.66284416242183 54.30378096326628)" stroke="none"><path fill="#f36d6b" d="M 2.11,-0.13 Q 2.11,-0.13 2.20,1.58 2.30,3.29 2.48,6.14 2.66,8.99 3.04,12.12 3.43,15.24 3.62,16.39 3.82,17.54 4.08,19.70 4.33,21.86 4.57,23.03 4.81,24.20 4.97,26.03 5.13,27.85 5.40,30.54 5.68,33.23 5.91,34.96 6.14,36.70 6.33,38.58 6.53,40.45 7.02,42.93 7.51,45.41 7.84,47.49 8.17,49.57 8.35,50.95 8.52,52.32 8.81,54.33 9.09,56.33 9.16,57.80 9.22,59.26 9.34,60.65 9.46,62.03 9.50,63.57 9.55,65.12 9.66,66.54 9.78,67.97 9.93,69.44 10.07,70.91 10.20,72.64 10.33,74.36 10.50,75.94 10.66,77.51 10.94,78.97 11.21,80.42 11.54,81.90 11.87,83.38 12.31,84.52 12.76,85.66 14.48,87.04 16.20,88.42 18.06,89.35 19.92,90.27 22.23,91.28 24.53,92.28 26.75,93.05 28.97,93.82 31.23,94.62 33.49,95.42 35.74,96.21 37.99,97.01 40.00,97.68 42.02,98.35 43.92,98.82 45.82,99.29 47.89,99.73 49.97,100.18 52.32,100.47 54.67,100.77 57.52,101.12 60.37,101.48 63.84,101.85 67.30,102.21 71.79,102.70 76.29,103.18 81.39,103.49 86.50,103.81 91.71,104.16 96.91,104.51 101.93,104.88 106.94,105.24 111.87,105.61 116.80,105.99 121.49,106.36 126.17,106.73 129.86,106.89 133.54,107.05 136.27,107.01 138.99,106.97 141.79,106.95 144.58,106.94 147.47,106.82 150.36,106.71 153.09,106.55 155.82,106.40 159.17,106.33 162.51,106.26 166.32,106.34 170.13,106.42 173.90,106.56 177.67,106.71 181.62,106.77 185.58,106.83 189.19,106.85 192.81,106.88 196.51,106.89 200.20,106.90 203.71,106.90 207.21,106.91 209.97,106.80 212.73,106.70 215.87,106.65 219.00,106.61 221.84,106.59 224.68,106.57 226.10,106.45 227.52,106.32 228.58,106.11 229.64,105.89 231.91,105.41 234.18,104.93 236.29,104.83 238.41,104.72 240.77,104.51 243.13,104.30 245.15,103.93 247.18,103.55 249.32,102.98 251.46,102.42 253.46,101.85 255.47,101.29 257.52,100.74 259.57,100.18 261.86,99.63 264.15,99.08 265.92,98.49 267.70,97.91 269.19,97.04 270.67,96.18 272.30,95.17 273.92,94.17 275.08,93.27 276.24,92.36 276.86,91.45 277.48,90.54 277.87,89.44 278.26,88.34 278.94,86.74 279.61,85.14 280.20,83.60 280.79,82.07 281.25,80.44 281.71,78.80 282.31,76.62 282.91,74.43 283.30,72.26 283.68,70.10 284.08,67.65 284.49,65.19 284.89,62.85 285.29,60.51 285.47,57.86 285.64,55.22 285.73,52.58 285.81,49.94 285.96,47.71 286.11,45.48 286.15,43.48 286.19,41.49 286.23,39.35 286.27,37.22 286.22,35.44 286.17,33.67 286.07,32.27 285.98,30.88 285.81,29.49 285.63,28.10 285.41,26.89 285.19,25.68 284.97,24.29 284.75,22.89 284.44,21.52 284.14,20.14 283.59,18.01 283.04,15.88 282.80,14.76 282.56,13.65 282.19,12.11 281.82,10.57 281.59,9.22 281.37,7.87 281.15,6.71 280.93,5.56 280.63,4.08 280.33,2.60 280.28,2.12 280.23,1.64 280.34,1.18 280.45,0.71 280.70,0.30 280.96,-0.10 281.33,-0.41 281.70,-0.72 282.14,-0.89 282.59,-1.06 283.07,-1.08 283.56,-1.10 284.02,-0.97 284.48,-0.84 284.87,-0.56 285.27,-0.29 285.56,0.09 285.84,0.48 285.99,0.93 286.14,1.39 286.13,1.87 286.13,2.35 285.97,2.81 285.81,3.26 285.52,3.64 285.22,4.02 284.82,4.29 284.42,4.55 283.95,4.68 283.49,4.80 283.01,4.77 282.53,4.74 282.08,4.55 281.64,4.37 281.27,4.05 280.91,3.74 280.67,3.32 280.42,2.91 280.33,2.44 280.23,1.97 280.29,1.49 280.34,1.01 280.55,0.58 280.76,0.14 281.09,-0.19 281.43,-0.54 281.86,-0.76 282.28,-0.98 282.76,-1.05 283.23,-1.13 283.71,-1.04 284.18,-0.96 284.60,-0.73 285.03,-0.50 285.35,-0.14 285.68,0.20 285.88,0.64 286.07,1.08 286.07,1.08 286.07,1.08 286.34,2.63 286.61,4.18 286.75,5.56 286.89,6.94 286.98,8.40 287.07,9.86 287.24,11.33 287.41,12.79 287.56,13.90 287.72,15.00 287.87,16.07 288.02,17.14 288.19,18.22 288.36,19.31 288.63,20.84 288.91,22.38 289.03,23.79 289.16,25.20 289.24,26.52 289.32,27.83 289.36,29.36 289.40,30.89 289.30,32.29 289.19,33.69 289.12,35.47 289.05,37.25 289.04,39.41 289.03,41.57 288.95,43.61 288.88,45.65 288.76,47.83 288.64,50.01 288.59,52.70 288.54,55.39 288.40,58.18 288.26,60.97 287.93,63.31 287.60,65.64 287.30,68.11 286.99,70.59 286.71,72.92 286.43,75.25 285.98,77.55 285.54,79.85 285.04,81.70 284.55,83.54 283.92,85.11 283.29,86.67 282.61,88.33 281.93,89.98 281.17,91.46 280.40,92.95 279.32,94.06 278.23,95.18 276.90,96.01 275.57,96.84 273.86,97.88 272.16,98.92 270.37,99.83 268.58,100.74 266.71,101.28 264.84,101.82 262.59,102.40 260.35,102.98 258.33,103.57 256.31,104.17 254.31,104.78 252.30,105.39 250.08,106.06 247.86,106.74 245.71,107.25 243.55,107.77 241.15,108.15 238.74,108.52 236.74,108.78 234.73,109.05 233.44,109.15 232.16,109.26 231.07,109.33 229.99,109.40 228.76,109.40 227.54,109.41 226.12,109.30 224.70,109.19 221.87,109.21 219.04,109.23 215.94,109.28 212.83,109.32 210.02,109.43 207.21,109.53 203.70,109.53 200.19,109.53 196.49,109.51 192.80,109.50 189.17,109.48 185.54,109.45 181.55,109.39 177.57,109.33 173.82,109.19 170.07,109.05 166.32,108.97 162.56,108.89 159.27,108.96 155.97,109.02 153.22,109.18 150.46,109.34 147.53,109.45 144.60,109.57 141.82,109.59 139.03,109.61 136.23,109.65 133.43,109.69 129.70,109.53 125.96,109.37 121.28,109.00 116.60,108.63 111.68,108.26 106.75,107.89 101.74,107.53 96.73,107.17 91.54,106.83 86.34,106.49 81.17,106.18 76.00,105.88 71.51,105.41 67.02,104.94 63.53,104.59 60.05,104.24 57.19,103.92 54.33,103.60 51.87,103.32 49.40,103.04 47.24,102.64 45.08,102.24 43.09,101.74 41.11,101.24 39.05,100.63 36.99,100.03 34.73,99.34 32.46,98.65 30.18,97.99 27.90,97.33 25.50,96.70 23.11,96.06 20.66,95.28 18.20,94.49 15.96,93.75 13.71,93.00 12.24,92.20 10.76,91.40 9.95,90.48 9.13,89.57 8.73,88.42 8.32,87.27 7.83,85.83 7.35,84.40 7.00,82.84 6.64,81.29 6.33,79.67 6.02,78.05 5.82,76.45 5.62,74.85 5.39,73.15 5.16,71.45 4.99,69.93 4.81,68.41 4.66,66.86 4.51,65.31 4.44,63.90 4.38,62.50 4.23,60.99 4.08,59.48 4.03,58.20 3.97,56.92 3.84,54.91 3.70,52.91 3.55,51.52 3.39,50.13 3.27,48.05 3.15,45.98 2.98,44.55 2.82,43.12 2.68,42.03 2.54,40.94 2.28,39.13 2.03,37.32 1.71,35.45 1.39,33.58 1.24,30.92 1.08,28.25 0.89,26.51 0.70,24.77 0.62,23.63 0.54,22.50 0.05,20.25 -0.43,18.00 -0.48,16.88 -0.52,15.76 -0.92,13.65 -1.32,11.53 -1.43,10.40 -1.53,9.27 -1.70,6.41 -1.87,3.56 -1.99,1.84 -2.11,0.13 -2.09,-0.12 -2.08,-0.37 -2.00,-0.61 -1.93,-0.86 -1.79,-1.08 -1.66,-1.30 -1.48,-1.48 -1.30,-1.66 -1.08,-1.79 -0.87,-1.92 -0.62,-2.00 -0.38,-2.07 -0.13,-2.09 0.12,-2.11 0.37,-2.06 0.62,-2.02 0.85,-1.91 1.08,-1.81 1.29,-1.65 1.49,-1.49 1.64,-1.29 1.80,-1.09 1.91,-0.86 2.01,-0.63 2.06,-0.38 2.11,-0.13 2.11,-0.13 L 2.11,-0.13 Z"></path></g><g transform="translate(97.63532610916081 32.08733074171465) rotate(0 103.94250332049069 0.749215119962443)" stroke="none"><path fill="#f36d6b" d="M -0.08,-1.56 Q -0.08,-1.56 1.95,-1.66 3.99,-1.75 8.97,-1.87 13.95,-2.00 16.92,-2.04 19.90,-2.08 27.72,-2.41 35.53,-2.75 40.16,-2.89 44.79,-3.02 52.16,-3.08 59.52,-3.13 63.62,-3.15 67.71,-3.17 74.41,-3.18 81.10,-3.19 85.03,-3.19 88.95,-3.19 95.14,-3.19 101.33,-3.19 104.93,-3.19 108.53,-3.19 113.83,-3.19 119.13,-3.19 121.81,-3.19 124.50,-3.19 129.36,-2.75 134.22,-2.32 137.02,-2.03 139.83,-1.73 144.38,-1.07 148.93,-0.40 151.30,-0.01 153.67,0.37 158.40,0.85 163.13,1.34 165.89,1.54 168.65,1.75 173.14,1.84 177.62,1.92 182.44,1.96 187.27,2.00 191.25,2.01 195.24,2.03 198.01,2.04 200.79,2.04 202.12,1.82 203.46,1.60 205.58,1.26 207.71,0.91 207.99,0.93 208.26,0.95 208.52,1.05 208.78,1.16 208.99,1.34 209.19,1.52 209.33,1.76 209.48,2.00 209.53,2.27 209.59,2.54 209.56,2.82 209.52,3.09 209.41,3.34 209.29,3.59 209.10,3.79 208.90,3.99 208.66,4.12 208.41,4.24 208.14,4.29 207.86,4.33 207.59,4.28 207.32,4.23 207.08,4.10 206.83,3.97 206.64,3.77 206.45,3.56 206.34,3.31 206.23,3.06 206.20,2.78 206.17,2.51 206.23,2.24 206.30,1.97 206.44,1.73 206.59,1.50 206.80,1.32 207.01,1.14 207.27,1.04 207.53,0.94 207.80,0.93 208.08,0.92 208.35,0.99 208.61,1.07 208.84,1.23 209.07,1.39 209.23,1.61 209.40,1.83 209.49,2.09 209.57,2.36 209.57,2.63 209.57,2.91 209.48,3.17 209.38,3.43 209.21,3.65 209.05,3.87 208.81,4.02 208.58,4.18 208.32,4.25 208.05,4.32 208.05,4.32 208.05,4.32 205.87,4.50 203.69,4.69 202.23,4.68 200.78,4.67 198.01,4.66 195.23,4.66 191.24,4.64 187.24,4.62 182.41,4.59 177.57,4.55 173.01,4.46 168.46,4.37 165.66,4.16 162.86,3.95 158.05,3.46 153.24,2.96 150.90,2.58 148.55,2.19 144.05,1.53 139.55,0.87 136.77,0.58 133.98,0.30 129.24,-0.12 124.50,-0.55 121.81,-0.55 119.13,-0.55 113.83,-0.55 108.53,-0.54 104.93,-0.54 101.33,-0.54 95.14,-0.53 88.95,-0.53 85.03,-0.52 81.11,-0.51 74.42,-0.50 67.73,-0.48 63.64,-0.45 59.55,-0.42 52.21,-0.34 44.88,-0.27 40.27,-0.11 35.66,0.04 27.81,0.41 19.96,0.78 17.00,0.86 14.04,0.95 9.10,1.13 4.16,1.32 2.12,1.44 0.08,1.56 -0.10,1.55 -0.29,1.54 -0.47,1.48 -0.65,1.42 -0.81,1.32 -0.97,1.22 -1.11,1.09 -1.24,0.95 -1.33,0.79 -1.43,0.63 -1.49,0.45 -1.54,0.27 -1.55,0.08 -1.56,-0.10 -1.53,-0.29 -1.49,-0.47 -1.41,-0.65 -1.33,-0.82 -1.21,-0.97 -1.10,-1.11 -0.95,-1.23 -0.80,-1.34 -0.62,-1.42 -0.45,-1.50 -0.26,-1.53 -0.08,-1.56 -0.08,-1.56 L -0.08,-1.56 Z"></path></g><g transform="translate(112.6079391034466 61.68150303550195) rotate(0 90.460989680132 -1.4984588203771665)" stroke="none"><path fill="#f36d6b" d="M -0.11,-1.60 Q -0.11,-1.60 1.38,-1.79 2.88,-1.97 4.87,-2.18 6.87,-2.40 11.23,-2.68 15.59,-2.96 23.27,-3.17 30.96,-3.38 35.18,-3.46 39.41,-3.54 47.14,-3.57 54.87,-3.59 65.58,-3.70 76.28,-3.82 87.95,-3.86 99.62,-3.90 109.96,-3.92 120.30,-3.94 128.46,-4.05 136.61,-4.16 142.89,-4.21 149.16,-4.25 154.41,-4.27 159.67,-4.29 164.05,-4.30 168.44,-4.30 171.79,-4.41 175.14,-4.52 178.01,-4.73 180.87,-4.94 181.12,-4.91 181.38,-4.87 181.60,-4.76 181.83,-4.65 182.01,-4.47 182.19,-4.29 182.31,-4.06 182.42,-3.83 182.45,-3.58 182.49,-3.33 182.44,-3.08 182.39,-2.83 182.27,-2.60 182.14,-2.38 181.96,-2.21 181.77,-2.04 181.53,-1.94 181.30,-1.84 181.05,-1.82 180.79,-1.80 180.54,-1.86 180.30,-1.92 180.08,-2.06 179.87,-2.19 179.71,-2.39 179.55,-2.59 179.46,-2.83 179.37,-3.07 179.37,-3.32 179.36,-3.58 179.43,-3.82 179.51,-4.06 179.65,-4.27 179.80,-4.48 180.01,-4.63 180.22,-4.77 180.46,-4.85 180.70,-4.92 180.96,-4.92 181.21,-4.91 181.45,-4.82 181.69,-4.74 181.89,-4.58 182.09,-4.42 182.22,-4.20 182.36,-3.99 182.42,-3.74 182.48,-3.50 182.46,-3.24 182.44,-2.99 182.34,-2.76 182.24,-2.52 182.07,-2.33 181.90,-2.14 181.68,-2.02 181.46,-1.89 181.21,-1.84 180.96,-1.79 180.96,-1.79 180.96,-1.79 178.09,-1.84 175.23,-1.88 171.84,-1.77 168.44,-1.65 164.06,-1.64 159.68,-1.63 154.43,-1.61 149.18,-1.58 142.92,-1.53 136.65,-1.48 128.48,-1.35 120.31,-1.23 109.97,-1.20 99.63,-1.17 87.97,-1.11 76.32,-1.04 65.60,-0.90 54.89,-0.76 47.18,-0.70 39.48,-0.63 35.27,-0.50 31.05,-0.37 23.44,-0.09 15.83,0.18 11.56,0.55 7.29,0.92 5.21,1.23 3.13,1.54 1.62,1.57 0.11,1.60 -0.07,1.59 -0.27,1.58 -0.45,1.53 -0.64,1.47 -0.81,1.37 -0.98,1.28 -1.11,1.14 -1.25,1.00 -1.36,0.84 -1.46,0.67 -1.52,0.49 -1.58,0.30 -1.59,0.11 -1.61,-0.07 -1.57,-0.27 -1.54,-0.46 -1.46,-0.64 -1.38,-0.81 -1.27,-0.97 -1.15,-1.12 -1.00,-1.24 -0.84,-1.37 -0.67,-1.45 -0.49,-1.53 -0.30,-1.57 -0.11,-1.60 -0.11,-1.60 L -0.11,-1.60 Z"></path></g><g transform="translate(116.35403613859808 84.87804112839936) rotate(0 100.19349107921141 -2.077934634524766)" stroke="none"><path fill="#f36d6b" d="M 0.21,-1.57 Q 0.21,-1.57 3.32,-1.11 6.43,-0.65 8.16,-0.52 9.90,-0.39 15.22,-0.17 20.54,0.04 23.89,0.15 27.25,0.26 36.10,0.42 44.96,0.59 50.01,0.66 55.07,0.74 64.53,0.78 74.00,0.81 85.86,0.40 97.72,-0.00 109.22,-0.71 120.72,-1.42 126.78,-1.93 132.84,-2.45 135.76,-2.67 138.67,-2.89 144.31,-3.41 149.95,-3.93 155.58,-4.47 161.21,-5.02 166.18,-5.57 171.15,-6.12 174.78,-6.47 178.42,-6.81 181.71,-6.96 185.01,-7.11 187.92,-7.17 190.83,-7.23 192.93,-7.26 195.03,-7.30 197.64,-7.63 200.26,-7.96 200.52,-7.94 200.77,-7.92 201.01,-7.82 201.24,-7.71 201.43,-7.54 201.62,-7.37 201.75,-7.15 201.87,-6.92 201.92,-6.67 201.97,-6.42 201.93,-6.16 201.90,-5.91 201.78,-5.68 201.67,-5.45 201.48,-5.27 201.30,-5.09 201.07,-4.98 200.84,-4.86 200.59,-4.83 200.33,-4.80 200.08,-4.85 199.83,-4.89 199.61,-5.02 199.38,-5.15 199.21,-5.34 199.04,-5.53 198.94,-5.77 198.84,-6.00 198.82,-6.26 198.80,-6.52 198.86,-6.76 198.93,-7.01 199.07,-7.23 199.21,-7.44 199.41,-7.60 199.61,-7.76 199.85,-7.85 200.09,-7.94 200.35,-7.95 200.60,-7.95 200.85,-7.88 201.09,-7.80 201.30,-7.65 201.51,-7.50 201.66,-7.29 201.81,-7.08 201.88,-6.83 201.95,-6.59 201.95,-6.33 201.94,-6.08 201.85,-5.84 201.76,-5.59 201.60,-5.40 201.44,-5.20 201.22,-5.06 201.00,-4.92 200.75,-4.86 200.50,-4.80 200.50,-4.80 200.50,-4.80 197.78,-4.72 195.06,-4.64 192.97,-4.62 190.89,-4.60 188.01,-4.54 185.13,-4.48 181.90,-4.33 178.67,-4.19 175.05,-3.84 171.44,-3.50 166.45,-2.94 161.47,-2.38 155.83,-1.84 150.19,-1.29 144.53,-0.76 138.87,-0.23 135.97,-0.01 133.07,0.21 126.98,0.73 120.88,1.26 109.35,1.98 97.82,2.70 85.91,3.13 73.99,3.56 64.51,3.55 55.03,3.53 49.97,3.49 44.91,3.45 36.04,3.33 27.18,3.21 23.81,3.16 20.44,3.11 15.00,2.96 9.57,2.82 7.79,2.58 6.02,2.35 2.90,1.96 -0.21,1.57 -0.40,1.53 -0.58,1.48 -0.75,1.39 -0.92,1.29 -1.06,1.16 -1.20,1.03 -1.31,0.87 -1.42,0.71 -1.48,0.53 -1.55,0.35 -1.57,0.16 -1.59,-0.02 -1.56,-0.21 -1.54,-0.40 -1.47,-0.58 -1.40,-0.76 -1.28,-0.91 -1.17,-1.07 -1.03,-1.20 -0.88,-1.32 -0.71,-1.41 -0.54,-1.49 -0.35,-1.54 -0.16,-1.58 0.02,-1.58 0.21,-1.57 0.21,-1.57 L 0.21,-1.57 Z"></path></g><g transform="translate(97.59428457975355 234.32972727868503) rotate(0 -1.6857322336372818 17.41642743319099)" stroke="none"><path fill="#f36d6b" d="M 2.19,0.12 Q 2.19,0.12 2.04,1.95 1.89,3.78 1.76,6.50 1.63,9.23 1.52,10.29 1.41,11.35 1.09,13.03 0.77,14.72 0.28,17.40 -0.19,20.09 -0.46,22.35 -0.72,24.61 -0.73,25.85 -0.74,27.10 -0.71,28.25 -0.68,29.39 -0.58,30.92 -0.49,32.45 -0.65,32.72 -0.82,32.99 -0.86,33.30 -0.90,33.60 -1.01,33.89 -1.12,34.17 -1.30,34.42 -1.47,34.68 -1.71,34.88 -1.94,35.08 -2.21,35.22 -2.48,35.36 -2.78,35.43 -3.08,35.50 -3.39,35.50 -3.70,35.50 -3.99,35.42 -4.29,35.34 -4.56,35.20 -4.83,35.05 -5.06,34.85 -5.29,34.64 -5.46,34.39 -5.63,34.13 -5.74,33.85 -5.85,33.56 -5.88,33.25 -5.91,32.95 -5.87,32.63 -5.83,32.32 -5.66,31.94 -5.49,31.57 -5.21,31.26 -4.93,30.96 -4.57,30.76 -4.21,30.56 -3.80,30.49 -3.40,30.42 -2.99,30.48 -2.58,30.54 -2.22,30.73 -1.85,30.92 -1.56,31.22 -1.27,31.51 -1.10,31.89 -0.92,32.26 -0.87,32.67 -0.82,33.08 -0.90,33.48 -0.99,33.88 -1.20,34.24 -1.40,34.60 -1.72,34.87 -2.03,35.14 -2.41,35.29 -2.79,35.45 -3.20,35.48 -3.61,35.51 -4.01,35.40 -4.41,35.29 -4.75,35.07 -5.10,34.84 -5.35,34.52 -5.60,34.19 -5.74,33.80 -5.88,33.41 -5.88,33.00 -5.89,32.59 -5.76,32.20 -5.63,31.80 -5.39,31.47 -5.14,31.14 -4.80,30.91 -4.46,30.67 -4.07,30.55 -3.67,30.44 -3.26,30.46 -2.85,30.47 -2.46,30.62 -2.08,30.77 -1.76,31.03 -1.44,31.30 -1.23,31.65 -1.01,32.00 -0.92,32.40 -0.82,32.80 -0.82,32.90 -0.82,32.99 -0.86,33.30 -0.90,33.60 -1.01,33.89 -1.12,34.17 -1.30,34.42 -1.47,34.68 -1.70,34.88 -1.94,35.08 -2.21,35.22 -2.48,35.36 -2.78,35.43 -3.08,35.50 -3.39,35.50 -3.69,35.50 -3.99,35.42 -4.29,35.34 -4.56,35.20 -4.83,35.05 -5.06,34.85 -5.29,34.64 -5.46,34.39 -5.63,34.13 -5.74,33.85 -5.85,33.56 -5.88,33.25 -5.91,32.95 -5.70,32.68 -5.48,32.40 -5.35,30.84 -5.22,29.28 -5.13,28.07 -5.05,26.87 -4.92,25.60 -4.79,24.34 -4.74,21.72 -4.68,19.10 -4.18,16.53 -3.68,13.97 -3.21,11.44 -2.75,8.90 -2.54,6.22 -2.32,3.53 -2.26,1.70 -2.19,-0.12 -2.15,-0.39 -2.10,-0.65 -1.99,-0.89 -1.88,-1.13 -1.72,-1.34 -1.55,-1.55 -1.35,-1.71 -1.14,-1.88 -0.90,-1.99 -0.65,-2.10 -0.39,-2.14 -0.13,-2.19 0.12,-2.18 0.39,-2.16 0.64,-2.08 0.90,-2.00 1.12,-1.87 1.35,-1.73 1.54,-1.54 1.73,-1.36 1.86,-1.13 2.00,-0.90 2.08,-0.65 2.16,-0.40 2.18,-0.13 2.19,0.12 2.19,0.12 L 2.19,0.12 Z"></path></g><g transform="translate(100.21656965263082 238.8338064875216) rotate(0 18.734886565401553 12.921151003642308)" stroke="none"><path fill="#f36d6b" d="M -0.53,-1.87 Q -0.53,-1.87 0.96,-2.33 2.46,-2.79 3.52,-3.16 4.59,-3.52 6.90,-3.77 9.21,-4.03 12.73,-4.52 16.25,-5.01 20.57,-5.52 24.90,-6.03 28.68,-6.44 32.46,-6.86 34.75,-7.12 37.03,-7.38 38.68,-6.91 40.33,-6.45 41.34,-5.75 42.35,-5.05 42.72,-2.59 43.10,-0.13 42.79,2.70 42.47,5.54 42.10,8.62 41.73,11.71 41.45,14.30 41.17,16.89 40.94,19.70 40.70,22.51 40.72,23.93 40.73,25.34 40.77,26.78 40.81,28.22 40.95,29.63 41.08,31.04 40.12,32.29 39.15,33.54 37.76,33.71 36.36,33.89 33.92,33.51 31.47,33.13 27.51,32.93 23.54,32.73 21.19,32.61 18.83,32.49 14.84,32.52 10.86,32.56 7.42,32.56 3.98,32.55 1.87,32.55 -0.23,32.54 -1.28,32.76 -2.33,32.99 -3.54,32.57 -4.76,32.15 -5.04,29.71 -5.32,27.27 -5.19,26.97 -5.06,26.67 -4.84,26.43 -4.63,26.18 -4.34,26.02 -4.06,25.86 -3.74,25.79 -3.42,25.73 -3.09,25.77 -2.77,25.82 -2.47,25.96 -2.18,26.10 -1.95,26.33 -1.72,26.56 -1.57,26.86 -1.42,27.15 -1.38,27.47 -1.33,27.80 -1.39,28.12 -1.45,28.44 -1.61,28.73 -1.77,29.01 -2.01,29.23 -2.26,29.45 -2.56,29.58 -2.86,29.71 -3.18,29.74 -3.51,29.77 -3.82,29.69 -4.14,29.61 -4.42,29.44 -4.70,29.26 -4.90,29.01 -5.11,28.75 -5.22,28.45 -5.34,28.14 -5.35,27.81 -5.36,27.49 -5.26,27.17 -5.17,26.86 -4.98,26.59 -4.79,26.33 -4.52,26.14 -4.26,25.94 -3.95,25.85 -3.63,25.75 -3.31,25.76 -2.98,25.76 -2.67,25.88 -2.36,25.99 -2.11,26.19 -1.85,26.39 -1.68,26.67 -1.50,26.94 -1.42,27.26 -1.34,27.58 -1.36,27.90 -1.39,28.23 -1.39,28.23 -1.39,28.23 -1.99,28.91 -2.60,29.59 -1.42,29.58 -0.25,29.58 1.84,29.54 3.94,29.50 7.36,29.42 10.79,29.34 14.84,29.20 18.90,29.05 21.27,29.02 23.64,28.99 27.76,29.00 31.88,29.01 34.36,29.97 36.83,30.94 37.02,29.53 37.20,28.12 37.32,26.63 37.44,25.14 37.63,23.72 37.82,22.30 38.01,19.45 38.20,16.61 38.41,13.99 38.62,11.38 38.89,8.30 39.17,5.23 39.36,2.69 39.54,0.15 39.29,-1.58 39.04,-3.32 38.14,-3.89 37.23,-4.45 35.03,-4.11 32.83,-3.77 29.08,-3.27 25.33,-2.77 21.08,-2.15 16.82,-1.52 13.31,-0.86 9.81,-0.21 7.76,0.21 5.72,0.63 4.64,0.85 3.56,1.07 2.05,1.47 0.53,1.87 0.30,1.91 0.07,1.94 -0.16,1.92 -0.39,1.90 -0.61,1.83 -0.84,1.75 -1.04,1.63 -1.23,1.50 -1.40,1.33 -1.56,1.16 -1.67,0.96 -1.79,0.75 -1.86,0.53 -1.92,0.30 -1.93,0.07 -1.94,-0.16 -1.89,-0.39 -1.84,-0.62 -1.74,-0.83 -1.64,-1.04 -1.49,-1.22 -1.34,-1.41 -1.15,-1.55 -0.96,-1.69 -0.75,-1.78 -0.53,-1.87 -0.53,-1.87 L -0.53,-1.87 Z"></path></g></svg>