<?xml version="1.0" standalone="no"?>
<!DOCTYPE svg PUBLIC "-//W3C//DTD SVG 1.1//EN" "http://www.w3.org/Graphics/SVG/1.1/DTD/svg11.dtd">
<svg version="1.1" xmlns="http://www.w3.org/2000/svg" viewBox="0 0 151.29172028076164 155.08484645353263" width="151.29172028076164" height="155.08484645353263"><!-- svg-source:excalidraw --><metadata></metadata><defs><style class="style-fonts">
      </style></defs><g transform="translate(14.919554361387782 11.013770128678985) rotate(0 -2.171389511233315 58.441585612498976)" stroke="none"><path fill="#f36d6b" d="M 2.60,0.15 Q 2.60,0.15 2.59,1.00 2.58,1.84 2.53,2.91 2.48,3.98 2.51,5.10 2.54,6.22 2.61,7.39 2.69,8.55 2.72,9.70 2.76,10.84 2.69,12.03 2.63,13.22 2.58,14.45 2.53,15.69 2.47,17.11 2.41,18.54 2.36,20.04 2.30,21.55 2.11,23.36 1.91,25.18 1.80,26.87 1.69,28.56 1.71,30.92 1.72,33.28 1.67,34.94 1.61,36.60 1.47,38.54 1.33,40.47 1.21,42.46 1.09,44.45 0.99,46.33 0.89,48.20 0.72,51.67 0.55,55.15 0.40,58.23 0.25,61.31 0.16,64.10 0.08,66.90 -0.02,69.40 -0.12,71.90 -0.23,74.51 -0.33,77.12 -0.38,79.66 -0.44,82.21 -0.52,84.40 -0.59,86.60 -0.67,88.46 -0.75,90.32 -0.87,92.20 -1.00,94.09 -1.09,95.97 -1.19,97.85 -1.21,99.37 -1.23,100.88 -1.23,102.04 -1.23,103.20 -1.26,105.31 -1.29,107.42 -1.32,108.50 -1.35,109.58 -1.35,110.95 -1.35,112.31 -1.50,114.61 -1.66,116.92 -1.73,117.34 -1.81,117.77 -2.02,118.15 -2.23,118.53 -2.55,118.82 -2.87,119.12 -3.26,119.29 -3.66,119.47 -4.09,119.51 -4.52,119.55 -4.94,119.45 -5.37,119.35 -5.73,119.12 -6.10,118.90 -6.38,118.56 -6.65,118.23 -6.81,117.82 -6.96,117.42 -6.98,116.98 -7.00,116.55 -6.88,116.13 -6.75,115.72 -6.50,115.36 -6.26,115.01 -5.91,114.75 -5.56,114.49 -5.15,114.36 -4.73,114.23 -4.30,114.23 -3.87,114.24 -3.46,114.38 -3.05,114.53 -2.71,114.80 -2.37,115.06 -2.13,115.43 -1.89,115.79 -1.78,116.21 -1.67,116.63 -1.70,117.06 -1.73,117.49 -1.90,117.89 -2.06,118.29 -2.35,118.62 -2.63,118.95 -3.01,119.16 -3.38,119.38 -3.81,119.47 -4.23,119.56 -4.66,119.50 -5.09,119.45 -5.48,119.26 -5.87,119.07 -6.18,118.77 -6.50,118.47 -6.69,118.08 -6.89,117.70 -6.95,117.27 -7.02,116.84 -7.02,116.84 -7.02,116.84 -6.73,114.33 -6.44,111.82 -6.23,110.51 -6.02,109.20 -5.88,108.14 -5.73,107.07 -5.41,104.98 -5.09,102.89 -4.90,101.77 -4.72,100.65 -4.55,99.15 -4.37,97.66 -4.23,95.75 -4.10,93.84 -3.91,91.97 -3.73,90.11 -3.55,88.31 -3.38,86.52 -3.33,84.34 -3.28,82.17 -3.26,79.60 -3.25,77.03 -3.20,74.43 -3.15,71.82 -3.13,69.34 -3.10,66.86 -3.12,64.04 -3.13,61.22 -3.12,58.14 -3.11,55.07 -3.13,51.57 -3.15,48.07 -3.13,46.24 -3.11,44.41 -3.18,42.38 -3.26,40.35 -3.30,38.47 -3.34,36.59 -3.39,34.92 -3.44,33.25 -3.37,30.84 -3.30,28.44 -3.33,26.66 -3.35,24.87 -3.34,23.20 -3.33,21.54 -3.38,20.02 -3.43,18.50 -3.47,17.04 -3.51,15.59 -3.52,14.27 -3.52,12.95 -3.47,11.13 -3.42,9.31 -3.34,8.19 -3.27,7.07 -3.18,5.91 -3.10,4.74 -2.94,3.13 -2.78,1.52 -2.69,0.68 -2.60,-0.15 -2.55,-0.46 -2.49,-0.77 -2.36,-1.06 -2.23,-1.34 -2.04,-1.59 -1.84,-1.84 -1.60,-2.03 -1.35,-2.23 -1.06,-2.36 -0.78,-2.49 -0.47,-2.54 -0.16,-2.60 0.15,-2.58 0.46,-2.56 0.76,-2.47 1.06,-2.38 1.33,-2.22 1.60,-2.05 1.83,-1.83 2.05,-1.61 2.21,-1.34 2.37,-1.07 2.47,-0.77 2.56,-0.47 2.58,-0.15 2.60,0.15 2.60,0.15 L 2.60,0.15 Z"></path></g><g transform="translate(19.252844157230356 11.737111608986595) rotate(0 58.76933833137218 60.33885442698178)" stroke="none"><path fill="#f36d6b" d="M -0.24,-1.96 Q -0.24,-1.96 1.75,-2.15 3.75,-2.34 6.69,-2.69 9.62,-3.03 10.87,-3.19 12.11,-3.34 14.26,-3.33 16.41,-3.32 17.68,-3.47 18.95,-3.63 21.15,-3.57 23.35,-3.51 24.67,-3.60 25.98,-3.69 28.12,-3.56 30.26,-3.44 32.70,-3.30 35.15,-3.16 36.59,-3.21 38.02,-3.26 39.55,-3.25 41.08,-3.24 42.65,-3.35 44.22,-3.45 45.33,-3.58 46.44,-3.70 47.65,-3.89 48.87,-4.07 50.04,-4.21 51.20,-4.36 52.85,-3.69 54.50,-3.03 55.47,-1.56 56.44,-0.08 57.20,1.15 57.96,2.40 58.69,3.50 59.43,4.60 60.34,5.95 61.24,7.30 62.10,8.45 62.96,9.59 63.82,10.68 64.68,11.77 65.88,13.13 67.09,14.48 68.03,15.42 68.98,16.36 70.18,17.32 71.38,18.29 72.38,19.09 73.39,19.89 74.29,20.58 75.19,21.26 76.20,22.08 77.21,22.90 78.08,23.66 78.96,24.42 80.20,25.51 81.43,26.60 82.49,27.54 83.56,28.49 84.64,29.49 85.72,30.50 87.13,31.64 88.53,32.79 89.73,33.68 90.94,34.57 92.02,35.30 93.10,36.03 94.20,36.73 95.31,37.44 96.63,38.46 97.96,39.49 98.84,40.16 99.73,40.82 100.92,41.71 102.11,42.60 103.62,43.68 105.12,44.77 106.89,45.94 108.65,47.12 110.34,48.06 112.03,49.00 113.15,49.69 114.27,50.38 115.08,51.93 115.89,53.47 116.13,54.70 116.36,55.93 116.71,58.11 117.06,60.29 117.21,62.26 117.36,64.23 117.75,66.80 118.13,69.37 118.42,71.71 118.71,74.04 118.87,75.77 119.02,77.49 119.10,79.39 119.17,81.30 119.25,82.99 119.33,84.69 119.38,86.52 119.43,88.34 119.44,90.15 119.45,91.95 119.42,93.82 119.40,95.68 119.39,97.47 119.38,99.26 119.37,101.02 119.37,102.78 119.40,104.33 119.43,105.88 119.45,107.43 119.47,108.99 119.53,110.15 119.59,111.31 119.71,112.99 119.83,114.66 119.93,116.34 120.02,118.02 120.13,120.20 120.23,122.37 120.17,122.80 120.10,123.24 119.91,123.63 119.71,124.01 119.39,124.32 119.08,124.62 118.69,124.81 118.29,125.00 117.86,125.05 117.42,125.11 117.00,125.02 116.57,124.93 116.19,124.71 115.81,124.49 115.53,124.16 115.24,123.83 115.07,123.43 114.90,123.03 114.87,122.59 114.85,122.15 114.96,121.73 115.07,121.31 115.31,120.94 115.55,120.58 115.89,120.31 116.24,120.04 116.65,119.90 117.06,119.75 117.50,119.75 117.93,119.74 118.35,119.87 118.77,120.01 119.12,120.27 119.47,120.53 119.72,120.88 119.97,121.24 120.09,121.66 120.21,122.08 120.20,122.52 120.18,122.95 120.02,123.36 119.87,123.77 119.59,124.11 119.31,124.44 118.94,124.67 118.57,124.90 118.14,125.00 117.72,125.10 117.28,125.06 116.85,125.02 116.45,124.84 116.05,124.67 115.73,124.37 115.41,124.07 115.20,123.69 114.99,123.31 114.91,122.88 114.83,122.45 114.83,122.45 114.83,122.45 114.77,120.24 114.70,118.02 114.79,116.34 114.89,114.66 115.00,112.99 115.12,111.31 115.19,110.15 115.25,108.99 115.27,107.44 115.29,105.88 115.32,104.34 115.34,102.79 115.33,101.04 115.32,99.28 115.29,97.50 115.27,95.72 115.21,93.89 115.15,92.05 115.08,90.32 115.00,88.58 114.85,86.79 114.70,85.00 114.56,83.34 114.42,81.68 114.19,79.93 113.97,78.17 113.66,76.46 113.36,74.74 113.07,72.45 112.79,70.17 112.36,67.64 111.93,65.11 111.46,63.23 110.99,61.35 110.54,59.27 110.08,57.19 109.66,55.95 109.24,54.72 108.10,54.18 106.96,53.65 105.76,52.96 104.56,52.27 103.49,51.48 102.41,50.70 101.07,49.77 99.73,48.85 98.83,48.21 97.92,47.57 96.98,46.80 96.03,46.04 94.99,45.34 93.95,44.63 92.82,43.76 91.69,42.90 90.64,42.18 89.58,41.46 88.42,40.62 87.25,39.79 85.94,38.79 84.63,37.79 83.15,36.59 81.66,35.40 80.43,34.48 79.19,33.56 77.61,32.13 76.02,30.69 74.89,29.67 73.75,28.65 72.97,27.89 72.19,27.14 71.34,26.38 70.49,25.62 69.56,24.80 68.62,23.99 67.63,23.10 66.65,22.21 65.71,21.31 64.76,20.40 63.77,19.24 62.78,18.08 61.63,16.63 60.48,15.19 59.56,14.09 58.65,13.00 57.68,11.83 56.71,10.67 55.66,9.40 54.62,8.13 53.08,5.95 51.54,3.77 51.66,2.58 51.78,1.38 50.45,1.37 49.13,1.35 47.78,1.31 46.42,1.27 45.27,1.13 44.12,0.99 42.52,0.81 40.92,0.62 39.43,0.51 37.94,0.39 36.50,0.29 35.06,0.18 32.62,0.18 30.18,0.18 28.11,0.22 26.03,0.26 24.72,0.21 23.41,0.15 21.31,0.28 19.21,0.41 17.89,0.42 16.56,0.44 14.48,0.63 12.39,0.81 11.21,0.82 10.02,0.83 7.11,1.09 4.21,1.35 2.23,1.65 0.24,1.96 0.00,1.96 -0.23,1.96 -0.46,1.91 -0.69,1.85 -0.90,1.74 -1.12,1.63 -1.29,1.47 -1.47,1.32 -1.61,1.12 -1.75,0.92 -1.83,0.70 -1.92,0.48 -1.95,0.24 -1.98,0.00 -1.95,-0.22 -1.92,-0.46 -1.84,-0.69 -1.75,-0.91 -1.62,-1.11 -1.48,-1.30 -1.31,-1.46 -1.13,-1.62 -0.92,-1.73 -0.70,-1.85 -0.47,-1.90 -0.24,-1.96 -0.24,-1.96 L -0.24,-1.96 Z"></path></g><g transform="translate(13.633035232823659 123.55416233121042) rotate(0 0.08684100202856371 9.636912652962863)" stroke="none"><path fill="#f36d6b" d="M 2.65,-0.12 Q 2.65,-0.12 2.72,0.91 2.80,1.96 2.85,3.04 2.89,4.12 2.97,5.31 3.05,6.51 3.10,7.64 3.15,8.77 3.20,9.97 3.24,11.17 3.26,12.85 3.28,14.53 3.20,17.15 3.11,19.77 2.95,20.25 2.79,20.74 2.48,21.15 2.18,21.55 1.75,21.84 1.33,22.13 0.84,22.27 0.35,22.41 -0.15,22.38 -0.66,22.36 -1.14,22.17 -1.61,21.98 -2.01,21.65 -2.40,21.32 -2.66,20.89 -2.93,20.45 -3.04,19.95 -3.15,19.45 -3.10,18.94 -3.04,18.43 -2.83,17.97 -2.62,17.50 -2.27,17.13 -1.92,16.76 -1.46,16.52 -1.01,16.28 -0.51,16.19 -0.01,16.11 0.49,16.19 0.99,16.27 1.45,16.51 1.90,16.75 2.25,17.12 2.60,17.49 2.82,17.95 3.04,18.41 3.09,18.92 3.15,19.43 3.04,19.93 2.93,20.43 2.67,20.87 2.41,21.31 2.02,21.64 1.63,21.97 1.16,22.16 0.68,22.35 0.17,22.38 -0.33,22.41 -0.82,22.28 -1.31,22.14 -1.74,21.85 -2.16,21.57 -2.47,21.16 -2.78,20.76 -2.95,20.27 -3.11,19.79 -3.11,19.28 -3.11,18.77 -3.11,18.77 -3.11,18.77 -3.03,16.65 -2.94,14.53 -2.91,12.85 -2.89,11.17 -2.85,9.97 -2.81,8.77 -2.73,7.04 -2.66,5.31 -2.63,3.76 -2.60,2.22 -2.63,1.17 -2.65,0.12 -2.63,-0.19 -2.60,-0.51 -2.50,-0.81 -2.40,-1.12 -2.23,-1.39 -2.07,-1.66 -1.84,-1.88 -1.61,-2.11 -1.33,-2.27 -1.05,-2.43 -0.75,-2.52 -0.44,-2.61 -0.12,-2.63 0.19,-2.64 0.50,-2.58 0.82,-2.52 1.11,-2.39 1.40,-2.25 1.65,-2.05 1.90,-1.85 2.09,-1.59 2.29,-1.34 2.41,-1.05 2.54,-0.75 2.60,-0.44 2.65,-0.12 2.65,-0.12 L 2.65,-0.12 Z"></path></g><g transform="translate(141.11802502359478 137.44294429989964) rotate(0 0.08684762858342765 0.0861650934282494)" stroke="none"><path fill="#f36d6b" d="M 2.12,-0.66 Q 2.12,-0.66 2.15,-0.13 2.18,0.40 1.96,0.88 1.74,1.36 1.32,1.69 0.91,2.02 0.38,2.12 -0.13,2.21 -0.64,2.05 -1.14,1.90 -1.52,1.52 -1.90,1.14 -2.05,0.64 -2.21,0.13 -2.12,-0.38 -2.02,-0.91 -1.69,-1.32 -1.36,-1.74 -0.88,-1.96 -0.39,-2.18 0.13,-2.15 0.66,-2.11 1.11,-1.84 1.57,-1.56 1.84,-1.11 L 2.12,-0.66 Z"></path></g><g transform="translate(140.6158911991222 137.61527448675614) rotate(0 -65.3079455995611 3.7347859833882495)" stroke="none"><path fill="#f36d6b" d="M 0.27,1.78 Q 0.27,1.78 -1.00,2.06 -2.28,2.33 -4.94,2.63 -7.60,2.93 -8.74,3.09 -9.88,3.25 -13.66,3.18 -17.43,3.11 -22.86,2.99 -28.29,2.87 -34.43,2.84 -40.56,2.81 -46.85,2.98 -53.14,3.15 -59.34,3.56 -65.54,3.96 -68.63,4.17 -71.73,4.39 -75.83,4.77 -79.92,5.15 -84.15,5.70 -88.37,6.26 -92.35,6.89 -96.34,7.52 -100.28,7.89 -104.22,8.26 -107.91,8.41 -111.60,8.57 -114.38,8.58 -117.15,8.60 -119.34,8.55 -121.53,8.51 -123.07,8.54 -124.61,8.58 -125.78,8.61 -126.95,8.64 -128.59,8.26 -130.22,7.88 -130.44,7.84 -130.65,7.80 -130.85,7.71 -131.04,7.61 -131.21,7.48 -131.38,7.34 -131.51,7.17 -131.65,7.00 -131.73,6.80 -131.82,6.60 -131.86,6.39 -131.89,6.18 -131.88,5.96 -131.86,5.75 -131.80,5.54 -131.73,5.33 -131.62,5.15 -131.50,4.96 -131.35,4.81 -131.20,4.66 -131.01,4.55 -130.82,4.44 -130.62,4.38 -130.41,4.31 -130.19,4.30 -129.98,4.29 -130.49,4.41 -131.00,4.53 -130.72,4.42 -130.45,4.32 -130.16,4.31 -129.87,4.30 -129.59,4.38 -129.31,4.47 -129.08,4.64 -128.84,4.80 -128.67,5.04 -128.50,5.27 -128.41,5.55 -128.32,5.83 -128.33,6.12 -128.33,6.41 -128.43,6.68 -128.53,6.96 -128.71,7.18 -128.89,7.41 -129.13,7.57 -129.38,7.73 -129.66,7.80 -129.94,7.87 -130.23,7.85 -130.52,7.83 -130.79,7.72 -131.06,7.61 -131.27,7.41 -131.49,7.22 -131.64,6.97 -131.78,6.72 -131.84,6.43 -131.90,6.15 -131.86,5.86 -131.82,5.57 -131.69,5.31 -131.57,5.05 -131.36,4.84 -131.16,4.63 -130.90,4.50 -130.64,4.37 -130.35,4.33 -130.06,4.29 -129.78,4.34 -129.49,4.39 -129.24,4.53 -128.98,4.67 -128.79,4.89 -128.59,5.10 -128.48,5.37 -128.36,5.64 -128.33,5.93 -128.31,6.22 -128.37,6.50 -128.44,6.78 -128.60,7.03 -128.75,7.27 -129.49,7.58 -130.22,7.88 -130.44,7.84 -130.65,7.80 -130.84,7.71 -131.04,7.61 -131.21,7.48 -131.38,7.34 -131.51,7.17 -131.65,7.00 -131.73,6.80 -131.82,6.60 -131.86,6.39 -131.89,6.18 -131.88,5.96 -131.86,5.75 -131.80,5.54 -131.73,5.33 -131.62,5.15 -131.50,4.96 -131.35,4.81 -131.20,4.66 -131.01,4.55 -130.82,4.44 -130.62,4.38 -130.41,4.31 -130.19,4.30 -129.98,4.29 -128.34,4.71 -126.71,5.14 -125.59,5.32 -124.47,5.51 -122.97,5.68 -121.47,5.85 -119.32,5.89 -117.17,5.93 -114.44,5.91 -111.72,5.89 -108.10,5.73 -104.48,5.57 -100.62,5.20 -96.77,4.82 -92.75,4.17 -88.74,3.51 -84.47,2.93 -80.20,2.34 -76.07,1.92 -71.95,1.50 -68.85,1.24 -65.75,0.98 -59.50,0.50 -53.24,0.03 -46.91,-0.23 -40.58,-0.49 -34.43,-0.59 -28.27,-0.69 -22.87,-0.74 -17.47,-0.79 -13.85,-0.95 -10.24,-1.10 -9.04,-1.13 -7.84,-1.17 -5.36,-1.35 -2.88,-1.53 -1.58,-1.66 -0.27,-1.78 -0.05,-1.79 0.15,-1.79 0.37,-1.75 0.58,-1.70 0.78,-1.61 0.97,-1.51 1.14,-1.38 1.31,-1.24 1.44,-1.06 1.57,-0.89 1.65,-0.68 1.73,-0.48 1.77,-0.27 1.80,-0.05 1.78,0.15 1.76,0.37 1.69,0.58 1.62,0.78 1.50,0.97 1.39,1.15 1.23,1.30 1.07,1.45 0.88,1.56 0.69,1.66 0.48,1.72 0.27,1.78 0.27,1.78 L 0.27,1.78 Z"></path></g><g transform="translate(31.173791128254607 27.16890676694338) rotate(0 -0.4342779022465493 7.290439621310142)" stroke="none"><path fill="#f36d6b" d="M 2.52,0.48 Q 2.52,0.48 2.28,1.78 2.03,3.07 1.95,4.28 1.86,5.49 1.87,7.17 1.87,8.85 1.88,10.00 1.88,11.14 1.99,12.73 2.09,14.32 2.06,14.78 2.03,15.23 1.85,15.65 1.68,16.07 1.38,16.41 1.08,16.75 0.68,16.97 0.29,17.20 -0.14,17.29 -0.59,17.38 -1.04,17.32 -1.49,17.26 -1.90,17.07 -2.31,16.87 -2.63,16.55 -2.95,16.23 -3.16,15.83 -3.36,15.42 -3.43,14.97 -3.49,14.52 -3.41,14.08 -3.33,13.63 -3.11,13.23 -2.89,12.84 -2.56,12.53 -2.22,12.23 -1.81,12.04 -1.39,11.86 -0.94,11.82 -0.49,11.78 -0.05,11.88 0.39,11.99 0.77,12.23 1.15,12.47 1.44,12.82 1.73,13.17 1.89,13.60 2.05,14.02 2.07,14.48 2.08,14.93 1.95,15.37 1.82,15.80 1.56,16.17 1.30,16.54 0.93,16.81 0.57,17.08 0.13,17.21 -0.29,17.35 -0.74,17.34 -1.19,17.33 -1.62,17.18 -2.05,17.03 -2.41,16.75 -2.76,16.47 -3.01,16.09 -3.26,15.71 -3.37,15.27 -3.48,14.83 -3.48,14.83 -3.48,14.83 -3.54,12.97 -3.59,11.10 -3.57,9.93 -3.55,8.75 -3.42,6.92 -3.28,5.08 -3.16,3.59 -3.03,2.10 -2.78,0.80 -2.52,-0.48 -2.43,-0.78 -2.33,-1.07 -2.17,-1.34 -2.00,-1.60 -1.78,-1.82 -1.56,-2.03 -1.30,-2.19 -1.03,-2.35 -0.73,-2.44 -0.44,-2.53 -0.13,-2.54 0.17,-2.56 0.48,-2.50 0.78,-2.44 1.06,-2.31 1.35,-2.18 1.59,-1.99 1.83,-1.80 2.02,-1.55 2.21,-1.30 2.33,-1.02 2.46,-0.74 2.51,-0.43 2.56,-0.13 2.54,0.17 2.52,0.48 2.52,0.48 L 2.52,0.48 Z"></path></g><g transform="translate(42.291308076390806 32.890526080908884) rotate(0 0.43427790224666296 5.465794535307445)" stroke="none"><path fill="#f36d6b" d="M 2.51,-0.10 Q 2.51,-0.10 2.58,1.14 2.65,2.38 2.81,4.56 2.96,6.74 3.26,8.56 3.55,10.38 3.57,10.82 3.58,11.26 3.46,11.69 3.33,12.11 3.08,12.48 2.83,12.84 2.47,13.10 2.11,13.37 1.69,13.50 1.27,13.64 0.82,13.63 0.38,13.62 -0.03,13.48 -0.44,13.33 -0.79,13.06 -1.14,12.78 -1.39,12.41 -1.63,12.04 -1.74,11.61 -1.85,11.18 -1.82,10.74 -1.79,10.30 -1.62,9.89 -1.45,9.48 -1.16,9.15 -0.87,8.81 -0.49,8.59 -0.10,8.37 0.32,8.28 0.76,8.19 1.20,8.24 1.64,8.30 2.03,8.49 2.43,8.68 2.75,8.99 3.07,9.30 3.27,9.69 3.47,10.09 3.54,10.53 3.60,10.97 3.53,11.40 3.45,11.84 3.23,12.23 3.02,12.62 2.69,12.92 2.37,13.22 1.96,13.40 1.56,13.58 1.12,13.62 0.68,13.66 0.24,13.56 -0.18,13.46 -0.55,13.22 -0.93,12.99 -1.21,12.65 -1.49,12.30 -1.65,11.89 -1.81,11.48 -1.81,11.48 -1.81,11.48 -2.08,9.18 -2.36,6.89 -2.36,5.80 -2.37,4.72 -2.41,3.66 -2.45,2.59 -2.48,1.34 -2.51,0.10 -2.48,-0.20 -2.46,-0.50 -2.36,-0.79 -2.27,-1.07 -2.11,-1.33 -1.94,-1.59 -1.72,-1.80 -1.51,-2.01 -1.24,-2.16 -0.98,-2.31 -0.69,-2.39 -0.40,-2.48 -0.09,-2.49 0.20,-2.50 0.50,-2.44 0.79,-2.38 1.07,-2.25 1.34,-2.12 1.58,-1.93 1.81,-1.74 1.99,-1.49 2.17,-1.25 2.29,-0.97 2.41,-0.69 2.46,-0.39 2.51,-0.10 2.51,-0.10 L 2.51,-0.10 Z"></path></g><g transform="translate(52.54024271381422 32.18618293351358) rotate(0 2.258257019481448 5.904817050865994)" stroke="none"><path fill="#f36d6b" d="M 2.30,-0.39 Q 2.30,-0.39 2.53,1.67 2.76,3.73 3.18,5.31 3.60,6.89 4.74,8.42 5.89,9.95 6.15,10.22 6.41,10.49 6.57,10.83 6.73,11.16 6.77,11.53 6.82,11.90 6.74,12.27 6.66,12.63 6.47,12.96 6.29,13.28 6.00,13.52 5.72,13.77 5.38,13.91 5.03,14.05 4.66,14.08 4.29,14.10 3.93,14.00 3.57,13.91 3.26,13.70 2.94,13.50 2.72,13.20 2.49,12.91 2.36,12.56 2.24,12.20 2.24,11.83 2.23,11.46 2.35,11.10 2.46,10.75 2.68,10.45 2.91,10.15 3.21,9.94 3.52,9.72 3.88,9.62 4.24,9.52 4.61,9.53 4.98,9.55 5.33,9.68 5.68,9.82 5.96,10.05 6.25,10.29 6.45,10.61 6.64,10.93 6.73,11.29 6.81,11.65 6.78,12.03 6.74,12.40 6.59,12.74 6.43,13.08 6.18,13.35 5.93,13.62 5.60,13.80 5.27,13.98 4.90,14.05 4.54,14.11 4.17,14.05 3.80,14.00 3.47,13.83 3.14,13.66 3.14,13.66 3.14,13.66 1.66,11.91 0.18,10.17 -0.11,9.07 -0.40,7.97 -0.88,6.20 -1.36,4.44 -1.83,2.42 -2.30,0.39 -2.31,0.11 -2.33,-0.16 -2.27,-0.44 -2.22,-0.72 -2.10,-0.97 -1.98,-1.23 -1.80,-1.45 -1.63,-1.67 -1.40,-1.84 -1.18,-2.01 -0.92,-2.12 -0.66,-2.23 -0.39,-2.28 -0.11,-2.33 0.16,-2.31 0.44,-2.29 0.71,-2.20 0.98,-2.11 1.22,-1.97 1.46,-1.82 1.66,-1.62 1.85,-1.41 2.00,-1.17 2.14,-0.93 2.22,-0.66 2.30,-0.39 2.30,-0.39 L 2.30,-0.39 Z"></path></g><g transform="translate(66.08973181826332 35.65768263742086) rotate(0 1.6502507272933826 4.082216257051456)" stroke="none"><path fill="#f36d6b" d="M 2.26,-0.78 Q 2.26,-0.78 2.75,0.67 3.24,2.12 4.44,4.60 5.64,7.07 5.75,7.48 5.86,7.88 5.84,8.30 5.82,8.71 5.66,9.10 5.51,9.49 5.24,9.81 4.97,10.13 4.61,10.34 4.25,10.56 3.84,10.65 3.44,10.74 3.02,10.69 2.61,10.65 2.23,10.47 1.85,10.30 1.54,10.01 1.24,9.72 1.04,9.35 0.85,8.98 0.78,8.57 0.71,8.16 0.78,7.75 0.85,7.34 1.04,6.97 1.24,6.60 1.54,6.31 1.85,6.02 2.22,5.85 2.60,5.67 3.02,5.63 3.43,5.58 3.84,5.67 4.25,5.76 4.61,5.98 4.97,6.19 5.24,6.51 5.51,6.83 5.66,7.22 5.82,7.60 5.84,8.02 5.86,8.44 5.75,8.84 5.64,9.24 5.40,9.59 5.17,9.93 4.84,10.19 4.51,10.44 4.11,10.57 3.71,10.71 3.30,10.71 2.88,10.71 2.48,10.57 2.09,10.44 1.75,10.19 1.42,9.94 1.19,9.59 0.95,9.24 0.95,9.24 0.95,9.24 -0.14,6.46 -1.24,3.67 -1.75,2.22 -2.26,0.78 -2.32,0.49 -2.38,0.21 -2.37,-0.07 -2.36,-0.36 -2.28,-0.63 -2.21,-0.91 -2.06,-1.16 -1.92,-1.41 -1.72,-1.62 -1.53,-1.83 -1.28,-1.99 -1.04,-2.15 -0.77,-2.24 -0.50,-2.34 -0.21,-2.36 0.07,-2.39 0.35,-2.34 0.64,-2.30 0.90,-2.19 1.17,-2.08 1.40,-1.91 1.64,-1.74 1.82,-1.52 2.01,-1.29 2.13,-1.03 2.26,-0.77 2.26,-0.78 L 2.26,-0.78 Z"></path></g><g transform="translate(95.43876999822601 107.43026989932258) rotate(0 -1.3028337067399889 8.946114183793142)" stroke="none"><path fill="#f36d6b" d="M -0.10,2.46 Q -0.10,2.46 -1.30,2.44 -2.50,2.41 -1.21,3.66 0.07,4.90 1.19,5.86 2.30,6.82 3.41,7.64 4.51,8.46 5.45,9.31 6.40,10.16 7.38,11.50 8.37,12.84 8.41,14.50 8.45,16.15 7.50,17.38 6.55,18.61 5.18,19.25 3.82,19.88 2.13,20.39 0.44,20.90 -1.49,21.09 -3.43,21.29 -5.76,21.33 -8.10,21.37 -8.60,21.30 -9.10,21.22 -9.55,21.00 -10.01,20.77 -10.36,20.41 -10.72,20.04 -10.94,19.59 -11.16,19.13 -11.23,18.63 -11.29,18.13 -11.19,17.63 -11.09,17.13 -10.84,16.69 -10.59,16.25 -10.21,15.92 -9.83,15.58 -9.36,15.39 -8.89,15.19 -8.39,15.15 -7.88,15.11 -7.39,15.24 -6.90,15.37 -6.48,15.64 -6.05,15.92 -5.74,16.31 -5.42,16.71 -5.25,17.19 -5.08,17.67 -5.07,18.17 -5.06,18.68 -5.21,19.16 -5.36,19.65 -5.66,20.06 -5.96,20.47 -6.37,20.76 -6.79,21.05 -7.27,21.20 -7.76,21.34 -8.27,21.33 -8.77,21.31 -9.25,21.13 -9.72,20.95 -10.11,20.63 -10.51,20.31 -10.78,19.88 -11.05,19.45 -11.17,18.96 -11.28,18.47 -11.24,17.96 -11.19,17.46 -10.99,16.99 -10.79,16.53 -10.45,16.15 -10.10,15.78 -9.66,15.53 -9.22,15.29 -8.72,15.19 -8.22,15.10 -8.22,15.10 -8.22,15.10 -5.07,15.05 -1.91,15.00 -0.66,14.74 0.59,14.49 1.95,14.67 3.32,14.85 2.38,13.75 1.44,12.66 0.23,11.79 -0.96,10.93 -2.47,9.80 -3.98,8.67 -5.14,7.41 -6.30,6.16 -7.12,4.58 -7.93,3.00 -7.80,1.51 -7.67,0.02 -6.78,-0.98 -5.88,-1.99 -4.08,-2.30 -2.29,-2.61 -1.09,-2.54 0.10,-2.46 0.39,-2.41 0.68,-2.36 0.96,-2.25 1.23,-2.13 1.47,-1.95 1.71,-1.77 1.89,-1.54 2.08,-1.31 2.21,-1.04 2.33,-0.77 2.39,-0.48 2.45,-0.19 2.44,0.10 2.43,0.39 2.34,0.68 2.26,0.96 2.11,1.22 1.96,1.48 1.76,1.69 1.55,1.91 1.30,2.07 1.05,2.22 0.77,2.32 0.48,2.41 0.19,2.43 -0.10,2.46 -0.10,2.46 L -0.10,2.46 Z"></path></g><g transform="translate(110.55163569516549 112.12043943612287) rotate(0 0.2605693919699661 8.416864496649652)" stroke="none"><path fill="#f36d6b" d="M 2.64,-0.21 Q 2.64,-0.21 2.75,1.03 2.86,2.27 3.07,3.70 3.27,5.13 3.36,6.29 3.44,7.45 3.49,8.89 3.54,10.33 3.53,11.39 3.52,12.46 3.43,14.67 3.35,16.87 3.26,17.38 3.17,17.88 2.92,18.34 2.67,18.79 2.29,19.14 1.92,19.48 1.45,19.69 0.98,19.90 0.47,19.95 -0.04,20.00 -0.54,19.88 -1.04,19.77 -1.47,19.49 -1.91,19.22 -2.24,18.83 -2.57,18.43 -2.75,17.95 -2.93,17.47 -2.96,16.96 -2.98,16.44 -2.83,15.95 -2.69,15.45 -2.39,15.03 -2.10,14.61 -1.69,14.31 -1.27,14.00 -0.78,13.84 -0.29,13.69 0.21,13.69 0.73,13.70 1.21,13.87 1.70,14.04 2.10,14.36 2.51,14.67 2.79,15.10 3.07,15.53 3.20,16.03 3.33,16.53 3.30,17.04 3.26,17.55 3.07,18.03 2.87,18.50 2.53,18.89 2.19,19.28 1.75,19.54 1.30,19.80 0.80,19.90 0.30,20.00 -0.20,19.94 -0.71,19.88 -1.18,19.66 -1.64,19.43 -2.01,19.08 -2.38,18.72 -2.61,18.26 -2.85,17.80 -2.92,17.29 -3.00,16.78 -3.00,16.79 -3.00,16.79 -2.84,14.35 -2.68,11.91 -2.57,10.49 -2.46,9.07 -2.40,7.25 -2.35,5.42 -2.40,4.06 -2.46,2.70 -2.55,1.45 -2.64,0.21 -2.63,-0.10 -2.62,-0.42 -2.53,-0.73 -2.44,-1.04 -2.28,-1.31 -2.12,-1.59 -1.90,-1.82 -1.67,-2.05 -1.40,-2.23 -1.13,-2.40 -0.83,-2.50 -0.53,-2.60 -0.21,-2.62 0.10,-2.65 0.42,-2.60 0.74,-2.55 1.03,-2.42 1.32,-2.30 1.58,-2.10 1.84,-1.91 2.04,-1.66 2.24,-1.41 2.38,-1.12 2.52,-0.84 2.58,-0.52 2.64,-0.21 2.64,-0.21 L 2.64,-0.21 Z"></path></g><g transform="translate(111.94133028359852 112.80986620842725) rotate(0 6.0758219267415825 9.471341552109365)" stroke="none"><path fill="#f36d6b" d="M -1.07,-2.43 Q -1.07,-2.43 -0.19,-2.85 0.69,-3.28 1.93,-3.67 3.17,-4.07 4.71,-4.45 6.24,-4.83 7.78,-4.78 9.31,-4.73 10.45,-4.16 11.59,-3.60 12.45,-2.83 13.31,-2.06 14.03,-1.14 14.74,-0.23 15.27,1.05 15.80,2.33 16.02,3.51 16.23,4.68 16.09,6.18 15.94,7.69 15.50,9.03 15.06,10.37 14.32,11.92 13.58,13.46 12.97,14.59 12.36,15.72 11.62,16.94 10.89,18.16 9.94,19.39 9.00,20.62 8.20,21.49 7.41,22.35 5.82,23.18 4.23,24.01 0.95,23.15 -2.31,22.30 -2.79,22.04 -3.27,21.78 -3.65,21.38 -4.02,20.98 -4.24,20.49 -4.47,19.99 -4.53,19.45 -4.58,18.90 -4.46,18.37 -4.34,17.84 -4.06,17.37 -3.77,16.91 -3.35,16.56 -2.94,16.21 -2.43,16.01 -1.92,15.81 -1.37,15.78 -0.83,15.76 -0.30,15.91 0.21,16.06 0.66,16.36 1.11,16.67 1.44,17.11 1.77,17.55 1.94,18.06 2.11,18.58 2.10,19.13 2.10,19.67 1.92,20.19 1.74,20.71 1.41,21.14 1.08,21.57 0.62,21.87 0.17,22.18 -0.35,22.32 -0.87,22.46 -1.42,22.43 -1.96,22.40 -2.47,22.19 -2.97,21.99 -3.39,21.63 -3.80,21.27 -4.08,20.80 -4.36,20.34 -4.47,19.80 -4.58,19.27 -4.52,18.73 -4.46,18.18 -4.23,17.69 -3.99,17.20 -3.62,16.80 -3.24,16.41 -2.75,16.16 -2.27,15.90 -1.73,15.82 -1.19,15.73 -0.65,15.83 -0.12,15.92 -0.12,15.92 -0.12,15.92 1.13,17.02 2.39,18.12 3.21,17.27 4.02,16.43 4.75,15.55 5.48,14.67 6.17,13.59 6.86,12.51 7.48,11.47 8.11,10.43 8.68,9.41 9.26,8.39 9.68,6.98 10.10,5.56 9.92,4.46 9.75,3.35 9.00,2.22 8.24,1.09 7.09,0.98 5.95,0.87 4.42,1.28 2.89,1.69 1.98,2.06 1.07,2.43 0.77,2.52 0.46,2.62 0.14,2.63 -0.17,2.65 -0.49,2.59 -0.80,2.53 -1.09,2.40 -1.38,2.27 -1.64,2.07 -1.89,1.87 -2.08,1.61 -2.28,1.36 -2.41,1.07 -2.54,0.77 -2.60,0.46 -2.65,0.14 -2.63,-0.17 -2.61,-0.49 -2.51,-0.79 -2.42,-1.10 -2.25,-1.37 -2.08,-1.65 -1.85,-1.87 -1.63,-2.10 -1.35,-2.26 -1.07,-2.43 -1.07,-2.43 L -1.07,-2.43 Z"></path></g></svg>