<?xml version="1.0" standalone="no"?>
<!DOCTYPE svg PUBLIC "-//W3C//DTD SVG 1.1//EN" "http://www.w3.org/Graphics/SVG/1.1/DTD/svg11.dtd">
<svg version="1.1" xmlns="http://www.w3.org/2000/svg" viewBox="0 0 84.88308394336764 54.36026228604533" width="84.88308394336764" height="54.36026228604533"><!-- svg-source:excalidraw --><metadata></metadata><defs><style class="style-fonts">
      </style></defs><g transform="translate(22.762611000606967 14.325556652452633) rotate(0 0.00004999999998744897 0.00005000000000165983)" stroke="none"><path fill="#f36d6b" d="M 3.14,-3.14 Q 3.14,-3.14 3.55,-2.55 3.97,-1.97 4.18,-1.28 4.40,-0.59 4.38,0.11 4.36,0.83 4.11,1.51 3.86,2.18 3.41,2.74 2.96,3.30 2.36,3.69 1.75,4.08 1.05,4.25 0.36,4.42 -0.35,4.36 -1.07,4.31 -1.73,4.02 -2.39,3.74 -2.92,3.26 -3.46,2.78 -3.81,2.15 -4.16,1.53 -4.30,0.82 -4.43,0.11 -4.34,-0.59 -4.24,-1.30 -3.92,-1.94 -3.60,-2.59 -3.09,-3.09 -2.59,-3.60 -1.94,-3.92 -1.30,-4.24 -0.59,-4.34 0.12,-4.43 0.82,-4.30 1.53,-4.16 2.15,-3.81 2.78,-3.46 3.26,-2.92 3.74,-2.39 4.02,-1.73 4.31,-1.07 4.36,-0.35 4.42,0.36 4.25,1.05 4.07,1.75 3.69,2.36 3.30,2.96 2.74,3.41 2.18,3.86 1.51,4.11 0.83,4.36 0.11,4.38 -0.60,4.40 -1.28,4.18 -1.97,3.97 -2.55,3.55 -3.14,3.13 -3.14,3.14 -3.14,3.14 -3.47,2.71 -3.80,2.29 -4.02,1.80 -4.24,1.32 -4.33,0.79 -4.43,0.26 -4.40,-0.26 -4.36,-0.80 -4.20,-1.31 -4.04,-1.82 -3.77,-2.28 -3.49,-2.73 -3.11,-3.11 -2.73,-3.49 -2.28,-3.77 -1.82,-4.05 -1.31,-4.20 -0.80,-4.36 -0.26,-4.40 0.26,-4.43 0.79,-4.33 1.32,-4.24 1.80,-4.02 2.29,-3.80 2.71,-3.47 3.14,-3.14 3.14,-3.14 L 3.14,-3.14 Z"></path></g><g transform="translate(49.892940581421726 10) rotate(0 0.00004999999998744897 0.00005000000000165983)" stroke="none"><path fill="#f36d6b" d="M 3.14,-3.14 Q 3.14,-3.14 3.55,-2.55 3.97,-1.97 4.18,-1.28 4.40,-0.59 4.38,0.11 4.36,0.83 4.11,1.51 3.86,2.18 3.41,2.74 2.96,3.30 2.36,3.69 1.75,4.08 1.05,4.25 0.36,4.42 -0.35,4.36 -1.07,4.31 -1.73,4.02 -2.39,3.74 -2.92,3.26 -3.46,2.78 -3.81,2.15 -4.16,1.53 -4.30,0.82 -4.43,0.11 -4.34,-0.59 -4.24,-1.30 -3.92,-1.94 -3.60,-2.59 -3.09,-3.09 -2.59,-3.60 -1.94,-3.92 -1.30,-4.24 -0.59,-4.34 0.12,-4.43 0.82,-4.30 1.53,-4.16 2.15,-3.81 2.78,-3.46 3.26,-2.92 3.74,-2.39 4.02,-1.73 4.31,-1.07 4.36,-0.35 4.42,0.36 4.25,1.05 4.07,1.75 3.69,2.36 3.30,2.96 2.74,3.41 2.18,3.86 1.51,4.11 0.83,4.36 0.11,4.38 -0.60,4.40 -1.28,4.18 -1.97,3.97 -2.55,3.55 -3.14,3.13 -3.14,3.14 -3.14,3.14 -3.47,2.71 -3.80,2.29 -4.02,1.80 -4.24,1.32 -4.33,0.79 -4.43,0.26 -4.40,-0.26 -4.36,-0.80 -4.20,-1.31 -4.04,-1.82 -3.77,-2.28 -3.49,-2.73 -3.11,-3.11 -2.73,-3.49 -2.28,-3.77 -1.82,-4.05 -1.31,-4.20 -0.80,-4.36 -0.26,-4.40 0.26,-4.43 0.79,-4.33 1.32,-4.24 1.80,-4.02 2.29,-3.80 2.71,-3.47 3.14,-3.14 3.14,-3.14 L 3.14,-3.14 Z"></path></g><g transform="translate(10.240304119406801 29.46494535044235) rotate(0 32.20123785227702 -0.6045371085114084)" stroke="none"><path fill="#f36d6b" d="M 3.29,-2.28 Q 3.29,-2.28 5.18,0.39 7.07,3.06 10.98,5.43 14.90,7.79 20.94,9.00 26.98,10.22 29.40,10.29 31.81,10.36 37.63,10.04 43.44,9.72 46.39,9.31 49.35,8.90 52.85,6.74 56.36,4.58 57.39,0.47 58.43,-3.63 57.92,-5.71 57.41,-7.79 55.77,-11.13 54.14,-14.46 53.99,-15.18 53.84,-15.90 53.93,-16.64 54.02,-17.37 54.33,-18.03 54.65,-18.70 55.16,-19.23 55.68,-19.75 56.33,-20.09 56.98,-20.43 57.71,-20.54 58.44,-20.65 59.17,-20.52 59.89,-20.40 60.54,-20.04 61.19,-19.69 61.69,-19.15 62.19,-18.61 62.49,-17.94 62.79,-17.27 62.86,-16.53 62.93,-15.80 62.77,-15.08 62.60,-14.37 62.21,-13.74 61.83,-13.11 61.26,-12.64 60.69,-12.17 60.01,-11.91 59.32,-11.64 58.58,-11.61 57.85,-11.58 57.14,-11.78 56.43,-11.99 55.83,-12.41 55.22,-12.83 54.78,-13.42 54.34,-14.01 54.12,-14.71 53.89,-15.41 53.90,-16.15 53.91,-16.89 54.15,-17.58 54.39,-18.28 54.84,-18.86 55.30,-19.44 55.91,-19.85 56.53,-20.25 57.24,-20.44 57.95,-20.63 58.68,-20.58 59.42,-20.53 60.10,-20.25 60.78,-19.97 61.34,-19.49 61.89,-19.01 62.27,-18.37 62.64,-17.74 62.64,-17.74 62.64,-17.74 63.14,-16.05 63.63,-14.37 64.46,-11.71 65.29,-9.05 65.54,-6.27 65.78,-3.49 65.36,1.57 64.94,6.64 62.55,8.67 60.17,10.70 55.38,13.69 50.58,16.67 47.34,16.99 44.10,17.32 37.61,18.06 31.12,18.81 28.65,18.47 26.18,18.13 20.77,17.73 15.37,17.33 13.32,16.33 11.28,15.34 7.28,13.35 3.28,11.36 1.83,9.53 0.38,7.70 -1.45,4.99 -3.29,2.28 -3.51,1.85 -3.74,1.42 -3.85,0.95 -3.97,0.48 -3.97,0.00 -3.97,-0.47 -3.86,-0.94 -3.74,-1.41 -3.52,-1.84 -3.29,-2.27 -2.98,-2.63 -2.66,-2.99 -2.26,-3.26 -1.86,-3.54 -1.41,-3.71 -0.96,-3.88 -0.48,-3.94 -0.00,-4.00 0.47,-3.94 0.95,-3.89 1.40,-3.71 1.85,-3.54 2.25,-3.27 2.65,-3.00 2.97,-2.64 3.29,-2.28 3.29,-2.28 L 3.29,-2.28 Z"></path></g></svg>