<?xml version="1.0" standalone="no"?>
<!DOCTYPE svg PUBLIC "-//W3C//DTD SVG 1.1//EN" "http://www.w3.org/Graphics/SVG/1.1/DTD/svg11.dtd">
<svg version="1.1" xmlns="http://www.w3.org/2000/svg" viewBox="0 0 279.584072364381 260.81843323237604" width="279.584072364381" height="260.81843323237604"><!-- svg-source:excalidraw --><metadata></metadata><defs><style class="style-fonts">
      </style></defs><g transform="translate(20.93691023665224 93.90379081442228) rotate(0 118.85512594553825 36.50542580176574)" stroke="none"><path fill="#f36d6b" d="M 0,-3.39 Q 0,-3.39 3.20,-3.50 6.40,-3.61 11.64,-3.48 16.88,-3.34 20.08,-3.46 23.27,-3.57 29.80,-3.44 36.33,-3.32 39.86,-3.38 43.38,-3.45 50.70,-3.33 58.02,-3.22 67.91,-3.14 77.80,-3.06 88.27,-2.89 98.74,-2.72 108.88,-2.63 119.02,-2.55 128.28,-2.49 137.55,-2.44 146.46,-2.30 155.37,-2.17 163.68,-1.99 171.99,-1.82 180.02,-1.74 188.06,-1.66 194.92,-1.62 201.79,-1.59 207.48,-1.68 213.17,-1.76 216.03,-2.03 218.89,-2.30 221.78,-2.59 224.67,-2.89 227.98,-3.42 231.29,-3.96 233.53,-4.39 235.76,-4.83 238.62,-5.40 241.48,-5.97 243.68,-6.27 245.88,-6.58 248.59,-6.01 251.31,-5.44 252.13,-2.39 252.95,0.65 252.18,2.68 251.42,4.71 249.28,6.75 247.14,8.79 245.37,10.28 243.61,11.78 239.60,14.54 235.59,17.31 231.10,19.71 226.61,22.12 222.47,23.88 218.33,25.65 213.30,28.09 208.26,30.53 202.11,33.35 195.95,36.17 189.12,39.34 182.29,42.50 175.20,46.04 168.12,49.58 160.78,53.41 153.44,57.25 145.74,61.03 138.04,64.81 129.58,68.77 121.11,72.74 112.53,76.46 103.95,80.19 99.67,82.08 95.40,83.96 89.93,86.47 84.46,88.98 81.47,90.61 78.48,92.25 73.52,94.76 68.55,97.28 65.77,98.93 62.99,100.59 58.77,102.97 54.56,105.34 52.23,106.97 49.90,108.60 46.46,110.61 43.02,112.61 41.21,113.88 39.41,115.14 36.50,116.91 33.58,118.67 28.97,122.04 24.36,125.40 19.33,129.24 14.30,133.08 12.29,134.71 10.29,136.35 7.72,138.28 5.15,140.22 2.06,143.15 -1.02,146.08 -3.24,148.21 -5.47,150.33 -6.38,151.18 -7.30,152.04 -7.86,152.34 -8.43,152.64 -9.05,152.79 -9.67,152.95 -10.31,152.95 -10.95,152.95 -11.57,152.80 -12.19,152.65 -12.76,152.36 -13.33,152.06 -13.81,151.64 -14.29,151.22 -14.66,150.69 -15.02,150.17 -15.25,149.57 -15.48,148.97 -15.56,148.34 -15.64,147.70 -15.56,147.07 -15.49,146.43 -15.27,145.83 -15.04,145.23 -14.68,144.71 -14.32,144.18 -13.84,143.75 -13.36,143.32 -11.60,140.99 -9.83,138.65 -6.43,134.96 -3.03,131.27 -1.32,129.07 0.38,126.87 3.96,123.06 7.53,119.25 12.19,113.76 16.86,108.27 21.33,102.37 25.81,96.46 28.14,93.34 30.47,90.23 33.66,85.87 36.86,81.52 38.51,78.98 40.16,76.44 42.93,72.70 45.70,68.96 47.38,66.37 49.07,63.79 52.26,59.10 55.44,54.41 57.24,51.38 59.04,48.36 62.18,43.47 65.33,38.58 69.06,32.55 72.79,26.52 76.20,20.46 79.61,14.39 82.67,8.31 85.74,2.22 88.54,-4.09 91.35,-10.41 94.08,-16.36 96.81,-22.31 99.81,-28.62 102.81,-34.93 105.25,-40.77 107.68,-46.61 109.59,-51.37 111.49,-56.12 113.28,-60.52 115.06,-64.92 116.56,-68.91 118.07,-72.90 118.95,-75.95 119.83,-78.99 120.48,-81.50 121.12,-84.01 121.17,-84.36 121.21,-84.72 121.42,-85.14 121.63,-85.57 121.93,-85.93 122.24,-86.29 122.62,-86.57 123.00,-86.85 123.44,-87.03 123.87,-87.21 124.34,-87.28 124.81,-87.35 125.28,-87.31 125.75,-87.27 126.20,-87.11 126.65,-86.96 127.04,-86.70 127.44,-86.44 127.77,-86.10 128.09,-85.75 128.32,-85.34 128.55,-84.93 128.68,-84.47 128.81,-84.01 128.82,-83.54 128.83,-83.07 128.73,-82.60 128.63,-82.14 130.19,-79.64 131.74,-77.14 132.81,-74.22 133.88,-71.30 135.93,-66.03 137.97,-60.76 139.38,-57.68 140.79,-54.60 142.85,-49.53 144.90,-44.46 146.33,-41.53 147.76,-38.60 149.64,-33.41 151.52,-28.22 152.77,-25.11 154.03,-22.00 155.61,-16.45 157.19,-10.90 159.32,-3.72 161.45,3.45 162.60,7.25 163.76,11.05 165.16,15.92 166.55,20.78 167.57,23.42 168.59,26.06 169.62,30.20 170.66,34.33 171.44,36.57 172.23,38.81 173.14,42.81 174.05,46.82 174.77,49.15 175.49,51.49 176.37,55.37 177.24,59.25 178.28,63.61 179.31,67.97 180.11,70.46 180.90,72.95 181.98,76.24 183.07,79.53 184.39,83.32 185.70,87.10 187.27,90.82 188.84,94.54 190.66,98.00 192.47,101.45 194.21,104.13 195.94,106.80 197.40,108.69 198.86,110.58 200.62,112.62 202.38,114.67 204.61,117.87 206.84,121.07 208.44,123.53 210.03,125.98 211.50,127.97 212.96,129.96 215.02,133.02 217.08,136.07 218.65,138.03 220.22,139.98 221.52,141.81 222.82,143.64 224.03,145.57 225.24,147.51 226.68,149.70 228.12,151.89 228.28,151.84 228.43,151.80 228.93,152.44 229.42,153.08 229.75,153.82 230.07,154.56 230.21,155.36 230.35,156.15 230.30,156.96 230.24,157.77 229.99,158.54 229.75,159.31 229.32,160.00 228.90,160.69 228.32,161.25 227.75,161.82 227.05,162.23 226.36,162.65 225.58,162.88 224.81,163.11 224.00,163.16 223.19,163.20 222.40,163.05 221.60,162.89 220.87,162.56 220.13,162.22 219.50,161.72 218.87,161.21 216.92,159.04 214.97,156.87 210.37,152.88 205.77,148.88 202.73,146.37 199.68,143.85 193.48,139.55 187.27,135.26 183.59,132.68 179.90,130.10 173.44,126.05 166.98,122.00 158.45,116.89 149.92,111.79 145.23,108.93 140.53,106.08 134.74,102.34 128.95,98.59 125.59,96.39 122.24,94.18 117.49,90.82 112.74,87.45 109.81,85.62 106.88,83.79 102.89,80.96 98.89,78.13 96.25,76.56 93.60,75.00 90.02,72.20 86.43,69.41 82.26,66.17 78.08,62.92 75.56,61.30 73.04,59.67 70.20,57.53 67.36,55.39 65.30,53.95 63.24,52.50 60.45,50.06 57.65,47.62 54.18,44.71 50.70,41.80 48.57,40.26 46.44,38.72 43.89,36.81 41.34,34.90 38.49,32.48 35.64,30.05 32.49,27.83 29.34,25.60 27.36,24.27 25.37,22.95 22.55,21.07 19.73,19.20 17.67,18.01 15.61,16.83 13.12,15.72 10.63,14.62 8.62,13.76 6.61,12.89 4.01,11.56 1.41,10.23 -1.51,7.27 -4.44,4.31 -5.01,3.49 -5.59,2.67 -5.87,1.70 -6.15,0.74 -6.10,-0.25 -6.06,-1.25 -5.70,-2.19 -5.34,-3.12 -4.70,-3.90 -4.06,-4.67 -3.21,-5.19 -2.36,-5.72 -1.38,-5.95 -0.41,-6.18 0.58,-6.08 1.58,-5.98 2.49,-5.57 3.41,-5.16 4.14,-4.48 4.88,-3.80 5.36,-2.92 5.84,-2.04 6.02,-1.06 6.19,-0.07 6.04,0.91 5.89,1.90 5.43,2.79 4.97,3.68 4.25,4.38 3.53,5.08 2.63,5.51 1.72,5.94 0.73,6.06 -0.26,6.18 -1.24,5.98 -2.22,5.78 -3.08,5.27 -3.95,4.76 -4.61,4.01 -5.26,3.25 -5.65,2.33 -6.03,1.40 -6.10,0.40 -6.16,-0.59 -5.90,-1.56 -5.65,-2.53 -5.10,-3.36 -4.54,-4.20 -3.75,-4.82 -2.96,-5.43 -2.02,-5.76 -1.07,-6.10 -0.07,-6.11 0.92,-6.12 1.88,-5.81 2.83,-5.50 3.64,-4.91 4.44,-4.31 4.44,-4.31 4.44,-4.31 5.70,-2.85 6.97,-1.39 9.72,0.11 12.46,1.61 14.70,2.88 16.93,4.15 18.97,5.34 21.01,6.54 23.07,7.95 25.13,9.36 26.95,11.00 28.77,12.63 30.36,14.12 31.95,15.62 33.46,17.13 34.98,18.64 37.79,21.38 40.60,24.12 43.38,26.41 46.16,28.69 48.74,30.76 51.31,32.83 53.15,34.57 54.98,36.31 58.80,39.09 62.63,41.87 65.35,44.21 68.07,46.54 69.86,48.22 71.65,49.90 74.33,52.08 77.00,54.26 79.35,56.19 81.70,58.13 85.95,61.25 90.20,64.37 93.75,66.90 97.31,69.44 99.80,71.30 102.30,73.17 106.36,75.86 110.41,78.56 113.24,80.62 116.07,82.67 120.82,85.91 125.57,89.16 128.86,91.35 132.14,93.55 137.91,97.12 143.69,100.69 148.47,103.38 153.25,106.07 161.94,110.98 170.63,115.89 177.33,119.69 184.03,123.49 187.99,125.69 191.95,127.90 198.67,131.82 205.39,135.74 208.94,137.86 212.48,139.98 218.33,143.86 224.17,147.74 226.30,149.77 228.43,151.80 228.93,152.44 229.42,153.08 229.75,153.82 230.07,154.56 230.21,155.36 230.35,156.15 230.30,156.96 230.24,157.77 229.99,158.54 229.75,159.31 229.32,160.00 228.90,160.68 228.32,161.25 227.75,161.82 227.05,162.23 226.36,162.65 225.58,162.88 224.81,163.11 224.00,163.16 223.19,163.20 222.40,163.05 221.60,162.90 220.87,162.56 220.13,162.22 219.50,161.72 218.87,161.21 218.81,161.20 218.76,161.20 217.32,159.33 215.89,157.47 214.85,155.57 213.81,153.66 212.70,151.61 211.60,149.57 210.58,147.61 209.56,145.66 208.36,143.89 207.16,142.12 205.50,139.29 203.83,136.46 202.36,133.92 200.88,131.38 199.64,128.78 198.40,126.18 196.55,122.58 194.70,118.98 193.58,116.89 192.47,114.81 191.22,112.59 189.97,110.37 188.36,107.45 186.75,104.53 184.76,100.89 182.77,97.26 180.96,93.42 179.15,89.58 177.57,85.71 176.00,81.84 174.85,78.27 173.70,74.70 173.28,72.20 172.86,69.70 171.56,65.36 170.25,61.01 169.16,57.09 168.08,53.18 167.74,50.84 167.39,48.50 166.30,44.55 165.21,40.60 164.84,38.31 164.46,36.02 163.28,32.05 162.10,28.07 161.44,25.30 160.79,22.53 159.26,17.71 157.73,12.89 156.56,9.11 155.40,5.33 153.09,-1.78 150.77,-8.90 148.99,-14.18 147.22,-19.45 146.14,-22.56 145.06,-25.67 142.97,-30.55 140.89,-35.43 139.57,-38.46 138.25,-41.49 135.87,-46.39 133.49,-51.28 132.07,-54.42 130.65,-57.55 128.06,-62.86 125.47,-68.16 124.00,-72.75 122.53,-77.34 121.87,-81.03 121.21,-84.71 121.42,-85.14 121.63,-85.57 121.93,-85.93 122.24,-86.29 122.62,-86.57 123.00,-86.85 123.44,-87.03 123.87,-87.21 124.34,-87.28 124.81,-87.35 125.28,-87.31 125.75,-87.27 126.20,-87.11 126.65,-86.96 127.04,-86.70 127.44,-86.44 127.77,-86.10 128.09,-85.75 128.32,-85.34 128.55,-84.93 128.68,-84.47 128.81,-84.01 128.82,-83.54 128.83,-83.07 128.73,-82.60 128.63,-82.14 128.26,-81.50 127.89,-80.86 126.72,-78.91 125.55,-76.95 124.29,-74.00 123.03,-71.04 121.51,-66.98 119.99,-62.93 118.22,-58.53 116.45,-54.14 114.55,-49.35 112.65,-44.55 110.18,-38.58 107.72,-32.61 104.76,-26.33 101.81,-20.04 99.13,-14.10 96.46,-8.16 93.65,-1.70 90.85,4.75 87.80,10.99 84.75,17.23 81.38,23.45 78.01,29.67 74.41,35.81 70.80,41.96 67.83,46.96 64.87,51.96 62.93,54.98 60.99,58.00 57.91,62.97 54.84,67.93 52.95,70.33 51.06,72.72 48.45,76.64 45.85,80.57 43.97,82.89 42.10,85.21 39.03,89.75 35.96,94.29 33.69,97.41 31.41,100.53 27.07,106.75 22.74,112.98 18.33,118.81 13.92,124.64 10.84,128.71 7.76,132.78 5.99,134.94 4.22,137.09 1.44,141.10 -1.33,145.12 -4.31,148.58 -7.30,152.04 -7.86,152.34 -8.43,152.64 -9.05,152.79 -9.67,152.95 -10.31,152.95 -10.95,152.95 -11.57,152.80 -12.19,152.65 -12.76,152.36 -13.33,152.06 -13.81,151.64 -14.29,151.22 -14.66,150.69 -15.02,150.17 -15.25,149.57 -15.48,148.97 -15.56,148.34 -15.64,147.70 -15.57,147.07 -15.49,146.43 -15.27,145.83 -15.04,145.23 -14.68,144.71 -14.32,144.18 -13.84,143.75 -13.36,143.32 -12.70,142.92 -12.03,142.52 -9.60,140.79 -7.17,139.06 -3.52,136.27 0.13,133.48 2.75,131.55 5.37,129.63 7.48,128.25 9.58,126.88 12.73,124.23 15.88,121.59 17.76,120.28 19.63,118.97 22.70,116.62 25.77,114.27 27.73,113.19 29.69,112.10 32.68,110.37 35.67,108.63 37.63,107.74 39.58,106.85 42.96,104.79 46.33,102.73 48.90,101.39 51.46,100.05 55.71,97.47 59.96,94.89 62.91,93.49 65.86,92.09 70.84,89.45 75.82,86.80 78.99,85.41 82.17,84.03 87.65,81.47 93.14,78.90 97.41,76.96 101.68,75.02 110.15,71.26 118.63,67.49 126.99,63.47 135.35,59.44 142.91,55.57 150.47,51.71 157.75,47.68 165.04,43.66 172.07,39.85 179.11,36.04 185.75,32.57 192.40,29.10 198.18,25.94 203.95,22.78 208.75,19.75 213.55,16.72 217.34,14.24 221.14,11.76 224.90,9.52 228.67,7.28 230.77,5.72 232.86,4.17 235.06,2.52 237.26,0.87 240.35,-0.49 243.44,-1.87 245.34,1.39 247.23,4.65 244.55,4.60 241.86,4.55 239.28,4.50 236.70,4.46 234.28,4.40 231.86,4.34 228.41,4.17 224.96,4.00 221.97,3.96 218.98,3.91 216.12,3.73 213.26,3.55 207.51,3.65 201.77,3.75 194.89,3.73 188.02,3.71 179.95,3.66 171.88,3.60 163.59,3.46 155.29,3.32 146.42,3.23 137.54,3.14 128.27,3.15 118.99,3.16 108.84,3.16 98.68,3.15 88.24,3.11 77.80,3.06 67.91,3.14 58.02,3.22 50.70,3.33 43.38,3.45 39.86,3.38 36.33,3.32 29.80,3.44 23.27,3.57 20.08,3.46 16.88,3.34 11.64,3.48 6.40,3.61 3.20,3.50 0,3.39 -0.40,3.34 -0.81,3.30 -1.19,3.15 -1.57,3.00 -1.91,2.77 -2.25,2.54 -2.52,2.23 -2.79,1.93 -2.98,1.56 -3.17,1.20 -3.27,0.80 -3.37,0.40 -3.37,-0.00 -3.37,-0.40 -3.27,-0.80 -3.17,-1.20 -2.98,-1.56 -2.79,-1.93 -2.52,-2.23 -2.25,-2.54 -1.91,-2.77 -1.57,-3.00 -1.19,-3.15 -0.81,-3.30 -0.40,-3.34 0.00,-3.39 0.00,-3.39 L 0,-3.39 Z"></path></g></svg>