<?xml version="1.0" standalone="no"?>
<!DOCTYPE svg PUBLIC "-//W3C//DTD SVG 1.1//EN" "http://www.w3.org/Graphics/SVG/1.1/DTD/svg11.dtd">
<svg version="1.1" xmlns="http://www.w3.org/2000/svg" viewBox="0 0 414.815140089323 79.5629485749993" width="414.815140089323" height="79.5629485749993"><!-- svg-source:excalidraw --><metadata></metadata><defs><style class="style-fonts">
      </style></defs><g transform="translate(10 10) rotate(0 197.4075700446615 29.78147428749965)" stroke="none"><path fill="#f36d6b" d="M 0.68,-3.04 Q 0.68,-3.04 6.90,-1.58 13.13,-0.11 17.57,0.84 22.02,1.80 35.22,3.39 48.41,4.98 56.85,5.89 65.29,6.80 83.31,8.59 101.33,10.39 111.46,11.37 121.60,12.36 138.27,15.05 154.94,17.75 166.62,20.53 178.30,23.31 183.31,27.36 188.33,31.41 186.76,34.96 185.19,38.50 183.04,42.41 180.90,46.32 186.05,47.26 191.20,48.20 206.96,48.99 222.72,49.79 232.24,50.09 241.76,50.39 260.00,50.45 278.25,50.51 289.50,50.78 300.74,51.05 317.71,51.83 334.68,52.61 350.09,53.60 365.50,54.59 372.48,55.13 379.47,55.67 383.93,56.02 388.40,56.36 391.72,56.44 395.03,56.51 395.51,56.62 395.99,56.74 396.41,57.00 396.83,57.27 397.15,57.65 397.46,58.03 397.63,58.49 397.81,58.96 397.83,59.45 397.84,59.95 397.70,60.42 397.56,60.89 397.28,61.30 396.99,61.70 396.59,61.99 396.19,62.29 395.72,62.43 395.25,62.58 394.75,62.57 394.26,62.57 393.79,62.40 393.33,62.23 392.94,61.92 392.55,61.62 392.28,61.20 392.01,60.79 391.89,60.31 391.76,59.83 391.80,59.34 391.84,58.84 392.03,58.39 392.22,57.93 392.55,57.56 392.88,57.19 393.30,56.94 393.73,56.70 394.22,56.60 394.70,56.50 395.19,56.57 395.68,56.63 396.13,56.84 396.57,57.06 396.93,57.41 397.28,57.75 397.50,58.20 397.73,58.64 397.80,59.13 397.87,59.62 397.78,60.10 397.69,60.59 397.45,61.02 397.21,61.45 396.84,61.79 396.48,62.12 396.02,62.32 395.57,62.52 395.08,62.56 394.59,62.61 394.59,62.61 394.59,62.61 391.30,62.20 388.00,61.79 383.53,61.48 379.06,61.17 372.11,60.68 365.15,60.19 349.79,59.27 334.44,58.35 317.53,57.66 300.63,56.98 289.45,56.84 278.26,56.70 259.94,56.82 241.63,56.93 232.02,56.86 222.42,56.80 205.84,56.21 189.27,55.61 182.38,53.46 175.50,51.30 174.57,49.08 173.63,46.87 174.21,44.67 174.78,42.47 177.43,39.24 180.09,36.01 181.87,32.69 183.65,29.36 180.34,28.92 177.02,28.48 165.56,25.76 154.09,23.04 137.59,20.38 121.08,17.73 110.94,16.77 100.80,15.82 82.76,14.06 64.72,12.30 56.24,11.44 47.75,10.58 34.31,9.02 20.86,7.46 16.34,6.59 11.82,5.71 5.57,4.38 -0.68,3.04 -1.03,2.92 -1.39,2.79 -1.70,2.58 -2.02,2.38 -2.27,2.10 -2.53,1.82 -2.71,1.49 -2.89,1.16 -2.99,0.80 -3.09,0.44 -3.10,0.06 -3.10,-0.31 -3.02,-0.67 -2.94,-1.04 -2.77,-1.38 -2.60,-1.72 -2.36,-2.00 -2.12,-2.29 -1.81,-2.51 -1.50,-2.73 -1.16,-2.87 -0.81,-3.01 -0.43,-3.07 -0.06,-3.12 0.30,-3.08 0.68,-3.04 0.68,-3.04 L 0.68,-3.04 Z"></path></g></svg>