<?xml version="1.0" standalone="no"?>
<!DOCTYPE svg PUBLIC "-//W3C//DTD SVG 1.1//EN" "http://www.w3.org/Graphics/SVG/1.1/DTD/svg11.dtd">
<svg version="1.1" xmlns="http://www.w3.org/2000/svg" viewBox="0 0 222.2951274713414 345.9162724704363" width="222.2951274713414" height="345.9162724704363"><!-- svg-source:excalidraw --><metadata></metadata><defs><style class="style-fonts">
      </style></defs><g transform="translate(20.503659161244286 10) rotate(0 90.64390457442641 162.95813623521815)" stroke="none"><path fill="#f36d6b" d="M 3.57,-3.15 Q 3.57,-3.15 5.23,-1.36 6.89,0.41 8.97,3.00 11.06,5.59 14.02,9.42 16.99,13.25 19.83,17.87 22.66,22.48 25.21,27.56 27.75,32.64 29.33,38.24 30.90,43.84 31.41,49.48 31.92,55.12 31.75,60.03 31.58,64.95 29.88,68.56 28.18,72.17 25.07,75.82 21.95,79.48 18.48,81.57 15.00,83.67 11.14,84.92 7.29,86.18 2.59,86.19 -2.09,86.21 -5.60,85.60 -9.11,84.98 -11.72,80.20 -14.34,75.41 -10.84,73.62 -7.33,71.83 -3.34,73.33 0.63,74.83 4.93,77.53 9.22,80.22 13.65,83.50 18.07,86.78 22.23,91.00 26.38,95.23 29.75,99.76 33.12,104.28 34.85,106.67 36.59,109.05 38.30,113.29 40.02,117.53 41.67,123.30 43.33,129.06 45.04,135.00 46.75,140.94 49.03,146.68 51.30,152.42 53.94,157.72 56.57,163.02 59.95,167.60 63.32,172.18 67.38,175.61 71.43,179.03 76.41,181.38 81.38,183.72 87.01,185.04 92.64,186.35 97.84,187.14 103.04,187.94 106.38,188.23 109.72,188.51 112.43,189.97 115.14,191.43 113.28,194.09 111.43,196.75 109.56,194.66 107.70,192.57 107.95,190.42 108.21,188.27 108.35,185.90 108.49,183.52 108.12,181.26 107.74,179.01 111.47,177.70 115.20,176.39 114.04,178.97 112.89,181.55 111.63,189.49 110.37,197.42 109.92,201.44 109.48,205.46 109.49,212.30 109.50,219.14 109.56,223.28 109.63,227.41 111.27,235.26 112.91,243.10 118.73,254.50 124.55,265.89 134.19,276.98 143.82,288.07 149.22,293.61 154.62,299.15 162.64,304.60 170.67,310.06 175.53,313.19 180.40,316.33 184.02,318.39 187.65,320.45 190.48,321.83 193.31,323.21 193.70,323.52 194.10,323.83 194.37,324.26 194.64,324.68 194.76,325.17 194.88,325.65 194.84,326.16 194.80,326.66 194.60,327.12 194.41,327.58 194.07,327.95 193.74,328.33 193.30,328.58 192.86,328.82 192.37,328.92 191.87,329.02 191.38,328.95 190.88,328.88 190.43,328.66 189.98,328.44 189.62,328.08 189.27,327.73 189.04,327.28 188.82,326.83 188.75,326.33 188.68,325.83 188.78,325.34 188.87,324.84 189.12,324.41 189.36,323.97 189.74,323.63 190.11,323.30 190.57,323.10 191.03,322.90 191.53,322.86 192.03,322.82 192.52,322.94 193.01,323.06 193.43,323.33 193.86,323.60 194.17,323.99 194.49,324.38 194.66,324.85 194.84,325.32 194.85,325.82 194.86,326.33 194.72,326.81 194.57,327.29 194.28,327.70 193.99,328.10 193.58,328.40 193.17,328.69 192.69,328.84 192.21,328.99 191.71,328.98 191.20,328.96 190.73,328.79 190.26,328.62 190.26,328.62 190.26,328.62 187.62,326.91 184.97,325.20 181.20,323.09 177.42,320.99 172.46,317.85 167.51,314.72 159.01,308.97 150.52,303.22 144.92,297.61 139.32,292.00 129.17,280.39 119.02,268.79 112.75,256.69 106.47,244.59 104.50,236.19 102.52,227.78 102.17,223.59 101.82,219.39 101.37,212.20 100.92,205.01 100.91,200.86 100.90,196.70 101.19,189.21 101.47,181.72 102.37,179.19 103.27,176.67 104.92,173.74 106.58,170.81 111.99,172.39 117.39,173.97 117.82,177.09 118.24,180.21 118.19,182.48 118.13,184.76 117.48,187.37 116.84,189.97 114.63,190.23 112.42,190.49 110.66,192.48 108.90,194.47 105.57,193.86 102.24,193.24 96.82,192.42 91.40,191.60 85.23,190.13 79.05,188.65 73.48,185.97 67.90,183.28 63.36,179.42 58.81,175.56 55.12,170.60 51.43,165.64 48.60,160.16 45.77,154.67 43.28,148.71 40.79,142.76 38.90,136.88 37.01,131.01 35.26,125.71 33.52,120.40 31.79,116.85 30.06,113.30 28.75,111.04 27.44,108.77 24.17,104.89 20.89,101.00 17.02,97.62 13.14,94.23 8.81,91.74 4.47,89.26 0.31,87.52 -3.83,85.78 -4.49,83.51 -5.16,81.25 -5.56,77.40 -5.96,73.54 -3.47,74.18 -0.98,74.81 2.04,74.95 5.08,75.09 7.66,74.46 10.24,73.83 12.82,72.61 15.39,71.38 17.41,69.58 19.43,67.78 20.57,65.73 21.71,63.68 22.03,59.59 22.34,55.50 21.97,50.68 21.59,45.86 20.30,41.14 19.02,36.41 16.73,31.93 14.44,27.44 11.74,23.26 9.05,19.08 6.38,15.40 3.72,11.71 1.63,9.30 -0.45,6.89 -2.01,5.02 -3.57,3.15 -3.89,2.67 -4.22,2.20 -4.42,1.66 -4.62,1.12 -4.69,0.55 -4.76,-0.01 -4.69,-0.58 -4.62,-1.15 -4.41,-1.68 -4.21,-2.22 -3.88,-2.69 -3.55,-3.16 -3.12,-3.54 -2.69,-3.92 -2.18,-4.19 -1.67,-4.45 -1.12,-4.59 -0.56,-4.72 0.01,-4.72 0.58,-4.72 1.14,-4.58 1.70,-4.44 2.20,-4.18 2.71,-3.91 3.14,-3.53 3.57,-3.14 3.57,-3.14 L 3.57,-3.15 Z"></path></g></svg>