<?xml version="1.0" standalone="no"?>
<!DOCTYPE svg PUBLIC "-//W3C//DTD SVG 1.1//EN" "http://www.w3.org/Graphics/SVG/1.1/DTD/svg11.dtd">
<svg version="1.1" xmlns="http://www.w3.org/2000/svg" viewBox="0 0 284.09984097818074 282.22682104105735" width="284.09984097818074" height="282.22682104105735"><!-- svg-source:excalidraw --><metadata></metadata><defs><style class="style-fonts">
      </style></defs><g transform="translate(10 10) rotate(0 132.04992048909037 131.11341052052867)" stroke="none"><path fill="#f36d6b" d="M 1.76,-3.58 Q 1.76,-3.58 9.54,0.45 17.32,4.50 21.87,7.17 26.41,9.84 31.55,14.29 36.69,18.74 39.23,20.77 41.76,22.79 44.72,27.31 47.67,31.82 49.18,34.01 50.68,36.20 51.71,40.41 52.74,44.63 52.37,50.61 52.00,56.60 49.38,61.01 46.76,65.41 42.09,67.61 37.42,69.80 32.22,69.59 27.01,69.38 23.08,68.25 19.15,67.13 17.27,65.93 15.39,64.73 14.83,64.34 14.28,63.95 13.84,63.44 13.40,62.93 13.09,62.33 12.78,61.73 12.62,61.07 12.47,60.42 12.47,59.74 12.48,59.07 12.65,58.41 12.82,57.76 13.13,57.17 13.45,56.57 13.90,56.07 14.36,55.57 14.92,55.19 15.47,54.81 16.11,54.58 16.74,54.34 17.41,54.27 18.08,54.19 18.75,54.28 19.42,54.37 20.05,54.61 20.68,54.86 25.28,55.89 29.89,56.91 32.38,57.70 34.87,58.49 41.75,62.25 48.62,66.02 52.31,68.34 55.99,70.66 63.02,75.06 70.05,79.46 78.55,85.29 87.06,91.11 94.96,97.91 102.86,104.71 106.49,108.03 110.11,111.35 114.28,116.72 118.45,122.09 120.63,125.06 122.81,128.02 124.55,133.34 126.30,138.65 127.21,141.44 128.12,144.24 128.32,148.53 128.52,152.82 128.58,155.35 128.64,157.88 127.70,161.32 126.76,164.77 124.50,167.73 122.25,170.69 118.66,172.43 115.07,174.16 109.60,173.27 104.14,172.37 101.55,171.93 98.95,171.49 95.27,169.51 91.59,167.54 88.27,165.90 84.95,164.26 83.77,161.32 82.60,158.39 83.53,156.18 84.47,153.97 88.02,152.72 91.58,151.48 97.71,152.79 103.84,154.10 106.90,154.85 109.96,155.60 116.26,158.52 122.57,161.44 129.92,165.93 137.27,170.43 144.33,176.13 151.40,181.83 158.12,189.01 164.84,196.20 170.71,203.84 176.57,211.48 184.94,220.39 193.30,229.30 205.33,236.69 217.35,244.08 230.91,248.49 244.47,252.90 254.70,256.26 264.94,259.62 265.34,259.82 265.73,260.03 266.04,260.35 266.34,260.66 266.53,261.06 266.72,261.46 266.78,261.90 266.83,262.34 266.74,262.78 266.65,263.21 266.42,263.59 266.20,263.97 265.86,264.26 265.53,264.55 265.12,264.72 264.71,264.89 264.27,264.92 263.83,264.94 263.40,264.83 262.97,264.72 262.60,264.47 262.23,264.23 261.96,263.88 261.69,263.53 261.54,263.11 261.40,262.69 261.39,262.25 261.39,261.81 261.53,261.38 261.67,260.96 261.93,260.61 262.19,260.25 262.56,260.00 262.92,259.75 263.35,259.63 263.77,259.50 264.22,259.52 264.66,259.54 265.07,259.70 265.48,259.86 265.82,260.15 266.16,260.43 266.40,260.81 266.63,261.18 266.73,261.62 266.83,262.05 266.78,262.49 266.74,262.93 266.56,263.33 266.37,263.74 266.07,264.06 265.77,264.38 265.38,264.60 264.99,264.81 264.56,264.88 264.12,264.96 263.68,264.89 263.25,264.82 263.25,264.82 263.25,264.82 253.00,261.50 242.74,258.18 228.58,253.55 214.42,248.93 201.76,241.13 189.11,233.34 180.46,224.26 171.81,215.19 166.03,207.88 160.24,200.56 153.74,193.85 147.23,187.13 140.40,181.92 133.58,176.71 126.50,172.77 119.42,168.83 113.56,166.58 107.70,164.34 104.95,163.60 102.20,162.86 97.70,162.18 93.19,161.49 91.85,159.24 90.50,156.99 92.96,158.76 95.42,160.52 98.13,162.04 100.84,163.55 103.15,164.22 105.47,164.89 110.92,165.02 116.36,165.14 117.91,163.68 119.45,162.21 120.35,159.80 121.25,157.39 121.58,155.26 121.91,153.12 121.74,149.49 121.58,145.86 121.11,143.19 120.64,140.51 119.15,136.00 117.66,131.49 115.77,128.58 113.89,125.66 110.00,120.74 106.12,115.82 102.46,112.66 98.80,109.50 91.08,103.07 83.36,96.65 74.87,91.13 66.37,85.62 59.26,81.58 52.15,77.54 48.42,75.72 44.68,73.90 38.15,70.96 31.62,68.01 29.43,67.21 27.24,66.41 24.20,65.70 21.16,64.99 18.27,64.86 15.39,64.73 14.84,64.34 14.28,63.95 13.84,63.44 13.40,62.93 13.09,62.33 12.78,61.73 12.62,61.07 12.47,60.42 12.47,59.74 12.48,59.07 12.65,58.41 12.81,57.76 13.13,57.17 13.45,56.57 13.90,56.07 14.36,55.57 14.92,55.19 15.47,54.81 16.11,54.58 16.74,54.34 17.41,54.27 18.08,54.19 18.75,54.28 19.42,54.37 20.05,54.61 20.68,54.86 21.94,56.09 23.21,57.32 26.02,58.45 28.83,59.59 32.10,59.99 35.37,60.39 37.83,59.82 40.29,59.25 42.33,56.84 44.36,54.43 45.10,50.33 45.83,46.23 45.13,42.99 44.43,39.75 43.38,37.57 42.33,35.39 39.78,31.65 37.23,27.92 34.92,25.74 32.61,23.56 27.87,19.63 23.13,15.70 18.62,13.35 14.11,11.00 6.17,7.29 -1.76,3.58 -2.16,3.31 -2.57,3.05 -2.90,2.70 -3.22,2.35 -3.46,1.93 -3.69,1.50 -3.82,1.04 -3.95,0.58 -3.96,0.09 -3.97,-0.38 -3.87,-0.85 -3.76,-1.32 -3.55,-1.75 -3.34,-2.18 -3.03,-2.55 -2.72,-2.92 -2.33,-3.20 -1.94,-3.48 -1.49,-3.67 -1.05,-3.85 -0.57,-3.92 -0.10,-3.99 0.37,-3.94 0.85,-3.90 1.31,-3.74 1.76,-3.58 1.76,-3.58 L 1.76,-3.58 Z"></path></g></svg>