<?xml version="1.0" standalone="no"?>
<!DOCTYPE svg PUBLIC "-//W3C//DTD SVG 1.1//EN" "http://www.w3.org/Graphics/SVG/1.1/DTD/svg11.dtd">
<svg version="1.1" xmlns="http://www.w3.org/2000/svg" viewBox="0 0 152.22554736806546 203.18412215454669" width="152.22554736806546" height="203.18412215454669"><!-- svg-source:excalidraw --><metadata></metadata><defs><style class="style-fonts">
      </style></defs><g transform="translate(10 12.247638214774355) rotate(0 66.11277368403273 89.34442286249899)" stroke="none"><path fill="#f36d6b" d="M -0.61,-4.51 Q -0.61,-4.51 1.73,-4.92 4.09,-5.33 6.33,-5.76 8.58,-6.18 12.12,-6.38 15.65,-6.59 20.00,-6.43 24.35,-6.28 28.86,-5.90 33.36,-5.52 35.55,-5.51 37.73,-5.49 40.59,-5.28 43.46,-5.06 47.83,-4.32 52.20,-3.57 55.70,-2.82 59.20,-2.06 62.87,-0.79 66.55,0.48 68.94,1.67 71.33,2.87 73.54,4.01 75.74,5.15 78.28,6.70 80.81,8.25 83.01,9.67 85.20,11.08 87.72,12.78 90.23,14.48 92.09,15.85 93.95,17.23 95.89,18.92 97.82,20.61 100.20,23.74 102.59,26.87 103.89,29.07 105.19,31.28 106.96,34.77 108.72,38.26 109.50,40.47 110.28,42.68 111.15,45.13 112.02,47.58 112.83,51.78 113.63,55.98 113.74,58.99 113.84,62.00 113.81,64.97 113.77,67.93 113.87,71.31 113.97,74.69 113.72,77.30 113.47,79.91 113.08,82.67 112.70,85.44 112.19,88.00 111.68,90.56 110.43,94.82 109.18,99.08 107.95,101.24 106.72,103.40 104.89,105.62 103.07,107.83 100.51,109.99 97.94,112.14 94.76,113.83 91.59,115.53 86.93,116.94 82.27,118.36 78.16,118.28 74.05,118.21 69.52,117.27 64.99,116.33 61.11,115.24 57.24,114.16 53.65,112.65 50.07,111.15 47.06,109.36 44.05,107.58 41.85,105.73 39.65,103.88 38.10,102.09 36.56,100.30 35.48,98.40 34.40,96.49 33.73,94.04 33.05,91.59 32.81,87.53 32.57,83.46 34.18,79.51 35.79,75.57 39.58,72.08 43.37,68.60 46.25,67.33 49.13,66.06 51.86,65.19 54.59,64.32 57.52,63.81 60.45,63.29 63.92,63.10 67.39,62.90 71.04,63.00 74.69,63.11 78.27,63.34 81.86,63.57 85.19,63.88 88.52,64.19 91.47,64.51 94.42,64.82 97.28,65.27 100.15,65.72 102.71,66.21 105.27,66.69 109.20,67.70 113.12,68.71 116.50,70.58 119.89,72.44 121.65,74.21 123.42,75.97 124.94,77.85 126.47,79.73 127.93,81.95 129.40,84.17 130.73,86.82 132.06,89.47 133.11,92.28 134.15,95.10 134.93,97.62 135.70,100.15 136.22,102.49 136.74,104.83 137.07,107.19 137.41,109.55 137.57,111.98 137.72,114.41 137.79,116.74 137.86,119.06 137.66,121.62 137.47,124.17 137.04,126.52 136.62,128.87 135.43,132.82 134.25,136.78 133.20,138.96 132.15,141.14 130.93,143.32 129.71,145.49 127.61,149.32 125.51,153.14 124.20,155.21 122.88,157.28 121.57,159.23 120.25,161.18 118.34,164.51 116.42,167.84 114.51,170.57 112.60,173.30 111.24,175.14 109.87,176.99 108.11,179.03 106.34,181.08 104.46,183.20 102.58,185.32 101.75,185.97 100.92,186.63 99.93,186.99 98.94,187.34 97.88,187.36 96.83,187.38 95.82,187.07 94.82,186.75 93.97,186.13 93.11,185.51 92.50,184.65 91.90,183.78 91.59,182.77 91.29,181.76 91.33,180.71 91.36,179.66 91.74,178.67 92.11,177.68 92.77,176.86 93.44,176.05 94.33,175.49 95.23,174.92 96.25,174.68 97.28,174.43 98.33,174.52 99.38,174.62 100.34,175.04 101.31,175.47 102.09,176.18 102.87,176.89 103.38,177.81 103.89,178.73 104.08,179.77 104.27,180.80 104.12,181.85 103.97,182.89 103.50,183.83 103.02,184.77 102.27,185.51 101.52,186.25 100.57,186.72 99.62,187.18 98.58,187.31 97.53,187.45 96.50,187.24 95.46,187.03 94.55,186.51 93.63,185.98 92.94,185.19 92.24,184.40 91.83,183.43 91.42,182.46 91.34,181.40 91.26,180.35 91.53,179.33 91.79,178.31 92.36,177.43 92.94,176.54 92.94,176.54 92.94,176.54 94.39,174.94 95.84,173.35 98.02,171.18 100.20,169.01 101.65,167.31 103.09,165.62 104.64,163.69 106.19,161.77 108.34,158.20 110.49,154.63 112.82,151.04 115.16,147.45 117.27,143.63 119.38,139.80 121.24,136.31 123.10,132.82 124.19,129.71 125.28,126.60 125.85,122.96 126.43,119.32 126.31,115.17 126.19,111.02 125.64,107.21 125.10,103.40 124.43,101.20 123.76,99.00 122.91,96.79 122.06,94.58 120.97,92.50 119.89,90.42 118.70,88.61 117.51,86.79 115.33,84.07 113.14,81.35 111.19,79.95 109.24,78.55 106.23,77.46 103.22,76.36 100.88,75.81 98.54,75.25 95.94,74.78 93.35,74.31 90.55,73.98 87.76,73.64 84.67,73.44 81.58,73.23 78.16,73.26 74.74,73.29 71.55,73.43 68.36,73.57 65.36,73.97 62.36,74.36 60.20,74.73 58.05,75.10 55.90,75.80 53.76,76.50 50.46,78.11 47.16,79.73 45.28,82.13 43.40,84.53 43.23,86.99 43.06,89.46 43.58,92.05 44.10,94.64 46.32,97.48 48.54,100.33 50.91,101.85 53.29,103.38 56.29,104.58 59.30,105.78 62.81,106.50 66.33,107.22 70.07,107.50 73.81,107.77 77.00,107.50 80.19,107.24 83.23,106.49 86.26,105.73 88.36,104.55 90.46,103.37 92.21,101.81 93.96,100.24 96.07,97.34 98.18,94.44 99.16,91.39 100.15,88.33 100.55,86.22 100.95,84.11 101.34,79.44 101.74,74.77 101.75,71.49 101.77,68.22 101.60,65.48 101.43,62.74 100.83,58.43 100.24,54.12 99.64,51.61 99.04,49.11 98.12,46.44 97.19,43.77 95.69,40.76 94.18,37.75 92.34,34.46 90.50,31.18 88.51,28.94 86.52,26.70 84.88,25.04 83.25,23.38 81.30,21.72 79.36,20.07 77.34,18.74 75.32,17.42 73.01,16.07 70.70,14.72 68.60,13.60 66.51,12.48 64.35,11.38 62.19,10.29 59.16,8.97 56.13,7.66 53.07,6.64 50.01,5.61 46.29,4.53 42.57,3.45 37.82,2.74 33.07,2.03 28.82,2.07 24.57,2.11 20.47,2.48 16.38,2.85 13.22,3.16 10.06,3.48 7.72,3.76 5.37,4.04 2.99,4.27 0.61,4.51 0.06,4.52 -0.48,4.52 -1.01,4.40 -1.55,4.28 -2.04,4.03 -2.53,3.78 -2.94,3.42 -3.36,3.07 -3.68,2.62 -4.00,2.17 -4.20,1.66 -4.40,1.15 -4.47,0.61 -4.55,0.06 -4.49,-0.47 -4.43,-1.02 -4.25,-1.54 -4.06,-2.05 -3.75,-2.51 -3.45,-2.96 -3.04,-3.33 -2.64,-3.70 -2.16,-3.97 -1.67,-4.23 -1.14,-4.37 -0.61,-4.51 -0.61,-4.51 L -0.61,-4.51 Z"></path></g></svg>