<?xml version="1.0" standalone="no"?>
<!DOCTYPE svg PUBLIC "-//W3C//DTD SVG 1.1//EN" "http://www.w3.org/Graphics/SVG/1.1/DTD/svg11.dtd">
<svg version="1.1" xmlns="http://www.w3.org/2000/svg" viewBox="0 0 307.31065351289317 108.00402823319928" width="307.31065351289317" height="108.00402823319928"><!-- svg-source:excalidraw --><metadata></metadata><defs><style class="style-fonts">
      </style></defs><g transform="translate(51.60764951109559 10) rotate(0 121.54037375468624 44.00201411659964)" stroke="none"><path fill="#f36d6b" d="M 1.89,0.17 Q 1.89,0.17 1.59,2.52 1.30,4.88 1.30,5.99 1.30,7.10 0.97,9.52 0.63,11.95 0.59,13.38 0.55,14.81 0.21,17.60 -0.13,20.38 -0.28,21.84 -0.43,23.30 -0.59,26.14 -0.75,28.99 -0.72,30.46 -0.69,31.93 -0.78,34.69 -0.88,37.45 -0.81,38.85 -0.74,40.24 -0.81,42.77 -0.89,45.30 -0.81,46.59 -0.72,47.88 -0.78,49.94 -0.84,52.00 -0.75,53.09 -0.66,54.18 -0.62,55.72 -0.59,57.26 -0.45,59.14 -0.31,61.03 -0.26,62.10 -0.21,63.18 -0.11,64.57 -0.00,65.96 0.05,67.56 0.11,69.17 0.18,70.56 0.24,71.95 0.43,73.65 0.62,75.35 1.89,74.97 3.15,74.59 4.25,74.81 5.35,75.03 7.15,75.36 8.94,75.70 12.60,76.39 16.26,77.08 18.25,77.51 20.23,77.93 23.61,78.50 26.99,79.06 31.41,79.55 35.84,80.03 38.15,80.26 40.46,80.50 43.59,80.72 46.72,80.94 50.01,81.27 53.31,81.60 54.91,81.64 56.52,81.69 59.12,81.89 61.73,82.10 63.06,82.07 64.38,82.03 66.89,82.23 69.39,82.43 70.67,82.39 71.94,82.35 74.22,82.55 76.49,82.75 77.95,82.84 79.40,82.93 82.33,83.28 85.27,83.64 87.15,83.76 89.03,83.88 92.43,84.20 95.83,84.52 97.90,84.66 99.97,84.80 103.67,85.10 107.36,85.39 109.56,85.52 111.76,85.66 115.47,85.72 119.19,85.78 121.21,85.79 123.22,85.80 126.47,85.93 129.72,86.06 131.73,86.09 133.74,86.13 136.52,86.17 139.31,86.20 141.14,86.16 142.97,86.12 145.47,86.14 147.97,86.17 149.47,86.08 150.96,85.99 153.32,86.03 155.68,86.08 157.11,85.99 158.54,85.90 160.88,85.95 163.21,86.01 164.63,85.92 166.05,85.84 168.63,86.01 171.21,86.18 172.71,86.16 174.22,86.13 176.35,86.22 178.48,86.30 179.60,86.21 180.73,86.12 182.89,86.09 185.04,86.06 186.42,85.94 187.80,85.81 190.09,85.76 192.37,85.71 193.49,85.47 194.60,85.22 196.44,85.05 198.27,84.87 201.22,84.46 204.16,84.05 206.67,83.84 209.18,83.64 211.79,83.47 214.39,83.30 216.75,83.04 219.11,82.78 220.70,82.39 222.29,82.00 223.88,81.42 225.46,80.84 226.48,80.10 227.50,79.35 228.48,78.63 229.46,77.91 230.33,77.07 231.19,76.24 232.31,74.74 233.43,73.24 234.46,71.71 235.49,70.18 236.38,68.95 237.26,67.73 238.41,65.74 239.56,63.75 240.05,62.50 240.54,61.24 241.00,59.82 241.46,58.40 241.74,56.80 242.03,55.20 242.17,53.86 242.31,52.51 242.53,50.34 242.76,48.18 242.82,46.81 242.87,45.45 242.89,44.22 242.90,42.99 242.73,41.82 242.56,40.64 242.21,39.29 241.87,37.93 241.24,36.79 240.62,35.65 239.83,34.58 239.05,33.51 238.08,32.36 237.11,31.20 235.90,30.26 234.69,29.31 233.78,28.62 232.87,27.94 231.26,26.97 229.66,26.00 228.08,25.23 226.49,24.46 225.49,24.07 224.49,23.69 223.04,23.14 221.60,22.59 219.99,22.09 218.39,21.59 216.63,21.10 214.87,20.61 213.49,20.33 212.10,20.06 210.97,19.98 209.84,19.90 208.24,19.71 206.63,19.51 204.73,19.34 202.84,19.17 200.89,18.96 198.93,18.76 196.57,18.37 194.22,17.99 191.96,17.69 189.71,17.39 187.15,17.13 184.58,16.87 181.46,16.64 178.33,16.40 175.45,16.07 172.58,15.74 169.67,15.48 166.75,15.23 163.35,14.89 159.94,14.56 156.15,14.31 152.35,14.06 148.14,13.73 143.93,13.40 139.99,13.16 136.06,12.91 132.02,12.69 127.99,12.48 124.13,12.38 120.28,12.29 116.47,12.14 112.66,12.00 108.46,11.82 104.26,11.65 100.10,11.47 95.94,11.29 91.81,11.11 87.67,10.92 83.33,10.73 78.99,10.55 74.99,10.36 70.99,10.17 65.83,9.88 60.68,9.58 56.77,9.35 52.86,9.11 49.49,9.02 46.13,8.92 43.17,8.77 40.21,8.62 37.03,8.55 33.86,8.49 30.98,8.36 28.10,8.22 25.61,8.16 23.11,8.11 20.98,8.08 18.84,8.06 17.29,8.15 15.73,8.24 14.64,8.35 13.55,8.46 11.85,8.64 10.14,8.81 8.04,8.87 5.95,8.93 5.59,8.87 5.24,8.81 4.92,8.64 4.60,8.48 4.36,8.22 4.11,7.95 3.96,7.63 3.81,7.30 3.77,6.95 3.73,6.59 3.81,6.24 3.88,5.89 4.07,5.58 4.26,5.27 4.53,5.04 4.80,4.81 5.14,4.67 5.47,4.54 5.83,4.52 6.19,4.50 6.53,4.60 6.88,4.69 7.18,4.89 7.48,5.10 7.69,5.38 7.91,5.67 8.03,6.01 8.14,6.35 8.14,6.71 8.14,7.07 8.02,7.41 7.91,7.75 7.69,8.04 7.47,8.32 7.18,8.52 6.88,8.72 6.53,8.82 6.19,8.92 5.83,8.90 5.47,8.88 5.14,8.74 4.80,8.61 4.53,8.38 4.25,8.15 4.07,7.84 3.88,7.53 3.81,7.18 3.73,6.83 3.77,6.47 3.81,6.11 3.96,5.79 4.11,5.46 4.36,5.20 4.60,4.94 4.92,4.77 5.24,4.60 5.59,4.55 5.95,4.49 5.95,4.49 5.95,4.49 8.05,4.55 10.15,4.61 11.85,4.79 13.56,4.97 14.66,5.09 15.75,5.21 17.31,5.32 18.87,5.43 21.02,5.46 23.17,5.48 25.70,5.54 28.22,5.60 31.07,5.73 33.92,5.86 37.13,5.93 40.34,5.99 43.27,6.14 46.20,6.29 49.61,6.39 53.01,6.49 56.92,6.72 60.83,6.96 65.97,7.25 71.11,7.54 75.11,7.73 79.10,7.92 83.45,8.10 87.79,8.29 91.92,8.47 96.06,8.65 100.21,8.83 104.36,9.01 108.56,9.18 112.76,9.35 116.55,9.49 120.34,9.63 124.23,9.72 128.13,9.81 132.18,10.01 136.23,10.22 140.18,10.46 144.13,10.69 148.33,11.00 152.53,11.31 156.36,11.54 160.20,11.77 163.59,12.07 166.98,12.37 169.94,12.58 172.89,12.80 175.70,13.06 178.52,13.32 181.68,13.48 184.84,13.63 187.44,13.78 190.05,13.92 192.35,14.07 194.66,14.22 196.95,14.38 199.23,14.54 201.11,14.61 202.99,14.67 205.05,14.64 207.11,14.60 208.71,14.72 210.32,14.84 211.69,15.00 213.05,15.15 214.50,15.43 215.95,15.70 217.81,16.01 219.68,16.31 221.53,16.65 223.38,17.00 225.00,17.43 226.62,17.86 227.76,18.25 228.90,18.65 230.97,19.65 233.04,20.64 234.68,21.61 236.31,22.58 237.37,23.44 238.42,24.31 239.47,25.08 240.51,25.84 241.69,27.15 242.86,28.46 244.01,29.99 245.16,31.52 245.82,32.84 246.48,34.16 247.00,35.62 247.53,37.07 247.74,38.45 247.96,39.82 248.21,41.43 248.45,43.04 248.44,44.30 248.43,45.57 248.43,47.03 248.43,48.49 248.17,50.95 247.92,53.42 247.62,54.94 247.31,56.46 246.83,58.16 246.35,59.87 245.91,61.46 245.47,63.05 244.85,64.83 244.22,66.62 243.04,68.72 241.86,70.82 240.51,72.84 239.16,74.87 237.94,76.39 236.72,77.91 235.91,78.95 235.09,79.99 233.70,81.06 232.31,82.14 231.00,82.80 229.70,83.47 228.25,84.11 226.80,84.74 224.89,85.02 222.99,85.29 221.25,85.60 219.52,85.91 217.11,86.27 214.69,86.64 212.15,86.94 209.60,87.23 207.08,87.62 204.56,88.00 202.77,88.22 200.98,88.43 199.81,88.54 198.64,88.65 196.88,88.83 195.11,89.00 193.84,89.08 192.56,89.16 190.24,89.36 187.92,89.57 186.56,89.53 185.21,89.49 182.96,89.67 180.71,89.85 179.58,89.75 178.45,89.64 176.28,89.68 174.11,89.73 172.59,89.61 171.07,89.50 168.56,89.45 166.05,89.41 164.63,89.32 163.21,89.24 160.88,89.30 158.54,89.35 157.11,89.26 155.68,89.17 153.32,89.21 150.96,89.26 149.46,89.16 147.97,89.06 145.46,89.09 142.96,89.11 141.12,89.05 139.29,88.99 136.48,88.98 133.67,88.97 131.64,88.91 129.62,88.85 126.41,88.74 123.20,88.64 121.17,88.61 119.15,88.58 115.38,88.54 111.61,88.51 109.38,88.42 107.15,88.33 103.48,88.10 99.80,87.86 97.69,87.78 95.58,87.69 92.20,87.48 88.81,87.27 86.88,87.14 84.94,87.02 81.96,86.81 78.97,86.59 77.63,86.35 76.30,86.11 74.04,86.05 71.78,85.98 70.50,85.83 69.21,85.68 66.71,85.60 64.20,85.52 62.87,85.35 61.54,85.18 58.90,85.07 56.27,84.95 54.66,84.75 53.05,84.55 49.79,84.29 46.54,84.03 43.38,83.89 40.22,83.75 37.87,83.63 35.52,83.51 31.00,83.17 26.48,82.84 23.01,82.48 19.54,82.12 17.58,81.89 15.61,81.66 12.01,81.32 8.41,80.98 5.28,80.71 2.15,80.44 -0.05,80.05 -2.27,79.67 -3.27,78.84 -4.27,78.01 -4.78,76.10 -5.29,74.18 -5.39,73.07 -5.49,71.96 -5.42,70.56 -5.35,69.17 -5.29,67.56 -5.23,65.96 -5.13,64.57 -5.03,63.18 -4.98,62.10 -4.93,61.03 -4.79,59.14 -4.65,57.25 -4.61,55.71 -4.57,54.17 -4.48,53.08 -4.39,52.00 -4.45,49.94 -4.51,47.88 -4.42,46.59 -4.33,45.30 -4.41,42.76 -4.48,40.22 -4.39,38.83 -4.31,37.43 -4.37,34.63 -4.42,31.83 -4.32,30.35 -4.21,28.88 -4.18,25.80 -4.16,22.72 -3.87,21.39 -3.59,20.06 -3.41,17.30 -3.22,14.53 -3.05,13.06 -2.87,11.58 -2.70,9.18 -2.53,6.78 -2.35,5.67 -2.16,4.56 -2.02,2.19 -1.89,-0.17 -1.84,-0.39 -1.79,-0.61 -1.69,-0.82 -1.59,-1.03 -1.44,-1.20 -1.30,-1.38 -1.11,-1.51 -0.93,-1.65 -0.72,-1.74 -0.50,-1.82 -0.28,-1.86 -0.05,-1.89 0.17,-1.87 0.39,-1.85 0.61,-1.78 0.83,-1.70 1.02,-1.58 1.21,-1.45 1.37,-1.29 1.52,-1.12 1.64,-0.92 1.75,-0.72 1.81,-0.50 1.87,-0.28 1.88,-0.05 1.89,0.17 1.89,0.17 L 1.89,0.17 Z"></path></g><g transform="translate(52.537552332522864 22.418750956084267) rotate(0 -21.268776166261432 26.657199046499443)" stroke="none"><path fill="#f36d6b" d="M -0.09,2.12 Q -0.09,2.12 -1.24,2.13 -2.38,2.14 -4.01,2.02 -5.63,1.89 -7.74,1.72 -9.85,1.55 -11.02,1.60 -12.19,1.64 -14.02,1.59 -15.85,1.55 -18.68,1.52 -21.51,1.50 -23.48,1.36 -25.46,1.22 -27.01,1.17 -28.57,1.12 -29.82,1.21 -31.07,1.29 -32.52,1.39 -33.97,1.49 -35.26,1.69 -36.55,1.89 -37.69,1.93 -38.83,1.96 -38.37,3.24 -37.90,4.51 -38.23,6.20 -38.56,7.90 -38.69,8.98 -38.82,10.07 -39.04,11.81 -39.26,13.56 -39.27,14.62 -39.29,15.69 -39.44,17.44 -39.59,19.20 -39.59,21.51 -39.59,23.82 -39.52,25.40 -39.45,26.98 -39.34,28.06 -39.23,29.14 -39.14,30.29 -39.05,31.44 -39.04,33.56 -39.03,35.68 -39.07,37.05 -39.10,38.43 -39.12,39.71 -39.13,40.99 -39.10,42.71 -39.07,44.43 -39.17,46.48 -39.27,48.53 -39.36,50.05 -39.46,51.57 -39.98,50.63 -40.51,49.70 -38.95,49.43 -37.39,49.16 -35.24,49.22 -33.10,49.27 -30.72,49.58 -28.33,49.88 -25.81,50.24 -23.29,50.60 -21.12,50.96 -18.94,51.32 -17.56,51.37 -16.18,51.42 -14.96,51.42 -13.75,51.42 -12.43,51.37 -11.11,51.33 -9.62,51.25 -8.12,51.17 -7.15,52.34 -6.17,53.50 -6.04,53.05 -5.91,52.60 -5.64,52.21 -5.37,51.83 -5.00,51.55 -4.62,51.27 -4.17,51.13 -3.73,50.98 -3.26,50.99 -2.79,50.99 -2.35,51.15 -1.91,51.30 -1.54,51.59 -1.17,51.88 -0.91,52.27 -0.65,52.66 -0.53,53.11 -0.41,53.56 -0.44,54.03 -0.48,54.50 -0.65,54.93 -0.83,55.36 -1.14,55.72 -1.45,56.07 -1.85,56.31 -2.25,56.54 -2.71,56.64 -3.17,56.73 -3.64,56.68 -4.10,56.62 -4.52,56.42 -4.95,56.22 -5.28,55.89 -5.62,55.57 -5.83,55.15 -6.05,54.73 -6.12,54.27 -6.19,53.81 -6.11,53.35 -6.03,52.89 -5.80,52.48 -5.58,52.06 -5.23,51.75 -4.89,51.43 -4.46,51.24 -4.04,51.05 -3.57,51.00 -3.10,50.95 -2.65,51.06 -2.19,51.17 -1.79,51.41 -1.39,51.66 -1.10,52.02 -0.80,52.38 -0.63,52.82 -0.46,53.25 -0.44,53.72 -0.42,54.19 -0.42,54.19 -0.42,54.19 -4.29,55.51 -8.16,56.82 -9.47,56.73 -10.78,56.64 -12.06,56.43 -13.34,56.23 -14.91,55.92 -16.47,55.62 -17.92,55.47 -19.37,55.32 -21.51,55.22 -23.64,55.11 -26.10,55.09 -28.56,55.06 -30.83,55.17 -33.11,55.27 -35.27,55.31 -37.43,55.36 -39.16,55.33 -40.89,55.31 -42.38,54.92 -43.87,54.53 -44.68,52.86 -45.49,51.20 -45.32,49.63 -45.15,48.07 -45.05,46.25 -44.96,44.43 -44.92,42.71 -44.89,41.00 -44.91,39.71 -44.92,38.43 -44.96,37.06 -45.00,35.69 -45.00,34.57 -45.01,33.46 -44.98,31.50 -44.94,29.55 -44.93,28.26 -44.91,26.97 -44.83,25.37 -44.74,23.77 -44.66,21.39 -44.58,19.00 -44.58,17.23 -44.59,15.46 -44.51,14.35 -44.44,13.25 -44.28,10.24 -44.12,7.22 -43.83,4.40 -43.54,1.58 -42.63,-0.60 -41.73,-2.78 -40.19,-3.30 -38.66,-3.82 -37.55,-3.72 -36.45,-3.63 -35.20,-3.60 -33.96,-3.57 -32.45,-3.45 -30.94,-3.34 -29.64,-3.15 -28.35,-2.97 -26.83,-2.86 -25.31,-2.75 -23.35,-2.74 -21.39,-2.74 -18.61,-2.65 -15.83,-2.56 -13.97,-2.59 -12.11,-2.62 -10.93,-2.53 -9.76,-2.44 -7.52,-2.51 -5.29,-2.57 -3.74,-2.46 -2.19,-2.34 -1.05,-2.23 0.09,-2.12 0.34,-2.08 0.59,-2.04 0.83,-1.93 1.06,-1.83 1.27,-1.68 1.47,-1.52 1.63,-1.32 1.80,-1.13 1.91,-0.89 2.01,-0.66 2.06,-0.41 2.12,-0.16 2.10,0.09 2.09,0.34 2.02,0.59 1.95,0.84 1.82,1.06 1.69,1.28 1.51,1.46 1.33,1.65 1.12,1.78 0.90,1.92 0.66,2.00 0.41,2.08 0.16,2.10 -0.09,2.12 -0.09,2.12 L -0.09,2.12 Z"></path></g><g transform="translate(31.51985633160757 36.139218430189345) rotate(0 -0.34743690021809925 2.7732728666891973)" stroke="none"><path fill="#f36d6b" d="M 2.41,0.32 Q 2.41,0.32 2.30,1.43 2.18,2.53 2.03,4.15 1.88,5.78 1.77,6.18 1.67,6.59 1.44,6.94 1.21,7.29 0.88,7.55 0.55,7.81 0.16,7.95 -0.23,8.09 -0.65,8.10 -1.07,8.10 -1.47,7.98 -1.86,7.85 -2.20,7.60 -2.54,7.35 -2.78,7.01 -3.02,6.67 -3.14,6.27 -3.26,5.86 -3.24,5.45 -3.23,5.03 -3.08,4.64 -2.93,4.24 -2.66,3.92 -2.40,3.60 -2.04,3.37 -1.69,3.15 -1.28,3.06 -0.87,2.96 -0.46,3.00 -0.04,3.04 0.33,3.21 0.72,3.37 1.03,3.66 1.34,3.94 1.54,4.31 1.74,4.67 1.81,5.09 1.89,5.50 1.83,5.91 1.77,6.33 1.58,6.70 1.39,7.07 1.09,7.37 0.79,7.66 0.41,7.84 0.03,8.02 -0.37,8.08 -0.79,8.13 -1.20,8.05 -1.61,7.96 -1.97,7.75 -2.33,7.54 -2.61,7.23 -2.89,6.91 -3.05,6.53 -3.21,6.14 -3.24,5.72 -3.27,5.30 -3.27,5.30 -3.27,5.30 -3.03,3.57 -2.78,1.84 -2.60,0.75 -2.41,-0.32 -2.33,-0.61 -2.26,-0.89 -2.12,-1.15 -1.98,-1.41 -1.78,-1.62 -1.58,-1.84 -1.34,-2.00 -1.09,-2.17 -0.82,-2.27 -0.54,-2.37 -0.25,-2.40 0.03,-2.43 0.32,-2.39 0.61,-2.35 0.89,-2.24 1.16,-2.13 1.40,-1.96 1.64,-1.79 1.83,-1.57 2.02,-1.35 2.15,-1.09 2.28,-0.82 2.35,-0.54 2.42,-0.25 2.41,0.03 2.41,0.33 2.41,0.33 L 2.41,0.32 Z"></path></g><g transform="translate(31.693538335664698 36.30207264353186) rotate(0 3.988576409690495 4.515129088987692)" stroke="none"><path fill="#f36d6b" d="M 0,-2.62 Q 0,-2.62 0.89,-2.66 1.79,-2.70 2.87,-2.72 3.95,-2.74 5.27,-2.80 6.60,-2.86 8.09,-2.23 9.59,-1.59 10.11,-0.47 10.63,0.64 10.77,1.75 10.90,2.87 10.97,4.41 11.04,5.95 11.10,7.23 11.16,8.51 10.32,9.75 9.49,11.00 7.74,11.43 6.00,11.86 4.77,11.68 3.54,11.51 1.83,11.49 0.12,11.47 -0.40,11.38 -0.92,11.29 -1.40,11.03 -1.87,10.77 -2.23,10.38 -2.59,9.99 -2.81,9.50 -3.03,9.01 -3.08,8.48 -3.13,7.94 -3.01,7.42 -2.89,6.90 -2.61,6.44 -2.33,5.99 -1.92,5.65 -1.50,5.30 -1.00,5.11 -0.50,4.92 0.02,4.90 0.56,4.87 1.07,5.02 1.59,5.17 2.03,5.48 2.47,5.79 2.79,6.22 3.11,6.65 3.27,7.16 3.44,7.67 3.43,8.20 3.42,8.74 3.25,9.24 3.07,9.75 2.74,10.17 2.41,10.59 1.96,10.89 1.51,11.19 1.00,11.32 0.48,11.46 -0.05,11.42 -0.58,11.39 -1.08,11.18 -1.57,10.98 -1.98,10.63 -2.38,10.28 -2.65,9.81 -2.92,9.35 -3.03,8.83 -3.14,8.30 -3.07,7.77 -3.01,7.24 -2.78,6.75 -2.55,6.27 -2.17,5.89 -1.80,5.50 -1.32,5.26 -0.85,5.01 -0.32,4.93 0.20,4.85 0.20,4.85 0.20,4.85 2.29,4.92 4.38,4.99 5.79,5.31 7.19,5.64 6.01,6.46 4.84,7.27 4.86,6.19 4.89,5.10 5.74,3.98 6.59,2.86 5.27,2.80 3.95,2.74 2.87,2.72 1.79,2.70 0.89,2.66 0,2.62 -0.31,2.58 -0.62,2.55 -0.92,2.43 -1.22,2.32 -1.48,2.14 -1.74,1.96 -1.95,1.72 -2.16,1.49 -2.30,1.21 -2.45,0.93 -2.53,0.62 -2.60,0.31 -2.60,-0.00 -2.60,-0.31 -2.53,-0.62 -2.45,-0.93 -2.30,-1.21 -2.16,-1.49 -1.95,-1.72 -1.74,-1.96 -1.48,-2.14 -1.22,-2.32 -0.92,-2.43 -0.62,-2.55 -0.31,-2.58 0.00,-2.62 0.00,-2.62 L 0,-2.62 Z"></path></g><g transform="translate(27.696824516550805 62.87583011066897) rotate(0 0.25785250445903785 2.7766524096906835)" stroke="none"><path fill="#f36d6b" d="M 2.43,-0.40 Q 2.43,-0.40 2.62,0.48 2.82,1.37 2.97,3.42 3.12,5.46 3.07,5.88 3.02,6.30 2.83,6.68 2.65,7.06 2.35,7.36 2.05,7.66 1.67,7.85 1.30,8.04 0.88,8.10 0.46,8.16 0.04,8.09 -0.36,8.01 -0.73,7.80 -1.10,7.60 -1.39,7.29 -1.67,6.97 -1.84,6.59 -2.01,6.20 -2.05,5.78 -2.09,5.36 -1.99,4.95 -1.89,4.53 -1.66,4.18 -1.44,3.82 -1.11,3.55 -0.78,3.28 -0.39,3.13 0.00,2.99 0.42,2.97 0.84,2.96 1.25,3.08 1.65,3.20 2.00,3.44 2.34,3.69 2.59,4.03 2.84,4.37 2.97,4.77 3.10,5.18 3.09,5.60 3.08,6.02 2.94,6.42 2.80,6.82 2.53,7.15 2.27,7.48 1.92,7.71 1.56,7.94 1.15,8.05 0.74,8.15 0.32,8.12 -0.09,8.09 -0.48,7.93 -0.87,7.76 -1.19,7.48 -1.50,7.20 -1.71,6.83 -1.93,6.47 -2.01,6.05 -2.09,5.64 -2.09,5.64 -2.09,5.64 -2.16,3.92 -2.23,2.21 -2.33,1.30 -2.43,0.40 -2.44,0.10 -2.45,-0.19 -2.40,-0.48 -2.34,-0.77 -2.21,-1.04 -2.08,-1.31 -1.90,-1.54 -1.71,-1.77 -1.47,-1.95 -1.23,-2.13 -0.96,-2.25 -0.69,-2.36 -0.39,-2.41 -0.10,-2.46 0.19,-2.44 0.48,-2.41 0.76,-2.32 1.05,-2.23 1.30,-2.07 1.55,-1.91 1.76,-1.70 1.96,-1.48 2.11,-1.22 2.26,-0.97 2.35,-0.68 2.43,-0.40 2.43,-0.40 L 2.43,-0.40 Z"></path></g><g transform="translate(29.42851560362533 59.57803229048346) rotate(0 2.765817992421148 4.33393257166847)" stroke="none"><path fill="#f36d6b" d="M 0.82,-2.49 Q 0.82,-2.49 1.58,-2.28 2.33,-2.07 3.42,-2.05 4.51,-2.04 6.34,-1.22 8.18,-0.40 8.66,0.77 9.13,1.94 9.12,3.12 9.11,4.30 9.13,5.80 9.15,7.30 8.54,8.86 7.93,10.43 6.95,10.98 5.98,11.54 4.85,11.67 3.73,11.80 1.39,11.69 -0.94,11.58 -1.45,11.46 -1.97,11.34 -2.41,11.05 -2.86,10.77 -3.20,10.36 -3.53,9.95 -3.72,9.46 -3.91,8.96 -3.92,8.43 -3.94,7.91 -3.79,7.40 -3.64,6.89 -3.34,6.46 -3.03,6.03 -2.60,5.72 -2.18,5.40 -1.67,5.24 -1.17,5.08 -0.64,5.09 -0.11,5.10 0.38,5.28 0.88,5.46 1.29,5.79 1.71,6.12 2.00,6.56 2.28,7.00 2.42,7.52 2.55,8.03 2.51,8.56 2.47,9.08 2.27,9.57 2.06,10.06 1.71,10.46 1.36,10.85 0.90,11.12 0.44,11.38 -0.07,11.49 -0.58,11.59 -1.11,11.52 -1.63,11.45 -2.11,11.22 -2.59,10.99 -2.96,10.62 -3.34,10.25 -3.58,9.78 -3.82,9.31 -3.89,8.78 -3.97,8.26 -3.87,7.74 -3.78,7.22 -3.52,6.76 -3.26,6.29 -2.87,5.94 -2.48,5.58 -2.00,5.37 -1.51,5.15 -0.99,5.11 -0.46,5.06 -0.46,5.06 -0.46,5.06 1.28,5.56 3.02,6.06 3.59,4.85 4.15,3.63 2.40,3.35 0.64,3.06 -0.09,2.77 -0.82,2.49 -1.11,2.35 -1.40,2.22 -1.64,2.02 -1.89,1.82 -2.08,1.56 -2.27,1.31 -2.39,1.02 -2.52,0.73 -2.57,0.42 -2.62,0.10 -2.59,-0.20 -2.57,-0.52 -2.47,-0.82 -2.37,-1.12 -2.20,-1.39 -2.03,-1.65 -1.80,-1.87 -1.57,-2.09 -1.30,-2.25 -1.03,-2.41 -0.72,-2.50 -0.42,-2.59 -0.10,-2.60 0.20,-2.61 0.51,-2.55 0.82,-2.49 0.82,-2.49 L 0.82,-2.49 Z"></path></g><g transform="translate(85.23188747822905 47.8104503061779) rotate(0 72.24482207064352 5.385030084126683)" stroke="none"><path fill="#f36d6b" d="M -0.05,-2.25 Q -0.05,-2.25 1.83,-2.23 3.72,-2.22 4.94,-2.30 6.15,-2.38 9.04,-2.21 11.93,-2.05 13.45,-2.07 14.96,-2.09 17.44,-1.98 19.92,-1.87 21.08,-1.95 22.24,-2.03 24.10,-1.56 25.96,-1.09 26.49,0.93 27.03,2.95 28.10,4.29 29.16,5.62 34.13,6.62 39.09,7.62 42.06,8.01 45.03,8.40 52.39,8.65 59.74,8.90 64.19,9.04 68.64,9.17 77.16,9.25 85.69,9.33 94.31,9.37 102.93,9.42 106.99,9.45 111.05,9.48 113.87,9.45 116.68,9.43 117.97,9.29 119.27,9.16 120.80,8.96 122.34,8.76 124.25,8.65 126.17,8.53 128.64,8.66 131.11,8.78 134.15,8.87 137.20,8.96 139.28,8.97 141.35,8.97 142.90,8.88 144.44,8.78 144.73,8.82 145.02,8.86 145.29,8.99 145.55,9.12 145.76,9.33 145.96,9.54 146.09,9.80 146.22,10.06 146.26,10.36 146.30,10.65 146.24,10.93 146.19,11.22 146.04,11.48 145.90,11.73 145.68,11.93 145.46,12.12 145.19,12.24 144.92,12.36 144.62,12.38 144.33,12.40 144.05,12.33 143.76,12.26 143.51,12.10 143.27,11.94 143.08,11.71 142.90,11.48 142.80,11.20 142.70,10.93 142.69,10.63 142.69,10.34 142.77,10.06 142.86,9.78 143.03,9.54 143.20,9.30 143.44,9.13 143.68,8.96 143.96,8.88 144.25,8.79 144.54,8.80 144.83,8.81 145.11,8.91 145.38,9.01 145.61,9.20 145.84,9.38 146.00,9.63 146.16,9.88 146.23,10.16 146.30,10.45 146.27,10.74 146.25,11.04 146.13,11.31 146.01,11.57 145.81,11.79 145.62,12.01 145.36,12.15 145.10,12.30 144.82,12.35 144.53,12.41 144.53,12.41 144.53,12.41 142.98,12.38 141.43,12.36 139.32,12.47 137.20,12.57 134.16,12.66 131.11,12.76 128.64,12.88 126.17,13.00 124.26,12.89 122.35,12.78 120.84,12.61 119.32,12.43 118.02,12.34 116.73,12.25 113.89,12.31 111.05,12.38 106.99,12.40 102.92,12.42 94.30,12.44 85.68,12.46 77.13,12.48 68.58,12.49 64.12,12.49 59.66,12.48 52.17,12.39 44.67,12.31 41.62,12.14 38.56,11.98 33.78,11.49 29.00,11.00 27.62,10.30 26.24,9.60 24.36,7.98 22.47,6.36 22.35,4.19 22.23,2.02 21.07,1.93 19.91,1.85 17.41,1.94 14.91,2.03 13.39,1.98 11.88,1.93 9.05,2.01 6.23,2.09 5.03,2.06 3.84,2.02 1.95,2.13 0.05,2.25 -0.21,2.22 -0.48,2.20 -0.73,2.11 -0.99,2.02 -1.22,1.87 -1.44,1.72 -1.63,1.52 -1.81,1.32 -1.95,1.09 -2.08,0.85 -2.15,0.59 -2.22,0.33 -2.23,0.05 -2.24,-0.21 -2.18,-0.47 -2.12,-0.74 -2.00,-0.98 -1.88,-1.23 -1.71,-1.43 -1.53,-1.64 -1.31,-1.80 -1.09,-1.96 -0.84,-2.06 -0.59,-2.17 -0.32,-2.21 -0.05,-2.25 -0.05,-2.25 L -0.05,-2.25 Z"></path></g></svg>