<?xml version="1.0" standalone="no"?>
<!DOCTYPE svg PUBLIC "-//W3C//DTD SVG 1.1//EN" "http://www.w3.org/Graphics/SVG/1.1/DTD/svg11.dtd">
<svg version="1.1" xmlns="http://www.w3.org/2000/svg" viewBox="0 0 225.2861575389354 155.5209449617205" width="225.2861575389354" height="155.5209449617205"><!-- svg-source:excalidraw --><metadata></metadata><defs><style class="style-fonts">
      </style></defs><g stroke-linecap="round" transform="translate(77.74879022100981 113.98055819263959) rotate(0 17.41495553990103 15.770193384540448)"><path d="M18.28 0.26 C21.9 0.35, 27.43 2.87, 30.33 5.21 C33.23 7.56, 35.44 11.25, 35.66 14.34 C35.88 17.43, 33.82 20.92, 31.66 23.76 C29.49 26.6, 26.32 30.21, 22.66 31.39 C19 32.58, 13.36 32.35, 9.72 30.88 C6.08 29.41, 2.33 25.89, 0.83 22.57 C-0.68 19.26, -0.38 14.28, 0.69 10.98 C1.77 7.67, 4.01 4.53, 7.28 2.73 C10.55 0.93, 17.72 0.26, 20.32 0.18 C22.92 0.1, 22.67 1.89, 22.86 2.26 M20.89 -0.68 C23.92 0.04, 28.07 3.62, 30.39 6.62 C32.71 9.61, 35.11 13.88, 34.81 17.27 C34.51 20.66, 31.41 24.45, 28.57 26.96 C25.73 29.46, 21.44 32.19, 17.76 32.3 C14.08 32.41, 9.46 29.93, 6.49 27.61 C3.51 25.3, 0.79 21.45, -0.09 18.4 C-0.97 15.34, -0.39 11.91, 1.19 9.3 C2.78 6.68, 5.9 4.26, 9.43 2.71 C12.96 1.16, 20.3 0.38, 22.38 0 C24.46 -0.39, 22.16 0.23, 21.92 0.43" stroke="#f36d6b" stroke-width="1" fill="none"></path></g><g transform="translate(45.60255502548284 111.46653587282276) rotate(0 53.747726829724115 -10.294435960668721)" stroke="none"><path fill="#f36d6b" d="M -2.12,-0.39 Q -2.12,-0.39 -1.78,-2.11 -1.44,-3.82 -0.98,-5.35 -0.51,-6.89 0.29,-8.34 1.09,-9.79 2.59,-11.71 4.08,-13.62 5.67,-14.91 7.26,-16.21 9.70,-16.98 12.13,-17.76 15.55,-18.56 18.96,-19.35 20.60,-19.75 22.24,-20.14 25.38,-20.54 28.52,-20.94 32.69,-21.19 36.87,-21.44 41.87,-21.63 46.87,-21.82 52.02,-21.89 57.17,-21.95 61.98,-21.75 66.79,-21.55 70.75,-21.35 74.72,-21.15 77.71,-20.95 80.70,-20.75 83.26,-20.55 85.83,-20.35 88.24,-20.05 90.65,-19.74 92.53,-19.55 94.41,-19.37 95.76,-19.15 97.10,-18.92 99.05,-18.40 101.00,-17.88 102.43,-17.16 103.87,-16.44 104.91,-15.86 105.95,-15.27 107.56,-13.70 109.18,-12.14 109.46,-11.82 109.74,-11.50 109.91,-11.10 110.07,-10.71 110.10,-10.28 110.13,-9.85 110.02,-9.43 109.92,-9.02 109.68,-8.66 109.45,-8.30 109.11,-8.03 108.77,-7.77 108.37,-7.63 107.96,-7.48 107.53,-7.48 107.10,-7.47 106.69,-7.60 106.28,-7.73 105.94,-7.99 105.59,-8.24 105.35,-8.59 105.10,-8.94 104.98,-9.36 104.86,-9.77 104.87,-10.20 104.89,-10.63 105.04,-11.03 105.20,-11.43 105.47,-11.76 105.74,-12.09 106.11,-12.32 106.47,-12.55 106.89,-12.64 107.31,-12.74 107.73,-12.70 108.16,-12.66 108.55,-12.49 108.95,-12.31 109.26,-12.02 109.58,-11.73 109.79,-11.36 109.99,-10.98 110.07,-10.56 110.14,-10.14 110.08,-9.71 110.02,-9.29 109.82,-8.90 109.63,-8.52 109.32,-8.22 109.01,-7.92 108.63,-7.73 108.24,-7.55 107.81,-7.50 107.39,-7.44 106.97,-7.53 106.55,-7.61 106.17,-7.83 105.80,-8.05 105.80,-8.05 105.80,-8.05 104.53,-9.51 103.26,-10.97 102.41,-11.69 101.57,-12.41 100.36,-13.32 99.15,-14.24 97.71,-14.96 96.27,-15.68 95.16,-16.09 94.05,-16.49 92.19,-16.77 90.32,-17.05 87.97,-17.34 85.63,-17.62 83.08,-17.79 80.53,-17.97 77.56,-18.14 74.59,-18.31 70.64,-18.47 66.68,-18.63 61.96,-18.77 57.23,-18.91 52.13,-18.77 47.02,-18.63 42.08,-18.34 37.13,-18.05 33.11,-17.68 29.09,-17.30 26.13,-16.74 23.16,-16.17 21.58,-15.82 20.01,-15.47 16.87,-14.50 13.73,-13.53 11.89,-12.70 10.06,-11.86 8.71,-10.95 7.35,-10.04 6.15,-8.77 4.94,-7.50 4.28,-6.50 3.61,-5.49 3.17,-4.27 2.72,-3.04 2.42,-1.32 2.12,0.39 2.05,0.64 1.97,0.89 1.83,1.11 1.70,1.33 1.51,1.52 1.33,1.70 1.10,1.84 0.88,1.97 0.63,2.05 0.38,2.13 0.12,2.14 -0.13,2.16 -0.39,2.11 -0.64,2.06 -0.88,1.95 -1.12,1.85 -1.32,1.68 -1.53,1.52 -1.69,1.32 -1.85,1.11 -1.96,0.87 -2.06,0.64 -2.11,0.38 -2.16,0.12 -2.14,-0.13 -2.12,-0.39 -2.12,-0.39 L -2.12,-0.39 Z"></path></g><g transform="translate(27.603729426903328 80.0139768334555) rotate(0 80.72401544027798 -14.230771630999584)" stroke="none"><path fill="#f36d6b" d="M -1.26,-1.00 Q -1.26,-1.00 0.37,-3.01 2.02,-5.03 2.87,-6.20 3.71,-7.36 6.35,-9.12 8.98,-10.88 12.59,-12.67 16.21,-14.46 20.36,-16.08 24.51,-17.69 28.66,-19.02 32.82,-20.35 37.64,-21.46 42.46,-22.56 48.17,-23.67 53.88,-24.78 59.98,-25.79 66.08,-26.80 71.91,-27.55 77.75,-28.30 83.93,-28.73 90.10,-29.16 97.04,-29.34 103.99,-29.52 110.74,-29.27 117.49,-29.02 122.86,-28.48 128.23,-27.94 132.48,-27.17 136.74,-26.39 139.77,-25.51 142.81,-24.63 144.89,-23.81 146.96,-22.99 148.78,-21.99 150.60,-21.00 152.29,-19.66 153.98,-18.33 155.39,-16.88 156.81,-15.43 157.91,-14.19 159.00,-12.95 159.76,-11.99 160.53,-11.03 161.78,-9.28 163.04,-7.53 163.18,-7.25 163.33,-6.96 163.38,-6.64 163.42,-6.33 163.37,-6.01 163.31,-5.70 163.16,-5.41 163.00,-5.13 162.77,-4.92 162.53,-4.70 162.24,-4.57 161.95,-4.44 161.63,-4.41 161.31,-4.38 161.00,-4.45 160.68,-4.52 160.41,-4.69 160.14,-4.86 159.93,-5.11 159.73,-5.36 159.62,-5.66 159.50,-5.96 159.49,-6.28 159.48,-6.60 159.57,-6.90 159.66,-7.21 159.84,-7.47 160.02,-7.74 160.28,-7.93 160.54,-8.12 160.85,-8.22 161.15,-8.31 161.47,-8.31 161.79,-8.31 162.09,-8.20 162.40,-8.09 162.65,-7.89 162.90,-7.70 163.08,-7.43 163.25,-7.16 163.33,-6.85 163.42,-6.54 163.39,-6.22 163.37,-5.90 163.25,-5.60 163.13,-5.31 162.92,-5.07 162.70,-4.83 162.43,-4.66 162.15,-4.50 161.84,-4.44 161.52,-4.37 161.20,-4.41 160.89,-4.45 160.60,-4.59 160.31,-4.73 160.08,-4.95 159.85,-5.18 159.85,-5.18 159.85,-5.18 158.66,-7.09 157.48,-9.01 156.97,-9.97 156.45,-10.92 155.56,-12.17 154.67,-13.42 153.44,-14.78 152.22,-16.15 150.72,-17.37 149.22,-18.60 147.61,-19.57 145.99,-20.55 144.03,-21.32 142.07,-22.10 139.17,-22.95 136.26,-23.80 132.11,-24.55 127.96,-25.31 122.67,-25.84 117.39,-26.37 110.72,-26.61 104.06,-26.86 97.17,-26.67 90.28,-26.49 84.19,-26.06 78.10,-25.63 72.31,-24.88 66.52,-24.12 60.46,-23.11 54.41,-22.09 48.75,-20.97 43.09,-19.84 38.39,-18.74 33.70,-17.64 29.65,-16.30 25.59,-14.96 21.59,-13.34 17.59,-11.73 14.19,-9.97 10.78,-8.21 8.56,-6.67 6.33,-5.14 5.38,-4.14 4.42,-3.13 2.84,-1.06 1.26,1.00 1.13,1.13 0.99,1.27 0.82,1.37 0.65,1.47 0.47,1.53 0.28,1.59 0.09,1.60 -0.10,1.61 -0.29,1.57 -0.48,1.54 -0.66,1.46 -0.84,1.37 -0.99,1.25 -1.14,1.13 -1.26,0.98 -1.38,0.83 -1.46,0.65 -1.54,0.47 -1.57,0.28 -1.61,0.09 -1.60,-0.10 -1.58,-0.29 -1.52,-0.48 -1.47,-0.66 -1.36,-0.83 -1.26,-1.00 -1.26,-1.00 L -1.26,-1.00 Z"></path></g><g transform="translate(10.374661148329096 43.32270664104132) rotate(0 102.26841762113861 -14.217610332746048)" stroke="none"><path fill="#f36d6b" d="M -1.31,-0.94 Q -1.31,-0.94 0.33,-3.17 1.98,-5.40 2.85,-6.58 3.72,-7.76 6.42,-9.80 9.12,-11.84 13.40,-14.51 17.69,-17.19 22.90,-19.73 28.10,-22.28 31.50,-23.78 34.90,-25.28 39.31,-26.68 43.73,-28.09 50.16,-29.55 56.58,-31.01 64.85,-32.06 73.11,-33.11 81.82,-33.56 90.53,-34.00 98.66,-33.97 106.79,-33.94 114.58,-33.39 122.37,-32.83 130.12,-31.84 137.86,-30.85 144.51,-29.67 151.16,-28.49 156.56,-27.45 161.97,-26.41 164.92,-25.75 167.88,-25.09 170.66,-24.37 173.44,-23.65 176.18,-22.69 178.91,-21.72 182.54,-19.54 186.17,-17.36 188.67,-15.56 191.17,-13.77 193.03,-12.11 194.88,-10.46 196.79,-8.20 198.69,-5.94 200.16,-3.89 201.62,-1.84 202.71,-0.36 203.81,1.10 205.02,2.48 206.23,3.87 206.36,4.10 206.48,4.34 206.53,4.61 206.57,4.87 206.53,5.14 206.49,5.41 206.37,5.64 206.24,5.88 206.05,6.07 205.85,6.26 205.61,6.37 205.36,6.49 205.09,6.52 204.83,6.55 204.56,6.49 204.30,6.44 204.07,6.30 203.83,6.16 203.66,5.96 203.48,5.75 203.38,5.50 203.28,5.25 203.26,4.98 203.25,4.71 203.32,4.45 203.39,4.19 203.54,3.97 203.69,3.74 203.90,3.58 204.12,3.41 204.37,3.33 204.63,3.24 204.90,3.24 205.17,3.24 205.42,3.32 205.68,3.40 205.89,3.57 206.11,3.73 206.26,3.95 206.42,4.17 206.49,4.43 206.56,4.69 206.55,4.96 206.54,5.23 206.44,5.48 206.34,5.73 206.17,5.94 205.99,6.15 205.76,6.29 205.53,6.43 205.27,6.49 205.01,6.55 204.74,6.52 204.47,6.49 204.22,6.38 203.98,6.27 203.78,6.08 203.58,5.90 203.58,5.90 203.59,5.90 202.51,4.32 201.44,2.74 200.46,1.21 199.48,-0.31 198.08,-2.28 196.68,-4.25 194.90,-6.37 193.13,-8.50 191.38,-10.07 189.64,-11.63 187.22,-13.37 184.80,-15.11 181.41,-17.18 178.02,-19.25 175.40,-20.17 172.78,-21.10 170.04,-21.81 167.31,-22.51 164.39,-23.16 161.47,-23.82 156.08,-24.85 150.69,-25.88 144.11,-27.05 137.53,-28.22 129.85,-29.20 122.18,-30.18 114.48,-30.73 106.78,-31.27 98.72,-31.29 90.66,-31.32 82.06,-30.87 73.46,-30.42 65.33,-29.38 57.19,-28.33 50.89,-26.88 44.58,-25.43 40.32,-24.05 36.07,-22.67 32.74,-21.15 29.41,-19.64 24.37,-17.12 19.33,-14.60 15.21,-11.94 11.09,-9.29 8.72,-7.41 6.34,-5.52 5.41,-4.57 4.47,-3.62 2.89,-1.33 1.31,0.94 1.18,1.08 1.05,1.22 0.88,1.33 0.72,1.44 0.54,1.50 0.35,1.57 0.16,1.59 -0.02,1.61 -0.22,1.58 -0.41,1.56 -0.59,1.49 -0.77,1.41 -0.93,1.30 -1.09,1.19 -1.21,1.04 -1.34,0.89 -1.43,0.72 -1.52,0.54 -1.56,0.35 -1.60,0.16 -1.60,-0.02 -1.60,-0.22 -1.55,-0.41 -1.50,-0.59 -1.40,-0.77 -1.31,-0.94 -1.31,-0.94 L -1.31,-0.94 Z"></path></g></svg>